<svg width="177" height="31" viewBox="0 0 177 31" fill="none" xmlns="http://www.w3.org/2000/svg">
<path d="M149.431 5.41554V11.0104H145.162C145.162 7.49784 145.162 5.20521 143.479 5.31038C142.028 5.31038 142.281 6.99304 142.26 8.25503C142.26 11.9989 144.194 12.693 146.15 14.1443C148.758 16.1004 149.663 17.3624 149.684 22.8942C149.684 26.9746 148.317 30.1086 143.879 30.1086C138.663 30.1086 137.948 27.7529 137.948 18.8558C138.621 18.8558 141.355 18.8558 142.26 18.8558C142.26 20.3071 142.26 22.4314 142.26 23.1886C142.26 23.9458 142.112 25.7337 143.879 25.7337C144.952 25.7337 145.351 24.8503 145.351 22.3263C145.351 19.4447 144.51 18.5403 143.542 17.8252C141.629 16.3739 137.99 14.9436 137.99 10.5056C137.99 6.48824 137.359 0.409632 143.921 0.472732C147.812 0.514798 149.452 2.66019 149.431 5.41554Z" fill="white"/>
<path d="M4.92231 12.1042H8.035V1.20896H12.3044V29.8352H8.01397V17.9094H4.96437V29.8352H0.631836V1.20896H4.90127C4.92231 1.20896 4.92231 12.1042 4.92231 12.1042Z" fill="white"/>
<path d="M45.4716 25.0607C47.028 25.0607 48.2058 25.0607 49.7411 25.0607V29.8352H40.8867V1.20896H45.4506L45.4716 25.0607Z" fill="white"/>
<path d="M59.5626 5.73111H55.2301V12.3987C56.9547 12.3987 58.0273 12.3987 59.5206 12.3987V17.4046H55.2301V25.0186C56.8285 25.0186 57.8801 25.0186 59.4995 25.0186V29.8352H50.6873V1.20896H59.5416L59.5626 5.73111Z" fill="white"/>
<path d="M64.5266 1.20896C65.0945 4.23775 65.5992 7.22447 66.5036 10.5688C67.471 7.20344 67.7234 4.42705 68.6698 1.23H72.8972C71.7194 7.26654 70.1631 12.4828 68.6068 18.0776C68.6068 22.6629 68.6068 25.1448 68.6068 29.5828H64.2952C64.2952 24.8714 64.2952 21.5691 64.2952 17.9935C62.8651 12.3566 61.2246 6.8669 60.0679 1.23L64.5266 1.20896Z" fill="white"/>
<path d="M110.102 0.977478C110.628 6.53025 111.196 12.3775 111.784 17.9303C111.784 17.9303 113.151 5.98339 113.824 0.977478H118.073L114.098 29.6037H109.534L105.748 0.977478H110.081H110.102Z" fill="white"/>
<path d="M123.226 29.6037H118.894V0.977478H123.205L123.226 29.6037Z" fill="white"/>
<path d="M169.706 0.977478C170.653 5.35239 171.515 9.83247 172.482 14.1022L172.314 0.977478H176.626V29.3513H171.578C170.61 24.0089 169.685 19.003 168.633 13.6395L168.76 29.3513H164.217V0.977478H169.706Z" fill="white"/>
<path d="M162.555 6.40428C162.555 9.1386 162.555 24.7663 162.555 24.7663C162.555 27.7741 159.653 30.3611 156.666 30.3191C154.184 30.277 151.093 28.9519 151.093 24.7032C151.093 20.6228 151.093 13.9973 151.093 6.29911C151.093 0.788402 154.605 0.283602 157.045 0.262569C159.295 0.241535 162.555 1.12493 162.555 6.40428ZM155.152 6.48841C155.152 10.1482 155.152 16.984 155.152 23.5253C155.152 25.9862 158.159 26.6593 158.159 23.946C158.159 17.3626 158.159 8.15004 158.159 6.50944C158.202 4.57439 155.173 4.51129 155.152 6.48841Z" fill="white"/>
<path d="M89.4069 1.20896C91.6363 1.20896 93.1716 2.78646 93.1926 6.13075C93.1926 12.2094 93.1926 19.571 93.2347 24.7452C93.2978 27.4795 91.1315 29.7721 88.3974 29.8352C88.2922 29.8352 88.2081 29.8352 88.1029 29.8352C86.5466 29.8352 84.4434 29.8352 81.9617 29.8352V1.20896H89.4069ZM86.2732 5.54181V25.0186C86.9041 25.0186 86.8621 25.0186 87.8085 25.0186C88.4815 24.9345 88.9442 24.3245 88.8601 23.6725C88.8601 23.6725 88.8601 23.6725 88.8601 23.6515C88.8601 20.1389 88.818 7.98167 88.818 6.88794C88.818 4.95288 86.2732 5.54181 86.2732 5.54181Z" fill="white"/>
<path d="M131.891 0.977478C134.057 0.977478 136.539 2.23947 136.539 6.02545V24.9343C136.539 28.0052 134.688 29.6037 131.029 29.6037H125.098V0.977478H131.891ZM131.071 5.52065C130.293 5.52065 129.662 5.52065 129.662 5.52065V25.0185C132.186 25.0185 132.48 24.9133 132.501 23.6513C132.501 23.6513 132.501 11.9989 132.501 7.09814C132.48 6.27785 131.87 5.60478 131.071 5.52065Z" fill="white"/>
<path d="M34.5773 1.20896C38.7416 1.20896 39.2253 6.10971 39.2253 9.11746C39.2253 10.4846 39.3305 13.0507 37.0801 15.3012C38.4892 16.5632 39.2253 17.5728 39.2463 20.6857C39.2463 23.6725 39.2463 26.1965 39.2463 29.8773H36.4281C35.9233 29.8773 34.6825 29.4566 34.7035 28.6153C34.7035 26.8064 34.7035 22.9573 34.7035 20.812C34.7035 19.0452 33.6519 18.8559 32.6634 18.8559H31.9063V29.8352H27.2793L27.3424 1.20896C29.2142 1.20896 29.8031 1.20896 34.5773 1.20896ZM31.8852 5.75214V13.3451H33.5678C34.0094 13.3451 34.5142 13.0086 34.4932 11.8728C34.5352 10.5688 34.4932 8.59163 34.4932 7.35067C34.5142 5.77318 33.5678 5.77318 31.8852 5.75214Z" fill="white"/>
<path d="M106.968 29.5829H102.93C102.447 27.2693 102.257 25.0187 101.837 22.663H98.7871L97.9459 29.5829H93.8657C94.707 20.118 96.3264 10.4006 97.2729 0.956665H103.414L106.968 29.5829ZM100.238 7.09837L99.2919 17.3205H101.227C101.101 13.9131 100.764 10.5058 100.238 7.09837Z" fill="white"/>
<path d="M23.0096 1.20896C24.1243 10.4636 25.1128 19.7603 26.1433 29.8352H22.1683C21.8318 27.2902 21.4953 24.619 21.285 22.9784H18.3405L17.5413 29.8352H13.4612C14.4497 20.4123 15.4802 10.9894 16.3846 1.20896H23.0096ZM19.5393 7.01414L19.0346 17.3415H20.6961C20.3806 13.7238 20.1493 10.737 19.5393 7.01414Z" fill="white"/>
<path d="M80.027 13.8501H72.1611V17.4047H80.027V13.8501Z" fill="white"/>
</svg>
