<svg width="109" height="57" viewBox="0 0 109 57" fill="none" xmlns="http://www.w3.org/2000/svg">
<path d="M54.5011 4.78096C53.1028 4.83466 51.7789 5.14056 50.7692 5.64254C47.4444 7.30023 45.853 11.1408 44.8991 13.4359C44.8014 13.6741 44.7106 13.8936 44.6269 14.092C42.861 18.1989 42.5911 21.2341 43.8265 23.1206C44.7758 24.5682 46.5394 25.3013 49.0708 25.3013C50.1294 25.3013 51.3276 25.1682 52.5468 24.909C56.9604 23.9728 61.2483 22.4062 65.2245 20.8559C75.9385 16.7654 81.1989 12.7146 82.5437 11.5775C82.8066 11.3697 82.9672 11.225 83.0626 11.1222C83.3278 10.8631 83.6303 10.5012 83.6303 9.96653C83.6303 8.97658 82.4833 8.66363 81.7969 8.47451C81.7155 8.45116 81.6456 8.43482 81.5805 8.41381C73.6584 6.037 64.4893 4.78096 55.0618 4.78096H54.5011ZM44.4734 22.6981C43.3915 21.0404 43.6776 18.248 45.3342 14.398C45.4249 14.1995 45.5133 13.9754 45.6134 13.7349C46.5254 11.5402 48.0448 7.86524 51.1113 6.33596C52.0233 5.88768 53.2355 5.6074 54.5221 5.55604H55.0618C64.4125 5.55604 73.5072 6.80293 81.3595 9.15639C81.4293 9.1774 81.5085 9.20073 81.5946 9.22408C82.0669 9.35249 82.8578 9.56961 82.8578 9.96653C82.8578 10.1603 82.7624 10.3308 82.5065 10.5853C82.4274 10.6717 82.2925 10.7906 82.0575 10.9727C80.729 12.1004 75.5522 16.0837 64.9429 20.1322C61.0016 21.6708 56.7485 23.2258 52.3885 24.1503C51.2228 24.4002 50.0759 24.5238 49.0708 24.5238C46.814 24.5238 45.2667 23.9122 44.4734 22.6981Z" fill="url(#paint0_radial)"/>
<path d="M0.836426 28.287C0.836426 43.6779 25.0891 56.2017 54.9 56.2017C84.7086 56.2017 108.964 43.6779 108.964 28.287C108.964 12.8985 84.7086 0.37941 54.9 0.37941C25.0891 0.37941 0.836426 12.8985 0.836426 28.287ZM1.67639 28.287C1.67639 13.3631 25.5497 1.22232 54.9 1.22232C84.2433 1.22232 108.124 13.3631 108.124 28.287C108.124 43.2156 84.2433 55.3588 54.9 55.3588C25.5497 55.3588 1.67639 43.2156 1.67639 28.287Z" fill="url(#paint1_radial)"/>
<path d="M35.2068 6.74773C17.0499 10.446 5.31909 18.8979 5.31909 28.286C5.31909 33.4552 8.89743 38.3909 15.6795 42.5749C16.1588 42.8597 16.5869 42.9975 17.008 42.9975H17.0103C17.6547 42.9508 17.9828 42.5608 18.2318 42.1639C18.3295 41.9934 18.4528 41.7343 18.5784 41.4635L18.6831 41.2534C24.5741 27.5623 31.0374 16.388 37.3728 8.92604C37.5962 8.63886 37.7265 8.45435 37.8545 8.24188C38.2058 7.6792 38.0568 7.19367 37.8218 6.94852C37.6101 6.69636 37.2146 6.57729 36.6446 6.57729C36.2491 6.57729 35.7699 6.63332 35.2068 6.74773ZM16.0797 41.9118C9.5419 37.882 6.08919 33.1704 6.08919 28.286C6.08919 19.2831 17.578 11.1277 35.3603 7.50642C35.8675 7.40369 36.3143 7.35009 36.6563 7.35009C37.1193 7.35009 37.2309 7.44812 37.2471 7.4668C37.3193 7.53685 37.2961 7.67229 37.1938 7.84273C37.0821 8.0225 36.968 8.19059 36.7773 8.4334C30.4 15.9444 23.8971 27.1863 17.9782 40.9335L17.8851 41.1273C17.7618 41.3841 17.6478 41.6293 17.571 41.7694C17.364 42.0916 17.208 42.2082 16.9847 42.2246C16.7288 42.2246 16.4333 42.1219 16.0797 41.9118Z" fill="url(#paint2_radial)"/>
<path d="M57.4231 31.6251C52.7977 32.601 48.3935 34.2821 44.8547 35.6293L44.7593 35.6642C33.9917 39.7781 28.7568 43.8243 27.3957 44.9754C27.312 45.0501 27.2375 45.1154 27.1654 45.1762C27.0607 45.2649 26.9747 45.342 26.9026 45.412C26.6652 45.6431 26.3489 46.0166 26.3489 46.5536C26.3489 47.5529 27.6191 47.9172 28.2985 48.1133L28.4266 48.1553C36.3324 50.4971 45.4899 51.7392 54.9174 51.7392H54.9779C55.036 51.7438 55.1174 51.7486 55.2058 51.7486C55.2849 51.7486 55.378 51.7438 55.4502 51.7392C56.7787 51.7111 58.1468 51.403 59.2054 50.8917C62.5534 49.2177 64.1423 45.3466 65.0939 43.0352C65.1823 42.818 65.2662 42.6219 65.3383 42.4445C67.1088 38.3353 67.3787 35.2977 66.1433 33.4112C65.1987 31.9636 63.4304 31.2329 60.9013 31.2329C59.8451 31.2329 58.6422 31.3682 57.4231 31.6251ZM28.6498 47.4105L28.5126 47.3709C28.0961 47.2494 27.1212 46.9669 27.1212 46.5536C27.1212 46.3598 27.212 46.1894 27.447 45.9629C27.5098 45.9022 27.5819 45.8393 27.668 45.7646C27.7447 45.7015 27.824 45.6338 27.9054 45.5591C29.2339 44.4384 34.3826 40.4552 45.0315 36.3904L45.1247 36.3553C48.6402 35.0128 53.0188 33.3459 57.5859 32.3816C58.7492 32.1341 59.8962 32.0057 60.9013 32.0057C63.1581 32.0057 64.7054 32.6221 65.4988 33.8361C66.5806 35.4915 66.2899 38.2839 64.6287 42.134C64.5519 42.3208 64.4704 42.5214 64.382 42.7409C63.4723 44.9496 61.946 48.6502 58.8655 50.1958C57.5417 50.8356 56.3506 50.9641 54.9174 50.9641C45.5667 50.9641 36.4812 49.7336 28.6498 47.4105Z" fill="url(#paint3_radial)"/>
<path d="M92.9566 13.5804C92.4308 13.6084 92.0213 13.8932 91.7584 14.4022C91.5815 14.6754 91.3886 15.077 91.2862 15.3011C87.9917 23.0339 81.1816 37.5142 72.5987 47.6402C72.3684 47.9133 72.2242 48.1001 72.1055 48.3289C71.824 48.8052 71.8426 49.2979 72.1497 49.6341C72.3591 49.8792 72.7151 49.9936 73.2386 49.9936C73.6039 49.9936 74.0529 49.9399 74.6253 49.8302C92.7752 46.1132 104.506 37.6543 104.506 28.2802C104.506 23.0573 100.972 18.1192 94.2875 13.9983C93.8245 13.7065 93.4452 13.5734 93.1009 13.5734C93.0404 13.5734 92.9822 13.5757 92.9566 13.5804ZM72.7221 49.1204C72.6244 49.013 72.7081 48.8263 72.7802 48.7095C72.8663 48.5414 72.9593 48.4084 73.1873 48.1422C81.8377 37.9416 88.6826 23.3771 91.9887 15.6186C92.1469 15.2894 92.3005 14.9953 92.4238 14.7945C92.582 14.4956 92.7449 14.3672 93.0287 14.3532C93.0497 14.3485 93.0753 14.3486 93.1009 14.3486C93.2917 14.3486 93.5476 14.449 93.8804 14.6544C100.325 18.6305 103.731 23.3421 103.731 28.2802C103.731 37.2714 92.2447 45.4314 74.474 49.0713C73.9622 49.1694 73.548 49.2185 73.2386 49.2185C72.8151 49.2185 72.7268 49.1274 72.7221 49.1204Z" fill="url(#paint4_radial)"/>
<path d="M35.3094 7.15633C36.4355 6.92519 37.294 6.92519 37.5429 7.22404C37.7128 7.39915 37.7756 7.698 37.5429 8.06689C37.4289 8.26068 37.3079 8.43579 37.0939 8.7113C27.6176 19.8692 20.4167 36.3411 18.3716 41.0854C18.2111 41.4216 18.0575 41.7531 17.9412 41.9609C17.7248 42.2948 17.4852 42.5609 17.0315 42.5913C16.7965 42.5913 16.4498 42.5353 15.924 42.2271C9.65145 38.3537 5.76135 33.5207 5.76135 28.2884C5.76135 18.8349 17.9389 10.6889 35.3094 7.15633ZM44.9904 14.2611C45.8745 12.2111 47.4101 7.77972 50.9442 6.01462C52.0168 5.48463 53.3406 5.24414 54.5133 5.19745H55.0647C64.9388 5.19745 74.1197 6.56797 81.8254 8.92843C81.9068 8.92843 82.0674 9.0008 82.1209 9.02415C82.8398 9.2623 83.1911 9.58683 83.2074 9.98842C83.2074 10.348 83.0166 10.6118 82.7561 10.864C82.6537 10.9807 82.4955 11.1185 82.2698 11.2889C80.4969 12.7878 75.1434 16.6589 65.0714 20.5019C61.5303 21.8865 57.0865 23.5558 52.4705 24.5364C49.7344 25.1108 39.6601 26.6424 44.9904 14.2611ZM92.0369 14.6323C92.2161 14.2844 92.4767 14.0089 92.9303 13.9856C93.1909 13.9505 93.5143 14.0206 94.0355 14.3428C100.327 18.2232 104.056 23.0352 104.056 28.2791C104.056 37.7466 91.9066 45.8623 74.5222 49.4229C73.3984 49.64 72.6725 49.64 72.4142 49.3528C72.2467 49.1684 72.1979 48.8695 72.4142 48.4983C72.5236 48.2928 72.6469 48.1341 72.8703 47.8679C82.3396 36.6983 89.5637 20.2381 91.5949 15.4681C91.7414 15.16 91.9066 14.8401 92.0369 14.6323ZM64.9714 42.2691C64.0943 44.3307 62.5517 48.7551 59.0269 50.5179C57.9636 51.0339 56.6375 51.3024 55.4393 51.3234C55.1833 51.3444 54.9949 51.3234 54.9134 51.3234C45.0393 51.3234 35.8282 49.9622 28.1294 47.6251C28.0713 47.6017 27.9061 47.5223 27.9061 47.5223C27.136 47.2795 26.7707 46.9503 26.7707 46.5324C26.7707 46.1845 26.9475 45.923 27.2058 45.6685C27.3221 45.5518 27.4826 45.4257 27.6897 45.2413C29.4579 43.7423 34.8324 39.8619 44.9067 36.0189C48.4454 34.6717 52.8683 32.9743 57.503 32.0007C60.2344 31.424 70.311 29.8924 64.9714 42.2691ZM54.8995 55.7104C84.4754 55.7104 108.444 43.4318 108.444 28.2884C108.444 13.145 84.4754 0.866432 54.8995 0.866432C25.3421 0.866432 1.35474 13.145 1.35474 28.2884C1.35474 43.4318 25.3421 55.7104 54.8995 55.7104Z" fill="white"/>
<path d="M1.90234 28.2856C1.90234 43.1044 25.678 55.1612 54.9003 55.1612C84.1226 55.1612 107.896 43.1044 107.896 28.2856C107.896 13.4714 84.1226 1.41466 54.9003 1.41466C25.678 1.41466 1.90234 13.4714 1.90234 28.2856ZM46.4198 25.1243C45.2053 24.7694 44.2909 24.1273 43.693 23.2144C42.4226 21.2719 42.6879 18.1807 44.4794 14.0248L44.7516 13.3733C45.7102 11.0572 47.3179 7.1792 50.6961 5.49582C51.7245 4.98684 53.0717 4.67165 54.4909 4.62028H54.5001H55.0609C64.5023 4.62028 73.6901 5.87869 81.6239 8.25783L81.8379 8.32082C82.5196 8.50526 83.7899 8.85091 83.7899 9.9646C83.7899 10.56 83.4595 10.9522 83.2013 11.2044C83.0826 11.3375 82.9152 11.4915 82.6592 11.6876C81.8496 12.3717 79.6578 14.0854 75.7561 16.2241C73.0944 17.6856 69.6325 19.3457 65.2724 21.0128C61.2939 22.5677 57.0013 24.132 52.5853 25.0683C51.3569 25.3274 50.1447 25.4676 49.0768 25.4676C48.074 25.4676 47.1852 25.3508 46.4198 25.1243ZM15.5921 42.7075C8.75882 38.4979 5.15498 33.5155 5.15498 28.2856C5.15498 18.8157 16.9393 10.2984 35.1776 6.5884C35.7476 6.47166 36.2455 6.4134 36.6503 6.4134C37.2762 6.4134 37.695 6.55349 37.9183 6.81498C37.9555 6.85234 37.9882 6.89426 38.0231 6.94095C38.2651 7.26082 38.372 7.77453 38.0137 8.34889C37.8858 8.55669 37.7578 8.74821 37.5065 9.0634C31.1967 16.495 24.7543 27.6411 18.8633 41.323L18.7703 41.5145C18.6354 41.79 18.5168 42.049 18.3981 42.2545C18.2097 42.5534 17.9351 42.8943 17.4674 43.0554C17.3255 43.1091 17.1649 43.1441 16.9835 43.1581C16.5577 43.1581 16.1039 43.0157 15.5921 42.7075ZM72.0313 49.7469C72.0033 49.7166 71.9754 49.6815 71.9498 49.6465C71.7101 49.3266 71.5961 48.8082 71.9312 48.2432C72.0708 47.9841 72.2196 47.7857 72.4546 47.5102C81.0119 37.4146 87.8056 22.9693 91.0978 15.2365C91.2048 15.0217 91.3933 14.6155 91.5515 14.3774C91.7818 13.9314 92.0936 13.6418 92.4612 13.5134C92.6008 13.462 92.7498 13.4293 92.9056 13.4223C92.9685 13.413 93.0312 13.4108 93.101 13.4108C93.4779 13.4108 93.8804 13.5507 94.369 13.8542C101.105 18.0101 104.664 22.995 104.664 28.2786C104.664 37.7368 92.8869 46.254 74.6533 49.9873C74.0739 50.0971 73.6133 50.1532 73.2387 50.1532C72.6664 50.1532 72.2686 50.0201 72.0313 49.7469ZM54.9166 51.8996C45.4752 51.8996 36.2967 50.6575 28.3792 48.3064L28.2536 48.269C27.5323 48.0589 26.1875 47.6712 26.1875 46.5528C26.1875 45.9528 26.5319 45.5467 26.7855 45.3015C26.86 45.2245 26.953 45.145 27.06 45.054L27.302 44.8415C27.9465 44.2952 29.4821 43.0834 32.0809 41.5215C34.9263 39.8054 39.0561 37.662 44.7121 35.5047L44.8074 35.4673C48.3485 34.1178 52.7552 32.4415 57.3875 31.4586C58.6137 31.2017 59.8258 31.0687 60.8914 31.0687C61.8034 31.0687 62.6201 31.162 63.3367 31.3511C63.346 31.3535 63.353 31.3535 63.3623 31.3558C63.3669 31.3558 63.3715 31.3582 63.3762 31.3605C64.6768 31.7084 65.6493 32.3621 66.2775 33.3217C67.5432 35.2595 67.2779 38.3485 65.4841 42.502L65.2421 43.0927C64.2836 45.4298 62.6758 49.3336 59.2697 51.038C58.1948 51.561 56.8035 51.8715 55.4867 51.8972C55.3843 51.9065 55.2889 51.9088 55.2075 51.9088C55.1098 51.9088 55.033 51.9043 54.9166 51.8996Z" fill="url(#paint5_linear)"/>
<path d="M68.7083 33.5917C68.7781 37.4114 67.9825 45.8516 60.3977 51.6862C60.3977 51.6862 57.6918 52.5876 52.6989 52.6109L51.4124 54.6422C54.772 54.92 64.2599 55.2771 77.838 52.3003V52.305L79.0548 49.494C75.3043 50.9625 66.0955 53.5915 70.6953 47.9787C75.3834 42.2632 80.7463 32.3146 82.5192 28.9338L68.7083 33.5917Z" fill="url(#paint6_linear)"/>
<path d="M46.3569 3.89425C44.8702 5.80877 43.5835 7.91709 42.4063 10.0347C41.2942 12.045 40.2914 14.1253 39.4678 16.2733C38.8163 17.9706 37.8787 20.5202 37.6507 22.9181C37.3854 25.6311 38.0207 28.1502 40.9732 29.0444C41.1732 29.1051 41.4012 29.173 41.6664 29.2407C43.3904 29.6609 46.6803 29.9971 54.0882 27.9939L53.4344 24.3166C53.1133 24.3936 52.7923 24.4637 52.4689 24.5338C52.106 24.6085 51.6174 24.7018 51.0497 24.7789C50.4541 24.8559 49.7771 24.9167 49.0744 24.9167C46.3918 24.9167 43.3788 24.0458 43.4486 20.079V20.072C43.4486 20.0603 43.4486 20.0509 43.4486 20.0439V20.0299C43.4486 20.0229 43.4486 20.0136 43.4486 20.0066V19.9879C43.4486 19.9879 43.4485 19.9879 43.4509 19.9879C43.4509 19.9552 43.4533 19.9225 43.4533 19.8921V19.8899C43.5114 18.44 43.9698 16.5908 44.9796 14.2467C45.6868 12.603 46.8153 9.43005 49.0511 7.32175C49.0535 7.32175 49.0534 7.32175 49.0534 7.32175C49.065 7.31241 49.072 7.30301 49.0837 7.29367C49.086 7.29367 49.086 7.29131 49.0883 7.28897C49.0976 7.27963 49.1069 7.27494 49.1139 7.2656C49.1162 7.26327 49.1209 7.26101 49.1233 7.25634C49.1302 7.25167 49.1372 7.24467 49.1441 7.23767C49.1488 7.233 49.1534 7.23065 49.1581 7.22598C49.1627 7.22131 49.1698 7.21435 49.1721 7.21202C49.1791 7.20501 49.186 7.20036 49.193 7.19335C49.1953 7.19102 49.1977 7.18856 49.2024 7.18623C49.2117 7.17922 49.2163 7.16995 49.2257 7.16528C49.228 7.16528 49.2279 7.163 49.2279 7.163C49.5653 6.86181 49.9236 6.58628 50.3099 6.34346L46.9105 3.46232C46.6872 3.58139 46.4941 3.72381 46.3569 3.89425Z" fill="url(#paint7_linear)"/>
<path d="M83.2418 9.92258C83.2418 9.93892 83.2441 9.95061 83.2441 9.96462V9.96704C83.2441 10.1258 83.2068 10.2659 83.1417 10.3943C83.0626 10.5577 82.9393 10.7001 82.795 10.8449C82.7694 10.8729 82.7368 10.9033 82.7066 10.9336C82.6856 10.9523 82.6647 10.971 82.6438 10.9944C82.5507 11.0761 82.4413 11.1671 82.3064 11.2675C81.6805 11.7975 80.6057 12.624 79.0398 13.6396C76.1618 15.5005 71.6156 18.0057 65.0871 20.4969C63.74 21.0199 62.2627 21.5872 60.6969 22.1428C58.1353 23.0487 55.3363 23.9221 52.4699 24.5338C51.7254 24.6902 50.4458 24.9167 49.0754 24.9167C47.9145 24.9167 46.6929 24.7532 45.6855 24.2489L41.0625 29.0725C41.2416 29.1262 41.4394 29.1846 41.6674 29.2407C43.3915 29.6609 46.6813 29.9971 54.0892 27.9939C57.4512 27.0833 61.667 25.6871 66.9694 23.5998C76.0362 20.0486 86.6572 13.9455 88.4976 9.68218C88.5487 9.56544 88.5581 9.46268 88.5394 9.36696L83.2418 9.92258Z" fill="url(#paint8_linear)"/>
<path d="M44.677 3.31102C34.5841 4.32198 25.3195 6.82023 17.9115 10.5932C8.4329 15.4239 3.20972 21.7091 3.20972 28.2862C3.20972 34.868 8.4329 41.1531 17.9115 45.9815C18.328 46.1893 18.7562 46.4018 19.1796 46.6049C19.4542 46.731 19.7101 46.7334 19.9125 46.6517L17.3368 42.5238C17.2857 42.5471 17.2298 42.5657 17.1717 42.5798C17.1112 42.5961 17.0484 42.6054 16.9832 42.6101C16.7506 42.6101 16.3992 42.5517 15.8757 42.2412C9.59388 38.3678 5.70148 33.5278 5.70148 28.2862C5.70148 18.821 17.8884 10.6703 35.2845 7.12841C35.8126 7.02101 36.2825 6.96495 36.6571 6.96495C37.0852 6.96495 37.3899 7.03967 37.5249 7.19609C37.5295 7.2031 37.5365 7.21013 37.5435 7.21947C37.5714 7.25215 37.5924 7.28485 37.6134 7.32221L45.1726 3.50953C45.1237 3.38111 44.9562 3.30874 44.7003 3.30874C44.6933 3.30874 44.6863 3.31102 44.677 3.31102Z" fill="url(#paint9_linear)"/>
<path d="M42.902 32.9761C33.8305 36.5273 23.2095 42.6257 21.3691 46.889C21.304 47.0454 21.3109 47.1832 21.3644 47.3139L26.7483 46.6929C26.7413 46.6509 26.7342 46.6041 26.7342 46.5551V46.5388C26.7412 46.2026 26.9158 45.9388 27.174 45.6889C27.288 45.5769 27.4485 45.4484 27.6555 45.264C29.4238 43.7627 34.8053 39.88 44.8958 36.0299C46.5384 35.4018 48.3741 34.6991 50.3331 34.029C52.5946 33.2585 55.019 32.5302 57.5038 32.0072C58.246 31.8484 59.5325 31.6218 60.9006 31.6218C64.5813 31.6218 68.8809 33.2563 64.9838 42.2895C64.665 43.0437 64.2533 44.1153 63.6856 45.2593C62.7293 47.1948 61.3311 49.3312 59.1766 50.4729L62.9666 53.1088C63.1876 52.9874 63.3691 52.8497 63.5111 52.6816C65.0001 50.7647 66.2844 48.6588 67.4594 46.5388C68.5715 44.5286 69.5743 42.4505 70.3979 40.3049C71.0517 38.6028 71.9893 36.0556 72.2197 33.6578C72.4826 30.9448 71.8474 28.4209 68.8949 27.529C68.183 27.3142 67.1127 27.0177 65.2584 27.0177C61.6987 27.0177 55.2493 28.1127 42.902 32.9761Z" fill="url(#paint10_linear)"/>
<path d="M21.3643 47.314C21.4713 47.5475 21.7599 47.7366 22.1182 47.8977C31.3711 51.6988 42.8297 53.765 54.9328 53.765C56.8569 53.765 58.7599 53.7137 60.6445 53.6063C61.6915 53.5479 62.4476 53.3891 62.9664 53.109L59.1765 50.4731C59.1276 50.4964 59.0787 50.5197 59.0322 50.543C57.9643 51.0637 56.6381 51.33 55.4399 51.3533C55.4329 51.3533 55.4307 51.3556 55.4237 51.3556C55.3446 51.3603 55.2724 51.3626 55.2073 51.3626C55.1817 51.3626 55.1561 51.3603 55.1351 51.3603C55.0328 51.3603 54.9606 51.3533 54.9164 51.3533C54.842 51.3533 54.7628 51.3533 54.6884 51.3533H54.6046H54.458C54.4301 51.3533 54.4046 51.3533 54.3767 51.3533C54.3278 51.3533 54.2766 51.3509 54.2277 51.3509H54.1625C54.1067 51.3509 54.0509 51.3509 53.9951 51.3509H53.9579C53.8928 51.3486 53.8275 51.3485 53.7624 51.3462H53.7392C53.6717 51.3462 53.5996 51.3462 53.5298 51.3439H53.5251C44.3466 51.2272 35.7893 49.936 28.5372 47.7833C28.0114 47.6245 26.89 47.3514 26.7481 46.693L21.3643 47.314Z" fill="url(#paint11_linear)"/>
<path d="M89.6041 10.2568C83.9295 22.449 77.8523 33.5836 70.3443 44.6528C68.5226 47.3354 66.5519 49.9481 64.7884 52.6751C64.6464 52.8853 64.6465 53.044 64.7512 53.1444L72.3848 49.3153C72.2615 49.1262 72.2451 48.8531 72.4359 48.5239C72.5034 48.3978 72.5779 48.2881 72.6756 48.1621C72.7361 48.0827 72.8082 47.9962 72.8943 47.8912C82.2427 36.8617 89.4063 20.6816 91.5514 15.6595C91.5817 15.5895 91.6119 15.5195 91.6375 15.4565C91.784 15.1459 91.9539 14.819 92.0795 14.6158C92.2238 14.3427 92.4147 14.1139 92.7102 14.0182L89.9577 9.92062C89.7972 9.98366 89.6692 10.0957 89.6041 10.2568Z" fill="url(#paint12_linear)"/>
<path d="M49.2258 2.96701C48.1788 3.02538 47.4318 3.18175 46.9106 3.46193L50.31 6.34307C50.5124 6.21465 50.7218 6.09549 50.9405 5.98809C52.0107 5.45809 53.3392 5.213 54.5118 5.17097H55.0632H55.147H55.2912H55.4354C55.4656 5.17097 55.4936 5.17097 55.5192 5.17097C55.589 5.17097 55.6587 5.17097 55.7262 5.17097H55.7449C55.8171 5.17097 55.8891 5.17097 55.9589 5.17097H55.9729C56.0427 5.17331 56.1148 5.17334 56.1846 5.17568H56.1985C56.273 5.17568 56.3475 5.17562 56.4196 5.17796H56.4243C64.9141 5.28769 72.8524 6.40601 79.7438 8.29252C80.3278 8.45128 80.9025 8.61713 81.4702 8.78757C82.017 8.95101 83.1967 9.16805 83.2409 9.92219L88.5385 9.36657C88.478 9.07939 88.1569 8.86226 87.7474 8.67314C78.4968 4.87679 67.0407 2.80812 54.933 2.80812C53.0112 2.80812 51.108 2.85961 49.2258 2.96701Z" fill="url(#paint13_linear)"/>
<path d="M89.9575 9.9192L92.71 14.0167C92.7914 13.9887 92.8798 13.9724 92.9775 13.9677C93.0171 13.9631 93.0567 13.9607 93.0985 13.9607C93.3382 13.9607 93.6428 14.0494 94.0849 14.3226C100.36 18.1983 104.089 22.9917 104.117 28.2192V28.2799C104.117 28.4644 104.115 28.6488 104.103 28.8333H106.644C106.649 28.6488 106.656 28.4714 106.656 28.2869C106.656 21.7028 101.437 15.42 91.9538 10.5917C91.542 10.3792 91.1138 10.1714 90.6857 9.96594C90.5345 9.8959 90.3857 9.86319 90.2508 9.86319C90.1437 9.86319 90.0436 9.88184 89.9575 9.9192Z" fill="url(#paint14_linear)"/>
<path d="M104.106 28.7921C103.675 38.0495 91.6373 45.9527 74.5484 49.4479C74.0249 49.5506 73.5852 49.6066 73.2385 49.6066C72.8453 49.6066 72.573 49.5342 72.4357 49.3825C72.4264 49.3708 72.4149 49.3591 72.4079 49.3451C72.3986 49.3358 72.3916 49.3241 72.3846 49.3148L64.751 53.1438C64.8324 53.2256 64.9836 53.2652 65.1884 53.2606C75.2835 52.2496 84.5459 49.7491 91.9538 45.9785C101.174 41.2809 106.365 35.1731 106.644 28.7921H104.106Z" fill="url(#paint15_linear)"/>
<path d="M81.6008 8.83266C81.6892 8.85601 81.7777 8.87932 81.8614 8.90734C81.9405 8.90734 82.1057 8.97738 82.1522 8.99839C82.8479 9.23187 83.1969 9.54239 83.2364 9.92296C83.2364 9.9393 83.2434 9.95341 83.2434 9.96742C83.2434 10.3246 83.0526 10.5908 82.7944 10.8452C82.6897 10.9573 82.5291 11.0998 82.3057 11.2679C82.1685 11.3846 82.0057 11.5177 81.8289 11.6601L86.3634 12.4749C87.3801 11.4966 88.1223 10.5511 88.4969 9.68255C88.5481 9.56582 88.5574 9.46306 88.5388 9.36734C88.4783 9.08016 88.1572 8.8607 87.7477 8.67391C86.5006 8.16026 85.2071 7.68396 83.8856 7.23334L81.6008 8.83266Z" fill="url(#paint16_linear)"/>
<path d="M21.3697 46.889C21.3046 47.0454 21.3138 47.1832 21.365 47.314C21.4721 47.5474 21.7606 47.7366 22.1189 47.8977C23.2799 48.3786 24.4735 48.8269 25.6996 49.2472L28.4938 47.767C28.3612 47.7249 28.2285 47.69 28.0982 47.6503C27.6352 47.4728 26.8721 47.2673 26.7511 46.6929C26.7418 46.6509 26.7348 46.6042 26.7348 46.5551C26.7348 46.2119 26.914 45.9435 27.1746 45.689C27.2886 45.5769 27.4491 45.4485 27.6561 45.264C27.8144 45.1286 28.0052 44.9745 28.2239 44.8018L23.8498 43.7697C22.654 44.8671 21.7885 45.9247 21.3697 46.889Z" fill="url(#paint17_linear)"/>
<path d="M89.9584 9.92021C89.7979 9.98325 89.67 10.0953 89.6048 10.2564C89.1442 11.237 88.6881 12.206 88.2251 13.1726V13.1796L91.4475 15.9136C91.515 15.7525 91.5777 15.6031 91.6382 15.456C91.7848 15.1455 91.9546 14.8209 92.0803 14.6154C92.2245 14.3422 92.4177 14.1135 92.7132 14.0178C92.7946 13.9921 92.8831 13.9734 92.9784 13.9687C93.239 13.9361 93.5646 14.0037 94.0858 14.3236C94.2836 14.452 94.486 14.5804 94.6838 14.7065L94.9444 12.2503C94.0021 11.6806 93.0064 11.125 91.9547 10.5927C91.5429 10.3802 91.1147 10.1724 90.6866 9.96695C90.5331 9.89924 90.3842 9.8642 90.2492 9.8642C90.1445 9.8642 90.0445 9.88285 89.9584 9.92021Z" fill="url(#paint18_linear)"/>
<path d="M49.2269 2.96783C48.18 3.0262 47.433 3.18252 46.9118 3.46502C46.6861 3.58176 46.4954 3.72423 46.3581 3.89467C45.716 4.71652 45.1181 5.58038 44.5435 6.46059L47.7984 8.75562C48.4824 7.83104 49.306 6.97661 50.3111 6.34388C50.5136 6.2178 50.7253 6.09631 50.9417 5.98891C51.6164 5.65503 52.3888 5.43564 53.1659 5.30489V2.82304C51.8444 2.84873 50.5298 2.89545 49.2269 2.96783Z" fill="url(#paint19_linear)"/>
<path d="M59.1706 50.4683C59.1241 50.494 59.0822 50.5196 59.0333 50.543C57.9654 51.0636 56.6415 51.3299 55.441 51.3532C55.1827 51.3743 54.999 51.3532 54.9176 51.3532C53.0795 51.3532 51.2717 51.2902 49.4849 51.1968L49.0405 53.5828V53.5923C50.9833 53.7043 52.947 53.765 54.9339 53.765C56.858 53.765 58.7611 53.7136 60.6456 53.6062C61.6926 53.5479 62.4487 53.3891 62.9676 53.1089C63.1886 52.9875 63.3724 52.8498 63.512 52.6817C65.001 50.7648 66.2854 48.6589 67.4603 46.5389C67.565 46.3474 67.6627 46.1535 67.7697 45.9598L64.3031 43.9193C63.3562 46.1139 61.8439 49.0557 59.1706 50.4683Z" fill="url(#paint20_linear)"/>
<path d="M37.6137 7.32297C37.6998 7.49575 37.7045 7.73394 37.5393 8.01411C37.5393 8.01411 37.5393 8.01406 37.5393 8.0164C37.5369 8.02106 37.5345 8.02341 37.5299 8.02808C37.5299 8.03275 37.5275 8.03738 37.5252 8.04205C37.4066 8.23583 37.2879 8.40866 37.0692 8.68417C27.5813 19.8608 20.3758 36.3513 18.3284 41.1026C18.1632 41.4365 18.0073 41.7703 17.8957 41.9757C17.8375 42.0715 17.777 42.1578 17.7072 42.2372C17.7049 42.2396 17.7025 42.2396 17.7001 42.2419L17.6979 42.2444C17.5955 42.3634 17.4814 42.4591 17.3372 42.5245L19.9129 46.6524C20.0734 46.5894 20.2012 46.4749 20.2687 46.3161C25.9433 34.1262 32.0205 22.9917 39.5215 11.9248C41.3409 9.23518 43.3162 6.62725 45.0844 3.8979C45.1915 3.74147 45.2125 3.61302 45.1729 3.51029L37.6137 7.32297Z" fill="url(#paint21_linear)"/>
<path d="M18.3291 41.1015C18.1639 41.4354 18.0081 41.7716 17.8964 41.977C17.7452 42.2152 17.5776 42.4137 17.3379 42.5234C17.2332 42.5701 17.1169 42.6004 16.9843 42.6098C16.7517 42.6098 16.4026 42.5513 15.8768 42.2408C15.3673 41.928 14.8835 41.6081 14.4065 41.2836L14.6205 44.139C15.6512 44.774 16.7516 45.3904 17.9126 45.9811C18.3291 46.1889 18.7573 46.4014 19.1807 46.6046C19.325 46.6723 19.4646 46.7026 19.5925 46.7073H19.6414C19.7391 46.705 19.8322 46.6863 19.9136 46.6513C20.0741 46.5883 20.202 46.4738 20.2695 46.315C20.9488 44.8581 21.6306 43.4175 22.3216 41.9933L18.913 39.7567C18.6827 40.2727 18.492 40.7233 18.3291 41.1015Z" fill="url(#paint22_linear)"/>
<path d="M44.6779 3.30945C41.7742 3.59896 38.9404 4.01932 36.1973 4.55165L34.3127 7.33233C34.6385 7.26228 34.9596 7.19221 35.2853 7.12684C36.4161 6.89803 37.2745 6.89801 37.5258 7.19452C37.5607 7.23188 37.591 7.27856 37.6142 7.32292C37.7026 7.49803 37.7049 7.74787 37.5258 8.03971C37.4071 8.23584 37.2885 8.40633 37.0698 8.68184C37.0116 8.74954 36.9604 8.81486 36.8999 8.8849H41.6439C42.8142 7.23421 43.9892 5.58828 45.085 3.89556C45.1897 3.7368 45.213 3.61069 45.1735 3.50795C45.1269 3.38421 44.9733 3.31645 44.7384 3.30945H44.6779Z" fill="url(#paint23_linear)"/>
<path d="M1.28564 28.2859C1.28564 29.3529 1.40663 30.4058 1.63697 31.4378C1.63697 31.4518 1.6416 31.4589 1.64392 31.4706C4.72436 45.136 27.4042 55.7429 54.9002 55.7429C84.5064 55.7429 108.512 43.4549 108.512 28.2859C108.512 23.4669 106.086 18.9351 101.823 14.9987C101.816 14.994 101.814 14.987 101.807 14.9823C101.798 14.9753 101.791 14.9684 101.782 14.9614C92.6263 6.53514 75.0626 0.831264 54.9002 0.831264C25.3033 0.831264 1.28564 13.1262 1.28564 28.2859ZM17.8697 46.105C8.37947 41.2463 3.15159 34.9213 3.15159 28.2929C3.15159 21.6738 8.37947 15.3466 17.8697 10.4879C27.7462 5.43309 40.9103 2.65004 54.9421 2.65004C68.9739 2.65004 82.1402 5.43309 92.012 10.4879C101.502 15.3466 106.73 21.6738 106.73 28.2929C106.73 34.9213 101.502 41.2463 92.012 46.105C82.1402 51.1598 68.9762 53.9428 54.9421 53.9428C40.9103 53.9428 27.7462 51.1598 17.8697 46.105Z" fill="url(#paint24_linear)"/>
<path d="M37.9997 20.8638C37.8415 21.5456 37.7158 22.2367 37.6507 22.9184C37.3854 25.6315 38.0206 28.1507 40.9754 29.0472C41.1755 29.1079 41.4012 29.1757 41.6664 29.241C42.3342 29.4045 43.2416 29.5538 44.5305 29.5608H44.6863C46.7151 29.5515 49.67 29.1897 54.0882 27.9943C54.849 27.7841 55.6727 27.5507 56.5335 27.2892L56.7081 23.4437C55.6378 23.7636 54.5396 24.0625 53.4321 24.317C53.1134 24.3917 52.7923 24.4641 52.4689 24.5341C51.0008 24.8423 47.4271 25.4259 45.2401 23.9923C43.9465 23.1425 43.1438 21.5853 43.5579 18.8512L37.9997 20.8638Z" fill="url(#paint25_linear)"/>
<path d="M49.2581 30.6198L49.6676 34.269C52.1175 33.4121 54.7698 32.5811 57.5059 32.009C60.0814 31.4627 69.1878 30.0758 65.7537 40.2928L70.7862 39.2679C71.3772 37.6569 72.031 35.6115 72.2195 33.6597C72.4847 30.9467 71.8472 28.4228 68.8947 27.5309C68.1828 27.3137 67.1124 27.0173 65.2628 27.0173C62.3708 27.0173 57.5734 27.741 49.2581 30.6198Z" fill="url(#paint26_linear)"/>
<path d="M64.4114 32.3627V32.365C65.2536 32.8226 65.9284 33.5278 66.2704 34.6018L71.9404 30.3688V30.3596C71.6286 29.4443 71.0655 28.6644 70.1744 28.1017L64.4114 32.3627Z" fill="url(#paint27_linear)"/>
<path d="M64.7878 52.6751C64.7203 52.7732 64.6854 52.8619 64.6785 52.9366V52.9973C64.6854 53.0557 64.7087 53.1047 64.7506 53.1444C64.8227 53.2144 64.9461 53.2541 65.1113 53.2611H65.188C68.7431 52.9039 72.1818 52.3529 75.481 51.6384V49.2501C75.1669 49.3178 74.8621 49.3855 74.548 49.4508C73.4219 49.668 72.6913 49.6679 72.4354 49.383C72.4144 49.362 72.4005 49.3387 72.3865 49.313C72.2655 49.1263 72.2446 48.8577 72.4354 48.5239C72.5447 48.3184 72.6681 48.1596 72.8938 47.8934C73.2521 47.4708 73.6034 47.0413 73.9524 46.607L69.3992 46.0139C67.8543 48.2273 66.2513 50.4127 64.7878 52.6751Z" fill="url(#paint28_linear)"/>
<path d="M49.2173 2.80741C47.6514 2.9008 46.7301 3.20206 46.2368 3.7951C44.9339 5.4668 43.6776 7.42563 42.2723 9.95653C41.0788 12.1185 40.1109 14.1685 39.3269 16.2137C38.5428 18.2543 37.7145 20.6405 37.4934 22.9006C37.1677 26.2883 38.324 28.406 40.9298 29.1928C41.5278 29.3796 42.6399 29.7158 44.6082 29.7158C49.4243 29.7158 56.9695 27.7056 67.0252 23.7435C76.1106 20.1806 86.7758 14.0681 88.6418 9.74406C88.9419 9.04829 88.0927 8.66073 87.8065 8.52765C78.4465 4.6846 67.0764 2.65108 54.9338 2.65108C53.0632 2.65108 51.1367 2.70001 49.2173 2.80741ZM41.0183 28.894C38.5777 28.1562 37.4958 26.1482 37.8053 22.9309C38.0472 20.4094 39.1058 17.6521 39.6177 16.3306C40.3971 14.29 41.3532 12.2564 42.5421 10.1107C43.9428 7.59383 45.1946 5.64882 46.4765 3.99346C46.9116 3.47514 47.7608 3.2044 49.2336 3.12034C51.1461 3.01528 53.0655 2.9663 54.9338 2.9663C67.0392 2.9663 78.3628 4.98817 87.6832 8.81721C88.4324 9.15809 88.4486 9.41496 88.3532 9.61808C86.5245 13.865 75.9384 19.9144 66.9088 23.4516C56.8904 27.3997 49.3894 29.4006 44.6082 29.4006C42.6887 29.4006 41.6046 29.0738 41.0183 28.894Z" fill="url(#paint29_linear)"/>
<path d="M41.7327 8.49064C40.9556 9.58098 40.1575 10.711 39.392 11.8341C32.6099 21.8409 26.7004 32.3194 20.8745 44.6611L21.1584 44.7942C26.9749 32.4642 32.8752 22.0044 39.6526 12.0092C40.4157 10.8885 41.2139 9.7631 41.9863 8.67276C42.7494 7.59642 43.5312 6.49675 44.2896 5.38306L43.9475 5.32706C43.217 6.39639 42.4679 7.461 41.7327 8.49064Z" fill="url(#paint30_linear)"/>
<path d="M70.2162 44.5873C69.4554 45.7103 68.655 46.838 67.8802 47.9284C67.1869 48.9067 66.4774 49.9059 65.7864 50.9215H66.1633C66.8147 49.9713 67.4825 49.0304 68.1363 48.1105C68.9134 47.0178 69.7137 45.8901 70.4745 44.7624C77.2008 34.8442 83.0638 24.4685 88.8478 12.2576L88.5175 12.2202C82.7614 24.3728 76.9169 34.7088 70.2162 44.5873Z" fill="url(#paint31_linear)"/>
<path d="M42.8458 32.8565C33.7604 36.417 23.0952 42.5296 21.2269 46.8559C20.9244 47.5517 21.776 47.9439 22.0575 48.0723C31.4291 51.9177 42.79 53.949 54.9326 53.949C56.8334 53.949 58.7575 53.8975 60.6537 53.7901C62.2172 53.7014 63.1361 53.3979 63.6364 52.8049C64.9323 51.1378 66.1887 49.179 67.5986 46.6434C68.7735 44.5141 69.7671 42.4082 70.5465 40.384C71.3259 38.3504 72.1541 35.9641 72.3751 33.7017C72.7008 30.3163 71.5468 28.194 68.9387 27.4049C68.3408 27.2251 67.2264 26.8842 65.2581 26.8842C60.4443 26.8842 52.9014 28.8944 42.8458 32.8565ZM22.183 47.7852C21.4362 47.4396 21.4246 47.1828 21.513 46.982C23.3487 42.7351 33.9301 36.6856 42.9597 33.1508C52.9804 29.2003 60.4815 27.1994 65.2581 27.1994C67.1799 27.1994 68.2663 27.5309 68.848 27.706C71.2909 28.4484 72.3752 30.4518 72.0634 33.6668C71.847 35.8942 71.028 38.2568 70.2533 40.2741C69.4808 42.282 68.4943 44.3787 67.3217 46.487C65.9257 49.0109 64.6717 50.9581 63.3897 52.6088C62.9593 53.1271 62.1078 53.3957 60.6351 53.4821C58.7435 53.5824 56.8264 53.6338 54.9326 53.6338C42.8318 53.6338 31.5034 51.6119 22.183 47.7852Z" fill="url(#paint32_linear)"/>
<path d="M44.6659 3.15413C34.4893 4.17443 25.2154 6.6983 17.8447 10.4573C8.31018 15.3113 3.05664 21.6432 3.05664 28.2856C3.05664 34.9281 8.31018 41.2647 17.8447 46.1187C18.2634 46.3335 18.687 46.5413 19.1197 46.7444C19.2896 46.8238 19.457 46.8658 19.6246 46.8658C19.9805 46.8658 20.2783 46.6767 20.4086 46.3802C20.6552 45.8455 20.9065 45.3179 21.1578 44.7926L20.8739 44.6595C20.625 45.1918 20.3761 45.7195 20.1271 46.2518C19.9968 46.5366 19.6198 46.637 19.2522 46.4618C18.8195 46.2611 18.3984 46.0557 17.982 45.8385C8.55685 41.0406 3.37076 34.8044 3.37076 28.2856C3.37076 21.7669 8.55685 15.533 17.982 10.735C25.3201 6.99472 34.5568 4.48022 44.7195 3.46693C44.9102 3.46693 45.0056 3.51835 45.0289 3.55571C45.0522 3.60707 45.0243 3.70043 44.9545 3.8125C44.6264 4.31681 44.289 4.82114 43.9469 5.32546L44.289 5.38146C44.6031 4.91451 44.9149 4.45222 45.2173 3.98293C45.3965 3.70743 45.3592 3.51823 45.3034 3.4085C45.2406 3.29176 45.0871 3.15413 44.7195 3.15413H44.6659Z" fill="url(#paint33_linear)"/>
<path d="M89.4604 10.2175C89.144 10.8899 88.8323 11.5578 88.5182 12.2208L88.8485 12.2582C89.144 11.6254 89.4465 10.9927 89.7443 10.3483C89.828 10.1569 90.0141 10.0471 90.2444 10.0471C90.3677 10.0471 90.4911 10.0751 90.6168 10.1334C91.0495 10.3389 91.4683 10.5467 91.8894 10.7592C101.31 15.5595 106.5 21.7934 106.5 28.3145C106.5 34.8332 101.31 41.0624 91.8894 45.8627C84.5768 49.5866 75.3868 52.0942 65.3125 53.1215C65.0636 53.1425 64.6959 53.1261 64.9146 52.7852C65.3171 52.1595 65.7405 51.5385 66.164 50.9221H65.7871C65.4009 51.4825 65.0217 52.0451 64.654 52.6125C64.4749 52.8903 64.5097 53.0771 64.5656 53.1868C64.7145 53.4763 65.1193 53.4506 65.3892 53.4226C75.4867 52.393 84.6955 49.8784 92.029 46.1451C101.561 41.2911 106.812 34.9593 106.812 28.3145C106.812 21.6674 101.561 15.3377 92.0267 10.479C91.6103 10.2642 91.1821 10.0541 90.7563 9.85327C90.5888 9.77622 90.4236 9.74126 90.2607 9.74126C89.9048 9.74126 89.593 9.91866 89.4604 10.2175Z" fill="url(#paint34_linear)"/>
<defs>
<radialGradient id="paint0_radial" cx="0" cy="0" r="1" gradientUnits="userSpaceOnUse" gradientTransform="translate(57.9495 10.5995) scale(50.9546 51.1191)">
<stop stop-color="#A1A4A4"/>
<stop offset="1" stop-color="#868786"/>
</radialGradient>
<radialGradient id="paint1_radial" cx="0" cy="0" r="1" gradientUnits="userSpaceOnUse" gradientTransform="translate(55.0521 0.693627) scale(63.2861 63.5786)">
<stop stop-color="#ABAEAE"/>
<stop offset="0.040237" stop-color="#ABAEAE"/>
<stop offset="0.613495" stop-color="#8F9190"/>
<stop offset="1" stop-color="#5D5F5F"/>
</radialGradient>
<radialGradient id="paint2_radial" cx="0" cy="0" r="1" gradientUnits="userSpaceOnUse" gradientTransform="translate(34.7593 8.42411) scale(52.2498 52.4186)">
<stop stop-color="#ABAEAE"/>
<stop offset="0.0301782" stop-color="#ABAEAE"/>
<stop offset="0.460129" stop-color="#979A9A"/>
<stop offset="1" stop-color="#D4D8D9"/>
</radialGradient>
<radialGradient id="paint3_radial" cx="0" cy="0" r="1" gradientUnits="userSpaceOnUse" gradientTransform="translate(57.2984 33.4313) scale(29.0641 29.1579)">
<stop stop-color="#ABAEAE"/>
<stop offset="0.040237" stop-color="#ABAEAE"/>
<stop offset="0.613495" stop-color="#979A9A"/>
<stop offset="1" stop-color="#868786"/>
</radialGradient>
<radialGradient id="paint4_radial" cx="0" cy="0" r="1" gradientUnits="userSpaceOnUse" gradientTransform="translate(93.2763 20.3853) scale(41.8326 41.9678)">
<stop stop-color="#ABAEAE"/>
<stop offset="0.040237" stop-color="#ABAEAE"/>
<stop offset="0.613495" stop-color="#979A9A"/>
<stop offset="1" stop-color="#868786"/>
</radialGradient>
<linearGradient id="paint5_linear" x1="53.5844" y1="3.11239" x2="56.2518" y2="53.8315" gradientUnits="userSpaceOnUse">
<stop stop-color="white"/>
<stop offset="0.399994" stop-color="white"/>
<stop offset="0.570557" stop-color="#B9BABB"/>
<stop offset="0.63594" stop-color="#9DA0A0"/>
<stop offset="0.662582" stop-color="#9DA0A0"/>
<stop offset="0.75" stop-color="#ABAEAE"/>
<stop offset="0.809998" stop-color="white"/>
<stop offset="1" stop-color="white"/>
</linearGradient>
<linearGradient id="paint6_linear" x1="65.0036" y1="52.9685" x2="69.9409" y2="33.7355" gradientUnits="userSpaceOnUse">
<stop stop-color="white"/>
<stop offset="0.625763" stop-color="white"/>
<stop offset="0.957466" stop-color="#B6B9BB"/>
<stop offset="1" stop-color="#B6B9BB"/>
</linearGradient>
<linearGradient id="paint7_linear" x1="49.7636" y1="26.4547" x2="39.8433" y2="8.83833" gradientUnits="userSpaceOnUse">
<stop stop-color="#EEF3F5"/>
<stop offset="0.0613026" stop-color="#EEF3F5"/>
<stop offset="0.552155" stop-color="#CACDCF"/>
<stop offset="0.585294" stop-color="#CACDCF"/>
<stop offset="1" stop-color="#B6B9BB"/>
</linearGradient>
<linearGradient id="paint8_linear" x1="58.3733" y1="9.97234" x2="66.7449" y2="21.9349" gradientUnits="userSpaceOnUse">
<stop stop-color="#EEF3F5"/>
<stop offset="0.0613026" stop-color="#EEF3F5"/>
<stop offset="0.552155" stop-color="#CACDCF"/>
<stop offset="0.585294" stop-color="#CACDCF"/>
<stop offset="1" stop-color="#B6B9BB"/>
</linearGradient>
<linearGradient id="paint9_linear" x1="24.1916" y1="38.0604" x2="24.1916" y2="10.7277" gradientUnits="userSpaceOnUse">
<stop stop-color="white"/>
<stop offset="0.144658" stop-color="white"/>
<stop offset="0.527603" stop-color="#707373"/>
<stop offset="0.554849" stop-color="#707373"/>
<stop offset="0.77301" stop-color="#5D5F5F"/>
<stop offset="1" stop-color="#545554"/>
</linearGradient>
<linearGradient id="paint10_linear" x1="70.2844" y1="43.8713" x2="40.1658" y2="36.1935" gradientUnits="userSpaceOnUse">
<stop stop-color="#A1A4A4"/>
<stop offset="0.175766" stop-color="#8F9190"/>
<stop offset="0.219514" stop-color="#8F9190"/>
<stop offset="0.569809" stop-color="#545554"/>
<stop offset="1" stop-color="#4A4A49"/>
</linearGradient>
<linearGradient id="paint11_linear" x1="21.3647" y1="50.2293" x2="62.9653" y2="50.2293" gradientUnits="userSpaceOnUse">
<stop stop-color="white"/>
<stop offset="0.558163" stop-color="white"/>
<stop offset="1" stop-color="white"/>
</linearGradient>
<linearGradient id="paint12_linear" x1="90.7477" y1="14.9185" x2="69.0973" y2="48.3039" gradientUnits="userSpaceOnUse">
<stop stop-color="#C0C4C4"/>
<stop offset="0.380371" stop-color="#868786"/>
<stop offset="0.440556" stop-color="#545554"/>
<stop offset="0.472397" stop-color="#545554"/>
<stop offset="1" stop-color="#4A4A49"/>
</linearGradient>
<linearGradient id="paint13_linear" x1="83.4766" y1="8.27848" x2="50.9684" y2="3.91255" gradientUnits="userSpaceOnUse">
<stop stop-color="#5D5F5F"/>
<stop offset="0.456065" stop-color="#3F3E3D"/>
<stop offset="1" stop-color="#3F3E3D"/>
</linearGradient>
<linearGradient id="paint14_linear" x1="98.3064" y1="17.3533" x2="98.3064" y2="40.6242" gradientUnits="userSpaceOnUse">
<stop stop-color="#3F3E3D"/>
<stop offset="0.174524" stop-color="#545554"/>
<stop offset="0.19632" stop-color="#545554"/>
<stop offset="0.403561" stop-color="#A1A4A4"/>
<stop offset="0.429443" stop-color="#A1A4A4"/>
<stop offset="0.625792" stop-color="#B6B9BB"/>
<stop offset="0.650314" stop-color="#B6B9BB"/>
<stop offset="0.822083" stop-color="#DDE1E3"/>
<stop offset="1" stop-color="white"/>
</linearGradient>
<linearGradient id="paint15_linear" x1="85.6969" y1="17.355" x2="85.6969" y2="40.6258" gradientUnits="userSpaceOnUse">
<stop stop-color="#3F3E3D"/>
<stop offset="0.174524" stop-color="#545554"/>
<stop offset="0.19632" stop-color="#545554"/>
<stop offset="0.403561" stop-color="#A1A4A4"/>
<stop offset="0.429443" stop-color="#A1A4A4"/>
<stop offset="0.625792" stop-color="#B6B9BB"/>
<stop offset="0.650314" stop-color="#B6B9BB"/>
<stop offset="0.822083" stop-color="#DDE1E3"/>
<stop offset="1" stop-color="white"/>
</linearGradient>
<linearGradient id="paint16_linear" x1="85.0186" y1="9.06925" x2="85.2037" y2="10.6607" gradientUnits="userSpaceOnUse">
<stop stop-color="#5D5F5F"/>
<stop offset="0.210595" stop-color="#C0C4C4"/>
<stop offset="0.423309" stop-color="#C0C4C4"/>
<stop offset="0.551612" stop-color="#C0C4C4"/>
<stop offset="0.576691" stop-color="#C0C4C4"/>
<stop offset="0.696827" stop-color="#C0C4C4"/>
<stop offset="1" stop-color="#B6B9BB"/>
</linearGradient>
<linearGradient id="paint17_linear" x1="24.7226" y1="45.5144" x2="25.0678" y2="48.5935" gradientUnits="userSpaceOnUse">
<stop stop-color="#4A4A49"/>
<stop offset="0.0440395" stop-color="#868786"/>
<stop offset="0.0552216" stop-color="#868786"/>
<stop offset="0.329206" stop-color="#A1A4A4"/>
<stop offset="0.398773" stop-color="#A1A4A4"/>
<stop offset="0.413693" stop-color="#A1A4A4"/>
<stop offset="0.496933" stop-color="#B6B9BB"/>
<stop offset="0.54076" stop-color="#B6B9BB"/>
<stop offset="0.785278" stop-color="#C0C4C4"/>
<stop offset="0.809117" stop-color="#C0C4C4"/>
<stop offset="1" stop-color="white"/>
</linearGradient>
<linearGradient id="paint18_linear" x1="90.6567" y1="13.3519" x2="92.7989" y2="12.0137" gradientUnits="userSpaceOnUse">
<stop stop-color="#C0C4C4"/>
<stop offset="0.353766" stop-color="#B6B9BB"/>
<stop offset="0.417175" stop-color="#B6B9BB"/>
<stop offset="0.510844" stop-color="#B6B9BB"/>
<stop offset="0.521469" stop-color="#B6B9BB"/>
<stop offset="0.720075" stop-color="#B6B9BB"/>
<stop offset="1" stop-color="#3F3E3D"/>
</linearGradient>
<linearGradient id="paint19_linear" x1="50.4206" y1="3.89077" x2="47.1353" y2="7.39488" gradientUnits="userSpaceOnUse">
<stop stop-color="#3F3E3D"/>
<stop offset="0.270347" stop-color="#A1A4A4"/>
<stop offset="0.402557" stop-color="#A1A4A4"/>
<stop offset="0.508714" stop-color="#A1A4A4"/>
<stop offset="1" stop-color="#B6B9BB"/>
</linearGradient>
<linearGradient id="paint20_linear" x1="61.9491" y1="44.4615" x2="55.2099" y2="53.6589" gradientUnits="userSpaceOnUse">
<stop stop-color="#979A9A"/>
<stop offset="0.514954" stop-color="#F9FCFE"/>
<stop offset="0.753696" stop-color="#F9FCFE"/>
<stop offset="1" stop-color="white"/>
</linearGradient>
<linearGradient id="paint21_linear" x1="22.8453" y1="43.047" x2="35.6821" y2="12.8478" gradientUnits="userSpaceOnUse">
<stop stop-color="#7A7D7D"/>
<stop offset="0.527603" stop-color="#979A9A"/>
<stop offset="1" stop-color="#C6CCCE"/>
</linearGradient>
<linearGradient id="paint22_linear" x1="19.5465" y1="42.2168" x2="15.7939" y2="44.9729" gradientUnits="userSpaceOnUse">
<stop stop-color="#7A7D7D"/>
<stop offset="0.323188" stop-color="white"/>
<stop offset="0.453995" stop-color="white"/>
<stop offset="0.556795" stop-color="white"/>
<stop offset="0.644165" stop-color="white"/>
<stop offset="0.836519" stop-color="white"/>
<stop offset="1" stop-color="white"/>
</linearGradient>
<linearGradient id="paint23_linear" x1="39.4977" y1="4.93109" x2="40.7222" y2="7.32846" gradientUnits="userSpaceOnUse">
<stop stop-color="#545554"/>
<stop offset="0.230577" stop-color="#545554"/>
<stop offset="0.472397" stop-color="#707373"/>
<stop offset="0.555232" stop-color="#979A9A"/>
<stop offset="0.570557" stop-color="#979A9A"/>
<stop offset="0.855297" stop-color="#C6CCCE"/>
<stop offset="0.907974" stop-color="#C6CCCE"/>
<stop offset="1" stop-color="#C6CCCE"/>
</linearGradient>
<linearGradient id="paint24_linear" x1="54.8994" y1="3.05435" x2="54.8994" y2="55.8775" gradientUnits="userSpaceOnUse">
<stop stop-color="white"/>
<stop offset="0.0886045" stop-color="white"/>
<stop offset="0.263809" stop-color="#E3E9ED"/>
<stop offset="0.439497" stop-color="#E3E9ED"/>
<stop offset="0.687119" stop-color="#525455"/>
<stop offset="0.708507" stop-color="#525455"/>
<stop offset="0.815948" stop-color="#313233"/>
<stop offset="1" stop-color="#313233"/>
</linearGradient>
<linearGradient id="paint25_linear" x1="41.2545" y1="19.727" x2="51.1821" y2="28.6346" gradientUnits="userSpaceOnUse">
<stop stop-color="#CACDCF"/>
<stop offset="0.0700073" stop-color="#CACDCF"/>
<stop offset="0.24847" stop-color="white"/>
<stop offset="0.5" stop-color="white"/>
<stop offset="0.75659" stop-color="white"/>
<stop offset="0.938644" stop-color="#C0C4C4"/>
<stop offset="0.945456" stop-color="#C0C4C4"/>
<stop offset="1" stop-color="#C0C4C4"/>
</linearGradient>
<linearGradient id="paint26_linear" x1="66.0396" y1="38.8354" x2="56.8814" y2="27.1531" gradientUnits="userSpaceOnUse">
<stop stop-color="#979A9A"/>
<stop offset="0.122696" stop-color="#8F9190"/>
<stop offset="0.314231" stop-color="#545554"/>
<stop offset="0.441711" stop-color="#545554"/>
<stop offset="0.711655" stop-color="#545554"/>
<stop offset="1" stop-color="#4A4A49"/>
</linearGradient>
<linearGradient id="paint27_linear" x1="67.4343" y1="30.1689" x2="69.1037" y2="32.4561" gradientUnits="userSpaceOnUse">
<stop stop-color="#525455"/>
<stop offset="0.135551" stop-color="white"/>
<stop offset="0.515335" stop-color="white"/>
<stop offset="0.852768" stop-color="white"/>
<stop offset="1" stop-color="#7C7E7D"/>
</linearGradient>
<linearGradient id="paint28_linear" x1="69.4352" y1="49.8147" x2="70.4327" y2="51.8498" gradientUnits="userSpaceOnUse">
<stop stop-color="#4A4A49"/>
<stop offset="0.252387" stop-color="#EEF3F5"/>
<stop offset="0.392853" stop-color="#EEF3F5"/>
<stop offset="0.577237" stop-color="#EEF3F5"/>
<stop offset="0.760742" stop-color="white"/>
<stop offset="0.787305" stop-color="white"/>
<stop offset="1" stop-color="white"/>
</linearGradient>
<linearGradient id="paint29_linear" x1="62.3334" y1="22.0825" x2="65" y2="1.66872" gradientUnits="userSpaceOnUse">
<stop stop-color="white"/>
<stop offset="0.394859" stop-color="#EEF3F5"/>
<stop offset="1" stop-color="#EEF3F5"/>
</linearGradient>
<linearGradient id="paint30_linear" x1="45.0935" y1="4.01272" x2="21.9347" y2="41.409" gradientUnits="userSpaceOnUse">
<stop stop-color="white"/>
<stop offset="0.32343" stop-color="white"/>
<stop offset="0.521469" stop-color="#ABAEAE"/>
<stop offset="0.984131" stop-color="#A1A4A4"/>
<stop offset="1" stop-color="#A1A4A4"/>
</linearGradient>
<linearGradient id="paint31_linear" x1="89.1851" y1="12.4567" x2="66.3506" y2="51.0467" gradientUnits="userSpaceOnUse">
<stop stop-color="#E6EAED"/>
<stop offset="0.110935" stop-color="#B6B9BB"/>
<stop offset="0.552155" stop-color="#B6B9BB"/>
<stop offset="0.910022" stop-color="#B6B9BB"/>
<stop offset="1" stop-color="#B6B9BB"/>
</linearGradient>
<linearGradient id="paint32_linear" x1="21.1635" y1="40.4162" x2="70.2447" y2="40.4162" gradientUnits="userSpaceOnUse">
<stop stop-color="#A1A4A4"/>
<stop offset="0.0803586" stop-color="#A1A4A4"/>
<stop offset="0.239258" stop-color="#A1A4A4"/>
<stop offset="0.358771" stop-color="#A1A4A4"/>
<stop offset="0.595093" stop-color="#7C7E7D"/>
<stop offset="0.986572" stop-color="#B6B9BB"/>
<stop offset="1" stop-color="#B6B9BB"/>
</linearGradient>
<linearGradient id="paint33_linear" x1="27.35" y1="6.99337" x2="13.3873" y2="41.1052" gradientUnits="userSpaceOnUse">
<stop stop-color="white"/>
<stop offset="0.261688" stop-color="white"/>
<stop offset="0.779144" stop-color="#E6EAED"/>
<stop offset="0.992676" stop-color="#A1A4A4"/>
<stop offset="1" stop-color="#A1A4A4"/>
</linearGradient>
<linearGradient id="paint34_linear" x1="99.627" y1="15.8521" x2="79.5844" y2="53.4336" gradientUnits="userSpaceOnUse">
<stop stop-color="#E6EAED"/>
<stop offset="0.0857039" stop-color="#E6EAED"/>
<stop offset="0.255173" stop-color="#DDE1E3"/>
<stop offset="0.9753" stop-color="#B6B9BB"/>
<stop offset="1" stop-color="#B6B9BB"/>
</linearGradient>
</defs>
</svg>
