<svg width="53" height="67" viewBox="0 0 53 67" fill="none" xmlns="http://www.w3.org/2000/svg">
<path d="M33.0269 2.14642L33.0945 2.13891C33.0908 2.13891 32.7867 2.37542 32.0021 2.37166C31.071 2.36415 29.1414 2.32661 27.5985 2.31911C24.7453 2.30033 21.3441 2.35289 19.7561 2.42797C18.9114 2.46927 18.8626 2.55937 18.322 3.13375L18.5886 2.71704L19.0203 2.30033L19.4445 2.18771C19.9138 2.13891 23.5065 2.04881 26.491 2.04881C28.9199 2.04881 31.3864 2.10137 32.614 2.15017L33.0269 2.14642Z" fill="white"/>
<path d="M33.4173 34.079L33.406 34.1053C33.3947 34.1353 31.9757 37.3338 30.3351 40.69C28.8673 43.697 27.2718 46.7679 26.6561 47.9505L26.626 48.003L26.4909 48.202L26.3595 48.0068L26.2657 47.8303C24.535 44.5192 23.3412 42.1203 22.6429 40.69C21.0737 37.4765 19.6772 34.3418 19.5796 34.1053L19.5645 34.0752C19.3881 33.6585 19.2454 33.3282 19.2454 32.979C19.2454 32.6299 19.4106 32.2432 19.5758 31.8791L19.6584 31.6951C20.6495 29.4464 21.6481 27.299 22.6279 25.3131C24.3548 21.8105 26.3407 18.0113 26.3595 17.9775L26.4947 17.7748L26.6336 17.9775C26.6486 18.0076 28.5932 21.6979 30.3539 25.3093C31.9081 28.4928 33.2633 31.5374 33.4135 31.8753C33.6125 32.3296 33.7364 32.6336 33.7364 32.9978C33.7364 33.3507 33.6162 33.6247 33.4173 34.079ZM33.7289 31.7364C33.6275 31.5149 32.246 28.3952 30.6655 25.1592C28.9423 21.634 27.0165 17.9663 26.9376 17.8161L26.4947 17.3393L26.0517 17.8161C25.9728 17.97 24.0019 21.7467 22.3201 25.1592C20.642 28.5604 19.3468 31.5487 19.2642 31.7364C19.0915 32.1118 18.9038 32.551 18.9038 32.979C18.9038 33.4107 19.0652 33.7824 19.2605 34.2404C19.3543 34.4619 20.7471 37.6003 22.3313 40.8402C24.0545 44.369 25.9766 48.0181 26.0517 48.1607L26.4909 48.6412L26.9301 48.1645C27.009 48.0105 28.9236 44.3653 30.6467 40.8402C32.2235 37.6079 33.62 34.4769 33.7213 34.2442C33.9353 33.7524 34.0817 33.4333 34.0817 32.9978C34.0817 32.5623 33.9391 32.2132 33.7289 31.7364Z" fill="#231F20"/>
<path d="M51.4483 34.5781C51.0879 35.3814 47.9682 41.5495 45.1564 46.6889C42.2206 52.0535 35.696 62.9292 35.0841 63.7777C34.5134 64.5735 34.1493 64.6073 33.5974 64.6561C33.0193 64.7087 28.8184 64.7988 26.4946 64.7988C24.3397 64.7988 20.3191 64.7387 19.3918 64.6561C18.8099 64.6036 18.4908 64.5773 17.9014 63.7739C17.2595 62.8954 11.1928 52.8006 7.83285 46.6889C4.6118 40.8287 2.30302 36.2336 1.54093 34.5743C1.25562 33.9549 1.12047 33.4518 1.12047 32.9901C1.12047 32.5583 1.25562 32.0553 1.54093 31.4021C1.8788 30.6287 5.52781 23.4508 7.83285 19.2913C11.0239 13.5437 17.1356 3.20482 17.8564 2.26254C18.3632 1.60181 18.5434 1.40659 19.3205 1.32775C20.2965 1.23015 24.5087 1.18134 26.4946 1.18134C28.8109 1.18134 32.6589 1.2264 33.5599 1.32401L33.65 1.33526C34.2356 1.39533 34.5059 1.42537 35.0878 2.20998C35.7711 3.12223 41.7852 13.1795 45.1564 19.2913C47.6153 23.7512 50.5173 29.4649 51.452 31.4096C51.8162 32.1679 51.8688 32.7235 51.8688 32.9901C51.8688 33.3279 51.8162 33.7522 51.4483 34.5781ZM51.7674 31.2594C50.8326 29.311 47.9269 23.5897 45.4642 19.1223C42.0855 12.9993 36.0564 2.9195 35.3694 1.99974C34.6936 1.09124 34.3145 1.04995 33.6875 0.98613L33.5974 0.974861C32.6852 0.877258 28.8184 0.828461 26.4946 0.828461C24.5049 0.828461 20.274 0.881012 19.2867 0.978622C18.3594 1.07247 18.1079 1.35779 17.5786 2.04855C16.8503 2.99834 10.7198 13.3635 7.52501 19.1223C5.21622 23.2856 1.5597 30.4861 1.21807 31.2594C0.913989 31.9577 0.767578 32.5095 0.767578 32.9901C0.767578 33.5044 0.91399 34.0525 1.22183 34.7207C1.98767 36.3838 4.29646 40.9864 7.52501 46.8578C10.8925 52.9808 16.9741 63.1019 17.6199 63.9804C18.2994 64.9114 18.7461 64.9527 19.3618 65.0053C20.2965 65.0879 24.3322 65.1517 26.4946 65.1517C28.8259 65.1517 33.0456 65.0578 33.6275 65.0053C34.2056 64.9527 34.7049 64.9077 35.3694 63.9804C35.985 63.132 42.5247 52.23 45.4642 46.8578C48.2798 41.7109 51.407 35.5279 51.7674 34.7207C52.1653 33.8347 52.2216 33.3655 52.2216 32.9901C52.2216 32.6935 52.1616 32.0778 51.7674 31.2594Z" fill="#231F20"/>
<path d="M19.3283 1.85801C19.0823 1.88261 18.9912 1.93044 18.8986 1.9753C18.7741 2.04186 18.6497 2.10686 18.4587 2.40204C17.8857 3.25286 11.9979 12.9301 8.24884 19.7381C5.58931 24.5696 2.96887 29.6904 1.85325 32.0547C1.55373 32.6798 1.51465 33.0952 1.51465 33.2848C1.51465 33.6277 1.62608 34.0431 1.85325 34.5177C2.96887 36.8835 5.58931 42.0028 8.24884 46.8342C11.9979 53.6451 17.8611 63.3412 18.4702 64.1732C18.5571 64.3034 18.6439 64.4047 18.7206 64.4901C18.8595 64.6319 18.9839 64.7172 19.1257 64.7635C19.2733 64.8098 19.5656 64.7794 19.8101 64.7635C19.9433 64.749 20.1082 64.749 20.237 64.7635C21.7476 64.8141 24.0671 64.8721 26.5212 64.8663C29.5598 64.8663 33.1237 64.7882 33.6562 64.7274L33.7431 64.713C33.9471 64.6884 34.0628 64.6593 34.1236 64.6275C34.2452 64.5783 34.345 64.4787 34.6011 64.1329C35.2016 63.3038 41.0387 53.6522 44.7878 46.8413C47.4473 42.0099 50.0678 36.8905 51.1848 34.5247C51.4829 33.8997 51.5278 33.4076 51.5278 33.2152C51.5278 32.8766 51.412 32.5396 51.1848 32.0621C50.0678 29.6978 47.4473 24.577 44.7878 19.7456C41.0387 12.9376 35.1799 3.23822 34.5707 2.40911C34.4144 2.18338 34.2784 2.03307 34.1438 1.93467C34.0715 1.88113 33.9919 1.84199 33.9109 1.81739C33.7604 1.77108 33.4276 1.80003 33.186 1.81739C33.0557 1.83331 32.8879 1.83186 32.762 1.81739C31.5133 1.7653 28.9926 1.71459 26.5212 1.71459C23.4739 1.71459 19.8058 1.80892 19.3283 1.85378V1.85801ZM26.5212 17.313C26.6963 17.313 26.8164 17.5057 26.9741 17.8008C29.6105 22.8768 31.3946 26.3813 33.9008 32.0028C34.1106 32.4846 34.2625 32.839 34.2625 33.289C34.2625 33.7434 34.1048 34.0894 33.8935 34.5611C31.383 40.1841 29.6047 43.6871 26.9669 48.7631C26.812 49.0554 26.6862 49.2462 26.514 49.2506C26.3418 49.2506 26.2188 49.0583 26.0683 48.7631C23.4261 43.6856 21.6478 40.1808 19.1402 34.5594C18.9261 34.079 18.7712 33.7232 18.7712 33.2717C18.7785 32.8333 18.929 32.4745 19.1417 32.0028C21.6478 26.3813 23.4261 22.8768 26.0698 17.8008C26.2188 17.5086 26.3447 17.3173 26.514 17.3144H26.5212V17.313Z" fill="url(#paint0_radial)"/>
<path d="M16.2983 33.2697C16.0799 33.4738 15.7022 33.6735 14.7732 33.6735C13.9513 33.6735 6.95959 33.659 3.62432 33.659C3.13959 33.659 2.4812 33.6201 2.4812 34.3942C2.4812 34.8471 2.87189 35.7613 3.68654 37.3457C8.10704 45.9957 13.0209 54.6358 18.2865 63.0817C18.2865 63.0817 19.0881 64.3795 19.172 64.4778C19.2559 64.5791 19.3544 64.6241 19.554 64.6241C19.554 64.6241 22.8907 58.5078 25.5893 51.8402C22.5854 46.3026 19.8159 40.8272 17.2229 35.3215C17.2229 35.3215 16.4864 33.947 16.459 33.4043C16.4532 33.3305 16.4517 33.3089 16.459 33.238C16.4647 33.1786 16.4575 33.1525 16.4387 33.1525C16.4126 33.1525 16.3664 33.1972 16.2983 33.2623" fill="url(#paint1_linear)"/>
<path d="M50.9056 33.3688C50.7855 33.4889 50.4498 33.6698 49.6974 33.6698H40.5178C36.3013 33.6698 36.7282 33.5572 35.6357 35.7855C35.1495 36.7724 34.6474 37.9413 34.1381 38.8978C30.4613 46.5855 21.4887 62.0625 20.2776 63.9856C19.8203 64.7062 19.7566 64.7437 20.0865 64.7437C20.0865 64.7437 23.131 64.8535 26.5212 64.8535C31.8113 64.8535 33.704 64.7105 33.704 64.7105C36.7673 59.934 44.0918 47.8272 49.3154 37.3395C50.5193 34.9216 51.1198 33.8695 51.0634 33.3529C51.0576 33.3139 51.0402 33.2996 51.0185 33.2996C50.9838 33.2996 50.936 33.3356 50.9056 33.3688Z" fill="url(#paint2_linear)"/>
<path d="M32.7592 2.58832C30.1648 6.60801 21.2023 23.4958 17.5414 31.3688C17.0929 32.3339 16.8643 32.8055 16.8643 33.2729H18.7714C18.7786 32.8345 18.9291 32.4757 19.1418 32.004C21.648 26.3825 23.4263 22.878 26.0699 17.802C26.2189 17.5097 26.3448 17.3185 26.5141 17.3156L27.2564 15.1568C29.8393 8.71485 33.461 1.94468 33.461 1.94468C33.4538 1.94468 33.4466 1.94468 33.4379 1.94468C33.2194 1.94468 33.0602 2.12384 32.7592 2.58832Z" fill="url(#paint3_linear)"/>
<path d="M26.5142 17.3175H26.5214C26.6964 17.3175 26.8166 17.5098 26.9743 17.805C29.6107 22.881 31.3948 26.3855 33.9009 32.0069C34.1107 32.4888 34.2627 32.8432 34.2627 33.2932C34.2627 33.2932 34.2627 33.2935 34.2627 33.295C34.2627 33.2935 34.2627 33.2932 34.2627 33.2932H36.1626C36.1626 32.8258 35.9455 32.3673 35.4998 31.4152C32.9691 26.0383 30.3197 20.8015 27.2608 15.1583L26.5142 17.3175Z" fill="url(#paint4_linear)"/>
<path d="M17.5285 35.1788C20.0636 40.5515 22.6999 45.7748 25.7617 51.4195L26.5142 49.2547C26.342 49.2547 26.219 49.0624 26.0685 48.7672C23.4263 43.6897 21.648 40.1853 19.1404 34.5638C18.9263 34.0834 18.7714 33.7273 18.7714 33.2758H16.8643C16.86 33.7446 17.0799 34.2209 17.5285 35.1817" fill="url(#paint5_linear)"/>
<path d="M17.5285 35.1788C20.0636 40.5515 22.6999 45.7748 25.7617 51.4195L26.5142 49.2547C26.342 49.2547 26.219 49.0624 26.0685 48.7672C23.4263 43.6897 21.648 40.1853 19.1404 34.5638C18.9263 34.0834 18.7714 33.7273 18.7714 33.2758H16.8643C16.86 33.7475 17.0799 34.2237 17.5285 35.1845" fill="url(#paint6_linear)"/>
<path d="M34.2624 33.2936C34.2624 33.748 34.1047 34.094 33.8934 34.5657C31.3829 40.1887 29.6046 43.6917 26.9668 48.7677C26.8119 49.0599 26.6861 49.2508 26.5139 49.2552L25.7614 51.42C23.0368 58.254 19.554 64.6324 19.554 64.6324C19.7609 64.6469 20.0083 64.3878 20.3034 63.9421C20.3801 63.8191 20.4829 63.6513 20.6059 63.443C22.5636 60.112 31.9906 42.7091 35.4793 35.208C35.9279 34.2428 36.1623 33.7624 36.1623 33.2936H34.2624Z" fill="url(#paint7_linear)"/>
<path d="M0.277588 33.2848C0.277588 33.7073 0.368737 34.2499 0.737715 35.0515C1.61169 36.9383 4.0484 41.7465 7.17676 47.4316C10.5829 53.6377 16.7774 63.9578 17.4719 64.9041C17.7498 65.2919 17.9943 65.5249 18.2273 65.6725L18.7207 64.4901C18.644 64.4047 18.5572 64.3034 18.4704 64.1732C17.8612 63.3412 11.9981 53.6452 8.24896 46.8343C5.58943 42.0028 2.96898 36.8835 1.85337 34.5177C1.62619 34.0431 1.51476 33.6277 1.51476 33.2848H0.277588Z" fill="url(#paint8_linear)"/>
<path d="M18.2273 65.6723C18.5615 65.8864 18.8683 65.911 19.2373 65.9443C20.1576 66.0253 24.1975 66.0902 26.5213 66.0902C28.8408 66.0902 33.1962 65.9978 33.7982 65.9443C34.0803 65.9183 34.3437 65.8935 34.6099 65.7705L34.1238 64.6203C34.063 64.6521 33.9472 64.6812 33.7432 64.7058L33.6563 64.7199C33.1239 64.7807 29.56 64.8591 26.5213 64.8591C24.0673 64.8591 21.7478 64.8069 20.2371 64.7563C20.1084 64.7563 19.9434 64.7418 19.8103 64.7563C19.5657 64.7794 19.2735 64.8098 19.1259 64.7563C18.9841 64.71 18.8596 64.6246 18.7207 64.4828L18.2273 65.6649V65.6723Z" fill="url(#paint9_linear)"/>
<path d="M34.1438 1.92723C34.2784 2.02562 34.4144 2.17628 34.5707 2.40201C35.1799 3.23113 41.0386 12.9301 44.7877 19.7381C47.4473 24.5696 50.0677 29.6903 51.1848 32.0547C51.412 32.5322 51.5277 32.8695 51.5277 33.2081L52.7591 33.2848C52.7591 32.9433 52.6824 32.3254 52.2961 31.5223C51.3642 29.5805 48.382 23.7056 45.8701 19.1404C42.5001 13.0371 36.2853 2.63917 35.5662 1.66969C35.19 1.16181 34.9063 0.92157 34.617 0.797131L34.1438 1.92723Z" fill="url(#paint10_linear)"/>
<path d="M19.1633 0.634202C18.8478 0.666036 18.6091 0.718045 18.408 0.803416L18.8985 1.97555C18.9911 1.93069 19.0823 1.88286 19.3283 1.85826C19.8058 1.81341 23.4738 1.71943 26.5211 1.71943C28.9926 1.71943 31.5132 1.76979 32.7619 1.82188C32.8878 1.83635 33.0557 1.83635 33.1859 1.82188C33.4275 1.79873 33.7604 1.76979 33.9108 1.82188C33.9919 1.84648 34.0714 1.88562 34.1438 1.93916L34.6169 0.809068C34.3435 0.683182 34.0729 0.668726 33.7632 0.642681C32.8053 0.552968 28.6786 0.49219 26.5211 0.49219C24.6169 0.49219 20.1993 0.541325 19.1633 0.645507" fill="url(#paint11_linear)"/>
<path d="M17.4242 1.72198C16.7123 2.65094 10.5062 13.1224 7.17676 19.1404C4.82109 23.3771 1.08788 30.7164 0.737715 31.5223C0.383207 32.3297 0.277588 32.8666 0.277588 33.2848H1.51476C1.51476 33.0952 1.55385 32.6798 1.85337 32.0547C2.96898 29.6903 5.58943 24.5696 8.24896 19.7381C11.9981 12.9301 17.8858 3.25283 18.4588 2.40202C18.6498 2.10683 18.7743 2.04183 18.8987 1.97527L18.4081 0.803139C18.0218 0.968094 17.7888 1.25172 17.4242 1.72198Z" fill="url(#paint12_linear)"/>
<path d="M51.1848 34.517C50.0677 36.8828 47.4472 42.0022 44.7877 46.8336C41.0386 53.6445 35.2015 63.2957 34.601 64.1249C34.3449 64.4707 34.2451 64.5706 34.1235 64.6198C34.1235 64.6198 34.125 64.6198 34.1235 64.6198L34.6097 65.77C34.9092 65.6398 35.2174 65.3925 35.5661 64.9034C36.2433 63.9745 42.911 52.8296 45.87 47.431C48.8175 42.0352 51.9603 35.8148 52.296 35.0508C52.7258 34.0944 52.7591 33.6271 52.7591 33.2841L51.5277 33.2075C51.5277 33.3999 51.4828 33.892 51.1848 34.517Z" fill="url(#paint13_linear)"/>
<path d="M33.1863 1.81605C33.2109 1.8146 33.2283 1.81315 33.2572 1.81315C33.2572 1.81315 32.9418 2.04901 32.1416 2.04611C31.1938 2.04033 29.2245 2.00126 27.6473 1.99258C24.7346 1.97521 21.2676 2.0273 19.647 2.10544C18.7861 2.14596 18.7311 2.23856 18.187 2.82458L18.4576 2.40062C18.65 2.10689 18.7745 2.04177 18.8989 1.97521C18.9915 1.92891 19.0827 1.88261 19.3287 1.85801C19.8062 1.81315 23.4742 1.7191 26.523 1.7191C28.9944 1.7191 31.5136 1.76974 32.7624 1.82183C32.8882 1.82762 33.0561 1.83196 33.1863 1.81605Z" fill="white"/>
<defs>
<radialGradient id="paint0_radial" cx="0" cy="0" r="1" gradientUnits="userSpaceOnUse" gradientTransform="translate(24.9666 15.3122) rotate(16.1586) scale(26.1915 28.4987)">
<stop stop-color="white"/>
<stop offset="0.481875" stop-color="white"/>
<stop offset="1" stop-color="#888A8F"/>
</radialGradient>
<linearGradient id="paint1_linear" x1="14.0364" y1="64.5457" x2="14.0364" y2="33.4429" gradientUnits="userSpaceOnUse">
<stop stop-color="#E0DFDE"/>
<stop offset="0.338501" stop-color="#9D9EA1"/>
<stop offset="0.694092" stop-color="#2D2D2F"/>
<stop offset="0.845169" stop-color="#191818"/>
<stop offset="0.948044" stop-color="#121312"/>
<stop offset="1" stop-color="#5F6369"/>
</linearGradient>
<linearGradient id="paint2_linear" x1="35.4726" y1="64.5429" x2="35.4726" y2="33.4153" gradientUnits="userSpaceOnUse">
<stop stop-color="#E0DFDE"/>
<stop offset="0.338501" stop-color="#9D9EA1"/>
<stop offset="0.694092" stop-color="#2D2D2F"/>
<stop offset="0.845169" stop-color="#191818"/>
<stop offset="0.953796" stop-color="#121312"/>
<stop offset="1" stop-color="#5F6369"/>
</linearGradient>
<linearGradient id="paint3_linear" x1="25.163" y1="33.0778" x2="25.163" y2="1.74627" gradientUnits="userSpaceOnUse">
<stop stop-color="#2D2D2F"/>
<stop offset="0.0400391" stop-color="#191818"/>
<stop offset="0.25209" stop-color="#231F20"/>
<stop offset="1" stop-color="#231F20"/>
</linearGradient>
<linearGradient id="paint4_linear" x1="31.3381" y1="33.2965" x2="31.3381" y2="15.1583" gradientUnits="userSpaceOnUse">
<stop stop-color="#6C6F76"/>
<stop offset="0.79538" stop-color="#191818"/>
<stop offset="0.920654" stop-color="#231F20"/>
<stop offset="1" stop-color="#231F20"/>
</linearGradient>
<linearGradient id="paint5_linear" x1="21.6897" y1="51.4533" x2="21.6897" y2="33.306" gradientUnits="userSpaceOnUse">
<stop stop-color="#B7B7B8"/>
<stop offset="0.96315" stop-color="#5F6369"/>
<stop offset="1" stop-color="#2D2D2F"/>
</linearGradient>
<linearGradient id="paint6_linear" x1="28.8172" y1="45.3017" x2="12.3092" y2="37.8554" gradientUnits="userSpaceOnUse">
<stop stop-color="#EEEEED"/>
<stop offset="0.109558" stop-color="#E9E8E8"/>
<stop offset="1" stop-color="#E9E8E8"/>
</linearGradient>
<linearGradient id="paint7_linear" x1="27.8589" y1="64.4343" x2="27.8589" y2="33.0952" gradientUnits="userSpaceOnUse">
<stop stop-color="white"/>
<stop offset="0.969345" stop-color="#B7B7B8"/>
<stop offset="0.991348" stop-color="#6C6F76"/>
<stop offset="1" stop-color="#6C6F76"/>
</linearGradient>
<linearGradient id="paint8_linear" x1="9.4992" y1="65.6719" x2="9.4992" y2="33.2852" gradientUnits="userSpaceOnUse">
<stop stop-color="#5F6369"/>
<stop offset="0.969833" stop-color="#46474C"/>
<stop offset="1" stop-color="#83868B"/>
</linearGradient>
<linearGradient id="paint9_linear" x1="20.3006" y1="61.7551" x2="32.7709" y2="68.9559" gradientUnits="userSpaceOnUse">
<stop stop-color="#5F6369"/>
<stop offset="0.104965" stop-color="#212121"/>
<stop offset="1" stop-color="#212121"/>
</linearGradient>
<linearGradient id="paint10_linear" x1="29.7411" y1="9.70041" x2="57.3848" y2="24.8348" gradientUnits="userSpaceOnUse">
<stop stop-color="#51545A"/>
<stop offset="1" stop-color="#6C6F76"/>
</linearGradient>
<linearGradient id="paint11_linear" x1="33.8658" y1="3.4165" x2="18.8886" y2="-0.877501" gradientUnits="userSpaceOnUse">
<stop stop-color="#51545A"/>
<stop offset="0.073761" stop-color="#9D9EA1"/>
<stop offset="0.501099" stop-color="#B5B5B7"/>
<stop offset="1" stop-color="#B7B7B8"/>
</linearGradient>
<linearGradient id="paint12_linear" x1="-3.91215" y1="22.3679" x2="22.7925" y2="12.117" gradientUnits="userSpaceOnUse">
<stop stop-color="#83868B"/>
<stop offset="0.986847" stop-color="#6C6F76"/>
<stop offset="1" stop-color="#B7B7B8"/>
</linearGradient>
<linearGradient id="paint13_linear" x1="43.4407" y1="65.7693" x2="43.4407" y2="33.2076" gradientUnits="userSpaceOnUse">
<stop stop-color="#212121"/>
<stop offset="0.969833" stop-color="#38383C"/>
<stop offset="1" stop-color="#6C6F76"/>
</linearGradient>
</defs>
</svg>
