<svg width="60" height="53" viewBox="0 0 60 53" fill="none" xmlns="http://www.w3.org/2000/svg">
<path d="M59.0731 30.3678L0.109375 20.0073C0.109375 20.0073 0.272509 13.4826 0.39939 10.0231C0.526272 6.56364 1.25131 4.46643 2.70139 3.19376C4.69524 1.45505 7.01537 1.02486 12.5619 0.738059C25.4132 0.03899 38.482 0.146539 54.8679 1.2758C56.5717 1.40128 57.2243 1.706 57.5505 1.93902C58.2756 2.423 58.3662 2.97867 58.5656 5.86457C58.7287 8.17687 59.0913 15.9563 59.0913 15.9563C59.0913 15.9563 39.7509 15.2572 30.2347 15.2572C27.5521 15.2572 25.3951 15.2751 23.6369 15.311C22.4587 15.3289 21.9149 15.4364 21.4618 15.6515L59.0913 21.979V30.3678H59.0731Z" fill="white"/>
<path d="M0.0732422 22.2119L59.037 32.5725C59.037 32.5725 58.8739 39.0971 58.747 42.5566C58.6201 46.0161 57.8951 48.1133 56.445 49.386C54.4511 51.1247 52.131 51.5549 46.5845 51.8417C33.7332 52.5407 20.6643 52.4332 4.27847 51.3039C2.57463 51.1785 1.92209 50.8737 1.59582 50.6407C0.870784 50.1567 0.780155 49.6011 0.580769 46.7152C0.453887 44.4208 0.0732422 36.6414 0.0732422 36.6414C0.0732422 36.6414 19.4136 37.3405 28.9298 37.3405C31.6124 37.3405 33.7694 37.3225 35.5276 37.2867C36.7058 37.2688 37.2496 37.1612 37.7027 36.9461L0.0732422 30.6007V22.2119Z" fill="white"/>
<path d="M59.0732 30.3693L0.109494 20.0088C0.109494 20.0088 0.272628 13.4841 0.399509 10.0246C0.526391 6.56514 1.25143 4.46793 2.70151 3.19527C4.69536 1.45656 7.01548 1.02636 12.562 0.739562C25.4133 0.040493 38.4821 0.148042 54.868 1.27731C56.5719 1.40278 57.2244 1.7075 57.5507 1.94053C58.2757 2.4245 58.3663 2.98017 58.5657 5.86607C58.7288 8.17838 59.0914 15.9578 59.0914 15.9578C59.0914 15.9578 39.751 15.2587 30.2348 15.2587C27.5522 15.2587 25.3952 15.2766 23.637 15.3125C22.4588 15.3304 21.915 15.4379 21.4619 15.653L59.0914 21.9805V30.3693H59.0732ZM0.0732422 22.2135L59.037 32.5741C59.037 32.5741 58.8739 39.0987 58.747 42.5582C58.6201 46.0177 57.8951 48.1149 56.445 49.3876C54.4511 51.1263 52.131 51.5565 46.5845 51.8433C33.7331 52.5424 20.6643 52.4348 4.27846 51.3056C2.57462 51.1801 1.92209 50.8754 1.59582 50.6423C0.870784 50.1584 0.780155 49.6027 0.580769 46.7168C0.453887 44.4224 0.0732422 36.643 0.0732422 36.643C0.0732422 36.643 19.4136 37.3421 28.9298 37.3421C31.6124 37.3421 33.7694 37.3242 35.5276 37.2883C36.7058 37.2704 37.2496 37.1629 37.7027 36.9478L0.0732422 30.6024V22.2135ZM0.689525 22.9485V30.0825L39.0259 36.5355C39.0259 36.5355 38.5003 37.2346 37.9565 37.4855C37.4127 37.7365 36.7239 37.8619 35.5276 37.8978C33.7513 37.9336 31.5943 37.9516 28.9116 37.9516C20.5012 37.9516 4.22409 37.3959 0.707651 37.2704C0.798281 39.2063 1.0883 44.7988 1.21518 46.681C1.41456 49.5489 1.50519 49.8178 1.95834 50.1405C2.12148 50.248 2.61088 50.5707 4.33284 50.6961C13.7946 51.3593 22.3138 51.6641 30.3798 51.6641C35.8176 51.6641 41.1104 51.5207 46.5482 51.2339C51.9316 50.9471 54.1792 50.5527 56.0281 48.9216C57.3513 47.7744 58.0038 45.7309 58.1126 42.5403C58.2032 39.7082 58.3482 34.7072 58.3845 33.0939L0.689525 22.9485ZM58.4388 29.6344V22.5003L20.1024 16.0474C20.1024 16.0474 20.6281 15.3483 21.1719 15.0974C21.6975 14.8464 22.4044 14.7209 23.6007 14.6851C25.359 14.6492 27.5341 14.6313 30.1986 14.6313C38.609 14.6313 54.8861 15.187 58.4026 15.3125C58.3119 13.3766 58.0219 7.78403 57.8951 5.90192C57.6957 3.03394 57.605 2.76507 57.1519 2.44242C56.9888 2.33487 56.4993 2.01223 54.7774 1.88675C45.3156 1.22353 36.7964 0.918811 28.7304 0.918811C23.2926 0.918811 17.9998 1.06221 12.562 1.34901C7.19674 1.63581 4.94913 2.03015 3.10028 3.64339C1.77708 4.8085 1.12455 6.83401 1.01579 10.0426C0.907036 12.8747 0.780155 17.8578 0.743903 19.489L58.4388 29.6344Z" fill="black"/>
<path d="M31.123 40.4058C30.7786 40.4058 29.0566 40.4058 28.6941 40.4058C20.8637 40.4058 12.4714 40.352 2.23023 39.7964L0.743896 37.2869L1.14267 37.3048L2.84651 39.2407C11.692 39.7247 19.8124 39.8322 28.7123 39.8322C29.0748 39.8322 30.7605 39.8322 31.1411 39.8322C32.3918 39.8322 33.86 39.8322 35.1651 39.7784C39.6603 39.635 41.0198 39.169 44.1012 36.0859L45.2069 35.9784L44.7537 36.4444C41.4367 39.8322 40.0772 40.1728 35.1832 40.3341C33.8419 40.4058 32.3737 40.4058 31.123 40.4058Z" fill="white"/>
<path d="M58.4025 33.0924L0.689453 22.947V23.3055L1.70451 23.8253V28.5037L0.689453 29.6329V30.099L2.26641 28.8084V23.5923L57.5687 33.3075L58.4025 33.0924Z" fill="white"/>
<path d="M56.9524 33.2C56.9161 34.15 56.8799 35.351 56.8436 36.4444C56.8074 37.3765 56.7893 38.1831 56.753 38.9359C56.7168 39.9577 56.6624 40.9794 56.608 42.3596C56.463 45.9087 55.6473 47.038 54.0885 47.9701C52.6022 48.8663 50.8621 48.9918 45.5693 49.2427C40.204 49.5116 34.4762 49.655 28.5309 49.6908C28.0777 49.6908 27.6246 49.6908 27.1714 49.6908C20.2111 49.6908 13.8489 49.3144 5.85531 48.6871C4.49586 48.5795 3.62582 48.472 3.24517 48.221C2.82827 47.9521 2.71952 47.8804 2.59264 46.1776C2.57451 45.9266 2.55638 45.6936 2.53826 45.4606C2.50201 44.8153 2.44763 44.2417 2.41138 43.3813C2.37513 42.503 2.32075 41.6426 2.19387 39.7426L1.66821 38.8642C1.77697 40.8897 1.84947 42.6105 1.88572 43.5068C1.92198 44.3134 1.9401 44.8511 1.97635 45.4964V45.5681C1.99448 45.7653 1.99448 45.9804 2.01261 46.1955C2.12136 47.8984 2.24824 48.2389 2.9189 48.6691C3.40831 48.9918 4.3146 49.1173 5.80093 49.2248C13.8126 49.8342 20.1748 50.2286 27.1533 50.2286C27.6065 50.2286 28.0596 50.2286 28.5128 50.2286C34.4581 50.1927 40.204 50.0314 45.5874 49.7625C50.989 49.4937 52.7653 49.3682 54.3785 48.4003C56.1186 47.3606 57.0249 46.1238 57.1699 42.3237C57.2243 40.9614 57.2605 39.9397 57.3149 38.9539V38.9001C57.3874 37.3048 57.4599 35.6019 57.5506 33.2538L56.9524 33.2Z" fill="url(#paint0_radial)"/>
<path d="M56.9888 13.5901H56.7531C48.3246 13.1778 39.7329 13.2316 30.0355 13.2316C29.4192 13.2316 28.6579 13.2316 27.8241 13.2495C25.2683 13.2854 23.2926 13.2854 22.1144 13.5005C19.5587 13.9486 19.6856 15.2571 20.6462 15.4363C20.8094 15.2929 20.9906 15.1675 21.1719 15.0778C21.6975 14.8269 22.4044 14.7014 23.6008 14.6656C25.359 14.6297 27.5341 14.6118 30.1986 14.6118C38.4097 14.6118 54.0705 15.1316 58.1126 15.275C57.8226 14.8269 57.1338 13.8052 56.9888 13.5901Z" fill="url(#paint1_linear)"/>
<path d="M55.8467 5.00426L56.173 4.53821L56.0823 4.48444C55.6654 4.19764 54.7773 4.01839 53.3091 3.91084C45.7687 3.39102 37.4126 3.06837 31.4854 3.06837C31.0866 3.06837 30.6879 3.06837 30.2891 3.06837C29.0384 3.06837 27.8602 3.0863 26.7364 3.0863C21.0448 3.12215 16.5859 3.17592 13.3051 3.35517C13.0332 3.3731 12.7613 3.39102 12.4894 3.39102C7.8129 3.64197 5.47465 3.76744 3.6258 5.38068C2.39323 6.4741 1.88571 7.94393 1.75883 10.8298L1.70445 12.2101C1.61382 14.3969 1.57757 15.7592 1.46881 18.6809C1.30568 18.7526 0.870653 18.9498 0.725645 19.0215L0.70752 19.4875L2.04884 18.9498L2.06697 18.2866C2.13947 15.7412 2.19385 14.1997 2.28448 12.228L2.33886 10.8478C2.44761 8.14111 2.90076 6.77882 4.00644 5.81088C5.69216 4.32311 7.97603 4.21557 12.5075 3.96462C12.7794 3.94669 13.0513 3.92877 13.3232 3.92877C16.5859 3.74952 21.0448 3.69574 26.7183 3.65989C27.8421 3.65989 29.0203 3.64197 30.271 3.64197C30.6516 3.64197 31.0504 3.64197 31.4492 3.64197C37.3582 3.64197 45.6962 3.96462 53.2184 4.48444C54.5416 4.57406 55.3935 4.73539 55.7198 4.95048L55.8467 5.00426Z" fill="white"/>
<path d="M1.72264 12.1921L1.77702 10.8119C1.9039 7.92599 2.3933 6.45615 3.64399 5.36273C3.91588 5.12971 4.2059 4.91461 4.49591 4.73536C4.22402 4.19762 4.15152 3.69572 4.33278 3.3193C4.49591 3.01458 5.14845 2.47683 6.54414 1.97494C5.05782 2.31551 4.02464 2.81741 3.10021 3.64195C1.77702 4.80706 1.12448 6.83257 1.01573 10.0411C0.925097 12.6402 0.798215 17.0497 0.761963 19.0215C0.870719 18.9677 1.32387 18.7705 1.50513 18.6809C1.59576 15.7591 1.63201 14.3789 1.72264 12.1921Z" fill="url(#paint2_linear)"/>
<path d="M56.4268 4.75327C56.8074 4.17967 57.3694 4.16175 57.8769 5.45234C57.6956 2.99663 57.5869 2.72776 57.17 2.44096C57.0068 2.33341 56.5174 2.01077 54.7955 1.88529C45.3337 1.22207 36.8145 0.917351 28.7485 0.917351C23.3107 0.917351 18.0179 1.06075 12.5801 1.34755C9.89748 1.49095 8.01238 1.65227 6.54418 1.97492C5.14848 2.47681 4.49595 3.01456 4.33282 3.31928C4.13343 3.6957 4.22406 4.21552 4.49595 4.73534C6.21791 3.71363 8.51991 3.58815 12.4895 3.37306C12.7614 3.35513 13.0333 3.33721 13.3052 3.33721C16.586 3.15796 21.0449 3.10418 26.7365 3.06833C27.8603 3.06833 29.0385 3.05041 30.2892 3.05041C30.6698 3.05041 31.0686 3.05041 31.4855 3.05041C37.4127 3.05041 45.7687 3.37306 53.3091 3.89288C54.7773 4.00043 55.6655 4.17967 56.0824 4.46647L56.173 4.52025C56.2637 4.59195 56.3543 4.68157 56.4268 4.75327Z" fill="url(#paint3_linear)"/>
<path d="M58.4024 14.9345L57.2605 13.0345C57.2424 11.4929 57.0974 8.30232 56.9886 6.97588C56.8617 5.70322 56.8074 5.16547 56.4448 4.77112C56.3723 4.6815 56.2817 4.6098 56.1729 4.5381L55.8467 5.00415C56.2092 5.27302 56.2636 5.50604 56.4086 7.02966C56.5355 8.40987 56.753 11.8873 56.7711 13.2675L58.1305 15.3109L58.4206 15.3289L58.4024 14.9345Z" fill="url(#paint4_linear)"/>
<path d="M57.8768 5.45227C57.3693 4.1796 56.7893 4.1796 56.4268 4.7532C56.8074 5.16547 56.8437 5.70321 56.9705 6.95795C57.0974 8.28439 57.2243 11.475 57.2424 13.0166L58.3844 14.9166C58.2756 12.7298 58.0218 7.65702 57.895 5.86454" fill="black"/>
<path d="M56.7531 13.2496C48.8864 12.8732 40.4035 12.6581 30.0354 12.6581C27.9691 12.6581 23.927 12.7298 22.0782 12.7656C18.9424 12.8194 18.3986 14.7553 18.3805 15.4723L57.0431 24.3451V29.0772L58.4388 29.6329L0.743896 19.4874L2.08522 18.9497L2.10334 18.2865C2.10334 18.2865 2.23023 14.1996 2.32086 12.2279L2.37523 10.8476C2.48399 8.14099 2.93714 6.7787 4.04282 5.81076C5.72854 4.323 8.01241 4.21545 12.5439 3.9645C12.8158 3.94658 13.0877 3.92865 13.3596 3.92865C16.6222 3.7494 21.0812 3.69563 26.7547 3.65978C27.8785 3.65978 29.0566 3.64185 30.3073 3.64185C30.688 3.64185 31.0868 3.64185 31.4855 3.64185C37.3946 3.64185 45.7325 3.9645 53.2548 4.48432C54.578 4.57395 55.4299 4.73527 55.7562 4.95037L55.8468 5.00414C55.8468 5.00414 55.8468 5.00414 55.8649 5.00414L55.8831 5.02207C55.9012 5.02207 55.9012 5.03999 55.9193 5.03999C55.9374 5.03999 55.9374 5.05792 55.9556 5.05792C55.9737 5.05792 55.9737 5.07584 55.9737 5.07584C55.9737 5.09377 55.9918 5.09377 55.9918 5.09377C56.2093 5.32679 56.2637 5.64944 56.3725 6.72493C56.3725 6.81455 56.3906 6.90418 56.3906 6.9938C56.5356 8.39194 56.7531 11.8694 56.7531 13.2496Z" fill="url(#paint5_radial)"/>
<path d="M56.7531 13.2496C48.8864 12.8732 40.4035 12.6581 30.0354 12.6581C27.9691 12.6581 23.927 12.7298 22.0782 12.7656C18.9424 12.8194 18.3986 14.7553 18.3805 15.4723L57.0431 24.3451V29.0772L58.4388 29.6329L0.743896 19.4874L2.08522 18.9497L2.10334 18.2865C2.10334 18.2865 2.23023 14.1996 2.32086 12.2279L2.37523 10.8476C2.48399 8.14099 2.93714 6.7787 4.04282 5.81076C5.72854 4.323 8.01241 4.21545 12.5439 3.9645C12.8158 3.94658 13.0877 3.92865 13.3596 3.92865C16.6222 3.7494 21.0812 3.69563 26.7547 3.65978C27.8785 3.65978 29.0566 3.64185 30.3073 3.64185C30.688 3.64185 31.0868 3.64185 31.4855 3.64185C37.3946 3.64185 45.7325 3.9645 53.2548 4.48432C54.578 4.57395 55.4299 4.73527 55.7562 4.95037L55.8468 5.00414C55.8468 5.00414 55.8468 5.00414 55.8649 5.00414L55.8831 5.02207C55.9012 5.02207 55.9012 5.03999 55.9193 5.03999C55.9374 5.03999 55.9374 5.05792 55.9556 5.05792C55.9737 5.05792 55.9737 5.07584 55.9737 5.07584C55.9737 5.09377 55.9918 5.09377 55.9918 5.09377C56.2093 5.32679 56.2637 5.64944 56.3725 6.72493C56.3725 6.81455 56.3906 6.90418 56.3906 6.9938C56.5356 8.39194 56.7531 11.8694 56.7531 13.2496Z" fill="url(#paint6_radial)"/>
<path d="M0.689453 23.3055L1.70451 23.8254V28.5038L0.689453 29.633V23.3055Z" fill="#B2B2B2"/>
<path d="M52.5661 50.605C52.983 50.3361 53.1823 50.0852 53.2548 49.9418C53.3999 49.655 53.273 49.3861 53.0192 49.0814C51.5873 49.5295 49.5753 49.637 45.5876 49.8342C40.2223 50.1031 34.4764 50.2465 28.5129 50.3003C28.0598 50.3003 27.6066 50.3003 27.1535 50.3003C20.175 50.3003 13.8128 49.9238 5.80109 49.2965C4.31476 49.1889 3.40846 49.0634 2.91906 48.7408C2.75593 48.6332 2.62904 48.5257 2.52029 48.4181C2.46591 48.4719 2.39341 48.5436 2.30278 48.6153C1.79525 49.0634 1.52336 48.9738 1.32397 48.2747C1.45086 49.7087 1.59586 49.9238 1.94026 50.1569C2.10339 50.2644 2.59279 50.587 4.31476 50.7125C13.7765 51.3757 22.2957 51.6805 30.3618 51.6805C35.7995 51.6805 41.0923 51.5371 46.5301 51.2503C49.2309 51.0889 51.116 50.9276 52.5661 50.605Z" fill="url(#paint7_linear)"/>
<path d="M1.99465 45.604V45.5323C1.9584 44.887 1.94027 44.3493 1.90402 43.5427C1.86777 42.6464 1.79526 40.9256 1.68651 38.9001L0.72583 37.2869C0.81646 39.2228 1.10648 44.8153 1.23336 46.6974L1.36024 48.2569C1.55962 48.9739 1.83151 49.0635 2.33904 48.5975C2.42967 48.5079 2.50217 48.4541 2.55655 48.4003C2.23028 48.0418 2.13965 47.522 2.04903 46.2493C2.0309 46.0163 2.01277 45.8191 1.99465 45.604Z" fill="#9D9D9C"/>
<path d="M57.5688 33.3076C57.4782 35.6557 57.4057 37.3586 57.3332 38.9539V39.0077C57.2969 39.9935 57.2425 41.0152 57.1882 42.3775C57.025 46.1955 56.1187 47.4144 54.3968 48.4541C53.9799 48.705 53.5448 48.9022 53.0554 49.0635C53.2911 49.3682 53.4361 49.6371 53.2911 49.9239C53.2186 50.0673 53.0011 50.3362 52.6023 50.5871C54.0886 50.2465 55.1399 49.7446 56.0644 48.9201C57.3876 47.7729 58.0401 45.7295 58.1488 42.5389C58.2395 39.7067 58.3845 34.7057 58.4207 33.0925L57.5688 33.3076Z" fill="url(#paint8_linear)"/>
<path d="M56.7532 38.9361C56.717 39.9578 56.6626 40.9795 56.6082 42.3597C56.4632 45.9088 55.6476 47.0381 54.0887 47.9702C52.6024 48.8664 50.8623 48.9919 45.5695 49.2428C40.2042 49.5117 34.4764 49.6551 28.5311 49.691C28.078 49.691 27.6248 49.691 27.1717 49.691C20.2113 49.691 13.8491 49.3145 5.85554 48.6872C4.49609 48.5796 3.62604 48.4721 3.2454 48.2211C2.8285 47.9522 2.71974 47.8806 2.59286 46.1777C2.57474 45.9267 2.55661 45.6937 2.53849 45.4607C2.50223 44.8154 2.44786 44.2418 2.4116 43.3814C2.37535 42.5031 2.32097 41.6427 2.19409 39.7427C12.4534 40.2983 20.8457 40.3521 28.658 40.3521C29.0205 40.3521 30.7425 40.3521 31.0869 40.3521C32.3557 40.3521 33.8239 40.3521 35.129 40.2983C40.023 40.137 41.3824 39.7964 44.6995 36.4086L45.1526 35.9426L2.2666 28.8085V23.5924L56.9707 33.2001C56.9345 34.1501 56.8982 35.3511 56.862 36.4445C56.8076 37.3766 56.7895 38.1832 56.7532 38.9361Z" fill="url(#paint9_radial)"/>
<path d="M39.0078 38.9179C38.9897 39.1151 38.7178 39.4019 37.7209 39.617C40.3129 39.3122 41.6542 38.4877 44.0468 36.1037L39.0078 36.5518C39.0078 36.5518 38.4821 37.2509 37.9384 37.5018C37.5758 37.6632 37.1589 37.7886 36.5608 37.8424C37.6302 38.0754 37.9746 38.2009 38.4096 38.3802C38.7903 38.5056 39.0259 38.7566 39.0078 38.9179Z" fill="url(#paint10_linear)"/>
<path d="M37.7389 39.6171C38.7359 39.402 39.0078 39.1152 39.0259 38.9181C39.044 38.7567 38.7903 38.5058 38.4459 38.3803C38.029 38.219 37.6664 38.0935 36.597 37.8426C36.597 37.8426 35.9445 37.8963 35.5457 37.8963C33.7694 37.9322 31.6124 37.9501 28.9297 37.9501C20.7912 37.9501 5.31161 37.4303 1.12451 37.2869L2.82835 39.2228C11.6738 39.7068 19.7942 39.8143 28.6941 39.8143C29.0566 39.8143 30.7423 39.8143 31.123 39.8143C32.3737 39.8143 33.8419 39.8143 35.1469 39.7605C36.1439 39.7605 36.9958 39.7068 37.7389 39.6171Z" fill="url(#paint11_linear)"/>
<path d="M56.9345 23.6999L57.877 22.3914L23.3833 16.5837C26.9541 17.7309 36.5246 19.9357 43.8475 21.5668C43.5031 21.4951 55.7563 23.5027 56.9345 23.6999Z" fill="url(#paint12_linear)"/>
<path d="M35.1469 34.9027C34.2044 34.7235 33.4793 34.5622 32.6999 34.4546C32.3555 34.4008 14.012 31.3178 1.77701 29.2026L0.689453 30.081L39.0259 36.5339C38.4821 35.9245 36.5789 35.1895 35.1469 34.9027Z" fill="url(#paint13_linear)"/>
<path d="M35.147 34.9028C34.2044 34.7235 33.4794 34.5622 32.7 34.4547C32.3556 34.4009 14.0121 31.3178 1.7771 29.2027L2.2665 28.8083L45.1888 35.9962L39.0441 36.5519C38.6816 36.0858 36.9052 35.2434 35.147 34.9028Z" fill="url(#paint14_linear)"/>
<path d="M56.7531 13.2496C48.8865 12.8732 40.4035 12.6581 30.0355 12.6581C27.9691 12.6581 23.927 12.7298 22.0782 12.7657C18.1811 12.8374 15.9335 14.6836 14.139 16.6554L13.8127 16.978L20.2112 15.8846C20.2112 15.8846 20.32 15.7233 20.6462 15.4365C19.6856 15.2572 19.5587 13.9487 22.1144 13.5006C23.2745 13.2855 25.2684 13.2855 27.8241 13.2496C28.6579 13.2317 29.4373 13.2317 30.0355 13.2317C39.7329 13.2317 48.3246 13.1779 56.7531 13.5902L56.9888 13.6081L56.7531 13.2496Z" fill="black"/>
<path d="M14.8459 16.8166C17.4742 17.2648 32.4644 19.7025 43.8475 21.5667C36.5246 19.9356 26.9541 17.7487 23.3833 16.5836L20.2294 15.8846L14.8459 16.8166Z" fill="url(#paint15_linear)"/>
<path d="M56.7532 38.9361C56.717 39.9578 56.6626 40.9795 56.6082 42.3597C56.4632 45.9088 55.6476 47.0381 54.0887 47.9702C52.6024 48.8664 50.8623 48.9919 45.5695 49.2428C40.2042 49.5117 34.4764 49.6551 28.5311 49.691C28.078 49.691 27.6248 49.691 27.1717 49.691C20.2113 49.691 13.8491 49.3145 5.85554 48.6872C4.49609 48.5796 3.62604 48.4721 3.2454 48.2211C2.8285 47.9522 2.71974 47.8806 2.59286 46.1777C2.57474 45.9267 2.55661 45.6937 2.53849 45.4607C2.50223 44.8154 2.44786 44.2418 2.4116 43.3814C2.37535 42.5031 2.32097 41.6427 2.19409 39.7427C12.4534 40.2983 20.8457 40.3521 28.658 40.3521C29.0205 40.3521 30.7425 40.3521 31.0869 40.3521C32.3557 40.3521 33.8239 40.3521 35.129 40.2983C40.023 40.137 41.3824 39.7964 44.6995 36.4086L45.1526 35.9426L2.2666 28.8085V23.5924L56.9707 33.2001C56.9345 34.1501 56.8982 35.3511 56.862 36.4445C56.8076 37.3766 56.7895 38.1832 56.7532 38.9361Z" fill="url(#paint16_radial)"/>
<path d="M13.8308 16.978L14.8459 16.7987C18.9967 17.4978 53.8711 23.1621 56.9343 23.6819L57.8769 22.3734L58.4388 22.463L57.0431 24.3092L13.8308 16.978Z" fill="white"/>
<path opacity="0.1" d="M54.0886 47.9701C55.6474 47.038 56.4631 45.9088 56.6081 42.3596C56.6625 40.9794 56.7168 39.9398 56.7531 38.936C56.7893 38.1832 56.8075 37.3765 56.8437 36.4444C56.88 35.351 56.9162 34.1501 56.9525 33.2L41.4185 30.4755C38.7178 31.3896 36.307 32.6444 34.295 34.1859L45.1706 36.0142L44.7175 36.4803C41.4004 39.8681 40.041 40.2087 35.1469 40.37C33.8419 40.4058 32.3737 40.4238 31.1049 40.4238C30.8511 40.4238 29.8179 40.4238 29.1654 40.4238C28.4766 41.9832 28.0959 43.6323 28.0959 45.3352C28.0959 46.8588 28.386 48.3286 28.9479 49.7268C34.7482 49.6909 40.331 49.5296 45.5694 49.2786C50.8622 48.9918 52.6022 48.8664 54.0886 47.9701Z" fill="url(#paint17_radial)"/>
<path d="M57.0613 29.0774L57.6051 28.9161V23.5924L57.0613 24.3452V29.0774Z" fill="#9D9D9C"/>
<path d="M57.0613 29.0773L57.6051 28.916L58.4389 29.3282V29.6329L57.0613 29.0773Z" fill="#878787"/>
<path d="M58.4388 22.4808L57.605 23.5921V28.9158L58.4388 29.3281V22.4808Z" fill="#3C3C3B"/>
<defs>
<radialGradient id="paint0_radial" cx="0" cy="0" r="1" gradientUnits="userSpaceOnUse" gradientTransform="translate(27.6198 49.6138) rotate(15.3275) scale(29.8341 18.6156)">
<stop offset="0.3301" stop-color="#818080"/>
<stop offset="0.6198" stop-color="#A2A2A2"/>
<stop offset="0.7979" stop-color="#B2B2B2"/>
<stop offset="1" stop-color="#DADADA"/>
</radialGradient>
<linearGradient id="paint1_linear" x1="20.3437" y1="14.3362" x2="56.8995" y2="14.3362" gradientUnits="userSpaceOnUse">
<stop stop-color="#4A4A49"/>
<stop offset="0.3168" stop-color="#525251"/>
<stop offset="0.454" stop-color="#575756"/>
<stop offset="0.7429" stop-color="#2D2D2C"/>
<stop offset="0.9069"/>
</linearGradient>
<linearGradient id="paint2_linear" x1="5.34877" y1="17.9971" x2="2.18627" y2="3.70608" gradientUnits="userSpaceOnUse">
<stop stop-color="#9D9D9C"/>
<stop offset="0.5625" stop-color="#ACACAB"/>
<stop offset="1" stop-color="#B2B2B2"/>
</linearGradient>
<linearGradient id="paint3_linear" x1="4.50023" y1="3.17739" x2="57.9066" y2="3.17739" gradientUnits="userSpaceOnUse">
<stop offset="0.0567086" stop-color="#BFBFBF"/>
<stop offset="0.2789" stop-color="#BCBCBC"/>
<stop offset="0.442" stop-color="#B3B3B3"/>
<stop offset="0.5862" stop-color="#A3A3A3"/>
<stop offset="0.7194" stop-color="#8C8C8C"/>
<stop offset="0.8452" stop-color="#6F6F6F"/>
<stop offset="0.9637" stop-color="#4C4C4C"/>
<stop offset="1" stop-color="#404040"/>
</linearGradient>
<linearGradient id="paint4_linear" x1="57.1272" y1="4.83965" x2="57.1272" y2="15.0572" gradientUnits="userSpaceOnUse">
<stop offset="0.00613497" stop-color="white"/>
<stop offset="0.1166" stop-color="#CCCCCC"/>
<stop offset="0.495" stop-color="#CACACA"/>
<stop offset="0.6313" stop-color="#C3C3C3"/>
<stop offset="0.7284" stop-color="#B8B8B8"/>
<stop offset="0.807" stop-color="#A7A7A7"/>
<stop offset="0.8742" stop-color="#919191"/>
<stop offset="0.9338" stop-color="#757575"/>
<stop offset="0.9863" stop-color="#565656"/>
<stop offset="1" stop-color="#4D4D4D"/>
</linearGradient>
<radialGradient id="paint5_radial" cx="0" cy="0" r="1" gradientUnits="userSpaceOnUse" gradientTransform="translate(56.3587 49.7193) scale(71.2233 70.433)">
<stop offset="0.1417" stop-color="#878787"/>
<stop offset="0.3057" stop-color="#A4A4A3"/>
<stop offset="0.4874" stop-color="#BDBDBD"/>
<stop offset="0.5888" stop-color="#C6C6C6"/>
<stop offset="0.6593" stop-color="#D5D5D5"/>
<stop offset="0.7508" stop-color="#E2E2E2"/>
<stop offset="0.8484" stop-color="#EAEAEA"/>
<stop offset="0.9612" stop-color="#EDEDED"/>
</radialGradient>
<radialGradient id="paint6_radial" cx="0" cy="0" r="1" gradientUnits="userSpaceOnUse" gradientTransform="translate(82.6116 61.2213) scale(74.3138 73.4893)">
<stop offset="0.1417" stop-color="#878787"/>
<stop offset="0.3057" stop-color="#A4A4A3"/>
<stop offset="0.4874" stop-color="#BDBDBD"/>
<stop offset="0.5888" stop-color="#C6C6C6"/>
<stop offset="0.6329" stop-color="#D6D6D6"/>
<stop offset="0.7028" stop-color="#E8E8E8"/>
<stop offset="0.776" stop-color="#F5F5F5"/>
<stop offset="0.8537" stop-color="#FDFDFD"/>
<stop offset="0.9435" stop-color="white"/>
</radialGradient>
<linearGradient id="paint7_linear" x1="1.34458" y1="49.965" x2="53.3296" y2="49.965" gradientUnits="userSpaceOnUse">
<stop stop-color="#706F6F" stop-opacity="0.91"/>
<stop offset="0.5081" stop-color="#474746" stop-opacity="0.9557"/>
<stop offset="1"/>
</linearGradient>
<linearGradient id="paint8_linear" x1="54.9783" y1="48.8397" x2="58.9324" y2="34.3908" gradientUnits="userSpaceOnUse">
<stop offset="0.2699" stop-color="#575756"/>
<stop offset="0.3398" stop-color="#4F4F4E"/>
<stop offset="0.5821" stop-color="#353534"/>
<stop offset="0.808" stop-color="#131312"/>
<stop offset="1"/>
</linearGradient>
<radialGradient id="paint9_radial" cx="0" cy="0" r="1" gradientUnits="userSpaceOnUse" gradientTransform="translate(81.1349 193.566) scale(230.318 227.762)">
<stop stop-color="#7C7C7B"/>
<stop offset="0.0831301" stop-color="#8F8E8E"/>
<stop offset="0.3015" stop-color="#B9B9B8"/>
<stop offset="0.467" stop-color="#D1D1D1"/>
<stop offset="0.5589" stop-color="#DADADA"/>
<stop offset="0.6513" stop-color="#E4E4E4"/>
<stop offset="0.8713" stop-color="#F8F8F8"/>
<stop offset="1" stop-color="white"/>
</radialGradient>
<linearGradient id="paint10_linear" x1="40.8468" y1="34.9193" x2="39.6588" y2="39.7376" gradientUnits="userSpaceOnUse">
<stop offset="0.0613497" stop-color="#706F6F"/>
<stop offset="0.1515" stop-color="#929191"/>
<stop offset="0.2488" stop-color="#ADADAC"/>
<stop offset="0.3543" stop-color="#C2C2C2"/>
<stop offset="0.4692" stop-color="#D2D2D2"/>
<stop offset="0.5981" stop-color="#DDDDDD"/>
<stop offset="0.7525" stop-color="#E3E3E3"/>
<stop offset="1" stop-color="#E5E5E5"/>
</linearGradient>
<linearGradient id="paint11_linear" x1="1.11864" y1="38.562" x2="39.016" y2="38.562" gradientUnits="userSpaceOnUse">
<stop stop-color="#9C9C9C"/>
<stop offset="0.1897" stop-color="#949494"/>
<stop offset="0.4835" stop-color="#7F7F7E"/>
<stop offset="0.8429" stop-color="#5C5C5B"/>
<stop offset="1" stop-color="#4A4A49"/>
</linearGradient>
<linearGradient id="paint12_linear" x1="23.3824" y1="20.1383" x2="57.8755" y2="20.1383" gradientUnits="userSpaceOnUse">
<stop stop-color="#B2B2B2"/>
<stop offset="0.3427" stop-color="#BABABA"/>
<stop offset="0.8723" stop-color="#D0D0D0"/>
<stop offset="1" stop-color="#D6D6D6"/>
</linearGradient>
<linearGradient id="paint13_linear" x1="1.6392" y1="29.6861" x2="38.2855" y2="36.1197" gradientUnits="userSpaceOnUse">
<stop stop-color="#878787"/>
<stop offset="0.8957"/>
</linearGradient>
<linearGradient id="paint14_linear" x1="2.05595" y1="29.6579" x2="44.3888" y2="36.6924" gradientUnits="userSpaceOnUse">
<stop stop-color="#646363"/>
<stop offset="1" stop-color="#4A4A49"/>
</linearGradient>
<linearGradient id="paint15_linear" x1="14.8444" y1="18.721" x2="43.8489" y2="18.721" gradientUnits="userSpaceOnUse">
<stop offset="0.2242" stop-color="#575756"/>
<stop offset="0.3798" stop-color="#5D5D5C"/>
<stop offset="0.5842" stop-color="#6D6C6C"/>
<stop offset="0.8149" stop-color="#868685"/>
<stop offset="1" stop-color="#9D9D9C"/>
</linearGradient>
<radialGradient id="paint16_radial" cx="0" cy="0" r="1" gradientUnits="userSpaceOnUse" gradientTransform="translate(56.9218 49.2276) scale(71.5053 70.712)">
<stop stop-color="#878787"/>
<stop offset="0.1882" stop-color="#A4A4A3"/>
<stop offset="0.3966" stop-color="#BDBDBD"/>
<stop offset="0.513" stop-color="#C6C6C6"/>
<stop offset="0.5735" stop-color="#D6D6D6"/>
<stop offset="0.6696" stop-color="#E8E8E8"/>
<stop offset="0.77" stop-color="#F5F5F5"/>
<stop offset="0.8766" stop-color="#FDFDFD"/>
<stop offset="1" stop-color="white"/>
</radialGradient>
<radialGradient id="paint17_radial" cx="0" cy="0" r="1" gradientUnits="userSpaceOnUse" gradientTransform="translate(55.41 50.2101) scale(24.7075 24.4334)">
<stop/>
<stop offset="0.283" stop-color="#6F6E6E"/>
<stop offset="0.647" stop-color="#BEBEBD"/>
<stop offset="0.8118" stop-color="#DADADA"/>
<stop offset="0.8512" stop-color="#E4E4E4"/>
<stop offset="0.9451" stop-color="#F8F8F8"/>
<stop offset="1" stop-color="white"/>
</radialGradient>
</defs>
</svg>
