<svg width="72" height="71" viewBox="0 0 72 71" fill="none" xmlns="http://www.w3.org/2000/svg">
<path d="M35.878 0.551983C55.4291 0.485791 71.333 15.9853 71.4005 35.1712C71.4679 54.357 55.6733 69.9639 36.1223 70.0301C16.5712 70.0962 0.667243 54.5967 0.599792 35.4109C0.53234 16.225 16.3269 0.618175 35.878 0.551983Z" fill="url(#paint0_linear)" stroke="#141414" stroke-width="0.805595" stroke-linecap="square"/>
<path d="M36.0004 66.4835C27.5094 66.4835 19.5269 63.2395 13.5231 57.3473C7.51885 51.4563 4.21216 43.6221 4.21216 35.2911C4.21216 26.9582 7.51885 19.1252 13.5231 13.2342C19.5269 7.34199 27.5094 4.09759 36.0004 4.09759C44.4915 4.09759 52.474 7.34199 58.4778 13.2342C64.482 19.1252 67.7879 26.9582 67.7879 35.2911C67.7879 43.6221 64.482 51.4551 58.4778 57.3473C52.474 63.2395 44.4915 66.4835 36.0004 66.4835Z" fill="#141414"/>
<path d="M36.0007 63.9519C28.1987 63.9519 20.8641 60.9706 15.3478 55.5575C9.8306 50.1441 6.79248 42.9464 6.79248 35.2913C6.79248 27.6353 9.8306 20.4377 15.3478 15.0242C20.8641 9.6111 28.1987 6.6291 36.0007 6.6291C43.8027 6.6291 51.1373 9.6111 56.6536 15.0242C62.1708 20.4377 65.2089 27.6353 65.2089 35.2913C65.2089 42.9464 62.1708 50.1441 56.6536 55.5575C51.1373 60.9706 43.8027 63.9519 36.0007 63.9519Z" fill="white"/>
<path d="M58.1731 49.0602C56.0137 47.0715 53.2913 45.7414 50.3256 45.2768C49.9026 45.2126 49.5193 45.533 49.5193 45.9533C49.5193 46.2955 49.5193 46.6663 49.5193 47.0097C49.5193 47.3238 49.2747 47.6798 48.9534 47.6798C48.7206 47.6798 48.4879 47.686 48.2538 47.6798C47.4268 47.6671 47.2763 46.6702 47.4423 46.0832C49.2053 39.8794 49.6362 36.1164 49.6158 33.3765C49.5938 30.4641 49.5193 27.5627 48.1817 23.7215C46.8931 20.0263 45.7164 16.4083 39.4931 10.8784C39.07 10.5046 38.643 10.3231 38.0735 10.2827C37.4614 10.241 36.961 10.2197 36.3384 10.2197C33.755 10.2197 31.2614 10.5919 28.9052 11.2858C28.0232 11.5472 28.1555 12.149 28.6405 12.5593C30.9898 14.5316 34.1754 17.496 36.3733 21.1986C34.9817 21.3311 33.9183 20.5716 33.0244 19.731C30.0871 16.9875 27.0289 15.0314 24.5995 13.6926C24.1765 13.4603 23.7597 13.3631 23.3406 13.5992C20.663 15.1273 18.8588 16.5646 16.733 18.9841C16.3715 19.3953 16.6056 19.7158 16.9592 19.8999C19.2832 21.1092 22.9225 23.4032 26.2598 26.3828C25.5797 26.9443 24.5018 26.7602 22.9393 25.9564C19.9364 24.408 17.0494 23.5169 14.8462 22.9603C14.3744 22.8417 13.8687 22.9716 13.6258 23.3858C12.215 25.791 11.2415 28.6682 10.7811 31.5858C10.6936 32.1463 11.0822 32.6422 11.6517 32.7394C16.787 33.6214 25.9408 35.9901 27.4612 46.3381C27.5922 47.2443 26.7524 48.0406 25.6465 47.5308C24.1031 46.8214 22.5613 46.1136 21.0192 45.4031C20.8572 45.3298 20.6732 45.2668 20.4957 45.2668C18.0124 45.2668 15.7042 45.2668 13.2221 45.2668C12.188 45.2668 11.7624 46.2373 12.435 46.9933C14.1838 48.9694 15.7878 51.102 17.1597 53.3624C17.2808 53.5631 17.4198 53.6399 17.6575 53.6399C18.7159 53.6399 19.7757 53.6399 20.8329 53.6399C21.0488 53.6399 21.2339 53.5908 21.4205 53.4823C22.4184 52.9079 23.4163 52.3351 24.4168 51.761C24.6022 51.6525 24.7872 51.6547 25.0035 51.6547C32.6607 51.6547 40.8758 51.6547 48.9379 51.6547C49.2593 51.6547 49.5193 51.8579 49.5193 52.1736C49.5193 52.5583 49.5193 52.9434 49.5193 53.3295C49.5193 53.7498 49.9026 54.069 50.3256 54.0047C53.2913 53.5401 56.0137 52.2101 58.1731 50.2226C58.5164 49.9082 58.5164 49.3733 58.1731 49.0602" fill="url(#paint1_linear)"/>
<path d="M58.1731 49.0602C56.0137 47.0715 53.2913 45.7414 50.3256 45.2768C49.9026 45.2126 49.5193 45.533 49.5193 45.9533C49.5193 46.2955 49.5193 46.6663 49.5193 47.0097C49.5193 47.3238 49.2747 47.6798 48.9534 47.6798C48.7206 47.6798 48.4879 47.686 48.2538 47.6798C47.4268 47.6671 47.2763 46.6702 47.4423 46.0832C49.2053 39.8794 49.6362 36.1164 49.6158 33.3765C49.5938 30.4641 49.5193 27.5627 48.1817 23.7215C46.8931 20.0263 45.7165 16.4083 39.4931 10.8784C39.07 10.5046 38.643 10.3231 38.0735 10.2827C37.4614 10.241 36.961 10.2197 36.3384 10.2197C33.755 10.2197 31.2614 10.5919 28.9052 11.2858C28.0232 11.5472 28.1555 12.149 28.6405 12.5593C30.9898 14.5316 34.1754 17.496 36.3733 21.1986C34.9817 21.3311 33.9183 20.5716 33.0244 19.731C30.0871 16.9875 27.0289 15.0314 24.5995 13.6926C24.1765 13.4603 23.7597 13.3631 23.3406 13.5992C20.663 15.1273 18.8588 16.5646 16.733 18.9841C16.3715 19.3953 16.6056 19.7158 16.9592 19.8999C19.2832 21.1092 22.9225 23.4032 26.2598 26.3828C25.5797 26.9443 24.5018 26.7602 22.9393 25.9564C19.9364 24.408 17.0494 23.5169 14.8462 22.9603C14.3744 22.8417 13.8687 22.9716 13.6258 23.3858C12.215 25.791 11.2415 28.6682 10.7811 31.5858C10.6936 32.1463 11.0822 32.6422 11.6517 32.7394C16.787 33.6214 25.9408 35.9901 27.4612 46.3381C27.5922 47.2443 26.7524 48.0406 25.6465 47.5308C24.1031 46.8214 22.5613 46.1136 21.0192 45.4031C20.8572 45.3298 20.6732 45.2668 20.4957 45.2668C18.0124 45.2668 15.7042 45.2668 13.2221 45.2668C12.188 45.2668 11.7624 46.2373 12.435 46.9933C14.1838 48.9694 15.7878 51.102 17.1597 53.3624C17.2808 53.5631 17.4198 53.6399 17.6575 53.6399C18.7159 53.6399 19.7757 53.6399 20.8329 53.6399C21.0488 53.6399 21.2339 53.5908 21.4205 53.4823C22.4184 52.9079 23.4163 52.3351 24.4168 51.761C24.6022 51.6525 24.7872 51.6547 25.0035 51.6547C32.6607 51.6547 40.8758 51.6547 48.9379 51.6547C49.2593 51.6547 49.5193 51.8579 49.5193 52.1736C49.5193 52.5583 49.5193 52.9434 49.5193 53.3295C49.5193 53.7498 49.9026 54.069 50.3256 54.0047C53.2913 53.5401 56.0137 52.2101 58.1731 50.2226C58.5164 49.9082 58.5164 49.3733 58.1731 49.0602" stroke="#141414" stroke-width="0.804884"/>
<path d="M40.3421 45.6783C37.9845 45.6783 36.0763 43.8046 36.0763 41.495C36.0763 39.1832 37.9845 37.3104 40.3421 37.3104C42.6941 37.3104 44.6052 39.1832 44.6052 41.495C44.6052 43.8046 42.6941 45.6783 40.3421 45.6783ZM56.0162 49.6384C54.3971 48.3426 52.6904 47.5046 50.6172 47.083C50.4296 47.0452 50.3384 47.116 50.3384 47.3053C50.3384 47.3405 50.3384 47.3721 50.3384 47.4074C50.3384 47.9071 49.8291 48.489 49.3171 48.489C48.8697 48.489 48.417 48.489 47.9706 48.489C46.8338 48.489 45.8191 47.5702 46.2398 46.0948C51.1048 29.0571 45.6686 18.5223 38.8039 12.6252C36.9392 11.0263 36.7719 10.9378 34.9135 11.0073C33.4487 11.0615 31.7318 11.2382 30.2799 11.5839C29.9945 11.6521 29.7565 11.8744 30.1334 12.1848C33.6571 15.0985 38.3677 20.1212 40.6209 27.939C40.6983 28.2103 40.5347 28.1916 40.324 28.2029C38.3061 28.3228 37.626 27.11 36.9955 26.3388C32.4212 20.7521 27.2925 17.3538 23.4538 15.1211C23.0719 14.8966 23.01 14.9005 22.7193 15.0672C21.1762 15.9417 19.4438 17.3373 18.2233 18.607C17.9688 18.8758 18.033 19.0018 18.3145 19.1494C21.7869 20.9757 27.0673 24.5733 31.9748 30.6737C32.2797 31.051 32.3004 31.2252 32.1279 31.325C31.184 31.8765 29.6086 31.8687 27.8828 30.8139C23.2042 27.9503 18.4522 25.9224 14.7342 24.8712C14.3381 24.7578 14.2687 24.7804 14.1067 25.1135C13.2 26.9837 12.2123 29.4144 11.8561 31.5217C11.811 31.797 11.7866 31.8183 12.0464 31.87C22.2781 33.9095 27.8917 39.4167 28.5321 46.779C28.644 48.0561 27.1717 49.2863 25.7067 48.8321C24.1158 48.3362 22.5714 47.7795 20.9793 47.2849C20.8084 47.2294 20.6359 47.2054 20.4545 47.2054C18.2556 47.2042 16.0537 47.203 13.8522 47.203C13.5589 47.203 13.3867 47.3836 13.6784 47.7457C15.34 49.8078 16.3059 50.9764 17.4773 52.9047C17.5971 53.1053 17.7358 53.1822 17.9764 53.1822C18.784 53.1822 19.5942 53.1809 20.4058 53.1809C20.7271 53.1809 21.0023 53.1079 21.2815 52.9464C22.1625 52.4402 23.0383 51.9682 23.9193 51.461C24.1995 51.2994 24.4388 51.2022 24.7628 51.2022C32.7518 51.1997 41.3143 51.2022 49.3016 51.2009C49.811 51.2009 50.3384 51.7853 50.3384 52.2886C50.3384 52.3455 50.3384 52.4036 50.3384 52.4618C50.3384 52.6508 50.4296 52.7215 50.6172 52.685C52.6904 52.2634 54.3971 51.2868 56.0162 49.9907C56.1627 49.8721 56.1627 49.7584 56.0162 49.6385" fill="#1E1E1E"/>
<path d="M44.7874 41.0176C45.1721 43.5985 43.3521 45.9934 40.7219 46.3709C38.094 46.7481 35.6511 44.9651 35.2664 42.3842C34.8817 39.8032 36.7014 37.4057 39.3293 37.0285C41.9594 36.651 44.4027 38.4366 44.7874 41.0176Z" fill="url(#paint2_linear)"/>
<path d="M40.7983 37.0372L39.3518 46.3789C41.424 46.6684 43.5255 45.5932 44.4211 43.6226C45.5036 41.2403 44.4142 38.4519 41.9885 37.3906C41.5988 37.22 41.2005 37.1013 40.7983 37.0372Z" fill="url(#paint3_linear)"/>
<path d="M44.0881 41.5796C44.0881 43.3247 42.6441 44.7433 40.8617 44.7433C39.0806 44.7433 37.6389 43.3247 37.6389 41.5796C37.6389 39.8305 39.0806 38.4132 40.8617 38.4132C42.6441 38.4132 44.0881 39.8305 44.0881 41.5796Z" fill="white" stroke="#141414" stroke-width="0.804884"/>
<defs>
<linearGradient id="paint0_linear" x1="36.1227" y1="70.1535" x2="35.8866" y2="0.428515" gradientUnits="userSpaceOnUse">
<stop stop-color="#99A2A7"/>
<stop offset="0.47584" stop-color="#98A3A8"/>
<stop offset="0.535243" stop-color="#E6E6E6"/>
<stop offset="1" stop-color="#E6E6E6"/>
</linearGradient>
<linearGradient id="paint1_linear" x1="11.1637" y1="53.2416" x2="57.4095" y2="10.1204" gradientUnits="userSpaceOnUse">
<stop stop-color="#151313"/>
<stop offset="0.085001" stop-color="#151313"/>
<stop offset="0.127798" stop-color="#F8F1F1"/>
<stop offset="0.228741" stop-color="#151313"/>
<stop offset="0.304102" stop-color="#141414"/>
<stop offset="0.381742" stop-color="#F8F1F1"/>
<stop offset="0.449694" stop-color="#151313"/>
<stop offset="0.565496" stop-color="#F8F1F4"/>
<stop offset="0.626805" stop-color="#141414"/>
<stop offset="0.787047" stop-color="#F8F1F1"/>
<stop offset="1" stop-color="#F8F1F2"/>
</linearGradient>
<linearGradient id="paint2_linear" x1="40.0618" y1="40.8209" x2="44.4773" y2="46.7038" gradientUnits="userSpaceOnUse">
<stop stop-color="#151313"/>
<stop offset="0.162563" stop-color="#CCC4C4"/>
<stop offset="0.496139" stop-color="#B7ACAD"/>
<stop offset="1" stop-color="#151313"/>
</linearGradient>
<linearGradient id="paint3_linear" x1="41.1421" y1="40.1733" x2="34.4314" y2="42.9515" gradientUnits="userSpaceOnUse">
<stop stop-color="#151313"/>
<stop offset="0.25" stop-color="#CCC4C4"/>
<stop offset="0.5" stop-color="#B7ACAD"/>
<stop offset="1" stop-color="#151313"/>
</linearGradient>
</defs>
</svg>
