<svg width="35" height="31" viewBox="0 0 35 31" fill="none" xmlns="http://www.w3.org/2000/svg">
<path d="M34.9883 17.9312L0.0234375 11.7526C0.0234375 11.7526 0.120174 7.86161 0.195413 5.79853C0.270653 3.73545 0.700593 2.48478 1.56047 1.72582C2.74281 0.688936 4.11862 0.432387 7.40766 0.261354C15.0283 -0.155538 22.778 -0.0914003 32.4947 0.58204C33.505 0.656867 33.892 0.838589 34.0854 0.977553C34.5154 1.26617 34.5691 1.59755 34.6873 3.31856C34.7841 4.69751 34.9991 9.33677 34.9991 9.33677C34.9991 9.33677 23.5304 8.91988 17.8874 8.91988C16.2967 8.91988 15.0176 8.93057 13.975 8.95195C13.2763 8.96264 12.9539 9.02677 12.6852 9.15505L34.9991 12.9285V17.9312H34.9883Z" fill="white"/>
<path d="M0 13.0677L34.9649 19.2462C34.9649 19.2462 34.8681 23.1372 34.7929 25.2003C34.7177 27.2634 34.2877 28.514 33.4278 29.273C32.2455 30.3099 30.8697 30.5664 27.5806 30.7375C19.96 31.1544 12.2103 31.0902 2.49365 30.4168C1.48329 30.3419 1.09635 30.1602 0.902874 30.0213C0.472934 29.7326 0.419191 29.4013 0.300958 27.6803C0.225718 26.312 0 21.6728 0 21.6728C0 21.6728 11.4686 22.0896 17.1116 22.0896C18.7024 22.0896 19.9815 22.079 21.0241 22.0576C21.7227 22.0469 22.0452 21.9827 22.3139 21.8545L0 18.0704V13.0677Z" fill="white"/>
<path d="M34.9864 17.9326L0.021497 11.7541C0.021497 11.7541 0.118233 7.8631 0.193473 5.80002C0.268712 3.73695 0.698652 2.48627 1.55853 1.72732C2.74087 0.690437 4.11668 0.433889 7.40572 0.262857C15.0264 -0.154034 22.7761 -0.0898971 32.4927 0.583542C33.5031 0.658369 33.89 0.84009 34.0835 0.979054C34.5134 1.26767 34.5672 1.59905 34.6854 3.32006C34.7821 4.699 34.9971 9.33825 34.9971 9.33825C34.9971 9.33825 23.5285 8.92136 17.8855 8.92136C16.2947 8.92136 15.0157 8.93205 13.973 8.95343C13.2744 8.96412 12.9519 9.02825 12.6832 9.15653L34.9971 12.9299V17.9326H34.9864ZM0 13.0689L34.9649 19.2474C34.9649 19.2474 34.8681 23.1384 34.7929 25.2015C34.7177 27.2646 34.2877 28.5152 33.4278 29.2742C32.2455 30.3111 30.8697 30.5676 27.5806 30.7386C19.96 31.1555 12.2103 31.0914 2.49365 30.418C1.48329 30.3431 1.09635 30.1614 0.902874 30.0224C0.472934 29.7338 0.419191 29.4025 0.300958 27.6814C0.225718 26.3132 0 21.6739 0 21.6739C0 21.6739 11.4686 22.0908 17.1116 22.0908C18.7024 22.0908 19.9815 22.0801 21.0241 22.0588C21.7227 22.0481 22.0452 21.9839 22.3139 21.8557L0 18.0716V13.0689ZM0.365449 13.5072V17.7616L23.0985 21.6098C23.0985 21.6098 22.7868 22.0267 22.4644 22.1764C22.1419 22.326 21.7335 22.4008 21.0241 22.4222C19.9707 22.4436 18.6916 22.4543 17.1009 22.4543C12.1136 22.4543 2.46141 22.1229 0.376197 22.0481C0.42994 23.2025 0.601916 26.5377 0.677155 27.6601C0.795389 29.3704 0.849131 29.5307 1.11784 29.7231C1.21458 29.7873 1.50479 29.9797 2.5259 30.0545C8.13661 30.45 13.1884 30.6318 17.9715 30.6318C21.196 30.6318 24.3346 30.5462 27.5592 30.3752C30.7515 30.2042 32.0843 29.969 33.1806 28.9963C33.9653 28.3121 34.3522 27.0935 34.4167 25.1908C34.4704 23.5019 34.5564 20.5195 34.5779 19.5574L0.365449 13.5072ZM34.6102 17.4943V13.2399L11.8771 9.3917C11.8771 9.3917 12.1888 8.97481 12.5113 8.82515C12.823 8.6755 13.2422 8.60067 13.9516 8.5793C14.9942 8.55792 16.284 8.54723 17.864 8.54723C22.8513 8.54723 32.5035 8.8786 34.5887 8.95343C34.5349 7.79896 34.3629 4.46383 34.2877 3.34144C34.1695 1.63111 34.1157 1.47077 33.847 1.27836C33.7503 1.21422 33.4601 1.02181 32.439 0.946985C26.8283 0.551473 21.7765 0.369752 16.9934 0.369752C13.7688 0.369752 10.6303 0.455268 7.40572 0.6263C4.22416 0.797332 2.89135 1.0325 1.795 1.99456C1.01036 2.68938 0.623413 3.89729 0.558922 5.81071C0.494431 7.49965 0.419191 10.4713 0.397694 11.4441L34.6102 17.4943Z" fill="black"/>
<path d="M18.4129 23.9169C18.2087 23.9169 17.1876 23.9169 16.9726 23.9169C12.3293 23.9169 7.35272 23.8849 1.27981 23.5536L0.398438 22.0574L0.634905 22.0681L1.64526 23.2223C6.89053 23.5108 11.7059 23.5749 16.9834 23.5749C17.1983 23.5749 18.198 23.5749 18.4237 23.5749C19.1653 23.5749 20.0359 23.5749 20.8098 23.5429C23.4755 23.4574 24.2816 23.1795 26.1088 21.3414L26.7645 21.2772L26.4958 21.5551C24.5288 23.5749 23.7227 23.778 20.8206 23.8742C20.0252 23.9169 19.1546 23.9169 18.4129 23.9169Z" fill="white"/>
<path d="M34.5904 19.556L0.367188 13.5057V13.7195L0.969104 14.0295V16.8195L0.367188 17.4929V17.7709L1.30231 17.0012V13.8906L34.096 19.6843L34.5904 19.556Z" fill="white"/>
<path d="M33.7282 19.6199C33.7067 20.1865 33.6852 20.9027 33.6637 21.5547C33.6422 22.1106 33.6315 22.5916 33.61 23.0406C33.5885 23.6499 33.5563 24.2592 33.524 25.0823C33.438 27.1988 32.9543 27.8722 32.03 28.4281C31.1486 28.9626 30.1167 29.0374 26.9782 29.187C23.7966 29.3474 20.4001 29.4329 16.8746 29.4543C16.6059 29.4543 16.3372 29.4543 16.0684 29.4543C11.941 29.4543 8.1683 29.2298 3.42821 28.8557C2.62208 28.7915 2.10615 28.7274 1.88043 28.5777C1.63322 28.4174 1.56873 28.3746 1.49349 27.3591C1.48274 27.2095 1.47199 27.0705 1.46124 26.9316C1.43974 26.5467 1.4075 26.2047 1.386 25.6916C1.3645 25.1678 1.33226 24.6547 1.25702 23.5216L0.945312 22.9978C1.0098 24.2057 1.0528 25.2319 1.07429 25.7664C1.09579 26.2474 1.10654 26.5681 1.12804 26.9529V26.9957C1.13879 27.1133 1.13879 27.2416 1.14953 27.3698C1.21402 28.3853 1.28926 28.5884 1.68696 28.845C1.97717 29.0374 2.51459 29.1122 3.39597 29.1764C8.1468 29.5398 11.9195 29.775 16.0577 29.775C16.3264 29.775 16.5951 29.775 16.8638 29.775C20.3893 29.7536 23.7966 29.6574 26.9889 29.497C30.192 29.3367 31.2453 29.2619 32.2019 28.6846C33.2338 28.0647 33.7712 27.3271 33.8572 25.0609C33.8895 24.2485 33.9109 23.6392 33.9432 23.0513V23.0192C33.9862 22.0678 34.0292 21.0523 34.0829 19.652L33.7282 19.6199Z" fill="url(#paint0_radial)"/>
<path d="M33.7511 7.92639H33.6113C28.6133 7.68059 23.5185 7.71265 17.7681 7.71265C17.4026 7.71265 16.9512 7.71265 16.4567 7.72334C14.9412 7.74472 13.7696 7.74471 13.071 7.87296C11.5554 8.14014 11.6307 8.92029 12.2003 9.02716C12.2971 8.94167 12.4046 8.86686 12.512 8.81342C12.8237 8.6638 13.2429 8.58899 13.9523 8.56762C14.9949 8.54625 16.2848 8.53556 17.8648 8.53556C22.7339 8.53556 32.0206 8.84548 34.4175 8.93098C34.2455 8.6638 33.8371 8.05464 33.7511 7.92639Z" fill="url(#paint1_linear)"/>
<path d="M33.0719 2.80563L33.2654 2.5277L33.2117 2.49563C32.9645 2.3246 32.4378 2.21771 31.5672 2.15357C27.0958 1.84357 22.1407 1.65116 18.626 1.65116C18.3895 1.65116 18.153 1.65116 17.9166 1.65116C17.1749 1.65116 16.4763 1.66185 15.8099 1.66185C12.4348 1.68323 9.79069 1.7153 7.84521 1.82219C7.68398 1.83288 7.52275 1.84357 7.36153 1.84357C4.58841 1.99323 3.20186 2.06805 2.10551 3.03011C1.37461 3.68217 1.07365 4.55871 0.998413 6.27972L0.966168 7.10282C0.912425 8.40694 0.890928 9.21934 0.826437 10.9617C0.729701 11.0045 0.471737 11.1221 0.385748 11.1648L0.375 11.4428L1.17039 11.1221L1.18114 10.7266C1.22413 9.20865 1.25638 8.28935 1.31012 7.11351L1.34237 6.29041C1.40686 4.6763 1.67557 3.86389 2.33123 3.28666C3.33084 2.39943 4.68515 2.33529 7.37227 2.18564C7.5335 2.17495 7.69473 2.16426 7.85596 2.16426C9.79069 2.05736 12.4348 2.02529 15.7991 2.00392C16.4655 2.00392 17.1642 1.99323 17.9058 1.99323C18.1315 1.99323 18.368 1.99323 18.6045 1.99323C22.1085 1.99323 27.0528 2.18564 31.5134 2.49563C32.2981 2.54908 32.8032 2.64529 32.9967 2.77356L33.0719 2.80563Z" fill="white"/>
<path d="M0.979825 7.09203L1.01207 6.26894C1.08731 4.54794 1.37752 3.6714 2.11916 3.01934C2.28039 2.88038 2.45237 2.75211 2.62434 2.64521C2.46311 2.32453 2.42012 2.02522 2.52761 1.80074C2.62434 1.61902 3.01129 1.29834 3.83892 0.999031C2.95754 1.20213 2.34488 1.50144 1.79671 1.99315C1.01207 2.68797 0.625126 3.89588 0.560635 5.8093C0.506892 7.35927 0.431653 9.98888 0.410156 11.1647C0.474647 11.1327 0.743359 11.0151 0.850844 10.9616C0.904586 9.21924 0.926083 8.39615 0.979825 7.09203Z" fill="url(#paint2_linear)"/>
<path d="M33.416 2.65737C33.6417 2.3153 33.9749 2.30461 34.2759 3.07427C34.1684 1.60979 34.1039 1.44944 33.8567 1.27841C33.7599 1.21427 33.4697 1.02186 32.4486 0.947029C26.8379 0.551513 21.7861 0.369789 17.003 0.369789C13.7785 0.369789 10.6399 0.455306 7.41538 0.62634C5.8246 0.711858 4.70676 0.808064 3.83613 1.00048C3.0085 1.29979 2.62155 1.62048 2.52481 1.8022C2.40658 2.02668 2.46032 2.33668 2.62155 2.64668C3.64266 2.03737 5.00772 1.96255 7.36164 1.83427C7.52286 1.82358 7.68409 1.81289 7.84532 1.81289C9.7908 1.70599 12.4349 1.67392 15.81 1.65255C16.4764 1.65255 17.175 1.64186 17.9167 1.64186C18.1424 1.64186 18.3788 1.64186 18.6261 1.64186C22.1408 1.64186 27.0959 1.83427 31.5672 2.14427C32.4379 2.20841 32.9646 2.3153 33.2118 2.48634L33.2655 2.51841C33.3193 2.56116 33.373 2.61461 33.416 2.65737Z" fill="url(#paint3_linear)"/>
<path d="M34.5903 8.72803L33.9129 7.59494C33.9021 6.67564 33.8161 4.77291 33.7516 3.98189C33.6763 3.22293 33.6441 2.90225 33.429 2.66708C33.386 2.61363 33.3323 2.57087 33.2678 2.52811L33.0742 2.80604C33.2893 2.96638 33.3215 3.10535 33.4075 4.01396C33.4828 4.83705 33.6118 6.91081 33.6226 7.73391L34.429 8.95251L34.601 8.9632L34.5903 8.72803Z" fill="url(#paint4_linear)"/>
<path d="M34.2781 3.07227C33.9771 2.31331 33.633 2.31331 33.418 2.65538C33.6438 2.90124 33.6653 3.22192 33.7405 3.97019C33.8158 4.76122 33.8911 6.66395 33.9018 7.58325L34.5792 8.71634C34.5147 7.41222 34.3641 4.38708 34.2889 3.31813" fill="black"/>
<path d="M33.6113 7.72176C28.9464 7.49728 23.9161 7.369 17.768 7.369C16.5427 7.369 14.1458 7.41176 13.0494 7.43314C11.1899 7.46521 10.8675 8.61968 10.8567 9.04726L33.7832 14.3386V17.1606L34.6109 17.492L0.398438 11.4417L1.19383 11.121L1.20457 10.7255C1.20457 10.7255 1.27981 8.2883 1.33356 7.11245L1.3658 6.28936C1.43029 4.67524 1.699 3.86283 2.35466 3.2856C3.35427 2.39837 4.70858 2.33423 7.3957 2.18458C7.55693 2.17389 7.71816 2.1632 7.87939 2.1632C9.81411 2.0563 12.4582 2.02423 15.8225 2.00285C16.4889 2.00285 17.1876 1.99216 17.9292 1.99216C18.1549 1.99216 18.3914 1.99216 18.6279 1.99216C22.1319 1.99216 27.0762 2.18458 31.5368 2.49457C32.3214 2.54802 32.8266 2.64423 33.0201 2.7725L33.0738 2.80457C33.0738 2.80457 33.0738 2.80457 33.0846 2.80457L33.0953 2.81526C33.1061 2.81526 33.1061 2.82595 33.1168 2.82595C33.1276 2.82595 33.1276 2.83664 33.1383 2.83664C33.1491 2.83664 33.1491 2.84733 33.1491 2.84733C33.1491 2.85802 33.1598 2.85802 33.1598 2.85802C33.2888 2.99698 33.3211 3.18939 33.3856 3.83077C33.3856 3.88421 33.3963 3.93766 33.3963 3.99111C33.4823 4.82489 33.6113 6.89866 33.6113 7.72176Z" fill="url(#paint5_radial)"/>
<path d="M33.6113 7.72176C28.9464 7.49728 23.9161 7.369 17.768 7.369C16.5427 7.369 14.1458 7.41176 13.0494 7.43314C11.1899 7.46521 10.8675 8.61968 10.8567 9.04726L33.7832 14.3386V17.1606L34.6109 17.492L0.398438 11.4417L1.19383 11.121L1.20457 10.7255C1.20457 10.7255 1.27981 8.2883 1.33356 7.11245L1.3658 6.28936C1.43029 4.67524 1.699 3.86283 2.35466 3.2856C3.35427 2.39837 4.70858 2.33423 7.3957 2.18458C7.55693 2.17389 7.71816 2.1632 7.87939 2.1632C9.81411 2.0563 12.4582 2.02423 15.8225 2.00285C16.4889 2.00285 17.1876 1.99216 17.9292 1.99216C18.1549 1.99216 18.3914 1.99216 18.6279 1.99216C22.1319 1.99216 27.0762 2.18458 31.5368 2.49457C32.3214 2.54802 32.8266 2.64423 33.0201 2.7725L33.0738 2.80457C33.0738 2.80457 33.0738 2.80457 33.0846 2.80457L33.0953 2.81526C33.1061 2.81526 33.1061 2.82595 33.1168 2.82595C33.1276 2.82595 33.1276 2.83664 33.1383 2.83664C33.1491 2.83664 33.1491 2.84733 33.1491 2.84733C33.1491 2.85802 33.1598 2.85802 33.1598 2.85802C33.2888 2.99698 33.3211 3.18939 33.3856 3.83077C33.3856 3.88421 33.3963 3.93766 33.3963 3.99111C33.4823 4.82489 33.6113 6.89866 33.6113 7.72176Z" fill="url(#paint6_radial)"/>
<path d="M0.367188 13.7198L0.96928 14.0298V16.8198L0.367188 17.4932V13.7198Z" fill="#B2B2B2"/>
<path d="M31.1282 29.9994C31.3754 29.8391 31.4936 29.6894 31.5366 29.6039C31.6226 29.433 31.5474 29.2727 31.3969 29.091C30.5478 29.3581 29.3547 29.4223 26.99 29.5398C23.8085 29.7001 20.4012 29.7856 16.8649 29.8177C16.5962 29.8177 16.3275 29.8177 16.0588 29.8177C11.9206 29.8177 8.1479 29.5933 3.39707 29.2192C2.51569 29.1551 1.97826 29.0803 1.68806 28.8879C1.59132 28.8238 1.51608 28.7597 1.45159 28.6955C1.41934 28.7276 1.37635 28.7704 1.32261 28.8131C1.02165 29.0803 0.860421 29.0268 0.742188 28.6101C0.817427 29.465 0.903415 29.5933 1.10764 29.7322C1.20437 29.7963 1.49458 29.9887 2.51569 30.0635C8.12641 30.4589 13.1782 30.6406 17.9613 30.6406C21.1858 30.6406 24.3244 30.5551 27.5489 30.3841C29.1505 30.2879 30.2683 30.1917 31.1282 29.9994Z" fill="url(#paint7_linear)"/>
<path d="M1.13935 27.0175V26.9747C1.11785 26.5899 1.1071 26.2692 1.08559 25.7882C1.06409 25.2537 1.02108 24.2275 0.95657 23.0196L0.386719 22.0575C0.440478 23.212 0.612509 26.5471 0.687772 27.6695L0.763035 28.5995C0.881306 29.0271 1.04259 29.0805 1.34364 28.8026C1.3974 28.7491 1.44041 28.7171 1.47266 28.685C1.27913 28.4712 1.22537 28.1612 1.17161 27.4023C1.16086 27.2633 1.1501 27.1457 1.13935 27.0175Z" fill="#9D9D9C"/>
<path d="M34.0974 19.6846C34.0437 21.0849 34.0007 22.1005 33.9577 23.0518V23.0839C33.9362 23.6718 33.904 24.2811 33.8717 25.0935C33.775 27.3704 33.2376 28.0973 32.2164 28.7173C31.9692 28.8669 31.7113 28.9845 31.4211 29.0807C31.5608 29.2624 31.6468 29.4228 31.5608 29.5938C31.5178 29.6793 31.3888 29.8397 31.1523 29.9893C32.0337 29.7862 32.6571 29.4869 33.2053 28.9952C33.9899 28.3111 34.3769 27.0925 34.4414 25.1897C34.4951 23.5008 34.5811 20.5184 34.6026 19.5563L34.0974 19.6846Z" fill="url(#paint8_linear)"/>
<path d="M33.6108 23.0409C33.5893 23.6502 33.5571 24.2595 33.5248 25.0826C33.4388 27.1991 32.9552 27.8725 32.0308 28.4284C31.1494 28.9629 30.1175 29.0377 26.979 29.1873C23.7974 29.3477 20.4009 29.4332 16.8754 29.4546C16.6067 29.4546 16.338 29.4546 16.0693 29.4546C11.9418 29.4546 8.1691 29.2301 3.42901 28.856C2.62287 28.7918 2.10694 28.7277 1.88123 28.578C1.63401 28.4177 1.56952 28.3749 1.49428 27.3594C1.48353 27.2098 1.47278 27.0708 1.46203 26.9319C1.44054 26.547 1.40829 26.205 1.38679 25.6919C1.3653 25.1681 1.33305 24.655 1.25781 23.5219C7.34147 23.8533 12.318 23.8853 16.9506 23.8853C17.1656 23.8853 18.1867 23.8853 18.3909 23.8853C19.1433 23.8853 20.014 23.8853 20.7878 23.8533C23.6899 23.7571 24.4961 23.554 26.4631 21.5337L26.7318 21.2557L1.30081 17.0013V13.8907L33.7398 19.6202C33.7183 20.1868 33.6968 20.903 33.6753 21.555C33.6431 22.1109 33.6323 22.5919 33.6108 23.0409Z" fill="url(#paint9_radial)"/>
<path d="M23.0917 23.0296C23.0809 23.1471 22.9197 23.3181 22.3285 23.4464C23.8656 23.2647 24.661 22.7731 26.0798 21.3517L23.0917 21.6189C23.0917 21.6189 22.78 22.0357 22.4575 22.1853C22.2425 22.2815 21.9953 22.3563 21.6406 22.3883C22.2748 22.5273 22.479 22.6021 22.737 22.7089C22.9627 22.7838 23.1024 22.9334 23.0917 23.0296Z" fill="url(#paint10_linear)"/>
<path d="M22.337 23.4469C22.9281 23.3186 23.0894 23.1476 23.1001 23.0301C23.1109 22.9339 22.9604 22.7843 22.7562 22.7094C22.5089 22.6133 22.294 22.5385 21.6598 22.3888C21.6598 22.3888 21.2729 22.4209 21.0364 22.4209C19.983 22.4423 18.704 22.453 17.1132 22.453C12.2871 22.453 3.1079 22.143 0.625 22.0575L1.63536 23.2117C6.88063 23.5003 11.696 23.5644 16.9735 23.5644C17.1884 23.5644 18.188 23.5644 18.4138 23.5644C19.1554 23.5644 20.026 23.5644 20.7999 23.5324C21.3911 23.5324 21.8963 23.5003 22.337 23.4469Z" fill="url(#paint11_linear)"/>
<path d="M33.7197 13.9543L34.2786 13.1739L13.8242 9.71052C15.9417 10.3946 21.6169 11.7095 25.9593 12.6822C25.755 12.6394 33.021 13.8367 33.7197 13.9543Z" fill="url(#paint12_linear)"/>
<path d="M20.8001 20.636C20.2411 20.5291 19.8112 20.4329 19.349 20.3687C19.1448 20.3367 8.26732 18.4981 1.0121 17.2367L0.367188 17.7605L23.1002 21.6087C22.7778 21.2453 21.6492 20.807 20.8001 20.636Z" fill="url(#paint13_linear)"/>
<path d="M20.7997 20.6355C20.2408 20.5286 19.8109 20.4324 19.3487 20.3682C19.1444 20.3361 8.26696 18.4976 1.01172 17.2362L1.30193 17.001L26.7544 21.2875L23.1106 21.6189C22.8957 21.341 21.8423 20.8386 20.7997 20.6355Z" fill="url(#paint14_linear)"/>
<path d="M33.6116 7.72262C28.9468 7.49819 23.9165 7.36994 17.7683 7.36994C16.543 7.36994 14.1461 7.41269 13.0498 7.43406C10.7388 7.47681 9.40601 8.57758 8.34191 9.75316L8.14844 9.94553L11.9427 9.29362C11.9427 9.29362 12.0071 9.19743 12.2006 9.02644C11.631 8.91957 11.5557 8.13941 13.0712 7.87223C13.7592 7.74399 14.9415 7.74399 16.457 7.72262C16.9515 7.71193 17.4136 7.71193 17.7683 7.71193C23.5188 7.71193 28.6136 7.67987 33.6116 7.92567L33.7514 7.93636L33.6116 7.72262Z" fill="black"/>
<path d="M8.75781 9.84968C10.3163 10.1169 19.2053 11.5707 25.9554 12.6824C21.613 11.7096 15.9378 10.4055 13.8204 9.71072L11.9501 9.29383L8.75781 9.84968Z" fill="url(#paint15_linear)"/>
<path d="M33.6108 23.0409C33.5893 23.6502 33.5571 24.2595 33.5248 25.0826C33.4388 27.1991 32.9552 27.8725 32.0308 28.4284C31.1494 28.9629 30.1175 29.0377 26.979 29.1873C23.7974 29.3477 20.4009 29.4332 16.8754 29.4546C16.6067 29.4546 16.338 29.4546 16.0693 29.4546C11.9418 29.4546 8.1691 29.2301 3.42901 28.856C2.62287 28.7918 2.10694 28.7277 1.88123 28.578C1.63401 28.4177 1.56952 28.3749 1.49428 27.3594C1.48353 27.2098 1.47278 27.0708 1.46203 26.9319C1.44054 26.547 1.40829 26.205 1.38679 25.6919C1.3653 25.1681 1.33305 24.655 1.25781 23.5219C7.34147 23.8533 12.318 23.8853 16.9506 23.8853C17.1656 23.8853 18.1867 23.8853 18.3909 23.8853C19.1433 23.8853 20.014 23.8853 20.7878 23.8533C23.6899 23.7571 24.4961 23.554 26.4631 21.5337L26.7318 21.2557L1.30081 17.0013V13.8907L33.7398 19.6202C33.7183 20.1868 33.6968 20.903 33.6753 21.555C33.6431 22.1109 33.6323 22.5919 33.6108 23.0409Z" fill="url(#paint16_radial)"/>
<path d="M8.16016 9.94687L8.76207 9.83997C11.2235 10.2569 31.9036 13.6347 33.7201 13.9447L34.279 13.1644L34.6122 13.2178L33.7846 14.3188L8.16016 9.94687Z" fill="white"/>
<path opacity="0.1" d="M32.0305 28.4287C32.9549 27.8728 33.4386 27.1994 33.5246 25.0829C33.5568 24.2598 33.5891 23.6398 33.6106 23.0412C33.6321 22.5922 33.6428 22.1112 33.6643 21.5553C33.6858 20.9033 33.7073 20.1871 33.7288 19.6205L24.5173 17.9957C22.9158 18.5409 21.4863 19.2891 20.2932 20.2084L26.7423 21.2988L26.4736 21.5767C24.5066 23.597 23.7004 23.8001 20.7984 23.8963C20.0245 23.9177 19.1538 23.9284 18.4014 23.9284C18.251 23.9284 17.6383 23.9284 17.2513 23.9284C16.8429 24.8584 16.6172 25.8418 16.6172 26.8573C16.6172 27.7659 16.7892 28.6425 17.1224 29.4762C20.5619 29.4549 23.8724 29.3587 26.9787 29.209C30.1173 29.038 31.1491 28.9631 32.0305 28.4287Z" fill="url(#paint17_radial)"/>
<path d="M33.793 17.1617L34.1156 17.0655V13.8907L33.793 14.3396V17.1617Z" fill="#9D9D9C"/>
<path d="M33.793 17.162L34.1155 17.0656L34.6101 17.3118V17.4938L33.793 17.162Z" fill="#878787"/>
<path d="M34.6118 13.2286L34.1172 13.8914V17.0662L34.6118 17.3121V13.2286Z" fill="#3C3C3B"/>
<defs>
<radialGradient id="paint0_radial" cx="0" cy="0" r="1" gradientUnits="userSpaceOnUse" gradientTransform="translate(16.3343 29.4084) rotate(15.4103) scale(17.6983 11.097)">
<stop offset="0.3301" stop-color="#818080"/>
<stop offset="0.6198" stop-color="#A2A2A2"/>
<stop offset="0.7979" stop-color="#B2B2B2"/>
<stop offset="1" stop-color="#DADADA"/>
</radialGradient>
<linearGradient id="paint1_linear" x1="12.0209" y1="8.37123" x2="33.6981" y2="8.37123" gradientUnits="userSpaceOnUse">
<stop stop-color="#4A4A49"/>
<stop offset="0.3168" stop-color="#525251"/>
<stop offset="0.454" stop-color="#575756"/>
<stop offset="0.7429" stop-color="#2D2D2C"/>
<stop offset="0.9069"/>
</linearGradient>
<linearGradient id="paint2_linear" x1="3.13008" y1="10.5538" x2="1.23443" y2="2.03592" gradientUnits="userSpaceOnUse">
<stop stop-color="#9D9D9C"/>
<stop offset="0.5625" stop-color="#ACACAB"/>
<stop offset="1" stop-color="#B2B2B2"/>
</linearGradient>
<linearGradient id="paint3_linear" x1="2.62409" y1="1.71758" x2="34.2935" y2="1.71758" gradientUnits="userSpaceOnUse">
<stop offset="0.0567086" stop-color="#BFBFBF"/>
<stop offset="0.2789" stop-color="#BCBCBC"/>
<stop offset="0.442" stop-color="#B3B3B3"/>
<stop offset="0.5862" stop-color="#A3A3A3"/>
<stop offset="0.7194" stop-color="#8C8C8C"/>
<stop offset="0.8452" stop-color="#6F6F6F"/>
<stop offset="0.9637" stop-color="#4C4C4C"/>
<stop offset="1" stop-color="#404040"/>
</linearGradient>
<linearGradient id="paint4_linear" x1="33.8338" y1="2.70794" x2="33.8338" y2="8.8012" gradientUnits="userSpaceOnUse">
<stop offset="0.00613497" stop-color="white"/>
<stop offset="0.1166" stop-color="#CCCCCC"/>
<stop offset="0.495" stop-color="#CACACA"/>
<stop offset="0.6313" stop-color="#C3C3C3"/>
<stop offset="0.7284" stop-color="#B8B8B8"/>
<stop offset="0.807" stop-color="#A7A7A7"/>
<stop offset="0.8742" stop-color="#919191"/>
<stop offset="0.9338" stop-color="#757575"/>
<stop offset="0.9863" stop-color="#565656"/>
<stop offset="1" stop-color="#4D4D4D"/>
</linearGradient>
<radialGradient id="paint5_radial" cx="0" cy="0" r="1" gradientUnits="userSpaceOnUse" gradientTransform="translate(33.3774 29.4706) scale(42.2346 42.003)">
<stop offset="0.1417" stop-color="#878787"/>
<stop offset="0.3057" stop-color="#A4A4A3"/>
<stop offset="0.4874" stop-color="#BDBDBD"/>
<stop offset="0.5888" stop-color="#C6C6C6"/>
<stop offset="0.6593" stop-color="#D5D5D5"/>
<stop offset="0.7508" stop-color="#E2E2E2"/>
<stop offset="0.8484" stop-color="#EAEAEA"/>
<stop offset="0.9612" stop-color="#EDEDED"/>
</radialGradient>
<radialGradient id="paint6_radial" cx="0" cy="0" r="1" gradientUnits="userSpaceOnUse" gradientTransform="translate(48.9451 36.3299) scale(44.0673 43.8256)">
<stop offset="0.1417" stop-color="#878787"/>
<stop offset="0.3057" stop-color="#A4A4A3"/>
<stop offset="0.4874" stop-color="#BDBDBD"/>
<stop offset="0.5888" stop-color="#C6C6C6"/>
<stop offset="0.6329" stop-color="#D6D6D6"/>
<stop offset="0.7028" stop-color="#E8E8E8"/>
<stop offset="0.776" stop-color="#F5F5F5"/>
<stop offset="0.8537" stop-color="#FDFDFD"/>
<stop offset="0.9435" stop-color="white"/>
</radialGradient>
<linearGradient id="paint7_linear" x1="0.754409" y1="29.6178" x2="31.581" y2="29.6178" gradientUnits="userSpaceOnUse">
<stop stop-color="#706F6F" stop-opacity="0.91"/>
<stop offset="0.5081" stop-color="#474746" stop-opacity="0.9557"/>
<stop offset="1"/>
</linearGradient>
<linearGradient id="paint8_linear" x1="32.5613" y1="28.9472" x2="34.9308" y2="20.3375" gradientUnits="userSpaceOnUse">
<stop offset="0.2699" stop-color="#575756"/>
<stop offset="0.3398" stop-color="#4F4F4E"/>
<stop offset="0.5821" stop-color="#353534"/>
<stop offset="0.808" stop-color="#131312"/>
<stop offset="1"/>
</linearGradient>
<radialGradient id="paint9_radial" cx="0" cy="0" r="1" gradientUnits="userSpaceOnUse" gradientTransform="translate(48.0689 115.254) scale(136.576 135.826)">
<stop stop-color="#7C7C7B"/>
<stop offset="0.0831301" stop-color="#8F8E8E"/>
<stop offset="0.3015" stop-color="#B9B9B8"/>
<stop offset="0.467" stop-color="#D1D1D1"/>
<stop offset="0.5589" stop-color="#DADADA"/>
<stop offset="0.6513" stop-color="#E4E4E4"/>
<stop offset="0.8713" stop-color="#F8F8F8"/>
<stop offset="1" stop-color="white"/>
</radialGradient>
<linearGradient id="paint10_linear" x1="24.1822" y1="20.6455" x2="23.4705" y2="23.5165" gradientUnits="userSpaceOnUse">
<stop offset="0.0613497" stop-color="#706F6F"/>
<stop offset="0.1515" stop-color="#929191"/>
<stop offset="0.2488" stop-color="#ADADAC"/>
<stop offset="0.3543" stop-color="#C2C2C2"/>
<stop offset="0.4692" stop-color="#D2D2D2"/>
<stop offset="0.5981" stop-color="#DDDDDD"/>
<stop offset="0.7525" stop-color="#E3E3E3"/>
<stop offset="1" stop-color="#E5E5E5"/>
</linearGradient>
<linearGradient id="paint11_linear" x1="0.621517" y1="22.8178" x2="23.0943" y2="22.8178" gradientUnits="userSpaceOnUse">
<stop stop-color="#9C9C9C"/>
<stop offset="0.1897" stop-color="#949494"/>
<stop offset="0.4835" stop-color="#7F7F7E"/>
<stop offset="0.8429" stop-color="#5C5C5B"/>
<stop offset="1" stop-color="#4A4A49"/>
</linearGradient>
<linearGradient id="paint12_linear" x1="13.8237" y1="11.8303" x2="34.2777" y2="11.8303" gradientUnits="userSpaceOnUse">
<stop stop-color="#B2B2B2"/>
<stop offset="0.3427" stop-color="#BABABA"/>
<stop offset="0.8723" stop-color="#D0D0D0"/>
<stop offset="1" stop-color="#D6D6D6"/>
</linearGradient>
<linearGradient id="paint13_linear" x1="0.930376" y1="17.5251" x2="22.6685" y2="21.3199" gradientUnits="userSpaceOnUse">
<stop stop-color="#878787"/>
<stop offset="0.8957"/>
</linearGradient>
<linearGradient id="paint14_linear" x1="1.17707" y1="17.5077" x2="26.2876" y2="21.6569" gradientUnits="userSpaceOnUse">
<stop stop-color="#646363"/>
<stop offset="1" stop-color="#4A4A49"/>
</linearGradient>
<linearGradient id="paint15_linear" x1="8.75687" y1="10.9853" x2="25.9562" y2="10.9853" gradientUnits="userSpaceOnUse">
<stop offset="0.2242" stop-color="#575756"/>
<stop offset="0.3798" stop-color="#5D5D5C"/>
<stop offset="0.5842" stop-color="#6D6C6C"/>
<stop offset="0.8149" stop-color="#868685"/>
<stop offset="1" stop-color="#9D9D9C"/>
</linearGradient>
<radialGradient id="paint16_radial" cx="0" cy="0" r="1" gradientUnits="userSpaceOnUse" gradientTransform="translate(33.7108 29.1783) scale(42.4019 42.1691)">
<stop stop-color="#878787"/>
<stop offset="0.1882" stop-color="#A4A4A3"/>
<stop offset="0.3966" stop-color="#BDBDBD"/>
<stop offset="0.513" stop-color="#C6C6C6"/>
<stop offset="0.5735" stop-color="#D6D6D6"/>
<stop offset="0.6696" stop-color="#E8E8E8"/>
<stop offset="0.77" stop-color="#F5F5F5"/>
<stop offset="0.8766" stop-color="#FDFDFD"/>
<stop offset="1" stop-color="white"/>
</radialGradient>
<radialGradient id="paint17_radial" cx="0" cy="0" r="1" gradientUnits="userSpaceOnUse" gradientTransform="translate(32.8141 29.7645) scale(14.6513 14.5709)">
<stop/>
<stop offset="0.283" stop-color="#6F6E6E"/>
<stop offset="0.647" stop-color="#BEBEBD"/>
<stop offset="0.8118" stop-color="#DADADA"/>
<stop offset="0.8512" stop-color="#E4E4E4"/>
<stop offset="0.9451" stop-color="#F8F8F8"/>
<stop offset="1" stop-color="white"/>
</radialGradient>
</defs>
</svg>
