<svg width="73" height="72" viewBox="0 0 73 72" fill="none" xmlns="http://www.w3.org/2000/svg">
<path d="M36.3798 1.12026C55.9185 1.05384 71.8124 16.6162 71.8798 35.8797C71.9473 55.1433 56.1627 70.8133 36.624 70.8797C17.0853 70.9462 1.19141 55.3838 1.12396 36.1203C1.05651 16.8567 16.8411 1.18668 36.3798 1.12026Z" fill="url(#paint0_linear)" stroke="#141414" stroke-width="0.805595" stroke-linecap="square"/>
<path d="M36.5025 67.3203C28.0168 67.3203 20.0394 64.0632 14.0394 58.1471C8.03898 52.2322 4.73438 44.3663 4.73438 36.0016C4.73438 27.635 8.03898 19.7702 14.0394 13.8553C20.0394 7.93929 28.0168 4.68175 36.5025 4.68175C44.9882 4.68175 52.9657 7.93929 58.9657 13.8553C64.9661 19.7702 68.2699 27.635 68.2699 36.0016C68.2699 44.3663 64.9661 52.2311 58.9657 58.1471C52.9657 64.0632 44.9882 67.3203 36.5025 67.3203Z" fill="#141414"/>
<path d="M36.5022 64.7766C28.7052 64.7766 21.3753 61.7833 15.8624 56.3483C10.3487 50.9128 7.3125 43.6861 7.3125 35.9999C7.3125 28.3129 10.3487 21.0861 15.8624 15.6507C21.3753 10.2157 28.7052 7.22163 36.5022 7.22163C44.2993 7.22163 51.6292 10.2157 57.1421 15.6507C62.6558 21.0861 65.692 28.3129 65.692 35.9999C65.692 43.6861 62.6558 50.9128 57.1421 56.3483C51.6292 61.7833 44.2993 64.7766 36.5022 64.7766Z" fill="white"/>
<path d="M58.6594 49.826C56.5014 47.8292 53.7807 46.4937 50.8169 46.0273C50.3942 45.9627 50.0112 46.2845 50.0112 46.7065C50.0112 47.05 50.0112 47.4224 50.0112 47.7672C50.0112 48.0825 49.7667 48.4399 49.4456 48.4399C49.213 48.4399 48.9804 48.4462 48.7464 48.4399C47.9199 48.4272 47.7696 47.4263 47.9354 46.8369C49.6973 40.608 50.128 36.8297 50.1076 34.0787C50.0855 31.1545 50.0112 28.2414 48.6744 24.3846C47.3866 20.6744 46.2107 17.0418 39.9913 11.4895C39.5685 11.1142 39.1417 10.932 38.5725 10.8914C37.9609 10.8495 37.4608 10.8281 36.8386 10.8281C34.2568 10.8281 31.7648 11.2018 29.4101 11.8986C28.5286 12.161 28.6609 12.7653 29.1455 13.1772C31.4934 15.1575 34.677 18.1339 36.8735 21.8516C35.4827 21.9845 34.42 21.222 33.5267 20.3779C30.5912 17.6234 27.535 15.6593 25.1072 14.3151C24.6844 14.0819 24.2678 13.9843 23.849 14.2214C21.1731 15.7556 19.3701 17.1988 17.2456 19.628C16.8843 20.0409 17.1183 20.3627 17.4716 20.5476C19.7942 21.7617 23.4311 24.0651 26.7664 27.0567C26.0866 27.6205 25.0094 27.4356 23.4479 26.6286C20.4469 25.0739 17.5618 24.1792 15.36 23.6204C14.8885 23.5013 14.3831 23.6317 14.1403 24.0475C12.7305 26.4625 11.7576 29.3513 11.2974 32.2807C11.21 32.8435 11.5983 33.3414 12.1675 33.4391C17.2996 34.3246 26.4476 36.7029 27.967 47.0928C28.0979 48.0027 27.2586 48.8023 26.1534 48.2904C24.611 47.5781 23.0702 46.8674 21.5291 46.1541C21.3672 46.0805 21.1833 46.0172 21.0059 46.0172C18.5242 46.0172 16.2174 46.0172 13.7369 46.0172C12.7035 46.0172 12.2781 46.9916 12.9503 47.7506C14.698 49.7348 16.301 51.876 17.672 54.1456C17.7931 54.3471 17.9319 54.4243 18.1695 54.4243C19.2273 54.4243 20.2864 54.4243 21.3429 54.4243C21.5587 54.4243 21.7436 54.3749 21.9302 54.266C22.9274 53.6892 23.9247 53.1141 24.9245 52.5377C25.1098 52.4287 25.2947 52.431 25.5109 52.431C33.1632 52.431 41.3731 52.431 49.4301 52.431C49.7513 52.431 50.0112 52.635 50.0112 52.9519C50.0112 53.3383 50.0112 53.7249 50.0112 54.1125C50.0112 54.5345 50.3942 54.855 50.8169 54.7905C53.7807 54.324 56.5014 52.9886 58.6594 50.9931C59.0026 50.6774 59.0026 50.1403 58.6594 49.826" fill="url(#paint1_linear)"/>
<path d="M58.6594 49.826C56.5014 47.8292 53.7807 46.4937 50.8169 46.0273C50.3942 45.9627 50.0112 46.2845 50.0112 46.7065C50.0112 47.05 50.0112 47.4224 50.0112 47.7672C50.0112 48.0825 49.7667 48.4399 49.4456 48.4399C49.213 48.4399 48.9804 48.4462 48.7464 48.4399C47.9199 48.4272 47.7696 47.4263 47.9354 46.8369C49.6973 40.608 50.128 36.8297 50.1076 34.0787C50.0855 31.1545 50.0112 28.2414 48.6744 24.3846C47.3866 20.6744 46.2107 17.0418 39.9913 11.4895C39.5685 11.1142 39.1417 10.932 38.5725 10.8914C37.9609 10.8495 37.4608 10.8281 36.8386 10.8281C34.2568 10.8281 31.7648 11.2018 29.4101 11.8986C28.5286 12.161 28.6609 12.7653 29.1455 13.1772C31.4934 15.1575 34.677 18.1339 36.8735 21.8516C35.4827 21.9845 34.42 21.222 33.5267 20.3779C30.5912 17.6234 27.535 15.6593 25.1072 14.3151C24.6844 14.0819 24.2678 13.9843 23.849 14.2214C21.1731 15.7556 19.3701 17.1988 17.2456 19.628C16.8843 20.0409 17.1183 20.3627 17.4716 20.5476C19.7942 21.7617 23.4311 24.0651 26.7664 27.0567C26.0866 27.6205 25.0094 27.4356 23.4479 26.6286C20.4469 25.0739 17.5618 24.1792 15.36 23.6204C14.8885 23.5013 14.3831 23.6317 14.1403 24.0475C12.7305 26.4625 11.7576 29.3513 11.2974 32.2807C11.21 32.8435 11.5983 33.3414 12.1675 33.4391C17.2996 34.3246 26.4476 36.7029 27.967 47.0928C28.0979 48.0027 27.2586 48.8023 26.1534 48.2904C24.611 47.5781 23.0702 46.8674 21.5291 46.1541C21.3672 46.0805 21.1833 46.0172 21.0059 46.0172C18.5242 46.0172 16.2174 46.0172 13.7369 46.0172C12.7035 46.0172 12.2781 46.9916 12.9503 47.7506C14.698 49.7348 16.301 51.876 17.672 54.1456C17.7931 54.3471 17.9319 54.4243 18.1695 54.4243C19.2273 54.4243 20.2864 54.4243 21.3429 54.4243C21.5587 54.4243 21.7436 54.3749 21.9302 54.266C22.9274 53.6892 23.9247 53.1141 24.9245 52.5377C25.1098 52.4287 25.2947 52.431 25.5109 52.431C33.1632 52.431 41.3731 52.431 49.4301 52.431C49.7513 52.431 50.0112 52.635 50.0112 52.9519C50.0112 53.3383 50.0112 53.7249 50.0112 54.1125C50.0112 54.5345 50.3942 54.855 50.8169 54.7905C53.7807 54.324 56.5014 52.9886 58.6594 50.9931C59.0026 50.6774 59.0026 50.1403 58.6594 49.826" stroke="#141414" stroke-width="0.804884"/>
<path d="M40.8401 46.4293C38.484 46.4293 36.5771 44.548 36.5771 42.229C36.5771 39.9078 38.484 38.0275 40.8401 38.0275C43.1906 38.0275 45.1006 39.9078 45.1006 42.229C45.1006 44.548 43.1906 46.4293 40.8401 46.4293ZM56.5044 50.4054C54.8863 49.1044 53.1806 48.263 51.1088 47.8397C50.9213 47.8017 50.8301 47.8728 50.8301 48.0628C50.8301 48.0982 50.8301 48.13 50.8301 48.1653C50.8301 48.6671 50.3211 49.2513 49.8095 49.2513C49.3624 49.2513 48.91 49.2513 48.4638 49.2513C47.3277 49.2513 46.3137 48.3288 46.7342 46.8474C51.5961 29.7407 46.1633 19.1633 39.303 13.2423C37.4394 11.6369 37.2723 11.5481 35.415 11.6178C33.9512 11.6723 32.2353 11.8497 30.7844 12.1968C30.4991 12.2653 30.2612 12.4884 30.638 12.8001C34.1594 15.7256 38.867 20.7686 41.1188 28.6181C41.1961 28.8906 41.0326 28.8718 40.822 28.8831C38.8055 29.0034 38.1257 27.7858 37.4957 27.0115C32.9243 21.4021 27.7989 17.9901 23.9625 15.7483C23.5809 15.5229 23.519 15.5268 23.2285 15.6942C21.6864 16.5722 19.9551 17.9735 18.7354 19.2483C18.4811 19.5182 18.5452 19.6447 18.8265 19.7929C22.2967 21.6266 27.5738 25.2388 32.4782 31.3639C32.7828 31.7428 32.8036 31.9176 32.6311 32.0178C31.6879 32.5715 30.1135 32.5637 28.3888 31.5047C23.7131 28.6294 18.9641 26.5934 15.2485 25.5379C14.8527 25.424 14.7832 25.4467 14.6214 25.7811C13.7152 27.6589 12.7282 30.0995 12.3722 32.2154C12.3271 32.4917 12.3028 32.5131 12.5624 32.565C22.7876 34.6128 28.3977 40.1423 29.0376 47.5344C29.1495 48.8167 27.6781 50.0519 26.214 49.5958C24.6242 49.0979 23.0807 48.539 21.4896 48.0424C21.3189 47.9866 21.1464 47.9626 20.9652 47.9626C18.7676 47.9613 16.5672 47.9601 14.367 47.9601C14.0739 47.9601 13.9018 48.1415 14.1933 48.5051C15.8539 50.5755 16.8192 51.7488 17.9898 53.685C18.1096 53.8864 18.2481 53.9636 18.4886 53.9636C19.2957 53.9636 20.1054 53.9623 20.9165 53.9623C21.2376 53.9623 21.5126 53.889 21.7917 53.7268C22.6721 53.2185 23.5473 52.7446 24.4277 52.2353C24.7077 52.0732 24.9469 51.9755 25.2707 51.9755C33.2546 51.9731 41.8117 51.9755 49.794 51.9742C50.303 51.9742 50.8301 52.561 50.8301 53.0664C50.8301 53.1235 50.8301 53.1819 50.8301 53.2402C50.8301 53.43 50.9213 53.501 51.1088 53.4644C53.1806 53.0411 54.8863 52.0605 56.5044 50.7591C56.6508 50.6401 56.6508 50.5259 56.5044 50.4056" fill="#1E1E1E"/>
<path d="M45.2811 41.7506C45.6656 44.342 43.8467 46.7466 41.2182 47.1257C38.5919 47.5044 36.1506 45.7142 35.7661 43.1228C35.3817 40.5314 37.2002 38.1242 39.8264 37.7454C42.4549 37.3664 44.8966 39.1592 45.2811 41.7506Z" fill="url(#paint2_linear)"/>
<path d="M41.2932 37.754L39.8477 47.1334C41.9185 47.4242 44.0187 46.3446 44.9137 44.366C45.9956 41.974 44.9068 39.1744 42.4827 38.1087C42.0932 37.9375 41.6952 37.8182 41.2932 37.754Z" fill="url(#paint3_linear)"/>
<path d="M44.5858 42.315C44.5858 44.0673 43.1427 45.4916 41.3614 45.4916C39.5814 45.4916 38.1406 44.0673 38.1406 42.315C38.1406 40.5589 39.5814 39.1359 41.3614 39.1359C43.1427 39.1359 44.5858 40.5589 44.5858 42.315Z" fill="white" stroke="#141414" stroke-width="0.804884"/>
<defs>
<linearGradient id="paint0_linear" x1="36.6245" y1="71.0037" x2="36.3865" y2="0.996298" gradientUnits="userSpaceOnUse">
<stop stop-color="#99A2A7"/>
<stop offset="0.47584" stop-color="#98A3A8"/>
<stop offset="0.535243" stop-color="#E6E6E6"/>
<stop offset="1" stop-color="#E6E6E6"/>
</linearGradient>
<linearGradient id="paint1_linear" x1="11.6798" y1="54.0243" x2="58.0973" y2="10.945" gradientUnits="userSpaceOnUse">
<stop stop-color="#151313"/>
<stop offset="0.085001" stop-color="#151313"/>
<stop offset="0.127798" stop-color="#F8F1F1"/>
<stop offset="0.228741" stop-color="#151313"/>
<stop offset="0.304102" stop-color="#141414"/>
<stop offset="0.381742" stop-color="#F8F1F1"/>
<stop offset="0.449694" stop-color="#151313"/>
<stop offset="0.565496" stop-color="#F8F1F4"/>
<stop offset="0.626805" stop-color="#141414"/>
<stop offset="0.787047" stop-color="#F8F1F1"/>
<stop offset="1" stop-color="#F8F1F2"/>
</linearGradient>
<linearGradient id="paint2_linear" x1="40.5585" y1="41.5531" x2="44.9976" y2="47.44" gradientUnits="userSpaceOnUse">
<stop stop-color="#151313"/>
<stop offset="0.162563" stop-color="#CCC4C4"/>
<stop offset="0.496139" stop-color="#B7ACAD"/>
<stop offset="1" stop-color="#151313"/>
</linearGradient>
<linearGradient id="paint3_linear" x1="41.6369" y1="40.9027" x2="34.9212" y2="43.67" gradientUnits="userSpaceOnUse">
<stop stop-color="#151313"/>
<stop offset="0.25" stop-color="#CCC4C4"/>
<stop offset="0.5" stop-color="#B7ACAD"/>
<stop offset="1" stop-color="#151313"/>
</linearGradient>
</defs>
</svg>
