<svg width="60" height="53" viewBox="0 0 60 53" fill="none" xmlns="http://www.w3.org/2000/svg">
<path d="M58.9921 30.11L0.0351562 19.735C0.0351562 19.735 0.198271 13.2012 0.325138 9.73691C0.452005 6.27258 1.17696 4.17244 2.62687 2.898C4.6205 1.15686 6.94035 0.726065 12.4863 0.438867C25.3361 -0.261179 38.4034 -0.15348 54.7874 0.977363C56.491 1.10301 57.1435 1.40816 57.4697 1.64151C58.1947 2.12616 58.2853 2.6826 58.4847 5.57253C58.6478 7.88807 59.0103 15.6783 59.0103 15.6783C59.0103 15.6783 39.6721 14.9783 30.157 14.9783C27.4747 14.9783 25.318 14.9962 23.56 15.0321C22.3819 15.0501 21.8382 15.1578 21.3851 15.3732L59.0103 21.7095V30.11H58.9921Z" fill="white"/>
<path d="M0 21.9414L58.957 32.3164C58.957 32.3164 58.7939 38.8502 58.667 42.3145C58.5401 45.7788 57.8152 47.879 56.3653 49.1534C54.3716 50.8946 52.0518 51.3254 46.5059 51.6126C33.656 52.3126 20.5887 52.2049 4.20474 51.0741C2.5011 50.9484 1.84864 50.6433 1.52241 50.4099C0.797451 49.9253 0.706831 49.3688 0.507469 46.4789C0.380601 44.1813 0 36.3911 0 36.3911C0 36.3911 19.3382 37.0911 28.8532 37.0911C31.5355 37.0911 33.6923 37.0732 35.4503 37.0373C36.6284 37.0193 37.1721 36.9116 37.6252 36.6962L0 30.3419V21.9414Z" fill="white"/>
<path d="M58.9932 30.11L0.0362478 19.735C0.0362478 19.735 0.199363 13.2012 0.32623 9.73691C0.453097 6.27258 1.17805 4.17244 2.62796 2.898C4.62159 1.15686 6.94144 0.726065 12.4874 0.438867C25.3372 -0.261179 38.4045 -0.15348 54.7885 0.977363C56.4921 1.10301 57.1446 1.40816 57.4708 1.64151C58.1958 2.12616 58.2864 2.6826 58.4857 5.57253C58.6489 7.88807 59.0113 15.6783 59.0113 15.6783C59.0113 15.6783 39.6732 14.9783 30.1581 14.9783C27.4758 14.9783 25.3191 14.9962 23.561 15.0321C22.383 15.0501 21.8393 15.1578 21.3862 15.3732L59.0113 21.7095V30.11H58.9932ZM0 21.9428L58.957 32.3179C58.957 32.3179 58.7939 38.8516 58.667 42.3159C58.5401 45.7803 57.8152 47.8804 56.3653 49.1548C54.3716 50.896 52.0518 51.3268 46.5059 51.614C33.656 52.314 20.5887 52.2063 4.20474 51.0755C2.5011 50.9498 1.84864 50.6447 1.52241 50.4113C0.79745 49.9267 0.706831 49.3702 0.507469 46.4803C0.380601 44.1827 0 36.3925 0 36.3925C0 36.3925 19.3382 37.0925 28.8532 37.0925C31.5355 37.0925 33.6923 37.0746 35.4503 37.0387C36.6284 37.0207 37.1721 36.913 37.6252 36.6976L0 30.3434V21.9428ZM0.616212 22.6788V29.8228L38.9482 36.2848C38.9482 36.2848 38.4226 36.9848 37.8789 37.2361C37.3352 37.4874 36.6465 37.6131 35.4503 37.649C33.6742 37.6849 31.5174 37.7028 28.8351 37.7028C20.4256 37.7028 4.15037 37.1464 0.634336 37.0207C0.724955 38.9593 1.01494 44.5597 1.1418 46.4444C1.34117 49.3164 1.43179 49.5856 1.88488 49.9087C2.048 50.0164 2.53734 50.3395 4.25911 50.4652C13.7198 51.1293 22.238 51.4345 30.3031 51.4345C35.7403 51.4345 41.0325 51.2909 46.4696 51.0037C51.8524 50.7165 54.0998 50.3216 55.9484 48.6881C57.2715 47.5394 57.9239 45.4931 58.0326 42.298C58.1233 39.4619 58.2683 34.4539 58.3045 32.8384L0.616212 22.6788ZM58.3589 29.3741V22.23L20.0269 15.7681C20.0269 15.7681 20.5525 15.068 21.0962 14.8167C21.6218 14.5654 22.3286 14.4398 23.5248 14.4039C25.2828 14.368 27.4577 14.35 30.1219 14.35C38.5314 14.35 54.8066 14.9065 58.3226 15.0321C58.232 13.0935 57.942 7.49317 57.8152 5.60843C57.6158 2.73645 57.5252 2.4672 57.0721 2.14411C56.909 2.03641 56.4196 1.71331 54.6979 1.58766C45.2372 0.923513 36.719 0.618365 28.6538 0.618365C23.2167 0.618365 17.9245 0.761964 12.4874 1.04916C7.12268 1.33636 4.87532 1.73126 3.02669 3.34675C1.70364 4.51349 1.05118 6.54183 0.942442 9.75486C0.833698 12.5909 0.706831 17.581 0.670583 19.2144L58.3589 29.3741Z" fill="black"/>
<path d="M31.0475 40.1602C30.7031 40.1602 28.9814 40.1602 28.6189 40.1602C20.7894 40.1602 12.398 40.1063 2.15803 39.5499L0.671875 37.0369L1.0706 37.0549L2.77424 38.9934C11.6187 39.4781 19.7382 39.5858 28.637 39.5858C28.9995 39.5858 30.685 39.5858 31.0656 39.5858C32.3162 39.5858 33.7842 39.5858 35.0891 39.5319C39.5838 39.3883 40.9431 38.9216 44.0242 35.8343L45.1297 35.7266L44.6766 36.1933C41.36 39.5858 40.0007 39.9268 35.1072 40.0884C33.7661 40.1602 32.298 40.1602 31.0475 40.1602Z" fill="white"/>
<path d="M58.3236 32.8354L0.617188 22.6758V23.0348L1.63212 23.5553V28.2402L0.617188 29.3711V29.8378L2.19397 28.5454V23.322L57.4899 33.0508L58.3236 32.8354Z" fill="white"/>
<path d="M56.8716 32.9453C56.8353 33.8967 56.7991 35.0993 56.7628 36.1942C56.7266 37.1276 56.7085 37.9354 56.6722 38.6893C56.636 39.7124 56.5816 40.7356 56.5272 42.1177C56.3822 45.6718 55.5667 46.8026 54.008 47.736C52.5218 48.6335 50.782 48.7592 45.4898 49.0105C40.1251 49.2797 34.398 49.4233 28.4533 49.4592C28.0002 49.4592 27.5471 49.4592 27.094 49.4592C20.1345 49.4592 13.773 49.0823 5.78037 48.454C4.42107 48.3463 3.55113 48.2386 3.17053 47.9873C2.75368 47.7181 2.64493 47.6463 2.51807 45.941C2.49994 45.6897 2.48182 45.4564 2.4637 45.223C2.42745 44.5768 2.37308 44.0024 2.33683 43.1408C2.30058 42.2613 2.24621 41.3997 2.11934 39.497L1.59375 38.6175C1.70249 40.6458 1.77499 42.369 1.81124 43.2665C1.84748 44.0742 1.86561 44.6127 1.90186 45.2589V45.3307C1.91998 45.5282 1.91998 45.7436 1.9381 45.959C2.04685 47.6642 2.17371 48.0053 2.8443 48.4361C3.33364 48.7592 4.23984 48.8848 5.72599 48.9925C13.7367 49.6028 20.0982 49.9977 27.0759 49.9977C27.529 49.9977 27.9821 49.9977 28.4352 49.9977C34.3798 49.9618 40.1251 49.8003 45.5079 49.531C50.9088 49.2618 52.685 49.1361 54.298 48.1668C56.0379 47.1257 56.9441 45.8872 57.0891 42.0818C57.1434 40.7176 57.1797 39.6945 57.2341 38.7072V38.6534C57.3065 37.0558 57.379 35.3506 57.4697 32.9992L56.8716 32.9453Z" fill="url(#paint0_radial)"/>
<path d="M56.9101 13.3069H56.6745C48.2469 12.8941 39.6561 12.9479 29.9599 12.9479C29.3436 12.9479 28.5824 12.9479 27.7487 12.9659C25.1933 13.0018 23.2178 13.0018 22.0397 13.2172C19.4843 13.6659 19.6111 14.9762 20.5717 15.1557C20.7348 15.0121 20.916 14.8865 21.0973 14.7967C21.6229 14.5454 22.3297 14.4198 23.5259 14.3839C25.2839 14.348 27.4588 14.33 30.123 14.33C38.3331 14.33 53.9921 14.8506 58.0337 14.9942C57.7438 14.5454 57.0551 13.5223 56.9101 13.3069Z" fill="url(#paint1_linear)"/>
<path d="M55.7657 4.70812L56.0919 4.24142L56.0013 4.18757C55.5844 3.90037 54.6963 3.72088 53.2283 3.61318C45.6888 3.09263 37.3337 2.76953 31.4072 2.76953C31.0084 2.76953 30.6097 2.76953 30.211 2.76953C28.9604 2.76953 27.7824 2.78748 26.6587 2.78748C20.9678 2.82338 16.5093 2.87723 13.2289 3.05673C12.9571 3.07468 12.6852 3.09263 12.4133 3.09263C7.73737 3.34393 5.39939 3.46958 3.55076 5.08507C2.31833 6.18001 1.81086 7.6519 1.684 10.5418L1.62963 11.924C1.53901 14.1139 1.50276 15.4781 1.39402 18.4039C1.2309 18.4757 0.795927 18.6731 0.650936 18.7449L0.632812 19.2116L1.97398 18.6731L1.9921 18.009C2.0646 15.4601 2.11897 13.9164 2.20959 11.9419L2.26396 10.5598C2.3727 7.84935 2.8258 6.48516 3.93136 5.51586C5.61688 4.02602 7.90049 3.91832 12.4315 3.66703C12.7033 3.64908 12.9752 3.63113 13.247 3.63113C16.5093 3.45163 20.9678 3.39778 26.6406 3.36188C27.7643 3.36188 28.9423 3.34393 30.1929 3.34393C30.5735 3.34393 30.9722 3.34393 31.3709 3.34393C37.2793 3.34393 45.6163 3.66703 53.1377 4.18757C54.4607 4.27732 55.3126 4.43887 55.6388 4.65427L55.7657 4.70812Z" fill="white"/>
<path d="M1.64818 11.908L1.70255 10.5259C1.82944 7.63596 2.31884 6.16407 3.56953 5.06913C3.84142 4.83578 4.13143 4.62038 4.42145 4.44088C4.14956 3.90238 4.07705 3.39979 4.25831 3.02284C4.42145 2.71769 5.07398 2.17919 6.46968 1.6766C4.98335 2.01765 3.95017 2.52024 3.02575 3.34594C1.70255 4.51268 1.05002 6.54102 0.941263 9.75405C0.850634 12.3568 0.723752 16.7724 0.6875 18.7469C0.796256 18.6931 1.2494 18.4956 1.43066 18.4059C1.52129 15.4801 1.55755 14.0979 1.64818 11.908Z" fill="url(#paint2_linear)"/>
<path d="M56.3481 4.45862C56.7287 3.88422 57.2905 3.86627 57.798 5.15866C57.6167 2.69953 57.508 2.43028 57.0911 2.14308C56.928 2.03538 56.4387 1.71228 54.7169 1.58663C45.2562 0.922488 36.738 0.61734 28.6729 0.61734C23.2357 0.61734 17.9436 0.760939 12.5064 1.04814C9.82408 1.19174 7.9392 1.35329 6.47116 1.67638C5.07562 2.17898 4.42316 2.71748 4.26005 3.02262C4.06069 3.39957 4.15131 3.92012 4.42316 4.44067C6.14493 3.41752 8.44666 3.29187 12.4158 3.07647C12.6876 3.05852 12.9595 3.04057 13.2314 3.04057C16.5118 2.86108 20.9703 2.80723 26.6612 2.77133C27.7848 2.77133 28.9629 2.75338 30.2134 2.75338C30.594 2.75338 30.9928 2.75338 31.4096 2.75338C37.3361 2.75338 45.6912 3.07647 53.2308 3.59702C54.6988 3.70472 55.5869 3.88422 56.0037 4.17142L56.0943 4.22527C56.1849 4.29707 56.2756 4.38682 56.3481 4.45862Z" fill="url(#paint3_linear)"/>
<path d="M58.3214 14.6534L57.1794 12.7507C57.1613 11.207 57.0163 8.01196 56.9076 6.68367C56.7807 5.40923 56.7263 4.87073 56.3638 4.47583C56.2913 4.38608 56.2006 4.31428 56.0919 4.24249L55.7656 4.70918C56.1281 4.97843 56.1825 5.21178 56.3275 6.73752C56.4544 8.11966 56.6719 11.6019 56.69 12.9841L58.0495 15.0304L58.3395 15.0483L58.3214 14.6534Z" fill="url(#paint4_linear)"/>
<path d="M57.7977 5.15866C57.2902 3.88422 56.7102 3.88422 56.3477 4.45861C56.7283 4.87146 56.7646 5.40996 56.8914 6.66645C57.0183 7.99474 57.1452 11.1898 57.1633 12.7335L58.3053 14.6362C58.1965 12.4463 57.9427 7.36649 57.8159 5.57151" fill="black"/>
<path d="M56.6747 12.9656C48.8089 12.5887 40.3269 12.3733 29.9601 12.3733C27.8939 12.3733 23.8523 12.4451 22.0037 12.481C18.8682 12.5348 18.3245 14.4734 18.3064 15.1914L56.9646 24.0766V28.8154L58.3602 29.3718L0.671875 19.2122L2.01304 18.6737L2.03117 18.0096C2.03117 18.0096 2.15803 13.917 2.24865 11.9425L2.30302 10.5604C2.41177 7.84992 2.86486 6.48573 3.97042 5.51643C5.65594 4.02659 7.93955 3.91889 12.4705 3.6676C12.7424 3.64965 13.0142 3.6317 13.2861 3.6317C16.5484 3.4522 21.0069 3.39835 26.6796 3.36245C27.8033 3.36245 28.9814 3.3445 30.2319 3.3445C30.6125 3.3445 31.0112 3.3445 31.41 3.3445C37.3184 3.3445 45.6553 3.6676 53.1767 4.18814C54.4998 4.27789 55.3516 4.43944 55.6778 4.65484L55.7685 4.70869C55.7685 4.70869 55.7685 4.70869 55.7866 4.70869L55.8047 4.72664C55.8228 4.72664 55.8228 4.74459 55.841 4.74459C55.8591 4.74459 55.8591 4.76254 55.8772 4.76254C55.8953 4.76254 55.8953 4.78049 55.8953 4.78049C55.8953 4.79844 55.9134 4.79844 55.9134 4.79844C56.1309 5.03179 56.1853 5.35488 56.2941 6.43188C56.2941 6.52163 56.3122 6.61138 56.3122 6.70113C56.4572 8.10122 56.6747 11.5835 56.6747 12.9656Z" fill="url(#paint5_radial)"/>
<path d="M56.6747 12.9656C48.8089 12.5887 40.3269 12.3733 29.9601 12.3733C27.8939 12.3733 23.8523 12.4451 22.0037 12.481C18.8682 12.5348 18.3245 14.4734 18.3064 15.1914L56.9646 24.0766V28.8154L58.3602 29.3718L0.671875 19.2122L2.01304 18.6737L2.03117 18.0096C2.03117 18.0096 2.15803 13.917 2.24865 11.9425L2.30302 10.5604C2.41177 7.84992 2.86486 6.48573 3.97042 5.51643C5.65594 4.02659 7.93955 3.91889 12.4705 3.6676C12.7424 3.64965 13.0142 3.6317 13.2861 3.6317C16.5484 3.4522 21.0069 3.39835 26.6796 3.36245C27.8033 3.36245 28.9814 3.3445 30.2319 3.3445C30.6125 3.3445 31.0112 3.3445 31.41 3.3445C37.3184 3.3445 45.6553 3.6676 53.1767 4.18814C54.4998 4.27789 55.3516 4.43944 55.6778 4.65484L55.7685 4.70869C55.7685 4.70869 55.7685 4.70869 55.7866 4.70869L55.8047 4.72664C55.8228 4.72664 55.8228 4.74459 55.841 4.74459C55.8591 4.74459 55.8591 4.76254 55.8772 4.76254C55.8953 4.76254 55.8953 4.78049 55.8953 4.78049C55.8953 4.79844 55.9134 4.79844 55.9134 4.79844C56.1309 5.03179 56.1853 5.35488 56.2941 6.43188C56.2941 6.52163 56.3122 6.61138 56.3122 6.70113C56.4572 8.10122 56.6747 11.5835 56.6747 12.9656Z" fill="url(#paint6_radial)"/>
<path d="M0.617188 23.0352L1.63224 23.5557V28.2406L0.617188 29.3715V23.0352Z" fill="#B2B2B2"/>
<path d="M52.4862 50.3725C52.903 50.1033 53.1024 49.852 53.1749 49.7084C53.3199 49.4212 53.193 49.152 52.9393 48.8468C51.5075 49.2956 49.4958 49.4032 45.5085 49.6007C40.1438 49.8699 34.3986 50.0135 28.4358 50.0674C27.9827 50.0674 27.5296 50.0674 27.0765 50.0674C20.0988 50.0674 13.7374 49.6904 5.7266 49.0622C4.24044 48.9545 3.33425 48.8289 2.8449 48.5058C2.68179 48.3981 2.55492 48.2904 2.44618 48.1827C2.3918 48.2365 2.31931 48.3083 2.22869 48.3801C1.72122 48.8289 1.44936 48.7391 1.25 48.0391C1.37687 49.4751 1.52186 49.6904 1.86621 49.9238C2.02933 50.0315 2.51867 50.3546 4.24044 50.4802C13.7011 51.1444 22.2193 51.4495 30.2845 51.4495C35.7216 51.4495 41.0138 51.3059 46.4509 51.0187C49.1514 50.8572 51.0363 50.6956 52.4862 50.3725Z" fill="url(#paint7_linear)"/>
<path d="M1.92116 45.3639V45.2921C1.88491 44.6459 1.86678 44.1074 1.83053 43.2997C1.79428 42.4022 1.72178 40.679 1.61302 38.6506L0.652344 37.0352C0.742974 38.9737 1.03299 44.5741 1.15987 46.4588L1.28675 48.0205C1.48614 48.7385 1.75803 48.8282 2.26555 48.3615C2.35618 48.2718 2.42869 48.2179 2.48307 48.1641C2.1568 47.8051 2.06617 47.2845 1.97554 46.0101C1.95741 45.7768 1.93929 45.5793 1.92116 45.3639Z" fill="#9D9D9C"/>
<path d="M57.49 33.0518C57.3993 35.4033 57.3268 37.1085 57.2543 38.706V38.7599C57.2181 39.7471 57.1637 40.7703 57.1093 42.1345C56.9462 45.9578 56.0399 47.1784 54.3179 48.2195C53.901 48.4708 53.466 48.6682 52.9766 48.8298C53.2122 49.1349 53.3572 49.4042 53.2122 49.6914C53.1397 49.835 52.9222 50.1042 52.5234 50.3555C54.0098 50.0145 55.0611 49.5119 55.9855 48.6862C57.3087 47.5374 57.9612 45.4911 58.07 42.296C58.1606 39.4599 58.3056 34.4519 58.3419 32.8364L57.49 33.0518Z" fill="url(#paint8_linear)"/>
<path d="M56.674 38.6888C56.6377 39.7119 56.5833 40.735 56.529 42.1172C56.384 45.6713 55.5684 46.8021 54.0098 47.7355C52.5236 48.633 50.7837 48.7586 45.4915 49.0099C40.1269 49.2792 34.3997 49.4228 28.4551 49.4587C28.002 49.4587 27.5489 49.4587 27.0958 49.4587C20.1362 49.4587 13.7747 49.0817 5.78212 48.4535C4.42283 48.3458 3.55288 48.2381 3.17228 47.9868C2.75543 47.7176 2.64669 47.6458 2.51982 45.9405C2.5017 45.6892 2.48357 45.4559 2.46545 45.2225C2.4292 44.5763 2.37483 44.0019 2.33858 43.1403C2.30233 42.2608 2.24796 41.3992 2.12109 39.4965C12.3792 40.053 20.7706 40.1068 28.582 40.1068C28.9444 40.1068 30.6662 40.1068 31.0106 40.1068C32.2792 40.1068 33.7473 40.1068 35.0522 40.053C39.9456 39.8914 41.3049 39.5504 44.6216 36.1578L45.0747 35.6911L2.19359 28.5471V23.3237L56.8915 32.9448C56.8552 33.8961 56.819 35.0988 56.7827 36.1937C56.7283 37.1271 56.7102 37.9349 56.674 38.6888Z" fill="url(#paint9_radial)"/>
<path d="M38.9314 38.6701C38.9133 38.8676 38.6414 39.1548 37.6444 39.3702C40.2365 39.065 41.5778 38.2393 43.9704 35.852L38.9314 36.3007C38.9314 36.3007 38.4057 37.0008 37.8619 37.2521C37.4994 37.4136 37.0825 37.5393 36.4844 37.5931C37.5538 37.8265 37.8982 37.9521 38.3332 38.1316C38.7139 38.2573 38.9495 38.5086 38.9314 38.6701Z" fill="url(#paint10_linear)"/>
<path d="M37.661 39.3687C38.6578 39.1533 38.9297 38.8661 38.9478 38.6686C38.9659 38.5071 38.7122 38.2558 38.3678 38.1301C37.951 37.9686 37.5885 37.8429 36.5192 37.5916C36.5192 37.5916 35.8667 37.6455 35.468 37.6455C33.6919 37.6814 31.5351 37.6993 28.8528 37.6993C20.7152 37.6993 5.2374 37.1788 1.05078 37.0352L2.75443 38.9738C11.5989 39.4584 19.7184 39.5661 28.6172 39.5661C28.9797 39.5661 30.6652 39.5661 31.0458 39.5661C32.2963 39.5661 33.7644 39.5661 35.0693 39.5123C36.0661 39.5123 36.9179 39.4584 37.661 39.3687Z" fill="url(#paint11_linear)"/>
<path d="M56.852 23.4309L57.7944 22.1205L23.3047 16.3047C26.8751 17.4535 36.4445 19.6614 43.7665 21.2948C43.4222 21.223 55.6739 23.2334 56.852 23.4309Z" fill="url(#paint12_linear)"/>
<path d="M35.0707 34.6495C34.1282 34.47 33.4033 34.3084 32.624 34.2007C32.2796 34.1469 13.9382 31.0595 1.70462 28.9414L0.617188 29.821L38.9492 36.2829C38.4055 35.6726 36.5025 34.9367 35.0707 34.6495Z" fill="url(#paint13_linear)"/>
<path d="M35.0692 34.6496C34.1267 34.4701 33.4018 34.3085 32.6225 34.2008C32.2781 34.147 13.9367 31.0596 1.70312 28.9415L2.19247 28.5466L45.1098 35.7445L38.9658 36.301C38.6033 35.8343 36.8272 34.9906 35.0692 34.6496Z" fill="url(#paint14_linear)"/>
<path d="M56.6737 12.9665C48.808 12.5895 40.326 12.3741 29.9592 12.3741C27.893 12.3741 23.8514 12.4459 22.0028 12.4818C18.1061 12.5536 15.8588 14.4025 14.0645 16.3769L13.7383 16.7L20.136 15.6051C20.136 15.6051 20.2448 15.4435 20.571 15.1563C19.6104 14.9768 19.4835 13.6665 22.039 13.2178C23.1989 13.0024 25.1926 13.0024 27.748 12.9665C28.5817 12.9485 29.3611 12.9485 29.9592 12.9485C39.6554 12.9485 48.2461 12.8947 56.6737 13.3075L56.9094 13.3255L56.6737 12.9665Z" fill="black"/>
<path d="M14.7695 16.5383C17.3975 16.987 32.3859 19.4282 43.7677 21.295C36.4457 19.6616 26.8763 17.4717 23.3059 16.3049L20.1523 15.6049L14.7695 16.5383Z" fill="url(#paint15_linear)"/>
<path d="M56.674 38.6888C56.6377 39.7119 56.5833 40.735 56.529 42.1172C56.384 45.6713 55.5684 46.8021 54.0098 47.7355C52.5236 48.633 50.7837 48.7586 45.4915 49.0099C40.1269 49.2792 34.3997 49.4228 28.4551 49.4587C28.002 49.4587 27.5489 49.4587 27.0958 49.4587C20.1362 49.4587 13.7747 49.0817 5.78212 48.4535C4.42283 48.3458 3.55288 48.2381 3.17228 47.9868C2.75543 47.7176 2.64669 47.6458 2.51982 45.9405C2.5017 45.6892 2.48357 45.4559 2.46545 45.2225C2.4292 44.5763 2.37483 44.0019 2.33858 43.1403C2.30233 42.2608 2.24796 41.3992 2.12109 39.4965C12.3792 40.053 20.7706 40.1068 28.582 40.1068C28.9444 40.1068 30.6662 40.1068 31.0106 40.1068C32.2792 40.1068 33.7473 40.1068 35.0522 40.053C39.9456 39.8914 41.3049 39.5504 44.6216 36.1578L45.0747 35.6911L2.19359 28.5471V23.3237L56.8915 32.9448C56.8552 33.8961 56.819 35.0988 56.7827 36.1937C56.7283 37.1271 56.7102 37.9349 56.674 38.6888Z" fill="url(#paint16_radial)"/>
<path d="M13.7578 16.7L14.7727 16.5205C18.9231 17.2205 53.7935 22.8927 56.8564 23.4132L57.7988 22.1029L58.3607 22.1926L56.9651 24.0415L13.7578 16.7Z" fill="white"/>
<path opacity="0.1" d="M54.0092 47.7339C55.5678 46.8005 56.3834 45.6697 56.5284 42.1156C56.5828 40.7335 56.6371 39.6924 56.6734 38.6872C56.7096 37.9333 56.7278 37.1255 56.764 36.1922C56.8002 35.0972 56.8365 33.8946 56.8727 32.9432L41.3406 30.2148C38.6401 31.1303 36.2296 32.3868 34.2179 33.9305L45.0922 35.7614L44.6391 36.2281C41.3225 39.6206 39.9632 39.9616 35.0697 40.1232C33.7648 40.1591 32.2968 40.177 31.0281 40.177C30.7744 40.177 29.7413 40.177 29.0888 40.177C28.4001 41.7387 28.0195 43.3901 28.0195 45.0953C28.0195 46.621 28.3095 48.0929 28.8714 49.493C34.671 49.4571 40.2531 49.2956 45.4909 49.0443C50.7831 48.7571 52.523 48.6314 54.0092 47.7339Z" fill="url(#paint17_radial)"/>
<path d="M56.9805 28.8163L57.5243 28.6548V23.3237L56.9805 24.0776V28.8163Z" fill="#9D9D9C"/>
<path d="M56.9805 28.8179L57.5243 28.6562L58.3581 29.0693V29.3746L56.9805 28.8179Z" fill="#878787"/>
<path d="M58.3572 22.2104L57.5234 23.3233V28.6545L58.3572 29.0673V22.2104Z" fill="#3C3C3B"/>
<defs>
<radialGradient id="paint0_radial" cx="0" cy="0" r="1" gradientUnits="userSpaceOnUse" gradientTransform="translate(27.5423 49.3821) rotate(15.3496) scale(29.8338 18.6396)">
<stop offset="0.3301" stop-color="#818080"/>
<stop offset="0.6198" stop-color="#A2A2A2"/>
<stop offset="0.7979" stop-color="#B2B2B2"/>
<stop offset="1" stop-color="#DADADA"/>
</radialGradient>
<linearGradient id="paint1_linear" x1="20.2692" y1="14.0541" x2="56.8208" y2="14.0541" gradientUnits="userSpaceOnUse">
<stop stop-color="#4A4A49"/>
<stop offset="0.3168" stop-color="#525251"/>
<stop offset="0.454" stop-color="#575756"/>
<stop offset="0.7429" stop-color="#2D2D2C"/>
<stop offset="0.9069"/>
</linearGradient>
<linearGradient id="paint2_linear" x1="5.27431" y1="17.7211" x2="2.10338" y2="3.41203" gradientUnits="userSpaceOnUse">
<stop stop-color="#9D9D9C"/>
<stop offset="0.5625" stop-color="#ACACAB"/>
<stop offset="1" stop-color="#B2B2B2"/>
</linearGradient>
<linearGradient id="paint3_linear" x1="4.42744" y1="2.88053" x2="57.8276" y2="2.88053" gradientUnits="userSpaceOnUse">
<stop offset="0.0567086" stop-color="#BFBFBF"/>
<stop offset="0.2789" stop-color="#BCBCBC"/>
<stop offset="0.442" stop-color="#B3B3B3"/>
<stop offset="0.5862" stop-color="#A3A3A3"/>
<stop offset="0.7194" stop-color="#8C8C8C"/>
<stop offset="0.8452" stop-color="#6F6F6F"/>
<stop offset="0.9637" stop-color="#4C4C4C"/>
<stop offset="1" stop-color="#404040"/>
</linearGradient>
<linearGradient id="paint4_linear" x1="57.0462" y1="4.54446" x2="57.0462" y2="14.7763" gradientUnits="userSpaceOnUse">
<stop offset="0.00613497" stop-color="white"/>
<stop offset="0.1166" stop-color="#CCCCCC"/>
<stop offset="0.495" stop-color="#CACACA"/>
<stop offset="0.6313" stop-color="#C3C3C3"/>
<stop offset="0.7284" stop-color="#B8B8B8"/>
<stop offset="0.807" stop-color="#A7A7A7"/>
<stop offset="0.8742" stop-color="#919191"/>
<stop offset="0.9338" stop-color="#757575"/>
<stop offset="0.9863" stop-color="#565656"/>
<stop offset="1" stop-color="#4D4D4D"/>
</linearGradient>
<radialGradient id="paint5_radial" cx="0" cy="0" r="1" gradientUnits="userSpaceOnUse" gradientTransform="translate(56.2802 49.4863) scale(71.2151 70.5314)">
<stop offset="0.1417" stop-color="#878787"/>
<stop offset="0.3057" stop-color="#A4A4A3"/>
<stop offset="0.4874" stop-color="#BDBDBD"/>
<stop offset="0.5888" stop-color="#C6C6C6"/>
<stop offset="0.6593" stop-color="#D5D5D5"/>
<stop offset="0.7508" stop-color="#E2E2E2"/>
<stop offset="0.8484" stop-color="#EAEAEA"/>
<stop offset="0.9612" stop-color="#EDEDED"/>
</radialGradient>
<radialGradient id="paint6_radial" cx="0" cy="0" r="1" gradientUnits="userSpaceOnUse" gradientTransform="translate(82.5302 61.0044) scale(74.3053 73.5919)">
<stop offset="0.1417" stop-color="#878787"/>
<stop offset="0.3057" stop-color="#A4A4A3"/>
<stop offset="0.4874" stop-color="#BDBDBD"/>
<stop offset="0.5888" stop-color="#C6C6C6"/>
<stop offset="0.6329" stop-color="#D6D6D6"/>
<stop offset="0.7028" stop-color="#E8E8E8"/>
<stop offset="0.776" stop-color="#F5F5F5"/>
<stop offset="0.8537" stop-color="#FDFDFD"/>
<stop offset="0.9435" stop-color="white"/>
</radialGradient>
<linearGradient id="paint7_linear" x1="1.27061" y1="49.7317" x2="53.2496" y2="49.7317" gradientUnits="userSpaceOnUse">
<stop stop-color="#706F6F" stop-opacity="0.91"/>
<stop offset="0.5081" stop-color="#474746" stop-opacity="0.9557"/>
<stop offset="1"/>
</linearGradient>
<linearGradient id="paint8_linear" x1="54.8995" y1="48.6056" x2="58.8638" y2="34.1394" gradientUnits="userSpaceOnUse">
<stop offset="0.2699" stop-color="#575756"/>
<stop offset="0.3398" stop-color="#4F4F4E"/>
<stop offset="0.5821" stop-color="#353534"/>
<stop offset="0.808" stop-color="#131312"/>
<stop offset="1"/>
</linearGradient>
<radialGradient id="paint9_radial" cx="0" cy="0" r="1" gradientUnits="userSpaceOnUse" gradientTransform="translate(81.0528 193.534) scale(230.291 228.081)">
<stop stop-color="#7C7C7B"/>
<stop offset="0.0831301" stop-color="#8F8E8E"/>
<stop offset="0.3015" stop-color="#B9B9B8"/>
<stop offset="0.467" stop-color="#D1D1D1"/>
<stop offset="0.5589" stop-color="#DADADA"/>
<stop offset="0.6513" stop-color="#E4E4E4"/>
<stop offset="0.8713" stop-color="#F8F8F8"/>
<stop offset="1" stop-color="white"/>
</radialGradient>
<linearGradient id="paint10_linear" x1="40.7704" y1="34.6659" x2="39.5792" y2="39.4902" gradientUnits="userSpaceOnUse">
<stop offset="0.0613497" stop-color="#706F6F"/>
<stop offset="0.1515" stop-color="#929191"/>
<stop offset="0.2488" stop-color="#ADADAC"/>
<stop offset="0.3543" stop-color="#C2C2C2"/>
<stop offset="0.4692" stop-color="#D2D2D2"/>
<stop offset="0.5981" stop-color="#DDDDDD"/>
<stop offset="0.7525" stop-color="#E3E3E3"/>
<stop offset="1" stop-color="#E5E5E5"/>
</linearGradient>
<linearGradient id="paint11_linear" x1="1.04491" y1="38.312" x2="38.938" y2="38.312" gradientUnits="userSpaceOnUse">
<stop stop-color="#9C9C9C"/>
<stop offset="0.1897" stop-color="#949494"/>
<stop offset="0.4835" stop-color="#7F7F7E"/>
<stop offset="0.8429" stop-color="#5C5C5B"/>
<stop offset="1" stop-color="#4A4A49"/>
</linearGradient>
<linearGradient id="paint12_linear" x1="23.3037" y1="19.8642" x2="57.7929" y2="19.8642" gradientUnits="userSpaceOnUse">
<stop stop-color="#B2B2B2"/>
<stop offset="0.3427" stop-color="#BABABA"/>
<stop offset="0.8723" stop-color="#D0D0D0"/>
<stop offset="1" stop-color="#D6D6D6"/>
</linearGradient>
<linearGradient id="paint13_linear" x1="1.56682" y1="29.4256" x2="38.2122" y2="35.8493" gradientUnits="userSpaceOnUse">
<stop stop-color="#878787"/>
<stop offset="0.8957"/>
</linearGradient>
<linearGradient id="paint14_linear" x1="1.98194" y1="29.3973" x2="44.3133" y2="36.4211" gradientUnits="userSpaceOnUse">
<stop stop-color="#646363"/>
<stop offset="1" stop-color="#4A4A49"/>
</linearGradient>
<linearGradient id="paint15_linear" x1="14.7679" y1="18.4453" x2="43.7691" y2="18.4453" gradientUnits="userSpaceOnUse">
<stop offset="0.2242" stop-color="#575756"/>
<stop offset="0.3798" stop-color="#5D5D5C"/>
<stop offset="0.5842" stop-color="#6D6C6C"/>
<stop offset="0.8149" stop-color="#868685"/>
<stop offset="1" stop-color="#9D9D9C"/>
</linearGradient>
<radialGradient id="paint16_radial" cx="0" cy="0" r="1" gradientUnits="userSpaceOnUse" gradientTransform="translate(56.8425 48.9947) scale(71.4971 70.8107)">
<stop stop-color="#878787"/>
<stop offset="0.1882" stop-color="#A4A4A3"/>
<stop offset="0.3966" stop-color="#BDBDBD"/>
<stop offset="0.513" stop-color="#C6C6C6"/>
<stop offset="0.5735" stop-color="#D6D6D6"/>
<stop offset="0.6696" stop-color="#E8E8E8"/>
<stop offset="0.77" stop-color="#F5F5F5"/>
<stop offset="0.8766" stop-color="#FDFDFD"/>
<stop offset="1" stop-color="white"/>
</radialGradient>
<radialGradient id="paint17_radial" cx="0" cy="0" r="1" gradientUnits="userSpaceOnUse" gradientTransform="translate(55.3305 49.9771) scale(24.7047 24.4675)">
<stop/>
<stop offset="0.283" stop-color="#6F6E6E"/>
<stop offset="0.647" stop-color="#BEBEBD"/>
<stop offset="0.8118" stop-color="#DADADA"/>
<stop offset="0.8512" stop-color="#E4E4E4"/>
<stop offset="0.9451" stop-color="#F8F8F8"/>
<stop offset="1" stop-color="white"/>
</radialGradient>
</defs>
</svg>
