<svg width="108" height="56" viewBox="0 0 108 56" fill="none" xmlns="http://www.w3.org/2000/svg">
<path d="M53.6019 4.41427C52.2052 4.46814 50.8829 4.77501 49.8744 5.27859C46.5535 6.94156 44.964 10.7944 44.0112 13.0968C43.9136 13.3357 43.823 13.5559 43.7393 13.755C41.9755 17.8749 41.7059 20.9198 42.9399 22.8123C43.888 24.2645 45.6496 25 48.178 25C49.2353 25 50.4322 24.8664 51.6499 24.6064C56.0583 23.6672 60.3412 22.0957 64.3127 20.5404C75.0141 16.4369 80.2684 12.3731 81.6116 11.2325C81.8742 11.024 82.0346 10.8788 82.1298 10.7757C82.3948 10.5157 82.6969 10.1527 82.6969 9.61635C82.6969 8.62325 81.5512 8.3093 80.8656 8.11959C80.7843 8.09616 80.7145 8.07977 80.6495 8.05869C72.7367 5.67431 63.5784 4.41427 54.162 4.41427H53.6019ZM43.586 22.3885C42.5054 20.7255 42.7912 17.9242 44.4458 14.0619C44.5364 13.8628 44.6247 13.638 44.7246 13.3967C45.6356 11.195 47.1532 7.50837 50.2161 5.97422C51.127 5.52452 52.3378 5.24335 53.6229 5.19182H54.162C63.5017 5.19182 72.5857 6.44268 80.4288 8.80364C80.4985 8.82472 80.5775 8.84812 80.6635 8.87154C81.1353 9.00036 81.9253 9.21817 81.9253 9.61635C81.9253 9.81075 81.83 9.98177 81.5744 10.2371C81.4954 10.3237 81.3606 10.4431 81.1259 10.6258C79.799 11.7571 74.6283 15.753 64.0314 19.8144C60.0947 21.3579 55.8467 22.9178 51.4918 23.8453C50.3275 24.0959 49.1819 24.22 48.178 24.22C45.9238 24.22 44.3784 23.6064 43.586 22.3885Z" fill="url(#paint0_radial)"/>
<path d="M0 27.9965C0 43.4364 24.2241 56 54 56C83.7735 56 108 43.4364 108 27.9965C108 12.559 83.7735 0 54 0C24.2241 0 0 12.559 0 27.9965ZM0.838974 27.9965C0.838974 13.0251 24.6843 0.845592 54 0.845592C83.3088 0.845592 107.161 13.0251 107.161 27.9965C107.161 42.9726 83.3088 55.1544 54 55.1544C24.6843 55.1544 0.838974 42.9726 0.838974 27.9965Z" fill="url(#paint1_radial)"/>
<path d="M34.3291 6.3877C16.1936 10.0978 4.47656 18.5765 4.47656 27.9946C4.47656 33.1802 8.0507 38.1317 14.8248 42.3289C15.3035 42.6147 15.7311 42.7529 16.1517 42.7529H16.154C16.7977 42.7061 17.1254 42.3148 17.3741 41.9166C17.4717 41.7456 17.5948 41.4857 17.7203 41.214L17.8248 41.0033C23.7089 27.2685 30.1647 16.0587 36.4926 8.57295C36.7157 8.28486 36.8459 8.09975 36.9737 7.88661C37.3246 7.32214 37.1758 6.83506 36.9411 6.58913C36.7296 6.33617 36.3346 6.21673 35.7653 6.21673C35.3702 6.21673 34.8915 6.27293 34.3291 6.3877ZM15.2245 41.6637C8.69441 37.6211 5.24575 32.8945 5.24575 27.9946C5.24575 18.963 16.7211 10.7816 34.4825 7.14881C34.9891 7.04575 35.4353 6.99199 35.7769 6.99199C36.2393 6.99199 36.3508 7.09033 36.3671 7.10907C36.4391 7.17933 36.416 7.31521 36.3137 7.48619C36.2022 7.66654 36.0883 7.83516 35.8977 8.07875C29.528 15.6137 23.0327 26.8914 17.1207 40.6823L17.0278 40.8768C16.9047 41.1344 16.7908 41.3804 16.7141 41.5209C16.5073 41.8441 16.3515 41.9611 16.1284 41.9775C15.8728 41.9775 15.5777 41.8745 15.2245 41.6637Z" fill="url(#paint2_radial)"/>
<path d="M56.522 31.3437C51.9021 32.3227 47.5031 34.0092 43.9685 35.3606L43.8732 35.3956C33.1182 39.5226 27.8895 43.5818 26.53 44.7365C26.4463 44.8114 26.372 44.877 26.2999 44.9379C26.1954 45.0269 26.1094 45.1042 26.0374 45.1745C25.8004 45.4064 25.4844 45.781 25.4844 46.3197C25.4844 47.3222 26.7531 47.6877 27.4317 47.8844L27.5596 47.9266C35.4562 50.2758 44.6029 51.5218 54.0193 51.5218H54.0797C54.1378 51.5265 54.219 51.5312 54.3074 51.5312C54.3864 51.5312 54.4794 51.5265 54.5515 51.5218C55.8784 51.4937 57.2449 51.1846 58.3022 50.6716C61.6463 48.9923 63.2334 45.1089 64.1838 42.7901C64.2722 42.5723 64.3559 42.3756 64.4279 42.1976C66.1964 38.0753 66.466 35.028 65.232 33.1355C64.2885 31.6833 62.5223 30.9502 59.9962 30.9502C58.9412 30.9502 57.7397 31.086 56.522 31.3437ZM27.7826 47.1793L27.6456 47.1396C27.2296 47.0178 26.2558 46.7343 26.2558 46.3197C26.2558 46.1253 26.3465 45.9544 26.5812 45.7272C26.644 45.6663 26.7159 45.6031 26.8019 45.5282C26.8786 45.4649 26.9577 45.397 27.0391 45.322C28.366 44.1978 33.5087 40.202 44.1451 36.1242L44.2381 36.089C47.7495 34.7422 52.1229 33.07 56.6847 32.1026C57.8466 31.8543 58.9923 31.7255 59.9962 31.7255C62.2504 31.7255 63.7958 32.3438 64.5882 33.5618C65.6688 35.2224 65.3784 38.0237 63.7192 41.8861C63.6425 42.0734 63.5611 42.2747 63.4728 42.4949C62.5642 44.7106 61.0396 48.423 57.9628 49.9736C56.6405 50.6154 55.4508 50.7443 54.0193 50.7443C44.6796 50.7443 35.6048 49.5098 27.7826 47.1793Z" fill="url(#paint3_radial)"/>
<path d="M92.0139 13.2433C91.4887 13.2714 91.0797 13.5571 90.8171 14.0677C90.6404 14.3417 90.4477 14.7446 90.3454 14.9695C87.0548 22.7269 80.2527 37.2533 71.6799 47.4115C71.4499 47.6856 71.3058 47.8729 71.1873 48.1024C70.9061 48.5802 70.9247 49.0745 71.2314 49.4118C71.4406 49.6577 71.7962 49.7725 72.3191 49.7725C72.6839 49.7725 73.1324 49.7186 73.7041 49.6085C91.8327 45.8797 103.55 37.3939 103.55 27.9899C103.55 22.7504 100.02 17.7966 93.3432 13.6626C92.8807 13.3698 92.5019 13.2363 92.158 13.2363C92.0976 13.2363 92.0395 13.2386 92.0139 13.2433ZM71.8032 48.8964C71.7056 48.7887 71.7892 48.6014 71.8612 48.4843C71.9472 48.3156 72.0401 48.1822 72.2679 47.9152C80.908 37.682 87.7449 23.0712 91.0471 15.288C91.2051 14.9577 91.3585 14.6627 91.4817 14.4613C91.6397 14.1615 91.8024 14.0326 92.0859 14.0185C92.1069 14.0138 92.1324 14.0139 92.158 14.0139C92.3486 14.0139 92.6042 14.1146 92.9365 14.3207C99.3737 18.3095 102.776 23.0361 102.776 27.9899C102.776 37.0098 91.3029 45.1957 73.5531 48.8472C73.0418 48.9456 72.6281 48.9949 72.3191 48.9949C71.8961 48.9949 71.8078 48.9034 71.8032 48.8964Z" fill="url(#paint4_radial)"/>
<path d="M34.4342 6.79849C35.559 6.56662 36.4165 6.56661 36.6652 6.86642C36.8348 7.04208 36.8976 7.34188 36.6652 7.71196C36.5513 7.90636 36.4305 8.08203 36.2167 8.35841C26.7515 19.5519 19.5591 36.0762 17.5164 40.8356C17.356 41.1728 17.2027 41.5054 17.0865 41.7139C16.8704 42.0488 16.631 42.3158 16.1778 42.3463C15.9431 42.3463 15.5969 42.2901 15.0717 41.9809C8.80649 38.0952 4.92096 33.2468 4.92096 27.9979C4.92096 18.5143 17.0842 10.3423 34.4342 6.79849ZM44.1039 13.9258C44.987 11.8694 46.5207 7.42386 50.0507 5.65315C51.122 5.12147 52.4443 4.88022 53.6156 4.83337H54.1663C64.0289 4.83337 73.1989 6.20826 80.8956 8.57624C80.9769 8.57624 81.1373 8.64884 81.1907 8.67226C81.9088 8.91117 82.2597 9.23674 82.276 9.6396C82.276 10.0003 82.0854 10.265 81.8251 10.5179C81.7229 10.635 81.5649 10.7732 81.3395 10.9442C79.5687 12.4479 74.2214 16.3313 64.1613 20.1866C60.6244 21.5755 56.1858 23.2502 51.5752 24.2339C48.8423 24.8101 38.7799 26.3466 44.1039 13.9258ZM91.0951 14.2983C91.274 13.9493 91.5343 13.6729 91.9875 13.6495C92.2477 13.6143 92.5708 13.6846 93.0913 14.0078C99.3751 17.9006 103.1 22.7279 103.1 27.9885C103.1 37.4862 90.965 45.6277 73.6009 49.1996C72.4785 49.4174 71.7534 49.4174 71.4955 49.1293C71.3282 48.9443 71.2794 48.6445 71.4955 48.2721C71.6047 48.066 71.7279 47.9067 71.951 47.6397C81.4092 36.4345 88.6248 19.9219 90.6536 15.1368C90.8 14.8276 90.965 14.5067 91.0951 14.2983ZM64.0614 42.0231C63.1853 44.0912 61.6446 48.5297 58.1239 50.2981C57.0619 50.8157 55.7373 51.0851 54.5405 51.1062C54.2848 51.1272 54.0966 51.1062 54.0153 51.1062C44.1527 51.1062 34.9525 49.7407 27.2627 47.3961C27.2047 47.3727 27.0397 47.293 27.0397 47.293C26.2705 47.0494 25.9056 46.7192 25.9056 46.2999C25.9056 45.951 26.0822 45.6886 26.3402 45.4333C26.4564 45.3162 26.6167 45.1897 26.8235 45.0047C28.5897 43.501 33.9579 39.6082 44.0203 35.753C47.5549 34.4015 51.9726 32.6987 56.6017 31.722C59.33 31.1435 69.3947 29.607 64.0614 42.0231ZM54.0013 55.5072C83.5425 55.5072 107.483 43.1895 107.483 27.9979C107.483 12.8063 83.5425 0.488567 54.0013 0.488567C24.4787 0.488567 0.519531 12.8063 0.519531 27.9979C0.519531 43.1895 24.4787 55.5072 54.0013 55.5072Z" fill="white"/>
<path d="M1.0625 27.9949C1.0625 42.8609 24.8102 54.9561 53.9982 54.9561C83.1861 54.9561 106.932 42.8609 106.932 27.9949C106.932 13.1335 83.1861 1.03837 53.9982 1.03837C24.8102 1.03837 1.0625 13.1335 1.0625 27.9949ZM45.5276 24.8235C44.3145 24.4675 43.4012 23.8234 42.804 22.9076C41.5351 20.9588 41.8001 17.8578 43.5895 13.6887L43.8614 13.0351C44.8188 10.7116 46.4246 6.82126 49.7989 5.13253C50.826 4.62192 52.1717 4.30572 53.5892 4.2542H53.5985H54.1586C63.5889 4.2542 72.7659 5.51661 80.6903 7.90333L80.904 7.96651C81.5849 8.15155 82.8538 8.49829 82.8538 9.61553C82.8538 10.2128 82.5238 10.6063 82.2658 10.8593C82.1473 10.9928 81.9801 11.1473 81.7244 11.344C80.9157 12.0303 78.7265 13.7495 74.8294 15.8949C72.1709 17.3612 68.713 19.0265 64.358 20.6989C60.3842 22.2588 56.0966 23.8281 51.6859 24.7673C50.4589 25.0273 49.2482 25.1679 48.1815 25.1679C47.1799 25.1679 46.2921 25.0507 45.5276 24.8235ZM14.7361 42.4627C7.91091 38.2397 4.31131 33.2414 4.31131 27.9949C4.31131 18.4948 16.0817 9.95036 34.2986 6.22858C34.868 6.11147 35.3653 6.05303 35.7696 6.05303C36.3948 6.05303 36.813 6.19355 37.0361 6.45588C37.0733 6.49336 37.1059 6.53541 37.1408 6.58226C37.3825 6.90314 37.4893 7.41849 37.1314 7.99467C37.0036 8.20313 36.8758 8.39527 36.6248 8.71146C30.3224 16.1667 23.8876 27.3484 18.0035 41.0737L17.9106 41.2659C17.7758 41.5423 17.6574 41.8021 17.5389 42.0083C17.3506 42.3081 17.0764 42.6501 16.6093 42.8117C16.4675 42.8655 16.3071 42.9007 16.1259 42.9147C15.7006 42.9147 15.2474 42.7719 14.7361 42.4627ZM71.109 49.5245C71.0811 49.4941 71.0531 49.4589 71.0276 49.4237C70.7882 49.1029 70.6743 48.5829 71.009 48.016C71.1484 47.7561 71.2971 47.5571 71.5318 47.2807C80.079 37.1529 86.8648 22.6617 90.153 14.9042C90.2599 14.6888 90.4482 14.2813 90.6062 14.0423C90.8363 13.595 91.1477 13.3044 91.5148 13.1756C91.6543 13.1241 91.8031 13.0913 91.9588 13.0842C92.0215 13.0749 92.0842 13.0727 92.154 13.0727C92.5304 13.0727 92.9324 13.2131 93.4204 13.5176C100.148 17.6867 103.704 22.6874 103.704 27.9878C103.704 37.4762 91.9401 46.0205 73.7279 49.7657C73.1492 49.8758 72.6892 49.9321 72.315 49.9321C71.7433 49.9321 71.346 49.7986 71.109 49.5245ZM54.0145 51.684C44.5842 51.684 35.4164 50.438 27.5083 48.0794L27.3827 48.0419C26.6623 47.8311 25.3191 47.4422 25.3191 46.3203C25.3191 45.7183 25.6631 45.3109 25.9164 45.065C25.9908 44.9877 26.0837 44.908 26.1906 44.8167L26.4323 44.6035C27.076 44.0554 28.6098 42.8398 31.2056 41.2729C34.0477 39.5514 38.1726 37.4011 43.822 35.2369L43.9171 35.1995C47.4541 33.8457 51.8556 32.164 56.4825 31.1779C57.7071 30.9203 58.9178 30.7868 59.9822 30.7868C60.8931 30.7868 61.7089 30.8804 62.4246 31.0702C62.4339 31.0725 62.4409 31.0725 62.4502 31.0749C62.4548 31.0749 62.4594 31.0772 62.4641 31.0796C63.7631 31.4286 64.7345 32.0843 65.362 33.047C66.6262 34.991 66.3612 38.0898 64.5695 42.2566L64.3278 42.8491C63.3704 45.1937 61.7645 49.1099 58.3624 50.8197C57.2887 51.3444 55.8991 51.6558 54.5838 51.6816C54.4816 51.691 54.3863 51.6933 54.305 51.6933C54.2073 51.6933 54.1307 51.6887 54.0145 51.684Z" fill="url(#paint5_linear)"/>
<path d="M67.7913 33.3195C67.861 37.1514 67.0663 45.6185 59.4904 51.4717C59.4904 51.4717 56.7877 52.3759 51.8007 52.3993L50.5156 54.4371C53.8713 54.7158 63.348 55.074 76.9102 52.0877V52.0924L78.1256 49.2724C74.3795 50.7457 65.1816 53.3831 69.7759 47.7524C74.4585 42.0186 79.8151 32.0383 81.5859 28.6468L67.7913 33.3195Z" fill="url(#paint6_linear)"/>
<path d="M45.4694 3.5266C43.9844 5.44722 42.6993 7.56225 41.5234 9.68664C40.4126 11.7033 39.411 13.7902 38.5884 15.945C37.9377 17.6478 37.0011 20.2055 36.7734 22.611C36.5085 25.3326 37.143 27.8598 40.092 28.7569C40.2918 28.8178 40.5195 28.8858 40.7844 28.9537C42.5064 29.3753 45.7924 29.7126 53.1916 27.703L52.5386 24.014C52.2179 24.0913 51.8973 24.1616 51.5742 24.2318C51.2117 24.3068 50.7237 24.4004 50.1567 24.4777C49.5618 24.555 48.8855 24.616 48.1837 24.616C45.5043 24.616 42.4948 23.7423 42.5645 19.7628V19.7558C42.5645 19.7441 42.5645 19.7347 42.5645 19.7277V19.7137C42.5645 19.7066 42.5645 19.6973 42.5645 19.6902V19.6715C42.5645 19.6715 42.5645 19.6715 42.5668 19.6715C42.5668 19.6387 42.5692 19.6059 42.5692 19.5754V19.5731C42.6273 18.1186 43.0851 16.2636 44.0937 13.912C44.8001 12.2631 45.9272 9.08003 48.1605 6.96501C48.1628 6.96501 48.1627 6.96501 48.1627 6.96501C48.1744 6.95564 48.1813 6.94622 48.1929 6.93685C48.1953 6.93685 48.1953 6.93447 48.1976 6.93213C48.2069 6.92276 48.2162 6.91806 48.2232 6.90869C48.2255 6.90635 48.2302 6.90408 48.2325 6.89939C48.2395 6.89471 48.2464 6.8877 48.2534 6.88067C48.258 6.87598 48.2626 6.87363 48.2673 6.86895C48.2719 6.86426 48.279 6.85728 48.2813 6.85494C48.2883 6.84791 48.2952 6.84324 48.3022 6.83621C48.3045 6.83387 48.3069 6.8314 48.3115 6.82906C48.3208 6.82203 48.3255 6.81273 48.3348 6.80805C48.3371 6.80805 48.3371 6.80576 48.3371 6.80576C48.674 6.50361 49.032 6.2272 49.4177 5.98361L46.0224 3.0933C45.7993 3.21275 45.6065 3.35562 45.4694 3.5266Z" fill="url(#paint7_linear)"/>
<path d="M82.3094 9.57413C82.3094 9.59052 82.3116 9.60225 82.3116 9.6163V9.61873C82.3116 9.778 82.2745 9.9185 82.2094 10.0473C82.1304 10.2113 82.0072 10.3541 81.8632 10.4993C81.8376 10.5275 81.805 10.558 81.7748 10.5884C81.7539 10.6071 81.733 10.6259 81.7121 10.6493C81.6191 10.7313 81.5099 10.8226 81.3751 10.9234C80.75 11.455 79.6764 12.2842 78.1124 13.303C75.2377 15.1698 70.6969 17.683 64.1761 20.1821C62.8305 20.7068 61.3549 21.2759 59.791 21.8333C57.2324 22.7421 54.4367 23.6182 51.5737 24.2318C50.8301 24.3888 49.552 24.616 48.1832 24.616C47.0236 24.616 45.8035 24.452 44.7972 23.9461L40.1797 28.785C40.3586 28.8389 40.5562 28.8975 40.7839 28.9537C42.5059 29.3753 45.7919 29.7126 53.1911 27.703C56.5491 26.7895 60.76 25.3888 66.0561 23.2949C75.1123 19.7324 85.7208 13.6098 87.559 9.33296C87.6101 9.21585 87.6194 9.11277 87.6008 9.01674L82.3094 9.57413Z" fill="url(#paint8_linear)"/>
<path d="M43.7896 2.94209C33.7086 3.95627 24.4549 6.46248 17.0556 10.2475C7.58814 15.0935 2.37109 21.3988 2.37109 27.9968C2.37109 34.5995 7.58814 40.9047 17.0556 45.7484C17.4716 45.9569 17.8993 46.1701 18.3222 46.3738C18.5965 46.5003 18.8521 46.5027 19.0543 46.4207L16.4816 42.2797C16.4305 42.3031 16.3747 42.3218 16.3166 42.3359C16.2562 42.3523 16.1935 42.3616 16.1284 42.3663C15.896 42.3663 15.5451 42.3077 15.0222 41.9962C8.74775 38.1105 4.85993 33.2551 4.85993 27.9968C4.85993 18.5015 17.0325 10.3248 34.4081 6.77164C34.9357 6.66389 35.405 6.60767 35.7791 6.60767C36.2067 6.60767 36.5111 6.68261 36.6459 6.83954C36.6506 6.84657 36.6575 6.85362 36.6645 6.86299C36.6924 6.89578 36.7134 6.92859 36.7343 6.96606L44.2846 3.14123C44.2358 3.01241 44.0685 2.9398 43.8129 2.9398C43.8059 2.9398 43.7989 2.94209 43.7896 2.94209Z" fill="url(#paint9_linear)"/>
<path d="M42.0153 32.7016C32.9544 36.2641 22.3459 42.3819 20.5077 46.6588C20.4427 46.8157 20.4496 46.9539 20.503 47.0851L25.8806 46.4621C25.8736 46.4199 25.8665 46.373 25.8665 46.3238V46.3075C25.8735 45.9702 26.0478 45.7055 26.3058 45.4549C26.4197 45.3425 26.5799 45.2137 26.7868 45.0286C28.5529 43.5226 33.9281 39.6274 44.0068 35.7651C45.6475 35.1351 47.4809 34.4301 49.4377 33.7579C51.6965 32.9849 54.118 32.2542 56.5999 31.7296C57.3412 31.5703 58.6263 31.343 59.9927 31.343C63.6691 31.343 67.9636 32.9827 64.0711 42.0447C63.7528 42.8012 63.3415 43.8762 62.7744 45.0239C61.8193 46.9656 60.4227 49.1088 58.2708 50.2542L62.0563 52.8984C62.2771 52.7766 62.4584 52.6385 62.6001 52.4699C64.0874 50.5469 65.3702 48.4343 66.5438 46.3075C67.6546 44.2909 68.6562 42.2062 69.4789 40.0537C70.1319 38.3462 71.0684 35.7909 71.2985 33.3855C71.5611 30.6638 70.9266 28.1319 67.9776 27.2372C67.2665 27.0217 66.1976 26.7242 64.3454 26.7242C60.7899 26.7242 54.3481 27.8227 42.0153 32.7016Z" fill="url(#paint10_linear)"/>
<path d="M20.5039 47.0831C20.6108 47.3174 20.899 47.5071 21.2569 47.6687C30.499 51.4818 41.9441 53.5547 54.0329 53.5547C55.9548 53.5547 57.8556 53.5032 59.738 53.3954C60.7837 53.3369 61.5389 53.1776 62.0572 52.8965L58.2716 50.2522C58.2228 50.2756 58.174 50.299 58.1275 50.3224C57.0609 50.8447 55.7362 51.1119 54.5395 51.1353C54.5325 51.1353 54.5303 51.1376 54.5233 51.1376C54.4443 51.1422 54.3722 51.1446 54.3071 51.1446C54.2816 51.1446 54.256 51.1423 54.2351 51.1423C54.1328 51.1423 54.0608 51.1353 54.0166 51.1353C53.9423 51.1353 53.8632 51.1353 53.7888 51.1353H53.7052H53.5588C53.5309 51.1353 53.5054 51.1353 53.4775 51.1353C53.4287 51.1353 53.3775 51.1328 53.3287 51.1328H53.2636C53.2078 51.1328 53.1522 51.1328 53.0964 51.1328H53.0592C52.9942 51.1305 52.929 51.1305 52.8639 51.1281H52.8408C52.7734 51.1281 52.7013 51.1282 52.6316 51.1258H52.6269C43.4592 51.0087 34.912 49.7134 27.6684 47.5539C27.1433 47.3946 26.0232 47.1206 25.8814 46.4601L20.5039 47.0831Z" fill="url(#paint11_linear)"/>
<path d="M88.6637 9.90892C82.9957 22.14 76.9257 33.31 69.4265 44.4144C67.6069 47.1056 65.6386 49.7266 63.8771 52.4623C63.7354 52.6731 63.7354 52.8324 63.8399 52.9331L71.4646 49.0918C71.3414 48.9021 71.3251 48.6281 71.5157 48.2979C71.5831 48.1714 71.6575 48.0614 71.7551 47.9349C71.8155 47.8552 71.8875 47.7685 71.9735 47.6631C81.3109 36.5985 88.4661 20.367 90.6087 15.3289C90.6389 15.2586 90.6691 15.1884 90.6946 15.1251C90.841 14.8136 91.0107 14.4856 91.1362 14.2818C91.2803 14.0078 91.471 13.7783 91.7661 13.6823L89.0168 9.57168C88.8565 9.63492 88.7287 9.74731 88.6637 9.90892Z" fill="url(#paint12_linear)"/>
<path d="M48.3319 2.59641C47.2862 2.65496 46.5401 2.81183 46.0195 3.0929L49.4149 5.98321C49.617 5.85439 49.8262 5.73485 50.0446 5.6271C51.1136 5.09542 52.4405 4.84955 53.6117 4.80739H54.1625H54.2462H54.3903H54.5342C54.5644 4.80739 54.5924 4.80739 54.6179 4.80739C54.6876 4.80739 54.7573 4.80739 54.8247 4.80739H54.8434C54.9155 4.80739 54.9875 4.80739 55.0572 4.80739H55.0711C55.1408 4.80973 55.2129 4.80976 55.2826 4.8121H55.2965C55.3708 4.8121 55.4453 4.81205 55.5173 4.81439H55.522C64.0018 4.92448 71.9308 6.04636 78.8141 7.93887C79.3974 8.09814 79.9714 8.26452 80.5385 8.4355C81.0846 8.59946 82.2629 8.8172 82.307 9.57373L87.5985 9.01634C87.538 8.72825 87.2173 8.51043 86.8083 8.32071C77.5685 4.51227 66.1259 2.43701 54.0324 2.43701C52.1129 2.43701 50.2119 2.48867 48.3319 2.59641Z" fill="url(#paint13_linear)"/>
<path d="M89.0156 9.57256L91.7649 13.6832C91.8462 13.6551 91.9345 13.6387 92.0321 13.634C92.0716 13.6293 92.1111 13.627 92.1529 13.627C92.3923 13.627 92.6966 13.7159 93.1382 13.9899C99.4057 17.878 103.131 22.6867 103.159 27.9309V27.9918C103.159 28.1768 103.156 28.3618 103.145 28.5469H105.682C105.687 28.3618 105.694 28.1838 105.694 27.9988C105.694 21.3937 100.482 15.0909 91.0096 10.2472C90.5983 10.034 90.1706 9.82557 89.743 9.61945C89.5919 9.54918 89.4433 9.51638 89.3085 9.51638C89.2016 9.51638 89.1016 9.53509 89.0156 9.57256Z" fill="url(#paint14_linear)"/>
<path d="M103.148 28.504C102.718 37.7909 90.6946 45.7193 73.6257 49.2256C73.1028 49.3286 72.6636 49.3848 72.3174 49.3848C71.9246 49.3848 71.6527 49.3122 71.5156 49.16C71.5063 49.1483 71.4947 49.1366 71.4878 49.1225C71.4785 49.1131 71.4715 49.1014 71.4645 49.0921L63.8398 52.9333C63.9212 53.0153 64.0722 53.0551 64.2767 53.0504C74.36 52.0362 83.6115 49.5278 91.0107 45.7451C100.22 41.0326 105.405 34.9053 105.684 28.504H103.148Z" fill="url(#paint15_linear)"/>
<path d="M80.6719 8.47945C80.7602 8.50287 80.8485 8.52625 80.9322 8.55436C81.0112 8.55436 81.1762 8.62463 81.2227 8.64571C81.9176 8.87993 82.2662 9.19144 82.3058 9.57322C82.3058 9.58961 82.3127 9.60377 82.3127 9.61782C82.3127 9.97618 82.1221 10.2431 81.8642 10.4984C81.7596 10.6109 81.5992 10.7538 81.376 10.9225C81.2389 11.0396 81.0763 11.173 80.8997 11.3159L85.4294 12.1333C86.4451 11.1519 87.1864 10.2034 87.5606 9.33205C87.6118 9.21494 87.6211 9.11186 87.6025 9.01583C87.542 8.72774 87.2213 8.50757 86.8122 8.3202C85.5665 7.80491 84.2743 7.32709 82.9542 6.87504L80.6719 8.47945Z" fill="url(#paint16_linear)"/>
<path d="M20.5108 46.6569C20.4457 46.8139 20.455 46.9521 20.5061 47.0832C20.613 47.3175 20.9013 47.5072 21.2592 47.6688C22.419 48.1513 23.6112 48.601 24.8361 49.0226L27.6273 47.5377C27.4949 47.4955 27.3623 47.4604 27.2321 47.4206C26.7696 47.2426 26.0074 47.0364 25.8865 46.4602C25.8772 46.4181 25.8702 46.3712 25.8702 46.322C25.8702 45.9777 26.0492 45.7084 26.3095 45.4531C26.4234 45.3407 26.5837 45.2118 26.7905 45.0268C26.9486 44.8909 27.1392 44.7364 27.3577 44.563L22.9883 43.5277C21.7937 44.6286 20.9291 45.6896 20.5108 46.6569Z" fill="url(#paint17_linear)"/>
<path d="M89.0205 9.57001C88.8602 9.63325 88.7324 9.74564 88.6673 9.90725C88.2071 10.891 87.7516 11.8631 87.2891 12.8327V12.8397L90.508 15.5825C90.5754 15.4209 90.6381 15.271 90.6985 15.1235C90.845 14.812 91.0146 14.4863 91.1401 14.2802C91.2842 14.0061 91.4772 13.7766 91.7724 13.6806C91.8537 13.6548 91.9421 13.6361 92.0374 13.6314C92.2977 13.5986 92.6229 13.6665 93.1436 13.9874C93.3411 14.1162 93.5433 14.245 93.7409 14.3715L94.0012 11.9075C93.0599 11.336 92.0653 10.7787 91.0147 10.2446C90.6034 10.0315 90.1756 9.82302 89.748 9.6169C89.5946 9.54898 89.4459 9.51383 89.3111 9.51383C89.2065 9.51383 89.1065 9.53254 89.0205 9.57001Z" fill="url(#paint18_linear)"/>
<path d="M48.3348 2.59613C47.2889 2.65468 46.5427 2.8115 46.0221 3.09491C45.7967 3.21202 45.6061 3.35494 45.469 3.52592C44.8275 4.35038 44.2303 5.217 43.6562 6.10001L46.9077 8.40234C47.591 7.47483 48.4138 6.61767 49.4178 5.98293C49.62 5.85645 49.8315 5.73457 50.0477 5.62682C50.7217 5.29189 51.4933 5.07179 52.2695 4.94063V2.45088C50.9494 2.47665 49.6363 2.52352 48.3348 2.59613Z" fill="url(#paint19_linear)"/>
<path d="M58.2666 50.2475C58.2201 50.2733 58.1783 50.299 58.1295 50.3224C57.0628 50.8447 55.7405 51.1119 54.5414 51.1353C54.2834 51.1564 54.0999 51.1353 54.0186 51.1353C52.1827 51.1353 50.377 51.072 48.5922 50.9783L48.1484 53.372V53.3814C50.0889 53.4938 52.0503 53.5547 54.0349 53.5547C55.9567 53.5547 57.8576 53.5032 59.7399 53.3954C60.7856 53.3369 61.5409 53.1776 62.0591 52.8965C62.2799 52.7747 62.4635 52.6366 62.6029 52.4679C64.0902 50.545 65.373 48.4323 66.5466 46.3056C66.6511 46.1135 66.7487 45.919 66.8556 45.7246L63.3931 43.6776C62.4473 45.8793 60.9368 48.8305 58.2666 50.2475Z" fill="url(#paint20_linear)"/>
<path d="M36.7331 6.9672C36.8191 7.14052 36.8238 7.37947 36.6588 7.66054C36.6588 7.66054 36.6588 7.66048 36.6588 7.66283C36.6565 7.66751 36.6541 7.66986 36.6495 7.67455C36.6495 7.67923 36.6471 7.68388 36.6448 7.68856C36.5263 7.88296 36.4078 8.05634 36.1893 8.33273C26.7126 19.5449 19.5155 36.088 17.4705 40.8544C17.3055 41.1893 17.1499 41.5242 17.0383 41.7303C16.9802 41.8263 16.9198 41.913 16.8501 41.9926C16.8478 41.995 16.8453 41.995 16.843 41.9973L16.8407 41.9998C16.7385 42.1192 16.6245 42.2152 16.4805 42.2808L19.0531 46.4219C19.2135 46.3586 19.3412 46.2438 19.4086 46.0845C25.0765 33.8558 31.1466 22.6858 38.6387 11.5837C40.456 8.88549 42.429 6.26926 44.1951 3.53122C44.302 3.37429 44.323 3.24543 44.2835 3.14237L36.7331 6.9672Z" fill="url(#paint21_linear)"/>
<path d="M17.4731 40.8529C17.3081 41.1878 17.1525 41.5251 17.0409 41.7312C16.8898 41.9701 16.7224 42.1692 16.483 42.2793C16.3784 42.3262 16.2623 42.3566 16.1298 42.366C15.8974 42.366 15.5487 42.3074 15.0235 41.9958C14.5145 41.682 14.0311 41.3612 13.5547 41.0356L13.7685 43.9C14.7981 44.5371 15.8973 45.1555 17.0571 45.7481C17.4731 45.9565 17.9008 46.1697 18.3238 46.3735C18.4679 46.4414 18.6074 46.4719 18.7352 46.4766H18.784C18.8816 46.4742 18.9746 46.4555 19.056 46.4204C19.2163 46.3571 19.344 46.2423 19.4114 46.083C20.0901 44.6215 20.7711 43.1763 21.4614 41.7475L18.0564 39.5038C17.8264 40.0214 17.6358 40.4735 17.4731 40.8529Z" fill="url(#paint22_linear)"/>
<path d="M43.7904 2.93804C40.8902 3.22848 38.0597 3.65018 35.3198 4.1842L33.4375 6.97373C33.7628 6.90346 34.0836 6.83317 34.409 6.76758C35.5384 6.53805 36.3958 6.53803 36.6467 6.83549C36.6816 6.87296 36.7119 6.91979 36.7351 6.96429C36.8234 7.13996 36.8257 7.39059 36.6467 7.68337C36.5282 7.88012 36.4097 8.05115 36.1913 8.32754C36.1332 8.39546 36.0821 8.46098 36.0217 8.53125H40.76C41.929 6.8753 43.1025 5.22413 44.1971 3.52602C44.3017 3.36675 44.3249 3.24024 44.2854 3.13718C44.239 3.01304 44.0856 2.94507 43.8509 2.93804H43.7904Z" fill="url(#paint23_linear)"/>
<path d="M0.449219 27.9945C0.449219 29.0649 0.570063 30.1212 0.800127 31.1564C0.800127 31.1705 0.804753 31.1776 0.807077 31.1893C3.88389 44.8983 26.5371 55.539 54.0007 55.539C83.5721 55.539 107.55 43.2119 107.55 27.9945C107.55 23.1602 105.126 18.614 100.869 14.665C100.862 14.6603 100.859 14.6533 100.853 14.6486C100.843 14.6415 100.836 14.6346 100.827 14.6276C91.6825 6.1745 74.1395 0.452461 54.0007 0.452461C24.4387 0.452461 0.449219 12.7865 0.449219 27.9945ZM17.0138 45.8703C7.53471 40.9962 2.31298 34.6511 2.31298 28.0015C2.31298 21.3613 7.53471 15.014 17.0138 10.1398C26.8787 5.06894 40.0273 2.27703 54.0426 2.27703C68.0579 2.27703 81.2087 5.06894 91.0689 10.1398C100.548 15.014 105.77 21.3613 105.77 28.0015C105.77 34.6511 100.548 40.9962 91.0689 45.8703C81.2087 50.9412 68.0602 53.7331 54.0426 53.7331C40.0273 53.7331 26.8787 50.9412 17.0138 45.8703Z" fill="url(#paint24_linear)"/>
<path d="M37.122 20.5478C36.964 21.2317 36.8385 21.925 36.7734 22.6089C36.5085 25.3306 37.1429 27.8578 40.0943 28.7572C40.2941 28.8181 40.5195 28.8861 40.7844 28.9517C41.4514 29.1156 42.3577 29.2654 43.6452 29.2725H43.8008C45.8272 29.2631 48.7786 28.9001 53.1916 27.7009C53.9515 27.4901 54.7742 27.2559 55.6341 26.9936L55.8084 23.1359C54.7394 23.4568 53.6425 23.7566 52.5363 24.0119C52.2179 24.0869 51.8972 24.1595 51.5742 24.2298C50.1079 24.539 46.5384 25.1244 44.3539 23.6863C43.0619 22.8337 42.2601 21.2715 42.6737 18.5288L37.122 20.5478Z" fill="url(#paint25_linear)"/>
<path d="M48.3672 30.3382L48.7762 33.999C51.2233 33.1394 53.8724 32.3057 56.6053 31.7319C59.1778 31.1838 68.2735 29.7925 64.8434 40.042L69.87 39.0138C70.4603 37.3977 71.1134 35.3458 71.3016 33.3878C71.5665 30.6661 70.9297 28.1342 67.9807 27.2394C67.2696 27.0216 66.2006 26.7242 64.3531 26.7242C61.4645 26.7242 56.6727 27.4502 48.3672 30.3382Z" fill="url(#paint26_linear)"/>
<path d="M63.5039 32.0849V32.0872C64.3452 32.5463 65.0193 33.2536 65.3609 34.3311L71.0249 30.0846V30.0754C70.7135 29.1572 70.1509 28.3748 69.2608 27.8103L63.5039 32.0849Z" fill="url(#paint27_linear)"/>
<path d="M63.8787 52.462C63.8114 52.5603 63.7765 52.6493 63.7695 52.7243V52.7852C63.7765 52.8437 63.7998 52.8929 63.8416 52.9327C63.9136 53.003 64.0369 53.0428 64.2019 53.0498H64.2784C67.8293 52.6914 71.2641 52.1387 74.5593 51.4219V49.026C74.2456 49.0939 73.9412 49.1618 73.6274 49.2274C72.5027 49.4452 71.7729 49.4451 71.5173 49.1594C71.4964 49.1383 71.4825 49.1149 71.4685 49.0892C71.3477 48.9018 71.3268 48.6324 71.5173 48.2975C71.6265 48.0914 71.7497 47.932 71.9752 47.665C72.333 47.2411 72.684 46.8102 73.0326 46.3746L68.4847 45.7796C66.9416 48 65.3405 50.1924 63.8787 52.462Z" fill="url(#paint28_linear)"/>
<path d="M48.3262 2.43512C46.7622 2.52881 45.842 2.83103 45.3493 3.42596C44.0479 5.10298 42.7931 7.06805 41.3895 9.60701C40.1973 11.7759 39.2306 13.8323 38.4474 15.8841C37.6643 17.9312 36.8369 20.325 36.6162 22.5923C36.2908 25.9908 37.4458 28.1152 40.0485 28.9045C40.6458 29.0919 41.7566 29.4292 43.7226 29.4292C48.533 29.4292 56.0694 27.4126 66.1132 23.4379C75.1879 19.8636 85.8406 13.7316 87.7044 9.39386C88.0042 8.69588 87.1559 8.30708 86.8701 8.17357C77.5211 4.31829 66.1644 2.2783 54.0361 2.2783C52.1677 2.2783 50.2434 2.32738 48.3262 2.43512ZM40.1369 28.6048C37.6991 27.8646 36.6186 25.8503 36.9276 22.6227C37.1693 20.0931 38.2267 17.327 38.7379 16.0014C39.5164 13.9543 40.4714 11.9142 41.659 9.76169C43.0579 7.23678 44.3083 5.28558 45.5887 3.62495C46.0233 3.10498 46.8715 2.83337 48.3425 2.74905C50.2527 2.64365 52.17 2.59452 54.0361 2.59452C66.1272 2.59452 77.4375 4.62283 86.747 8.46406C87.4953 8.80603 87.5114 9.06371 87.4162 9.26748C85.5896 13.528 75.016 19.5966 65.997 23.1451C55.9904 27.1058 48.4981 29.113 43.7226 29.113C41.8054 29.113 40.7225 28.7851 40.1369 28.6048Z" fill="url(#paint29_linear)"/>
<path d="M40.8493 8.13655C40.0731 9.23036 39.2759 10.364 38.5114 11.4906C31.7372 21.5293 25.8346 32.0412 20.0156 44.4221L20.2992 44.5557C26.1089 32.1864 32.0022 21.6933 38.7716 11.6663C39.5339 10.542 40.3311 9.41306 41.1026 8.31925C41.8648 7.23949 42.6456 6.13631 43.4032 5.01907L43.0615 4.96289C42.3318 6.03563 41.5836 7.10363 40.8493 8.13655Z" fill="url(#paint30_linear)"/>
<path d="M69.2997 44.3487C68.5397 45.4753 67.7403 46.6066 66.9664 47.7004C66.2739 48.6818 65.5652 49.6843 64.875 50.7031H65.2514C65.9021 49.7498 66.5691 48.806 67.2221 47.8831C67.9983 46.787 68.7977 45.6557 69.5577 44.5244C76.276 34.5746 82.1321 24.1658 87.9093 11.9161L87.5794 11.8786C81.8301 24.0698 75.9924 34.4388 69.2997 44.3487Z" fill="url(#paint31_linear)"/>
<path d="M41.9621 32.5825C32.8874 36.1544 22.2347 42.2864 20.3687 46.6265C20.0666 47.3245 20.9171 47.7179 21.1983 47.8468C30.5589 51.7044 41.9064 53.7422 54.0347 53.7422C55.9333 53.7422 57.8551 53.6905 59.7491 53.5828C61.3107 53.4938 62.2286 53.1893 62.7283 52.5944C64.0227 50.922 65.2776 48.957 66.6859 46.4133C67.8594 44.2772 68.8518 42.1646 69.6303 40.1339C70.4088 38.0939 71.236 35.7 71.4567 33.4304C71.7821 30.0342 70.6294 27.9052 68.0244 27.1135C67.4271 26.9332 66.3141 26.5911 64.3481 26.5911C59.54 26.5911 52.006 28.6077 41.9621 32.5825ZM21.3237 47.5587C20.5777 47.2121 20.5662 46.9544 20.6545 46.753C22.488 42.4925 33.0569 36.4238 42.0759 32.8777C52.0848 28.9147 59.5771 26.9074 64.3481 26.9074C66.2676 26.9074 67.3528 27.2399 67.9337 27.4156C70.3738 28.1604 71.4568 30.1701 71.1454 33.3953C70.9293 35.6298 70.1112 38 69.3374 40.0237C68.5658 42.038 67.5805 44.1413 66.4093 46.2564C65.0149 48.7883 63.7624 50.7417 62.4819 52.3977C62.052 52.9176 61.2015 53.1871 59.7305 53.2737C57.8412 53.3744 55.9264 53.426 54.0347 53.426C41.9482 53.426 30.6331 51.3976 21.3237 47.5587Z" fill="url(#paint32_linear)"/>
<path d="M43.7791 2.78288C33.6145 3.80643 24.3514 6.33834 16.9894 10.1093C7.46611 14.9788 2.21875 21.3308 2.21875 27.9944C2.21875 34.658 7.46611 41.0148 16.9894 45.8843C17.4077 46.0997 17.8307 46.3082 18.2629 46.512C18.4326 46.5916 18.5999 46.6338 18.7672 46.6338C19.1227 46.6338 19.4201 46.4441 19.5503 46.1466C19.7966 45.6102 20.0476 45.0809 20.2986 44.5539L20.0151 44.4204C19.7664 44.9544 19.5178 45.4838 19.2691 46.0178C19.139 46.3035 18.7625 46.4042 18.3953 46.2285C17.963 46.0271 17.5425 45.821 17.1265 45.6032C7.71249 40.79 2.5325 34.5339 2.5325 27.9944C2.5325 21.455 7.71249 15.2012 17.1265 10.3879C24.4561 6.6357 33.6819 4.1132 43.8326 3.09668C44.0231 3.09668 44.1184 3.14826 44.1416 3.18574C44.1649 3.23727 44.137 3.33092 44.0673 3.44335C43.7397 3.94926 43.4026 4.45521 43.061 4.96112L43.4027 5.01731C43.7164 4.54887 44.0278 4.08511 44.3299 3.61432C44.5088 3.33794 44.4716 3.14815 44.4158 3.03806C44.3531 2.92095 44.1998 2.78288 43.8326 2.78288H43.7791Z" fill="url(#paint33_linear)"/>
<path d="M88.5199 9.87157C88.2039 10.5461 87.8926 11.2161 87.5788 11.8813L87.9088 11.9187C88.2039 11.284 88.506 10.6493 88.8035 10.0028C88.8871 9.81075 89.073 9.7006 89.303 9.7006C89.4262 9.7006 89.5494 9.72867 89.6749 9.78723C90.1072 9.99334 90.5255 10.2018 90.9461 10.415C100.355 15.2305 105.54 21.4844 105.54 28.0262C105.54 34.5656 100.355 40.8146 90.9461 45.6302C83.6421 49.3661 74.4629 51.8816 64.4005 52.9122C64.1518 52.9333 63.7846 52.9168 64.003 52.5748C64.4051 51.9471 64.828 51.3241 65.2509 50.7058H64.8745C64.4887 51.2679 64.1099 51.8324 63.7428 52.4016C63.5638 52.6803 63.5986 52.8676 63.6544 52.9777C63.8031 53.2681 64.2075 53.2424 64.4771 53.2143C74.5627 52.1814 83.7606 49.6588 91.0855 45.9136C100.606 41.0441 105.851 34.6921 105.851 28.0262C105.851 21.3579 100.607 15.008 91.0832 10.1339C90.6673 9.91842 90.2396 9.7076 89.8144 9.50617C89.647 9.42888 89.482 9.39381 89.3193 9.39381C88.9638 9.39381 88.6524 9.57177 88.5199 9.87157Z" fill="url(#paint34_linear)"/>
<defs>
<radialGradient id="paint0_radial" cx="0" cy="0" r="1" gradientUnits="userSpaceOnUse" gradientTransform="translate(57.0462 10.2513) scale(50.8947 51.2819)">
<stop stop-color="#A1A4A4"/>
<stop offset="1" stop-color="#868786"/>
</radialGradient>
<radialGradient id="paint1_radial" cx="0" cy="0" r="1" gradientUnits="userSpaceOnUse" gradientTransform="translate(54.1519 0.315218) scale(63.2117 63.7811)">
<stop stop-color="#ABAEAE"/>
<stop offset="0.040237" stop-color="#ABAEAE"/>
<stop offset="0.613495" stop-color="#8F9190"/>
<stop offset="1" stop-color="#5D5F5F"/>
</radialGradient>
<radialGradient id="paint2_radial" cx="0" cy="0" r="1" gradientUnits="userSpaceOnUse" gradientTransform="translate(33.8822 8.06942) scale(52.1884 52.5855)">
<stop stop-color="#ABAEAE"/>
<stop offset="0.0301782" stop-color="#ABAEAE"/>
<stop offset="0.460129" stop-color="#979A9A"/>
<stop offset="1" stop-color="#D4D8D9"/>
</radialGradient>
<radialGradient id="paint3_radial" cx="0" cy="0" r="1" gradientUnits="userSpaceOnUse" gradientTransform="translate(56.3975 33.1556) scale(29.0299 29.2508)">
<stop stop-color="#ABAEAE"/>
<stop offset="0.040237" stop-color="#ABAEAE"/>
<stop offset="0.613495" stop-color="#979A9A"/>
<stop offset="1" stop-color="#868786"/>
</radialGradient>
<radialGradient id="paint4_radial" cx="0" cy="0" r="1" gradientUnits="userSpaceOnUse" gradientTransform="translate(92.3332 20.0699) scale(41.7835 42.1015)">
<stop stop-color="#ABAEAE"/>
<stop offset="0.040237" stop-color="#ABAEAE"/>
<stop offset="0.613495" stop-color="#979A9A"/>
<stop offset="1" stop-color="#868786"/>
</radialGradient>
<linearGradient id="paint5_linear" x1="52.6838" y1="2.74151" x2="55.3713" y2="53.6209" gradientUnits="userSpaceOnUse">
<stop stop-color="white"/>
<stop offset="0.399994" stop-color="white"/>
<stop offset="0.570557" stop-color="#B9BABB"/>
<stop offset="0.63594" stop-color="#9DA0A0"/>
<stop offset="0.662582" stop-color="#9DA0A0"/>
<stop offset="0.75" stop-color="#ABAEAE"/>
<stop offset="0.809998" stop-color="white"/>
<stop offset="1" stop-color="white"/>
</linearGradient>
<linearGradient id="paint6_linear" x1="64.0909" y1="52.7581" x2="69.0628" y2="33.4742" gradientUnits="userSpaceOnUse">
<stop stop-color="white"/>
<stop offset="0.625763" stop-color="white"/>
<stop offset="0.957466" stop-color="#B6B9BB"/>
<stop offset="1" stop-color="#B6B9BB"/>
</linearGradient>
<linearGradient id="paint7_linear" x1="48.8721" y1="26.1589" x2="38.8977" y2="8.52357" gradientUnits="userSpaceOnUse">
<stop stop-color="#EEF3F5"/>
<stop offset="0.0613026" stop-color="#EEF3F5"/>
<stop offset="0.552155" stop-color="#CACDCF"/>
<stop offset="0.585294" stop-color="#CACDCF"/>
<stop offset="1" stop-color="#B6B9BB"/>
</linearGradient>
<linearGradient id="paint8_linear" x1="57.4701" y1="9.62405" x2="65.8808" y2="21.5902" gradientUnits="userSpaceOnUse">
<stop stop-color="#EEF3F5"/>
<stop offset="0.0613026" stop-color="#EEF3F5"/>
<stop offset="0.552155" stop-color="#CACDCF"/>
<stop offset="0.585294" stop-color="#CACDCF"/>
<stop offset="1" stop-color="#B6B9BB"/>
</linearGradient>
<linearGradient id="paint9_linear" x1="23.3283" y1="37.8021" x2="23.3283" y2="10.3824" gradientUnits="userSpaceOnUse">
<stop stop-color="white"/>
<stop offset="0.144658" stop-color="white"/>
<stop offset="0.527603" stop-color="#707373"/>
<stop offset="0.554849" stop-color="#707373"/>
<stop offset="0.77301" stop-color="#5D5F5F"/>
<stop offset="1" stop-color="#545554"/>
</linearGradient>
<linearGradient id="paint10_linear" x1="69.3655" y1="43.6315" x2="39.2663" y2="35.992" gradientUnits="userSpaceOnUse">
<stop stop-color="#A1A4A4"/>
<stop offset="0.175766" stop-color="#8F9190"/>
<stop offset="0.219514" stop-color="#8F9190"/>
<stop offset="0.569809" stop-color="#545554"/>
<stop offset="1" stop-color="#4A4A49"/>
</linearGradient>
<linearGradient id="paint11_linear" x1="20.5044" y1="50.0077" x2="62.056" y2="50.0077" gradientUnits="userSpaceOnUse">
<stop stop-color="white"/>
<stop offset="0.558163" stop-color="white"/>
<stop offset="1" stop-color="white"/>
</linearGradient>
<linearGradient id="paint12_linear" x1="89.8059" y1="14.5855" x2="68.0481" y2="47.9907" gradientUnits="userSpaceOnUse">
<stop stop-color="#C0C4C4"/>
<stop offset="0.380371" stop-color="#868786"/>
<stop offset="0.440556" stop-color="#545554"/>
<stop offset="0.472397" stop-color="#545554"/>
<stop offset="1" stop-color="#4A4A49"/>
</linearGradient>
<linearGradient id="paint13_linear" x1="82.5425" y1="7.92479" x2="50.0676" y2="3.58228" gradientUnits="userSpaceOnUse">
<stop stop-color="#5D5F5F"/>
<stop offset="0.456065" stop-color="#3F3E3D"/>
<stop offset="1" stop-color="#3F3E3D"/>
</linearGradient>
<linearGradient id="paint14_linear" x1="97.3547" y1="17.0303" x2="97.3547" y2="40.3753" gradientUnits="userSpaceOnUse">
<stop stop-color="#3F3E3D"/>
<stop offset="0.174524" stop-color="#545554"/>
<stop offset="0.19632" stop-color="#545554"/>
<stop offset="0.403561" stop-color="#A1A4A4"/>
<stop offset="0.429443" stop-color="#A1A4A4"/>
<stop offset="0.625792" stop-color="#B6B9BB"/>
<stop offset="0.650314" stop-color="#B6B9BB"/>
<stop offset="0.822083" stop-color="#DDE1E3"/>
<stop offset="1" stop-color="white"/>
</linearGradient>
<linearGradient id="paint15_linear" x1="84.7611" y1="17.0305" x2="84.7611" y2="40.3754" gradientUnits="userSpaceOnUse">
<stop stop-color="#3F3E3D"/>
<stop offset="0.174524" stop-color="#545554"/>
<stop offset="0.19632" stop-color="#545554"/>
<stop offset="0.403561" stop-color="#A1A4A4"/>
<stop offset="0.429443" stop-color="#A1A4A4"/>
<stop offset="0.625792" stop-color="#B6B9BB"/>
<stop offset="0.650314" stop-color="#B6B9BB"/>
<stop offset="0.822083" stop-color="#DDE1E3"/>
<stop offset="1" stop-color="white"/>
</linearGradient>
<linearGradient id="paint16_linear" x1="84.086" y1="8.71679" x2="84.2725" y2="10.3131" gradientUnits="userSpaceOnUse">
<stop stop-color="#5D5F5F"/>
<stop offset="0.210595" stop-color="#C0C4C4"/>
<stop offset="0.423309" stop-color="#C0C4C4"/>
<stop offset="0.551612" stop-color="#C0C4C4"/>
<stop offset="0.576691" stop-color="#C0C4C4"/>
<stop offset="0.696827" stop-color="#C0C4C4"/>
<stop offset="1" stop-color="#B6B9BB"/>
</linearGradient>
<linearGradient id="paint17_linear" x1="23.8601" y1="45.2779" x2="24.2079" y2="48.3665" gradientUnits="userSpaceOnUse">
<stop stop-color="#4A4A49"/>
<stop offset="0.0440395" stop-color="#868786"/>
<stop offset="0.0552216" stop-color="#868786"/>
<stop offset="0.329206" stop-color="#A1A4A4"/>
<stop offset="0.398773" stop-color="#A1A4A4"/>
<stop offset="0.413693" stop-color="#A1A4A4"/>
<stop offset="0.496933" stop-color="#B6B9BB"/>
<stop offset="0.54076" stop-color="#B6B9BB"/>
<stop offset="0.785278" stop-color="#C0C4C4"/>
<stop offset="0.809117" stop-color="#C0C4C4"/>
<stop offset="1" stop-color="white"/>
</linearGradient>
<linearGradient id="paint18_linear" x1="89.7181" y1="13.0126" x2="91.863" y2="11.6783" gradientUnits="userSpaceOnUse">
<stop stop-color="#C0C4C4"/>
<stop offset="0.353766" stop-color="#B6B9BB"/>
<stop offset="0.417175" stop-color="#B6B9BB"/>
<stop offset="0.510844" stop-color="#B6B9BB"/>
<stop offset="0.521469" stop-color="#B6B9BB"/>
<stop offset="0.720075" stop-color="#B6B9BB"/>
<stop offset="1" stop-color="#3F3E3D"/>
</linearGradient>
<linearGradient id="paint19_linear" x1="49.5272" y1="3.52201" x2="46.2306" y2="7.02332" gradientUnits="userSpaceOnUse">
<stop stop-color="#3F3E3D"/>
<stop offset="0.270347" stop-color="#A1A4A4"/>
<stop offset="0.402557" stop-color="#A1A4A4"/>
<stop offset="0.508714" stop-color="#A1A4A4"/>
<stop offset="1" stop-color="#B6B9BB"/>
</linearGradient>
<linearGradient id="paint20_linear" x1="61.0418" y1="44.2216" x2="54.2723" y2="53.4201" gradientUnits="userSpaceOnUse">
<stop stop-color="#979A9A"/>
<stop offset="0.514954" stop-color="#F9FCFE"/>
<stop offset="0.753696" stop-color="#F9FCFE"/>
<stop offset="1" stop-color="white"/>
</linearGradient>
<linearGradient id="paint21_linear" x1="21.9822" y1="42.805" x2="34.8988" y2="12.5501" gradientUnits="userSpaceOnUse">
<stop stop-color="#7A7D7D"/>
<stop offset="0.527603" stop-color="#979A9A"/>
<stop offset="1" stop-color="#C6CCCE"/>
</linearGradient>
<linearGradient id="paint22_linear" x1="18.6893" y1="41.9718" x2="14.9295" y2="44.7214" gradientUnits="userSpaceOnUse">
<stop stop-color="#7A7D7D"/>
<stop offset="0.323188" stop-color="white"/>
<stop offset="0.453995" stop-color="white"/>
<stop offset="0.556795" stop-color="white"/>
<stop offset="0.644165" stop-color="white"/>
<stop offset="0.836519" stop-color="white"/>
<stop offset="1" stop-color="white"/>
</linearGradient>
<linearGradient id="paint23_linear" x1="38.6163" y1="4.56485" x2="39.8479" y2="6.96551" gradientUnits="userSpaceOnUse">
<stop stop-color="#545554"/>
<stop offset="0.230577" stop-color="#545554"/>
<stop offset="0.472397" stop-color="#707373"/>
<stop offset="0.555232" stop-color="#979A9A"/>
<stop offset="0.570557" stop-color="#979A9A"/>
<stop offset="0.855297" stop-color="#C6CCCE"/>
<stop offset="0.907974" stop-color="#C6CCCE"/>
<stop offset="1" stop-color="#C6CCCE"/>
</linearGradient>
<linearGradient id="paint24_linear" x1="53.9999" y1="2.68263" x2="53.9999" y2="55.6739" gradientUnits="userSpaceOnUse">
<stop stop-color="white"/>
<stop offset="0.0886045" stop-color="white"/>
<stop offset="0.263809" stop-color="#E3E9ED"/>
<stop offset="0.439497" stop-color="#E3E9ED"/>
<stop offset="0.687119" stop-color="#525455"/>
<stop offset="0.708507" stop-color="#525455"/>
<stop offset="0.815948" stop-color="#313233"/>
<stop offset="1" stop-color="#313233"/>
</linearGradient>
<linearGradient id="paint25_linear" x1="40.373" y1="19.4073" x2="50.3274" y2="28.3002" gradientUnits="userSpaceOnUse">
<stop stop-color="#CACDCF"/>
<stop offset="0.0700073" stop-color="#CACDCF"/>
<stop offset="0.24847" stop-color="white"/>
<stop offset="0.5" stop-color="white"/>
<stop offset="0.75659" stop-color="white"/>
<stop offset="0.938644" stop-color="#C0C4C4"/>
<stop offset="0.945456" stop-color="#C0C4C4"/>
<stop offset="1" stop-color="#C0C4C4"/>
</linearGradient>
<linearGradient id="paint26_linear" x1="65.129" y1="38.5799" x2="55.9322" y2="26.8994" gradientUnits="userSpaceOnUse">
<stop stop-color="#979A9A"/>
<stop offset="0.122696" stop-color="#8F9190"/>
<stop offset="0.314231" stop-color="#545554"/>
<stop offset="0.441711" stop-color="#545554"/>
<stop offset="0.711655" stop-color="#545554"/>
<stop offset="1" stop-color="#4A4A49"/>
</linearGradient>
<linearGradient id="paint27_linear" x1="66.5236" y1="29.8841" x2="68.2005" y2="32.1718" gradientUnits="userSpaceOnUse">
<stop stop-color="#525455"/>
<stop offset="0.135551" stop-color="white"/>
<stop offset="0.515335" stop-color="white"/>
<stop offset="0.852768" stop-color="white"/>
<stop offset="1" stop-color="#7C7E7D"/>
</linearGradient>
<linearGradient id="paint28_linear" x1="68.5207" y1="49.5924" x2="69.524" y2="51.6306" gradientUnits="userSpaceOnUse">
<stop stop-color="#4A4A49"/>
<stop offset="0.252387" stop-color="#EEF3F5"/>
<stop offset="0.392853" stop-color="#EEF3F5"/>
<stop offset="0.577237" stop-color="#EEF3F5"/>
<stop offset="0.760742" stop-color="white"/>
<stop offset="0.787305" stop-color="white"/>
<stop offset="1" stop-color="white"/>
</linearGradient>
<linearGradient id="paint29_linear" x1="61.427" y1="21.7716" x2="64.1133" y2="1.29581" gradientUnits="userSpaceOnUse">
<stop stop-color="white"/>
<stop offset="0.394859" stop-color="#EEF3F5"/>
<stop offset="1" stop-color="#EEF3F5"/>
</linearGradient>
<linearGradient id="paint30_linear" x1="44.2061" y1="3.64437" x2="20.9287" y2="41.0689" gradientUnits="userSpaceOnUse">
<stop stop-color="white"/>
<stop offset="0.32343" stop-color="white"/>
<stop offset="0.521469" stop-color="#ABAEAE"/>
<stop offset="0.984131" stop-color="#A1A4A4"/>
<stop offset="1" stop-color="#A1A4A4"/>
</linearGradient>
<linearGradient id="paint31_linear" x1="88.2462" y1="12.1158" x2="65.2911" y2="50.741" gradientUnits="userSpaceOnUse">
<stop stop-color="#E6EAED"/>
<stop offset="0.110935" stop-color="#B6B9BB"/>
<stop offset="0.552155" stop-color="#B6B9BB"/>
<stop offset="0.910022" stop-color="#B6B9BB"/>
<stop offset="1" stop-color="#B6B9BB"/>
</linearGradient>
<linearGradient id="paint32_linear" x1="20.3053" y1="40.1662" x2="69.3289" y2="40.1662" gradientUnits="userSpaceOnUse">
<stop stop-color="#A1A4A4"/>
<stop offset="0.0803586" stop-color="#A1A4A4"/>
<stop offset="0.239258" stop-color="#A1A4A4"/>
<stop offset="0.358771" stop-color="#A1A4A4"/>
<stop offset="0.595093" stop-color="#7C7E7D"/>
<stop offset="0.986572" stop-color="#B6B9BB"/>
<stop offset="1" stop-color="#B6B9BB"/>
</linearGradient>
<linearGradient id="paint33_linear" x1="26.4835" y1="6.63435" x2="12.4329" y2="40.8119" gradientUnits="userSpaceOnUse">
<stop stop-color="white"/>
<stop offset="0.261688" stop-color="white"/>
<stop offset="0.779144" stop-color="#E6EAED"/>
<stop offset="0.992676" stop-color="#A1A4A4"/>
<stop offset="1" stop-color="#A1A4A4"/>
</linearGradient>
<linearGradient id="paint34_linear" x1="98.6746" y1="15.5241" x2="78.5194" y2="53.1523" gradientUnits="userSpaceOnUse">
<stop stop-color="#E6EAED"/>
<stop offset="0.0857039" stop-color="#E6EAED"/>
<stop offset="0.255173" stop-color="#DDE1E3"/>
<stop offset="0.9753" stop-color="#B6B9BB"/>
<stop offset="1" stop-color="#B6B9BB"/>
</linearGradient>
</defs>
</svg>
