<svg width="50" height="26" viewBox="0 0 50 26" fill="none" xmlns="http://www.w3.org/2000/svg">
<path d="M24.8193 2.05023C24.1727 2.07524 23.5605 2.21772 23.0936 2.45152C21.5562 3.22361 20.8203 5.01243 20.3792 6.0814C20.334 6.19232 20.292 6.29455 20.2533 6.38698C19.4367 8.29982 19.3119 9.71352 19.8832 10.5922C20.3222 11.2664 21.1377 11.6079 22.3082 11.6079C22.7978 11.6079 23.3519 11.5459 23.9156 11.4252C25.9565 10.9891 27.9393 10.2595 29.778 9.53738C34.7324 7.63216 37.1649 5.74542 37.7868 5.21583C37.9083 5.11904 37.9826 5.05161 38.0267 5.00377C38.1494 4.88306 38.2892 4.71451 38.2892 4.46548C38.2892 4.0044 37.7588 3.85864 37.4414 3.77055C37.4038 3.75968 37.3715 3.75206 37.3414 3.74228C33.678 2.63525 29.4381 2.05023 25.0786 2.05023H24.8193ZM20.1823 10.3954C19.682 9.6233 19.8144 8.3227 20.5804 6.52949C20.6223 6.43705 20.6632 6.33266 20.7095 6.22065C21.1312 5.19844 21.8338 3.48678 23.2518 2.77449C23.6735 2.5657 24.2341 2.43515 24.829 2.41123H25.0786C29.4026 2.41123 33.6081 2.99199 37.2392 4.08815C37.2715 4.09794 37.3081 4.1088 37.3479 4.11968C37.5663 4.17949 37.932 4.28061 37.932 4.46548C37.932 4.55574 37.8879 4.63514 37.7696 4.75367C37.733 4.79391 37.6706 4.84932 37.5619 4.93414C36.9476 5.45938 34.5538 7.31462 29.6478 9.20027C27.8253 9.91691 25.8586 10.6412 23.8424 11.0718C23.3034 11.1882 22.773 11.2458 22.3082 11.2458C21.2646 11.2458 20.5492 10.9609 20.1823 10.3954Z" fill="url(#paint0_radial)"/>
<path d="M0 12.9984C0 20.1669 11.2149 26 25 26C38.784 26 50 20.1669 50 12.9984C50 5.83095 38.784 1.90735e-06 25 1.90735e-06C11.2149 1.90735e-06 0 5.83095 0 12.9984ZM0.388414 12.9984C0.388414 6.04735 11.4279 0.392599 25 0.392599C38.5689 0.392599 49.6117 6.04735 49.6117 12.9984C49.6117 19.9516 38.5689 25.6074 25 25.6074C11.4279 25.6074 0.388414 19.9516 0.388414 12.9984Z" fill="url(#paint1_radial)"/>
<path d="M15.8949 2.96543C7.49876 4.68796 2.07422 8.62452 2.07422 12.9972C2.07422 15.4048 3.72891 17.7037 6.86507 19.6524C7.0867 19.7851 7.28464 19.8493 7.47938 19.8493H7.48043C7.77844 19.8275 7.93017 19.6459 8.04528 19.461C8.09047 19.3816 8.14748 19.2609 8.20558 19.1348L8.25397 19.0369C10.9781 12.6601 13.9669 7.45552 16.8965 3.98001C16.9997 3.84625 17.06 3.76031 17.1192 3.66135C17.2817 3.39927 17.2128 3.17313 17.1041 3.05895C17.0062 2.9415 16.8233 2.88605 16.5597 2.88605C16.3768 2.88605 16.1552 2.91214 15.8949 2.96543ZM7.05012 19.3436C4.02692 17.4666 2.43032 15.2721 2.43032 12.9972C2.43032 8.80395 7.74296 5.00544 15.9658 3.3188C16.2004 3.27095 16.407 3.24599 16.5651 3.24599C16.7792 3.24599 16.8308 3.29165 16.8383 3.30035C16.8717 3.33297 16.861 3.39605 16.8137 3.47544C16.762 3.55917 16.7093 3.63746 16.6211 3.75056C13.6721 7.2489 10.665 12.485 7.92801 18.8879L7.88499 18.9782C7.82797 19.0978 7.77525 19.212 7.73974 19.2773C7.64399 19.4273 7.57189 19.4817 7.46861 19.4893C7.35026 19.4893 7.21365 19.4414 7.05012 19.3436Z" fill="url(#paint2_radial)"/>
<path d="M26.1661 14.553C24.0273 15.0076 21.9907 15.7906 20.3543 16.418L20.3102 16.4343C15.3311 18.3504 12.9103 20.235 12.281 20.7711C12.2422 20.8059 12.2078 20.8363 12.1745 20.8646C12.126 20.9059 12.0863 20.9418 12.0529 20.9745C11.9432 21.0821 11.7969 21.2561 11.7969 21.5062C11.7969 21.9716 12.3842 22.1413 12.6984 22.2326L12.7576 22.2522C16.4134 23.3429 20.648 23.9214 25.0075 23.9214H25.0354C25.0623 23.9236 25.1 23.9258 25.1408 23.9258C25.1774 23.9258 25.2205 23.9236 25.2539 23.9214C25.8682 23.9084 26.5008 23.7648 26.9903 23.5267C28.5385 22.747 29.2733 20.944 29.7133 19.8674C29.7542 19.7663 29.7929 19.6749 29.8263 19.5923C30.645 17.6784 30.7698 16.2636 30.1986 15.3849C29.7618 14.7107 28.944 14.3703 27.7746 14.3703C27.2861 14.3703 26.7299 14.4334 26.1661 14.553ZM12.8609 21.9053L12.7974 21.8868C12.6048 21.8303 12.154 21.6986 12.154 21.5062C12.154 21.4159 12.196 21.3365 12.3047 21.2311C12.3337 21.2028 12.367 21.1735 12.4068 21.1387C12.4423 21.1093 12.479 21.0778 12.5166 21.043C13.131 20.521 15.5118 18.6658 20.4361 16.7725L20.4792 16.7562C22.1048 16.1309 24.1295 15.3545 26.2415 14.9054C26.7794 14.7901 27.3098 14.7303 27.7746 14.7303C28.8182 14.7303 29.5336 15.0174 29.9005 15.5828C30.4008 16.3538 30.2663 17.6545 29.4982 19.4477C29.4627 19.5347 29.425 19.6281 29.3841 19.7304C28.9634 20.7591 28.2576 22.4827 26.8332 23.2026C26.221 23.5006 25.6702 23.5604 25.0075 23.5604C20.6836 23.5604 16.4822 22.9873 12.8609 21.9053Z" fill="url(#paint3_radial)"/>
<path d="M42.6013 6.14755C42.3581 6.1606 42.1688 6.29326 42.0472 6.53032C41.9654 6.65756 41.8762 6.84461 41.8288 6.94901C40.3054 10.5507 37.1563 17.2951 33.1874 22.0114C33.0809 22.1386 33.0142 22.2256 32.9593 22.3322C32.8292 22.554 32.8377 22.7835 32.9798 22.9401C33.0766 23.0543 33.2412 23.1075 33.4833 23.1075C33.6522 23.1075 33.8599 23.0825 34.1245 23.0314C42.5174 21.3002 47.9419 17.3603 47.9419 12.9942C47.9419 10.5616 46.3077 8.26159 43.2167 6.34222C43.0026 6.20629 42.8272 6.1443 42.668 6.1443C42.64 6.1443 42.6131 6.14538 42.6013 6.14755ZM33.2445 22.7008C33.1993 22.6508 33.238 22.5638 33.2713 22.5094C33.3111 22.4311 33.3541 22.3692 33.4596 22.2452C37.4597 17.4941 40.6249 10.7105 42.1537 7.09689C42.2269 6.94356 42.2979 6.80657 42.3549 6.71305C42.4281 6.57386 42.5034 6.51402 42.6346 6.50749C42.6443 6.50532 42.6562 6.50537 42.668 6.50537C42.7562 6.50537 42.8746 6.55211 43.0284 6.64781C46.0086 8.49974 47.5837 10.6942 47.5837 12.9942C47.5837 17.182 42.2721 20.9826 34.0546 22.678C33.8179 22.7236 33.6264 22.7465 33.4833 22.7465C33.2875 22.7465 33.2466 22.7041 33.2445 22.7008Z" fill="url(#paint4_radial)"/>
<path d="M15.9434 3.1555C16.4642 3.04784 16.8612 3.04784 16.9763 3.18704C17.0548 3.26859 17.0839 3.40779 16.9763 3.57961C16.9236 3.66987 16.8676 3.75143 16.7686 3.87975C12.3866 9.07669 9.05679 16.7487 8.1111 18.9584C8.03687 19.115 7.96586 19.2694 7.91207 19.3662C7.81201 19.5217 7.7012 19.6457 7.4914 19.6598C7.38274 19.6598 7.22243 19.6337 6.97929 19.4902C4.07874 17.6861 2.27989 15.435 2.27989 12.9981C2.27989 8.59495 7.91099 4.80082 15.9434 3.1555ZM20.4201 6.46463C20.829 5.50984 21.539 3.44585 23.1733 2.62374C23.6693 2.37688 24.2814 2.26488 24.8237 2.24313H25.0787C29.6446 2.24313 33.89 2.88146 37.4533 3.98088C37.491 3.98088 37.5652 4.01459 37.59 4.02547C37.9224 4.13638 38.0849 4.28754 38.0924 4.47458C38.0924 4.64205 38.0042 4.76493 37.8837 4.88238C37.8363 4.93675 37.7632 5.00091 37.6588 5.0803C36.839 5.77844 34.3634 7.58144 29.706 9.3714C28.0685 10.0163 26.0136 10.7938 23.8791 11.2505C22.6138 11.518 17.9553 12.2314 20.4201 6.46463ZM42.1753 6.63753C42.2582 6.4755 42.3787 6.34718 42.5884 6.33631C42.7089 6.31999 42.8585 6.35262 43.0995 6.50269C46.0086 8.31004 47.7333 10.5513 47.7333 12.9937C47.7333 17.4033 42.1151 21.1833 34.0762 22.8417C33.5565 22.9428 33.2208 22.9428 33.1014 22.8091C33.024 22.7232 33.0014 22.584 33.1014 22.4111C33.152 22.3154 33.209 22.2414 33.3123 22.1175C37.6911 16.9151 41.0317 9.24851 41.9709 7.02684C42.0387 6.8833 42.1151 6.73432 42.1753 6.63753ZM29.6597 19.5097C29.2541 20.47 28.5408 22.5307 26.9109 23.3517C26.4192 23.592 25.8059 23.7171 25.2519 23.7269C25.1335 23.7367 25.0464 23.7269 25.0087 23.7269C20.4427 23.7269 16.1834 23.0929 12.6233 22.0044C12.5964 21.9935 12.52 21.9565 12.52 21.9565C12.1639 21.8434 11.995 21.6901 11.995 21.4954C11.995 21.3334 12.0768 21.2116 12.1962 21.0931C12.25 21.0387 12.3242 20.98 12.42 20.8941C13.2376 20.1959 15.7229 18.3886 20.3814 16.5986C22.0178 15.9712 24.063 15.1806 26.2062 14.7271C27.4692 14.4585 32.1288 13.7451 29.6597 19.5097ZM25.0023 25.7702C38.6787 25.7702 49.7623 20.0513 49.7623 12.9981C49.7623 5.94482 38.6787 0.225897 25.0023 0.225897C11.3344 0.225897 0.242188 5.94482 0.242188 12.9981C0.242188 20.0513 11.3344 25.7702 25.0023 25.7702Z" fill="white"/>
<path d="M0.492188 12.9978C0.492188 19.8998 11.4865 25.5154 24.9994 25.5154C38.5124 25.5154 49.5056 19.8998 49.5056 12.9978C49.5056 6.09785 38.5124 0.482264 24.9994 0.482264C11.4865 0.482264 0.492188 6.09785 0.492188 12.9978ZM21.0779 11.5253C20.5163 11.36 20.0934 11.061 19.8169 10.6358C19.2295 9.73104 19.3522 8.29128 20.1806 6.35561L20.3065 6.05215C20.7497 4.9734 21.4932 3.16718 23.0553 2.38312C23.5309 2.14606 24.1538 1.99925 24.8101 1.97532H24.8144H25.0737C29.4396 1.97532 33.6882 2.56145 37.3569 3.66956L37.4559 3.6989C37.7711 3.78481 38.3585 3.9458 38.3585 4.46451C38.3585 4.74181 38.2057 4.92451 38.0863 5.04196C38.0315 5.10394 37.954 5.17568 37.8357 5.26703C37.4613 5.58565 36.4478 6.38383 34.6435 7.37994C33.4127 8.06069 31.8119 8.8339 29.7957 9.61034C27.9559 10.3346 25.9709 11.0632 23.9289 11.4993C23.3609 11.62 22.8004 11.6852 22.3065 11.6852C21.8428 11.6852 21.4318 11.6308 21.0779 11.5253ZM6.82258 19.715C3.66275 17.7543 1.99627 15.4337 1.99627 12.9978C1.99627 8.58704 7.44554 4.61997 15.8793 2.892C16.1429 2.83763 16.3731 2.8105 16.5603 2.8105C16.8497 2.8105 17.0434 2.87574 17.1466 2.99754C17.1639 3.01493 17.179 3.03446 17.1951 3.05621C17.307 3.20519 17.3565 3.44446 17.1908 3.71197C17.1316 3.80876 17.0724 3.89796 16.9562 4.04477C14.0385 7.50614 11.0594 12.6976 8.33526 19.0701L8.29225 19.1593C8.22985 19.2876 8.17501 19.4083 8.12014 19.504C8.03299 19.6432 7.90601 19.8019 7.68976 19.877C7.62414 19.902 7.54989 19.9183 7.46597 19.9248C7.26909 19.9248 7.05927 19.8585 6.82258 19.715ZM32.9211 22.9937C32.9082 22.9795 32.8952 22.9632 32.8834 22.9469C32.7726 22.7979 32.7199 22.5565 32.8748 22.2933C32.9394 22.1726 33.0082 22.0802 33.1169 21.9519C37.0739 17.2497 40.2155 10.5216 41.7378 6.91998C41.7873 6.81993 41.8745 6.63074 41.9476 6.51982C42.0541 6.31211 42.1983 6.17721 42.3683 6.1174C42.4328 6.09347 42.5017 6.07825 42.5738 6.07499C42.6029 6.07063 42.6319 6.06961 42.6642 6.06961C42.8384 6.06961 43.0246 6.13479 43.2505 6.27616C46.3651 8.21183 48.0113 10.5336 48.0113 12.9945C48.0113 17.3998 42.5652 21.3668 34.1336 23.1056C33.8657 23.1567 33.6527 23.1829 33.4795 23.1829C33.2148 23.1829 33.0308 23.1209 32.9211 22.9937ZM25.007 23.9963C20.6411 23.9963 16.3968 23.4178 12.7356 22.3227L12.6775 22.3053C12.344 22.2074 11.7221 22.0269 11.7221 21.506C11.7221 21.2265 11.8814 21.0373 11.9986 20.9232C12.0331 20.8873 12.0761 20.8503 12.1256 20.8079L12.2375 20.7089C12.5355 20.4544 13.2456 19.8901 14.4473 19.1625C15.7631 18.3633 17.6728 17.365 20.2882 16.3601L20.3323 16.3428C21.9698 15.7142 24.0075 14.9334 26.1496 14.4756C26.7166 14.356 27.2771 14.294 27.7698 14.294C28.1916 14.294 28.5692 14.3375 28.9006 14.4256C28.9049 14.4267 28.9081 14.4267 28.9124 14.4278C28.9146 14.4278 28.9167 14.4289 28.9188 14.43C29.5202 14.592 29.97 14.8964 30.2605 15.3434C30.8457 16.246 30.7231 17.6847 29.8936 19.6193L29.7817 19.8944C29.3384 20.9829 28.595 22.8012 27.0199 23.595C26.5229 23.8386 25.8795 23.9832 25.2706 23.9952C25.2232 23.9995 25.1791 24.0006 25.1415 24.0006C25.0963 24.0006 25.0608 23.9985 25.007 23.9963Z" fill="url(#paint5_linear)"/>
<path d="M31.3847 15.4675C31.417 17.2465 31.0491 21.1777 27.5417 23.8952C27.5417 23.8952 26.2905 24.315 23.9817 24.3259L23.3867 25.272C24.9403 25.4014 29.3276 25.5677 35.6064 24.1812V24.1834L36.1691 22.8741C34.4348 23.5581 30.1765 24.7826 32.3035 22.1684C34.4714 19.5063 36.9513 14.8726 37.7711 13.298L31.3847 15.4675Z" fill="url(#paint6_linear)"/>
<path d="M21.0512 1.63691C20.3637 2.52863 19.7688 3.51061 19.2244 4.49693C18.7101 5.43323 18.2464 6.40215 17.8656 7.4026C17.5643 8.19318 17.1307 9.38069 17.0253 10.4975C16.9026 11.7611 17.1964 12.9345 18.5617 13.351C18.6542 13.3792 18.7596 13.4108 18.8823 13.4423C19.6795 13.6381 21.2008 13.7947 24.6263 12.8617L24.324 11.1489C24.1755 11.1848 24.0271 11.2174 23.8776 11.25C23.7097 11.2848 23.4838 11.3283 23.2213 11.3642C22.9459 11.4001 22.6328 11.4284 22.3079 11.4284C21.0674 11.4284 19.6741 11.0227 19.7064 9.17516V9.17191C19.7064 9.16647 19.7064 9.1621 19.7064 9.15883V9.15233C19.7064 9.14907 19.7064 9.14471 19.7064 9.14144V9.13275C19.7064 9.13275 19.7064 9.13275 19.7074 9.13275C19.7074 9.11753 19.7085 9.10228 19.7085 9.08815V9.08709C19.7354 8.41178 19.9474 7.55052 20.4143 6.45871C20.7414 5.69315 21.2632 4.21529 22.2971 3.23332C22.2982 3.23332 22.2982 3.23332 22.2982 3.23332C22.3035 3.22897 22.3068 3.22459 22.3121 3.22024C22.3132 3.22024 22.3132 3.21914 22.3143 3.21805C22.3186 3.2137 22.3229 3.21152 22.3261 3.20717C22.3272 3.20608 22.3294 3.20503 22.3305 3.20285C22.3337 3.20068 22.3369 3.19742 22.3401 3.19416C22.3423 3.19198 22.3444 3.19089 22.3465 3.18871C22.3487 3.18654 22.352 3.1833 22.3531 3.18221C22.3563 3.17895 22.3595 3.17678 22.3627 3.17352C22.3638 3.17243 22.3649 3.17128 22.367 3.1702C22.3713 3.16693 22.3735 3.16262 22.3778 3.16044C22.3789 3.16044 22.3789 3.15938 22.3789 3.15938C22.5349 3.0191 22.7006 2.89076 22.8792 2.77767L21.3073 1.43574C21.204 1.4912 21.1147 1.55753 21.0512 1.63691Z" fill="url(#paint7_linear)"/>
<path d="M38.1061 4.44467C38.1061 4.45228 38.1071 4.45772 38.1071 4.46425V4.46538C38.1071 4.53933 38.0899 4.60456 38.0598 4.66436C38.0232 4.74049 37.9662 4.80681 37.8995 4.87424C37.8876 4.88729 37.8726 4.90145 37.8586 4.91559C37.8489 4.92429 37.8392 4.93299 37.8295 4.94386C37.7865 4.98192 37.7359 5.02434 37.6735 5.0711C37.3841 5.31795 36.8871 5.7029 36.163 6.17595C34.8322 7.04265 32.7299 8.20951 29.711 9.36982C29.0881 9.61341 28.4049 9.87762 27.6809 10.1364C26.4963 10.5584 25.2021 10.9651 23.8766 11.25C23.5323 11.3229 22.9406 11.4284 22.3069 11.4284C21.77 11.4284 21.2052 11.3523 20.7393 11.1174L18.6016 13.364C18.6844 13.389 18.7759 13.4162 18.8813 13.4423C19.6785 13.6381 21.1998 13.7947 24.6254 12.8616C26.18 12.4375 28.1295 11.7872 30.5814 10.815C34.7741 9.16101 39.6854 6.3184 40.5364 4.3327C40.5601 4.27833 40.5644 4.23047 40.5558 4.18588L38.1061 4.44467Z" fill="url(#paint8_linear)"/>
<path d="M20.2729 1.36465C15.6058 1.83552 11.3216 2.99911 7.89605 4.75644C3.51295 7.00639 1.09766 9.93383 1.09766 12.9972C1.09766 16.0627 3.51295 18.9901 7.89605 21.239C8.08863 21.3358 8.28663 21.4348 8.48244 21.5294C8.60939 21.5881 8.72774 21.5892 8.82134 21.5512L7.6303 19.6285C7.60663 19.6394 7.58082 19.6481 7.55393 19.6546C7.52595 19.6622 7.49691 19.6666 7.46679 19.6687C7.3592 19.6687 7.19673 19.6415 6.95466 19.4969C4.04981 17.6928 2.2499 15.4385 2.2499 12.9972C2.2499 8.58864 7.88533 4.79232 15.9296 3.14265C16.1738 3.09263 16.3911 3.06652 16.5643 3.06652C16.7623 3.06652 16.9032 3.10132 16.9656 3.17418C16.9678 3.17744 16.971 3.18071 16.9742 3.18506C16.9871 3.20029 16.9968 3.21552 17.0065 3.23292L20.5021 1.45711C20.4795 1.3973 20.402 1.36359 20.2837 1.36359C20.2804 1.36359 20.2772 1.36465 20.2729 1.36465Z" fill="url(#paint9_linear)"/>
<path d="M19.4515 15.1807C15.2567 16.8347 10.3453 19.6752 9.49432 21.6609C9.46419 21.7337 9.46741 21.7979 9.49215 21.8588L11.9817 21.5695C11.9785 21.55 11.9752 21.5282 11.9752 21.5053V21.4978C11.9785 21.3412 12.0592 21.2183 12.1786 21.1019C12.2313 21.0497 12.3055 20.9899 12.4013 20.904C13.2189 20.2048 15.7075 18.3963 20.3735 16.6031C21.1331 16.3106 21.9819 15.9832 22.8878 15.6711C23.9336 15.3123 25.0546 14.973 26.2037 14.7294C26.5469 14.6555 27.1418 14.55 27.7744 14.55C29.4764 14.55 31.4646 15.3112 29.6626 19.5186C29.5152 19.8698 29.3248 20.369 29.0622 20.9018C28.6201 21.8033 27.9735 22.7984 26.9772 23.3301L28.7298 24.5578C28.832 24.5013 28.9159 24.4372 28.9815 24.3589C29.6701 23.4661 30.264 22.4852 30.8073 21.4978C31.3216 20.5615 31.7853 19.5936 32.1661 18.5942C32.4685 17.8015 32.9021 16.6151 33.0086 15.4982C33.1301 14.2346 32.8364 13.0591 31.4711 12.6437C31.1419 12.5436 30.647 12.4055 29.7896 12.4055C28.1435 12.4055 25.1612 12.9155 19.4515 15.1807Z" fill="url(#paint10_linear)"/>
<path d="M9.49219 21.8601C9.54168 21.9689 9.67512 22.0569 9.84081 22.132C14.1195 23.9023 19.4182 24.8647 25.0149 24.8647C25.9046 24.8647 26.7846 24.8408 27.6561 24.7908C28.1402 24.7636 28.4899 24.6897 28.7298 24.5592L26.9772 23.3315C26.9547 23.3423 26.932 23.3532 26.9105 23.3641C26.4167 23.6066 25.8035 23.7306 25.2494 23.7414C25.2462 23.7414 25.2451 23.7425 25.2419 23.7425C25.2053 23.7447 25.1719 23.7458 25.1418 23.7458C25.13 23.7458 25.1181 23.7447 25.1085 23.7447C25.0611 23.7447 25.0278 23.7414 25.0073 23.7414C24.9729 23.7414 24.9363 23.7414 24.9019 23.7414H24.8631H24.7954C24.7825 23.7414 24.7706 23.7414 24.7577 23.7414C24.7351 23.7414 24.7114 23.7403 24.6889 23.7403H24.6587C24.6329 23.7403 24.6071 23.7403 24.5813 23.7403H24.5641C24.534 23.7392 24.5038 23.7392 24.4737 23.7381H24.463C24.4318 23.7381 24.3984 23.7382 24.3661 23.7371H24.3639C20.1196 23.6827 16.1626 23.0813 12.8091 22.0787C12.566 22.0047 12.0474 21.8775 11.9818 21.5709L9.49219 21.8601Z" fill="url(#paint11_linear)"/>
<path d="M41.0503 4.59987C38.4262 10.2786 35.6161 15.4646 32.1442 20.6203C31.3018 21.8698 30.3906 23.0867 29.575 24.3568C29.5094 24.4547 29.5094 24.5286 29.5578 24.5754L33.0878 22.7919C33.0308 22.7038 33.0232 22.5766 33.1114 22.4233C33.1426 22.3646 33.1771 22.3135 33.2223 22.2548C33.2502 22.2178 33.2836 22.1775 33.3234 22.1286C37.6462 16.9915 40.9588 9.45539 41.9508 7.11627C41.9648 7.08364 41.9787 7.05105 41.9906 7.02169C42.0583 6.87706 42.1369 6.72476 42.195 6.63015C42.2617 6.50292 42.35 6.39637 42.4866 6.35178L41.2138 4.44329C41.1396 4.47265 41.0804 4.52483 41.0503 4.59987Z" fill="url(#paint12_linear)"/>
<path d="M22.3752 1.20539C21.8911 1.23257 21.5457 1.3054 21.3047 1.4359L22.8766 2.77782C22.9702 2.71801 23.067 2.66251 23.1682 2.61249C23.6631 2.36564 24.2773 2.25148 24.8196 2.23191H25.0746H25.1133H25.18H25.2467C25.2607 2.23191 25.2736 2.23191 25.2854 2.23191C25.3177 2.23191 25.35 2.23191 25.3812 2.23191H25.3898C25.4232 2.23191 25.4565 2.23191 25.4888 2.23191H25.4952C25.5275 2.23299 25.5609 2.23301 25.5931 2.2341H25.5996C25.634 2.2341 25.6685 2.23407 25.7018 2.23516H25.704C29.6298 2.28627 33.3006 2.80714 36.4874 3.6858C36.7574 3.75975 37.0232 3.837 37.2857 3.91638C37.5385 3.9925 38.084 4.09359 38.1045 4.44484L40.5542 4.18605C40.5262 4.0523 40.3777 3.95117 40.1884 3.86308C35.9107 2.09489 30.6132 1.13138 25.0144 1.13138C24.1257 1.13138 23.2456 1.15536 22.3752 1.20539Z" fill="url(#paint13_linear)"/>
<path d="M41.2109 4.44317L42.4837 6.35167C42.5214 6.33862 42.5623 6.33101 42.6075 6.32884C42.6257 6.32666 42.644 6.32559 42.6634 6.32559C42.7742 6.32559 42.9151 6.36687 43.1195 6.49411C46.0211 8.29929 47.7458 10.5319 47.7587 12.9667V12.995C47.7587 13.0809 47.7576 13.1668 47.7522 13.2527H48.9271C48.9292 13.1668 48.9325 13.0841 48.9325 12.9982C48.9325 9.93159 46.5193 7.00526 42.1341 4.75639C41.9436 4.65743 41.7456 4.56064 41.5477 4.46494C41.4777 4.43232 41.4089 4.41709 41.3465 4.41709C41.297 4.41709 41.2507 4.42577 41.2109 4.44317Z" fill="url(#paint14_linear)"/>
<path d="M47.753 13.2327C47.554 17.5444 41.9874 21.2255 34.0852 22.8534C33.8431 22.9012 33.6398 22.9273 33.4795 22.9273C33.2977 22.9273 33.1717 22.8936 33.1083 22.8229C33.104 22.8175 33.0986 22.812 33.0954 22.8055C33.0911 22.8012 33.0879 22.7957 33.0846 22.7914L29.5547 24.5748C29.5923 24.6129 29.6623 24.6314 29.7569 24.6292C34.4251 24.1583 38.7082 22.9937 42.1338 21.2375C46.3975 19.0495 48.7977 16.2047 48.9268 13.2327H47.753Z" fill="url(#paint15_linear)"/>
<path d="M37.3477 3.9364C37.3885 3.94728 37.4294 3.95813 37.4682 3.97118C37.5048 3.97118 37.5811 4.00381 37.6027 4.0136C37.9244 4.12234 38.0858 4.26697 38.1041 4.44422C38.1041 4.45183 38.1073 4.4584 38.1073 4.46493C38.1073 4.63131 38.0191 4.75525 37.8996 4.87378C37.8512 4.92598 37.777 4.99234 37.6737 5.07064C37.6102 5.12501 37.5349 5.18696 37.4531 5.2533L39.5502 5.63281C40.0204 5.17717 40.3637 4.73678 40.5369 4.33225C40.5606 4.27788 40.5649 4.23002 40.5563 4.18543C40.5283 4.05168 40.3798 3.94946 40.1904 3.86247C39.6137 3.62323 39.0154 3.40139 38.4043 3.19151L37.3477 3.9364Z" fill="url(#paint16_linear)"/>
<path d="M9.49392 21.6616C9.46379 21.7344 9.46808 21.7986 9.49176 21.8595C9.54125 21.9682 9.67471 22.0563 9.84041 22.1313C10.3773 22.3554 10.9293 22.5642 11.4964 22.7599L12.7886 22.0705C12.7273 22.0509 12.6659 22.0346 12.6057 22.0161C12.3915 21.9335 12.0386 21.8377 11.9827 21.5702C11.9784 21.5506 11.9751 21.5289 11.9751 21.506C11.9751 21.3462 12.058 21.2212 12.1785 21.1026C12.2312 21.0504 12.3054 20.9906 12.4012 20.9047C12.4744 20.8416 12.5626 20.7698 12.6638 20.6894L10.6409 20.2087C10.0878 20.7198 9.6876 21.2124 9.49392 21.6616Z" fill="url(#paint17_linear)"/>
<path d="M41.2118 4.44256C41.1375 4.47192 41.0784 4.5241 41.0482 4.59914C40.8352 5.05586 40.6243 5.50718 40.4102 5.95738V5.96063L41.9004 7.23405C41.9316 7.15902 41.9606 7.08944 41.9886 7.02093C42.0564 6.8763 42.135 6.7251 42.1931 6.6294C42.2598 6.50217 42.3491 6.39562 42.4858 6.35104C42.5234 6.33907 42.5643 6.33038 42.6085 6.3282C42.729 6.31298 42.8796 6.34449 43.1206 6.49347C43.212 6.55328 43.3057 6.61309 43.3971 6.67181L43.5176 5.52782C43.0819 5.26248 42.6214 5.00371 42.135 4.75577C41.9446 4.65682 41.7465 4.56003 41.5485 4.46433C41.4775 4.4328 41.4087 4.41648 41.3463 4.41648C41.2978 4.41648 41.2516 4.42516 41.2118 4.44256Z" fill="url(#paint18_linear)"/>
<path d="M22.3769 1.20555C21.8927 1.23274 21.5473 1.30555 21.3062 1.43713C21.2019 1.4915 21.1137 1.55786 21.0502 1.63725C20.7532 2.02003 20.4767 2.4224 20.2109 2.83237L21.7162 3.90132C22.0326 3.47068 22.4135 3.07272 22.8783 2.77801C22.9719 2.71929 23.0699 2.6627 23.1699 2.61268C23.482 2.45717 23.8392 2.35498 24.1986 2.29408V1.13812C23.5874 1.15008 22.9795 1.17184 22.3769 1.20555Z" fill="url(#paint19_linear)"/>
<path d="M26.9734 23.3292C26.9519 23.3412 26.9325 23.3531 26.9099 23.364C26.4161 23.6065 25.8039 23.7305 25.2488 23.7414C25.1293 23.7512 25.0444 23.7414 25.0067 23.7414C24.1568 23.7414 23.3208 23.712 22.4945 23.6685L22.2891 24.7799V24.7843C23.1874 24.8365 24.0955 24.8647 25.0143 24.8647C25.904 24.8647 26.784 24.8408 27.6555 24.7908C28.1396 24.7636 28.4893 24.6896 28.7292 24.5591C28.8314 24.5026 28.9164 24.4384 28.9809 24.3601C29.6695 23.4673 30.2634 22.4865 30.8067 21.4991C30.8551 21.4099 30.9003 21.3196 30.9498 21.2293L29.3468 20.2789C28.9089 21.3011 28.2096 22.6713 26.9734 23.3292Z" fill="url(#paint20_linear)"/>
<path d="M17.009 3.23424C17.0489 3.31471 17.051 3.42565 16.9746 3.55615C16.9746 3.55615 16.9746 3.55612 16.9746 3.55721C16.9736 3.55939 16.9725 3.56048 16.9703 3.56265C16.9703 3.56483 16.9692 3.56698 16.9681 3.56916C16.9133 3.65942 16.8584 3.73991 16.7573 3.86823C12.3699 9.07388 9.03793 16.7546 8.09116 18.9676C8.01477 19.1231 7.94272 19.2785 7.89108 19.3742C7.86418 19.4188 7.83621 19.4591 7.80394 19.496C7.80286 19.4971 7.80173 19.4971 7.80065 19.4982L7.7996 19.4994C7.75227 19.5548 7.69952 19.5994 7.63281 19.6298L8.82386 21.5525C8.8981 21.5231 8.95722 21.4698 8.98842 21.3958C11.6125 15.7182 14.4227 10.5322 17.8913 5.37762C18.7326 4.12487 19.646 2.9102 20.4637 1.63896C20.5132 1.5661 20.5229 1.50628 20.5046 1.45843L17.009 3.23424Z" fill="url(#paint21_linear)"/>
<path d="M8.08754 18.9661C8.01114 19.1216 7.93908 19.2782 7.88743 19.3739C7.81749 19.4848 7.73996 19.5772 7.62914 19.6284C7.58072 19.6501 7.52694 19.6642 7.46561 19.6686C7.35801 19.6686 7.1966 19.6414 6.95342 19.4967C6.71778 19.351 6.49402 19.2021 6.27344 19.0509L6.37241 20.3808C6.84907 20.6766 7.358 20.9637 7.89492 21.2388C8.08752 21.3356 8.28555 21.4346 8.48138 21.5292C8.54809 21.5608 8.61266 21.5749 8.67183 21.5771H8.69443C8.73962 21.576 8.78266 21.5673 8.82032 21.551C8.89457 21.5216 8.9537 21.4683 8.9849 21.3943C9.29909 20.7158 9.61438 20.0448 9.93395 19.3814L8.35759 18.3397C8.25106 18.58 8.16286 18.7899 8.08754 18.9661Z" fill="url(#paint22_linear)"/>
<path d="M20.2735 1.36486C18.9308 1.49971 17.6204 1.69549 16.3519 1.94343L15.4805 3.23855C15.6311 3.20593 15.7796 3.17329 15.9302 3.14284C16.4531 3.03627 16.85 3.03626 16.9662 3.17437C16.9824 3.19177 16.9964 3.21351 17.0071 3.23417C17.048 3.31573 17.0491 3.43209 16.9662 3.56802C16.9114 3.65937 16.8565 3.73878 16.7554 3.8671C16.7285 3.89863 16.7048 3.92905 16.6768 3.96168H18.8705C19.4117 3.19286 19.955 2.42625 20.4617 1.63785C20.5102 1.56391 20.5209 1.50517 20.5027 1.45732C20.4811 1.39968 20.4101 1.36812 20.3015 1.36486H20.2735Z" fill="url(#paint23_linear)"/>
<path d="M0.210938 12.9962C0.210938 13.4932 0.266884 13.9836 0.373395 14.4643C0.373395 14.4708 0.375537 14.4741 0.376613 14.4795C1.80107 20.8444 12.2887 25.7847 25.0033 25.7847C38.6938 25.7847 49.7946 20.0614 49.7946 12.9962C49.7946 10.7517 48.6725 8.64099 46.7015 6.80754C46.6983 6.80536 46.6972 6.80208 46.6939 6.79991C46.6896 6.79664 46.6864 6.79341 46.6821 6.79015C42.4486 2.86552 34.3268 0.208864 25.0033 0.208864C11.3172 0.208864 0.210938 5.93538 0.210938 12.9962ZM7.87973 21.2957C3.49126 19.0327 1.07379 16.0868 1.07379 12.9995C1.07379 9.91654 3.49126 6.96956 7.87973 4.70657C12.4468 2.35222 18.5341 1.05598 25.0227 1.05598C31.5113 1.05598 37.5996 2.35222 42.1645 4.70657C46.553 6.96956 48.9705 9.91654 48.9705 12.9995C48.9705 16.0868 46.553 19.0327 42.1645 21.2957C37.5996 23.6501 31.5123 24.9463 25.0227 24.9463C18.5341 24.9463 12.4468 23.6501 7.87973 21.2957Z" fill="url(#paint24_linear)"/>
<path d="M17.1867 9.5402C17.1135 9.85774 17.0554 10.1796 17.0253 10.4972C16.9026 11.7608 17.1964 12.9342 18.5627 13.3517C18.6553 13.38 18.7596 13.4116 18.8823 13.442C19.191 13.5181 19.6107 13.5877 20.2067 13.591H20.2787C21.2169 13.5866 22.5833 13.4181 24.6263 12.8613C24.9781 12.7634 25.359 12.6547 25.7571 12.5329L25.8378 10.7418C25.3429 10.8908 24.8351 11.03 24.323 11.1486C24.1756 11.1834 24.0271 11.2171 23.8775 11.2497C23.1987 11.3933 21.5461 11.6651 20.5348 10.9974C19.9366 10.6015 19.5654 9.87623 19.7569 8.60282L17.1867 9.5402Z" fill="url(#paint25_linear)"/>
<path d="M22.3945 14.0847L22.5839 15.7844C23.7168 15.3853 24.9432 14.9982 26.2085 14.7318C27.3995 14.4774 31.6104 13.8314 30.0224 18.5901L32.3496 18.1127C32.6228 17.3624 32.9252 16.4097 33.0123 15.5006C33.135 14.237 32.8402 13.0614 31.4749 12.646C31.1457 12.5449 30.6507 12.4068 29.7954 12.4068C28.4581 12.4068 26.2397 12.7439 22.3945 14.0847Z" fill="url(#paint26_linear)"/>
<path d="M29.3984 14.8965V14.8975C29.7879 15.1107 30.1 15.4391 30.2582 15.9393L32.8804 13.9678V13.9635C32.7362 13.5372 32.4758 13.1739 32.0637 12.9118L29.3984 14.8965Z" fill="url(#paint27_linear)"/>
<path d="M29.574 24.3568C29.5428 24.4024 29.5267 24.4438 29.5234 24.4786V24.5068C29.5267 24.534 29.5374 24.5568 29.5568 24.5753C29.5901 24.608 29.6472 24.6264 29.7236 24.6297H29.759C31.403 24.4633 32.9931 24.2067 34.5187 23.8739V22.7615C34.3735 22.793 34.2325 22.8246 34.0873 22.855C33.5666 22.9561 33.2287 22.9561 33.1104 22.8234C33.1007 22.8136 33.0942 22.8028 33.0878 22.7908C33.0318 22.7038 33.0222 22.5788 33.1104 22.4233C33.1609 22.3276 33.218 22.2536 33.3223 22.1296C33.488 21.9328 33.6505 21.7327 33.8119 21.5305L31.7064 21.2542C30.992 22.2851 30.2507 23.303 29.574 24.3568Z" fill="url(#paint28_linear)"/>
<path d="M22.3719 1.12982C21.6479 1.17332 21.2218 1.31364 20.9937 1.58985C20.3913 2.36847 19.8103 3.28082 19.1605 4.45962C18.6086 5.4666 18.161 6.42138 17.7984 7.37399C17.4359 8.32442 17.0528 9.43582 16.9506 10.4885C16.8 12.0664 17.3347 13.0527 18.5397 13.4192C18.8162 13.5062 19.3304 13.6628 20.2406 13.6628C22.4677 13.6628 25.9567 12.7265 30.6066 10.8811C34.8079 9.22161 39.7397 6.37462 40.6026 4.36066C40.7414 4.0366 40.3487 3.85608 40.2163 3.7941C35.8881 2.00415 30.6304 1.05701 25.0154 1.05701C24.1504 1.05701 23.2595 1.0798 22.3719 1.12982ZM18.5806 13.28C17.452 12.9363 16.9517 12.0011 17.0948 10.5026C17.2067 9.32816 17.6962 8.04391 17.9329 7.42841C18.2933 6.47798 18.7355 5.53081 19.2852 4.53144C19.9329 3.35916 20.5118 2.45325 21.1046 1.68225C21.3058 1.44083 21.6985 1.31473 22.3795 1.27558C23.2639 1.22664 24.1515 1.20383 25.0154 1.20383C30.6131 1.20383 35.8494 2.14554 40.1593 3.92897C40.5058 4.08774 40.5132 4.20738 40.4691 4.30198C39.6235 6.28006 34.7283 9.09764 30.5529 10.7451C25.9202 12.584 22.4515 13.5159 20.2406 13.5159C19.353 13.5159 18.8517 13.3637 18.5806 13.28Z" fill="url(#paint29_linear)"/>
<path d="M18.9108 3.7773C18.5515 4.28514 18.1824 4.81148 17.8285 5.33454C14.6923 9.99538 11.9596 14.8759 9.26562 20.6242L9.39689 20.6862C12.0866 14.9433 14.8149 10.0715 17.949 5.41612C18.3018 4.89414 18.6709 4.36997 19.0281 3.86212C19.381 3.36081 19.7425 2.84862 20.0932 2.3299L19.935 2.30382C19.5972 2.80187 19.2508 3.29773 18.9108 3.7773Z" fill="url(#paint30_linear)"/>
<path d="M32.0836 20.59C31.7318 21.1131 31.3617 21.6383 31.0034 22.1462C30.6828 22.6018 30.3547 23.0672 30.0352 23.5403H30.2094C30.5107 23.0977 30.8195 22.6595 31.1218 22.231C31.4811 21.7221 31.8512 21.1968 32.2031 20.6716C35.3134 16.0521 38.0246 11.2194 40.6992 5.53201L40.5465 5.51463C37.8847 11.1748 35.1821 15.989 32.0836 20.59Z" fill="url(#paint31_linear)"/>
<path d="M19.425 15.1255C15.2238 16.7839 10.292 19.6309 9.42806 21.6459C9.28819 21.97 9.68196 22.1527 9.81214 22.2125C14.1457 24.0036 19.3992 24.9497 25.0142 24.9497C25.8932 24.9497 26.7829 24.9257 27.6597 24.8757C28.3827 24.8343 28.8077 24.693 29.039 24.4168C29.6382 23.6403 30.2192 22.728 30.8712 21.547C31.4145 20.5552 31.8739 19.5744 32.2344 18.6315C32.5948 17.6844 32.9777 16.5729 33.0799 15.5192C33.2306 13.9423 32.6969 12.9539 31.4909 12.5863C31.2144 12.5026 30.6991 12.3438 29.7889 12.3438C27.5629 12.3438 24.0749 13.2801 19.425 15.1255ZM9.87018 22.0788C9.52483 21.9178 9.51949 21.7982 9.56037 21.7047C10.4092 19.7266 15.3022 16.909 19.4777 15.2626C24.1115 13.4226 27.5801 12.4906 29.7889 12.4906C30.6776 12.4906 31.18 12.645 31.4489 12.7266C32.5786 13.0724 33.08 14.0055 32.9358 15.5029C32.8357 16.5403 32.457 17.6408 32.0988 18.5804C31.7416 19.5156 31.2854 20.4921 30.7431 21.4741C30.0976 22.6496 29.5177 23.5566 28.9249 24.3254C28.7259 24.5669 28.3322 24.6919 27.6511 24.7322C26.7765 24.7789 25.8899 24.8029 25.0142 24.8029C19.4186 24.8029 14.1801 23.8611 9.87018 22.0788Z" fill="url(#paint32_linear)"/>
<path d="M20.2683 1.29189C15.5624 1.76711 11.274 2.94264 7.8656 4.69344C3.45668 6.95426 1.02734 9.90343 1.02734 12.9972C1.02734 16.0911 3.45668 19.0424 7.8656 21.3032C8.05926 21.4033 8.2551 21.5001 8.45521 21.5947C8.53375 21.6316 8.61119 21.6512 8.68866 21.6512C8.85326 21.6512 8.99095 21.5631 9.0512 21.425C9.16524 21.176 9.28146 20.9302 9.39765 20.6856L9.26639 20.6236C9.15127 20.8715 9.03617 21.1173 8.92105 21.3652C8.8608 21.4979 8.68647 21.5446 8.51648 21.4631C8.31637 21.3695 8.12168 21.2739 7.9291 21.1727C3.57074 18.938 1.1726 16.0334 1.1726 12.9972C1.1726 9.96106 3.57074 7.05752 7.9291 4.8228C11.3224 3.0807 15.5936 1.90953 20.293 1.43758C20.3812 1.43758 20.4253 1.46153 20.4361 1.47893C20.4469 1.50285 20.434 1.54633 20.4017 1.59853C20.25 1.83342 20.0939 2.06832 19.9358 2.30321L20.094 2.3293C20.2392 2.11181 20.3834 1.89649 20.5232 1.67791C20.6061 1.54959 20.5889 1.46147 20.563 1.41036C20.534 1.35599 20.463 1.29189 20.293 1.29189H20.2683Z" fill="url(#paint33_linear)"/>
<path d="M40.9819 4.58187C40.8356 4.89506 40.6914 5.20611 40.5462 5.51495L40.6989 5.53234C40.8356 5.23763 40.9755 4.94294 41.1132 4.6428C41.1519 4.55363 41.2379 4.50249 41.3444 4.50249C41.4015 4.50249 41.4585 4.51553 41.5166 4.54271C41.7167 4.63841 41.9104 4.7352 42.1051 4.83416C46.4613 7.06997 48.8616 9.97353 48.8616 13.0108C48.8616 16.047 46.4613 18.9483 42.1051 21.1841C38.7237 22.9186 34.474 24.0865 29.8155 24.565C29.7003 24.5748 29.5303 24.5671 29.6315 24.4084C29.8176 24.1169 30.0134 23.8277 30.2092 23.5406H30.0349C29.8563 23.8016 29.681 24.0637 29.511 24.3279C29.4281 24.4573 29.4442 24.5443 29.4701 24.5954C29.5389 24.7303 29.7261 24.7183 29.8509 24.7053C34.5202 24.2257 38.7785 23.0545 42.1697 21.3157C46.5775 19.0548 49.0058 16.1057 49.0058 13.0108C49.0058 9.9148 46.5775 6.96667 42.1686 4.70367C41.976 4.60362 41.7781 4.50574 41.5812 4.41222C41.5037 4.37634 41.4273 4.36005 41.352 4.36005C41.1874 4.36005 41.0432 4.44268 40.9819 4.58187Z" fill="url(#paint34_linear)"/>
<defs>
<radialGradient id="paint0_radial" cx="0" cy="0" r="1" gradientUnits="userSpaceOnUse" gradientTransform="translate(26.4139 4.76028) scale(23.5624 23.8095)">
<stop stop-color="#A1A4A4"/>
<stop offset="1" stop-color="#868786"/>
</radialGradient>
<radialGradient id="paint1_radial" cx="0" cy="0" r="1" gradientUnits="userSpaceOnUse" gradientTransform="translate(25.0703 0.146351) scale(29.2647 29.6127)">
<stop stop-color="#ABAEAE"/>
<stop offset="0.040237" stop-color="#ABAEAE"/>
<stop offset="0.613495" stop-color="#8F9190"/>
<stop offset="1" stop-color="#5D5F5F"/>
</radialGradient>
<radialGradient id="paint2_radial" cx="0" cy="0" r="1" gradientUnits="userSpaceOnUse" gradientTransform="translate(15.6879 3.74622) scale(24.1613 24.4147)">
<stop stop-color="#ABAEAE"/>
<stop offset="0.0301782" stop-color="#ABAEAE"/>
<stop offset="0.460129" stop-color="#979A9A"/>
<stop offset="1" stop-color="#D4D8D9"/>
</radialGradient>
<radialGradient id="paint3_radial" cx="0" cy="0" r="1" gradientUnits="userSpaceOnUse" gradientTransform="translate(26.1085 15.3943) scale(13.4398 13.5807)">
<stop stop-color="#ABAEAE"/>
<stop offset="0.040237" stop-color="#ABAEAE"/>
<stop offset="0.613495" stop-color="#979A9A"/>
<stop offset="1" stop-color="#868786"/>
</radialGradient>
<radialGradient id="paint4_radial" cx="0" cy="0" r="1" gradientUnits="userSpaceOnUse" gradientTransform="translate(42.7491 9.31706) scale(19.3442 19.5471)">
<stop stop-color="#ABAEAE"/>
<stop offset="0.040237" stop-color="#ABAEAE"/>
<stop offset="0.613495" stop-color="#979A9A"/>
<stop offset="1" stop-color="#868786"/>
</radialGradient>
<linearGradient id="paint5_linear" x1="24.391" y1="1.27301" x2="25.6423" y2="24.8952" gradientUnits="userSpaceOnUse">
<stop stop-color="white"/>
<stop offset="0.399994" stop-color="white"/>
<stop offset="0.570557" stop-color="#B9BABB"/>
<stop offset="0.63594" stop-color="#9DA0A0"/>
<stop offset="0.662582" stop-color="#9DA0A0"/>
<stop offset="0.75" stop-color="#ABAEAE"/>
<stop offset="0.809998" stop-color="white"/>
<stop offset="1" stop-color="white"/>
</linearGradient>
<linearGradient id="paint6_linear" x1="29.6716" y1="24.4925" x2="31.9857" y2="15.5425" gradientUnits="userSpaceOnUse">
<stop stop-color="white"/>
<stop offset="0.625763" stop-color="white"/>
<stop offset="0.957466" stop-color="#B6B9BB"/>
<stop offset="1" stop-color="#B6B9BB"/>
</linearGradient>
<linearGradient id="paint7_linear" x1="22.6266" y1="12.1447" x2="17.9888" y2="3.96826" gradientUnits="userSpaceOnUse">
<stop stop-color="#EEF3F5"/>
<stop offset="0.0613026" stop-color="#EEF3F5"/>
<stop offset="0.552155" stop-color="#CACDCF"/>
<stop offset="0.585294" stop-color="#CACDCF"/>
<stop offset="1" stop-color="#B6B9BB"/>
</linearGradient>
<linearGradient id="paint8_linear" x1="26.6064" y1="4.46785" x2="30.5151" y2="10.0131" gradientUnits="userSpaceOnUse">
<stop stop-color="#EEF3F5"/>
<stop offset="0.0613026" stop-color="#EEF3F5"/>
<stop offset="0.552155" stop-color="#CACDCF"/>
<stop offset="0.585294" stop-color="#CACDCF"/>
<stop offset="1" stop-color="#B6B9BB"/>
</linearGradient>
<linearGradient id="paint9_linear" x1="10.8001" y1="17.5497" x2="10.8001" y2="4.81908" gradientUnits="userSpaceOnUse">
<stop stop-color="white"/>
<stop offset="0.144658" stop-color="white"/>
<stop offset="0.527603" stop-color="#707373"/>
<stop offset="0.554849" stop-color="#707373"/>
<stop offset="0.77301" stop-color="#5D5F5F"/>
<stop offset="1" stop-color="#545554"/>
</linearGradient>
<linearGradient id="paint10_linear" x1="32.1136" y1="20.2553" x2="18.1741" y2="16.7274" gradientUnits="userSpaceOnUse">
<stop stop-color="#A1A4A4"/>
<stop offset="0.175766" stop-color="#8F9190"/>
<stop offset="0.219514" stop-color="#8F9190"/>
<stop offset="0.569809" stop-color="#545554"/>
<stop offset="1" stop-color="#4A4A49"/>
</linearGradient>
<linearGradient id="paint11_linear" x1="9.4924" y1="23.2179" x2="28.7293" y2="23.2179" gradientUnits="userSpaceOnUse">
<stop stop-color="white"/>
<stop offset="0.558163" stop-color="white"/>
<stop offset="1" stop-color="white"/>
</linearGradient>
<linearGradient id="paint12_linear" x1="41.5791" y1="6.77115" x2="31.4657" y2="22.2543" gradientUnits="userSpaceOnUse">
<stop stop-color="#C0C4C4"/>
<stop offset="0.380371" stop-color="#868786"/>
<stop offset="0.440556" stop-color="#545554"/>
<stop offset="0.472397" stop-color="#545554"/>
<stop offset="1" stop-color="#4A4A49"/>
</linearGradient>
<linearGradient id="paint13_linear" x1="38.2135" y1="3.67926" x2="23.1773" y2="1.67436" gradientUnits="userSpaceOnUse">
<stop stop-color="#5D5F5F"/>
<stop offset="0.456065" stop-color="#3F3E3D"/>
<stop offset="1" stop-color="#3F3E3D"/>
</linearGradient>
<linearGradient id="paint14_linear" x1="45.0716" y1="7.90572" x2="45.0716" y2="18.7445" gradientUnits="userSpaceOnUse">
<stop stop-color="#3F3E3D"/>
<stop offset="0.174524" stop-color="#545554"/>
<stop offset="0.19632" stop-color="#545554"/>
<stop offset="0.403561" stop-color="#A1A4A4"/>
<stop offset="0.429443" stop-color="#A1A4A4"/>
<stop offset="0.625792" stop-color="#B6B9BB"/>
<stop offset="0.650314" stop-color="#B6B9BB"/>
<stop offset="0.822083" stop-color="#DDE1E3"/>
<stop offset="1" stop-color="white"/>
</linearGradient>
<linearGradient id="paint15_linear" x1="39.2405" y1="7.90564" x2="39.2405" y2="18.7444" gradientUnits="userSpaceOnUse">
<stop stop-color="#3F3E3D"/>
<stop offset="0.174524" stop-color="#545554"/>
<stop offset="0.19632" stop-color="#545554"/>
<stop offset="0.403561" stop-color="#A1A4A4"/>
<stop offset="0.429443" stop-color="#A1A4A4"/>
<stop offset="0.625792" stop-color="#B6B9BB"/>
<stop offset="0.650314" stop-color="#B6B9BB"/>
<stop offset="0.822083" stop-color="#DDE1E3"/>
<stop offset="1" stop-color="white"/>
</linearGradient>
<linearGradient id="paint16_linear" x1="38.9283" y1="4.0466" x2="39.0151" y2="4.78768" gradientUnits="userSpaceOnUse">
<stop stop-color="#5D5F5F"/>
<stop offset="0.210595" stop-color="#C0C4C4"/>
<stop offset="0.423309" stop-color="#C0C4C4"/>
<stop offset="0.551612" stop-color="#C0C4C4"/>
<stop offset="0.576691" stop-color="#C0C4C4"/>
<stop offset="0.696827" stop-color="#C0C4C4"/>
<stop offset="1" stop-color="#B6B9BB"/>
</linearGradient>
<linearGradient id="paint17_linear" x1="11.0445" y1="21.0213" x2="11.2064" y2="22.4552" gradientUnits="userSpaceOnUse">
<stop stop-color="#4A4A49"/>
<stop offset="0.0440395" stop-color="#868786"/>
<stop offset="0.0552216" stop-color="#868786"/>
<stop offset="0.329206" stop-color="#A1A4A4"/>
<stop offset="0.398773" stop-color="#A1A4A4"/>
<stop offset="0.413693" stop-color="#A1A4A4"/>
<stop offset="0.496933" stop-color="#B6B9BB"/>
<stop offset="0.54076" stop-color="#B6B9BB"/>
<stop offset="0.785278" stop-color="#C0C4C4"/>
<stop offset="0.809117" stop-color="#C0C4C4"/>
<stop offset="1" stop-color="white"/>
</linearGradient>
<linearGradient id="paint18_linear" x1="41.5347" y1="6.04089" x2="42.5293" y2="5.42394" gradientUnits="userSpaceOnUse">
<stop stop-color="#C0C4C4"/>
<stop offset="0.353766" stop-color="#B6B9BB"/>
<stop offset="0.417175" stop-color="#B6B9BB"/>
<stop offset="0.510844" stop-color="#B6B9BB"/>
<stop offset="0.521469" stop-color="#B6B9BB"/>
<stop offset="0.720075" stop-color="#B6B9BB"/>
<stop offset="1" stop-color="#3F3E3D"/>
</linearGradient>
<linearGradient id="paint19_linear" x1="22.929" y1="1.63543" x2="21.3981" y2="3.25668" gradientUnits="userSpaceOnUse">
<stop stop-color="#3F3E3D"/>
<stop offset="0.270347" stop-color="#A1A4A4"/>
<stop offset="0.402557" stop-color="#A1A4A4"/>
<stop offset="0.508714" stop-color="#A1A4A4"/>
<stop offset="1" stop-color="#B6B9BB"/>
</linearGradient>
<linearGradient id="paint20_linear" x1="28.2582" y1="20.5315" x2="25.1126" y2="24.7937" gradientUnits="userSpaceOnUse">
<stop stop-color="#979A9A"/>
<stop offset="0.514954" stop-color="#F9FCFE"/>
<stop offset="0.753696" stop-color="#F9FCFE"/>
<stop offset="1" stop-color="white"/>
</linearGradient>
<linearGradient id="paint21_linear" x1="10.1799" y1="19.8732" x2="16.1887" y2="5.83868" gradientUnits="userSpaceOnUse">
<stop stop-color="#7A7D7D"/>
<stop offset="0.527603" stop-color="#979A9A"/>
<stop offset="1" stop-color="#C6CCCE"/>
</linearGradient>
<linearGradient id="paint22_linear" x1="8.65055" y1="19.4856" x2="6.90645" y2="20.7574" gradientUnits="userSpaceOnUse">
<stop stop-color="#7A7D7D"/>
<stop offset="0.323188" stop-color="white"/>
<stop offset="0.453995" stop-color="white"/>
<stop offset="0.556795" stop-color="white"/>
<stop offset="0.644165" stop-color="white"/>
<stop offset="0.836519" stop-color="white"/>
<stop offset="1" stop-color="white"/>
</linearGradient>
<linearGradient id="paint23_linear" x1="17.8781" y1="2.12016" x2="18.4508" y2="3.23341" gradientUnits="userSpaceOnUse">
<stop stop-color="#545554"/>
<stop offset="0.230577" stop-color="#545554"/>
<stop offset="0.472397" stop-color="#707373"/>
<stop offset="0.555232" stop-color="#979A9A"/>
<stop offset="0.570557" stop-color="#979A9A"/>
<stop offset="0.855297" stop-color="#C6CCCE"/>
<stop offset="0.907974" stop-color="#C6CCCE"/>
<stop offset="1" stop-color="#C6CCCE"/>
</linearGradient>
<linearGradient id="paint24_linear" x1="25.0029" y1="1.2443" x2="25.0029" y2="25.8474" gradientUnits="userSpaceOnUse">
<stop stop-color="white"/>
<stop offset="0.0886045" stop-color="white"/>
<stop offset="0.263809" stop-color="#E3E9ED"/>
<stop offset="0.439497" stop-color="#E3E9ED"/>
<stop offset="0.687119" stop-color="#525455"/>
<stop offset="0.708507" stop-color="#525455"/>
<stop offset="0.815948" stop-color="#313233"/>
<stop offset="1" stop-color="#313233"/>
</linearGradient>
<linearGradient id="paint25_linear" x1="18.6918" y1="9.0107" x2="23.312" y2="13.1265" gradientUnits="userSpaceOnUse">
<stop stop-color="#CACDCF"/>
<stop offset="0.0700073" stop-color="#CACDCF"/>
<stop offset="0.24847" stop-color="white"/>
<stop offset="0.5" stop-color="white"/>
<stop offset="0.75659" stop-color="white"/>
<stop offset="0.938644" stop-color="#C0C4C4"/>
<stop offset="0.945456" stop-color="#C0C4C4"/>
<stop offset="1" stop-color="#C0C4C4"/>
</linearGradient>
<linearGradient id="paint26_linear" x1="30.1546" y1="17.9113" x2="25.8818" y2="12.5" gradientUnits="userSpaceOnUse">
<stop stop-color="#979A9A"/>
<stop offset="0.122696" stop-color="#8F9190"/>
<stop offset="0.314231" stop-color="#545554"/>
<stop offset="0.441711" stop-color="#545554"/>
<stop offset="0.711655" stop-color="#545554"/>
<stop offset="1" stop-color="#4A4A49"/>
</linearGradient>
<linearGradient id="paint27_linear" x1="30.7965" y1="13.8747" x2="31.5757" y2="14.9347" gradientUnits="userSpaceOnUse">
<stop stop-color="#525455"/>
<stop offset="0.135551" stop-color="white"/>
<stop offset="0.515335" stop-color="white"/>
<stop offset="0.852768" stop-color="white"/>
<stop offset="1" stop-color="#7C7E7D"/>
</linearGradient>
<linearGradient id="paint28_linear" x1="31.723" y1="23.0245" x2="32.1897" y2="23.9697" gradientUnits="userSpaceOnUse">
<stop stop-color="#4A4A49"/>
<stop offset="0.252387" stop-color="#EEF3F5"/>
<stop offset="0.392853" stop-color="#EEF3F5"/>
<stop offset="0.577237" stop-color="#EEF3F5"/>
<stop offset="0.760742" stop-color="white"/>
<stop offset="0.787305" stop-color="white"/>
<stop offset="1" stop-color="white"/>
</linearGradient>
<linearGradient id="paint29_linear" x1="28.4371" y1="10.1075" x2="29.6878" y2="0.60178" gradientUnits="userSpaceOnUse">
<stop stop-color="white"/>
<stop offset="0.394859" stop-color="#EEF3F5"/>
<stop offset="1" stop-color="#EEF3F5"/>
</linearGradient>
<linearGradient id="paint30_linear" x1="20.4649" y1="1.69165" x2="9.64395" y2="19.0396" gradientUnits="userSpaceOnUse">
<stop stop-color="white"/>
<stop offset="0.32343" stop-color="white"/>
<stop offset="0.521469" stop-color="#ABAEAE"/>
<stop offset="0.984131" stop-color="#A1A4A4"/>
<stop offset="1" stop-color="#A1A4A4"/>
</linearGradient>
<linearGradient id="paint31_linear" x1="40.8552" y1="5.62476" x2="30.183" y2="23.5312" gradientUnits="userSpaceOnUse">
<stop stop-color="#E6EAED"/>
<stop offset="0.110935" stop-color="#B6B9BB"/>
<stop offset="0.552155" stop-color="#B6B9BB"/>
<stop offset="0.910022" stop-color="#B6B9BB"/>
<stop offset="1" stop-color="#B6B9BB"/>
</linearGradient>
<linearGradient id="paint32_linear" x1="9.39874" y1="18.6465" x2="32.0948" y2="18.6465" gradientUnits="userSpaceOnUse">
<stop stop-color="#A1A4A4"/>
<stop offset="0.0803586" stop-color="#A1A4A4"/>
<stop offset="0.239258" stop-color="#A1A4A4"/>
<stop offset="0.358771" stop-color="#A1A4A4"/>
<stop offset="0.595093" stop-color="#7C7E7D"/>
<stop offset="0.986572" stop-color="#B6B9BB"/>
<stop offset="1" stop-color="#B6B9BB"/>
</linearGradient>
<linearGradient id="paint33_linear" x1="12.261" y1="3.08007" x2="5.72432" y2="18.9351" gradientUnits="userSpaceOnUse">
<stop stop-color="white"/>
<stop offset="0.261688" stop-color="white"/>
<stop offset="0.779144" stop-color="#E6EAED"/>
<stop offset="0.992676" stop-color="#A1A4A4"/>
<stop offset="1" stop-color="#A1A4A4"/>
</linearGradient>
<linearGradient id="paint34_linear" x1="45.6831" y1="7.20625" x2="36.3106" y2="24.6543" gradientUnits="userSpaceOnUse">
<stop stop-color="#E6EAED"/>
<stop offset="0.0857039" stop-color="#E6EAED"/>
<stop offset="0.255173" stop-color="#DDE1E3"/>
<stop offset="0.9753" stop-color="#B6B9BB"/>
<stop offset="1" stop-color="#B6B9BB"/>
</linearGradient>
</defs>
</svg>
