<svg width="42" height="41" viewBox="0 0 42 41" fill="none" xmlns="http://www.w3.org/2000/svg">
<path d="M20.9303 1.06702C31.938 1.03001 40.8923 9.70046 40.9303 20.433C40.9683 31.1656 32.0756 39.896 21.0679 39.933C10.0602 39.97 1.10591 31.2996 1.06791 20.567C1.02991 9.83447 9.92261 1.10402 20.9303 1.06702Z" fill="url(#paint0_linear)" stroke="#141414" stroke-width="0.451133" stroke-linecap="square"/>
<path d="M20.9991 37.9483C16.2184 37.9483 11.7241 36.1336 8.34381 32.8376C4.96331 29.5421 3.10156 25.1597 3.10156 20.4994C3.10156 15.838 4.96331 11.4562 8.34381 8.16073C11.7241 4.86465 16.2184 3.04974 20.9991 3.04974C25.7797 3.04974 30.2741 4.86465 33.6544 8.16073C37.0349 11.4562 38.8962 15.838 38.8962 20.4994C38.8962 25.1597 37.0349 29.5415 33.6544 32.8376C30.2741 36.1336 25.7797 37.9483 20.9991 37.9483Z" fill="#141414"/>
<path d="M20.9996 36.5329C16.6069 36.5329 12.4773 34.8652 9.3715 31.8371C6.26522 28.8088 4.55469 24.7825 4.55469 20.5002C4.55469 16.2175 6.26522 12.1911 9.3715 9.16281C12.4773 6.13473 16.6069 4.4666 20.9996 4.4666C25.3923 4.4666 29.5218 6.13473 32.6276 9.16281C35.7339 12.1911 37.4445 16.2175 37.4445 20.5002C37.4445 24.7825 35.7339 28.8088 32.6276 31.8371C29.5218 34.8652 25.3923 36.5329 20.9996 36.5329Z" fill="white"/>
<path d="M33.4826 28.2018C32.2668 27.0892 30.7341 26.3452 29.0643 26.0853C28.8262 26.0494 28.6104 26.2286 28.6104 26.4638C28.6104 26.6551 28.6104 26.8626 28.6104 27.0547C28.6104 27.2304 28.4727 27.4295 28.2918 27.4295C28.1607 27.4295 28.0297 27.433 27.8979 27.4295C27.4322 27.4224 27.3475 26.8648 27.4409 26.5364C28.4336 23.066 28.6762 20.961 28.6647 19.4283C28.6523 17.7991 28.6104 16.176 27.8573 14.0273C27.1318 11.9602 26.4693 9.9363 22.9654 6.8429C22.7272 6.6338 22.4868 6.53224 22.1661 6.50965C21.8215 6.48632 21.5398 6.4744 21.1892 6.4744C19.7347 6.4744 18.3308 6.68259 17.0042 7.07078C16.5076 7.21698 16.5821 7.55366 16.8551 7.78318C18.1779 8.88648 19.9714 10.5448 21.2089 12.616C20.4254 12.6901 19.8267 12.2652 19.3234 11.795C17.6696 10.2603 15.9478 9.16606 14.58 8.41715C14.3418 8.28721 14.1071 8.23281 13.8712 8.36492C12.3636 9.21973 11.3478 10.0238 10.151 11.3772C9.94743 11.6072 10.0792 11.7865 10.2783 11.8895C11.5868 12.566 13.6358 13.8493 15.5148 15.516C15.1318 15.8301 14.5249 15.7271 13.6452 15.2775C11.9545 14.4113 10.3291 13.9129 9.08865 13.6015C8.82302 13.5352 8.53831 13.6078 8.40151 13.8395C7.60723 15.185 7.05912 16.7945 6.79989 18.4266C6.75064 18.7401 6.9694 19.0175 7.29008 19.0719C10.1814 19.5653 15.3352 20.8903 16.1912 26.679C16.2649 27.1859 15.7921 27.6314 15.1694 27.3462C14.3005 26.9493 13.4324 26.5534 12.5642 26.156C12.473 26.115 12.3694 26.0797 12.2695 26.0797C10.8713 26.0797 9.5717 26.0797 8.17426 26.0797C7.59203 26.0797 7.35236 26.6226 7.73106 27.0455C8.7157 28.151 9.61878 29.3439 10.3912 30.6084C10.4594 30.7206 10.5376 30.7636 10.6715 30.7636C11.2674 30.7636 11.8641 30.7636 12.4593 30.7636C12.5809 30.7636 12.685 30.7362 12.7901 30.6755C13.352 30.3541 13.9138 30.0337 14.4771 29.7126C14.5815 29.6518 14.6856 29.6531 14.8074 29.6531C19.1186 29.6531 23.7439 29.6531 28.283 29.6531C28.464 29.6531 28.6104 29.7668 28.6104 29.9434C28.6104 30.1586 28.6104 30.374 28.6104 30.59C28.6104 30.8251 28.8262 31.0036 29.0643 30.9677C30.7341 30.7078 32.2668 29.9638 33.4826 28.852C33.676 28.6761 33.676 28.3769 33.4826 28.2017" fill="url(#paint1_linear)"/>
<path d="M33.4826 28.2018C32.2668 27.0892 30.7341 26.3452 29.0643 26.0853C28.8262 26.0494 28.6104 26.2286 28.6104 26.4638C28.6104 26.6551 28.6104 26.8626 28.6104 27.0547C28.6104 27.2304 28.4727 27.4295 28.2918 27.4295C28.1607 27.4295 28.0297 27.433 27.8979 27.4295C27.4322 27.4224 27.3475 26.8648 27.4409 26.5364C28.4336 23.066 28.6762 20.961 28.6647 19.4283C28.6523 17.7991 28.6104 16.176 27.8573 14.0273C27.1318 11.9602 26.4693 9.9363 22.9654 6.8429C22.7272 6.6338 22.4868 6.53224 22.1661 6.50965C21.8215 6.48632 21.5398 6.4744 21.1892 6.4744C19.7347 6.4744 18.3308 6.68259 17.0042 7.07078C16.5076 7.21698 16.5821 7.55366 16.8551 7.78318C18.1779 8.88648 19.9714 10.5448 21.2089 12.616C20.4254 12.6901 19.8267 12.2652 19.3234 11.795C17.6696 10.2603 15.9478 9.16606 14.58 8.41715C14.3418 8.28721 14.1071 8.23281 13.8712 8.36492C12.3636 9.21973 11.3478 10.0238 10.151 11.3772C9.94743 11.6072 10.0792 11.7865 10.2783 11.8895C11.5868 12.566 13.6358 13.8493 15.5148 15.516C15.1318 15.8301 14.5249 15.7271 13.6452 15.2775C11.9545 14.4113 10.3291 13.9129 9.08865 13.6015C8.82302 13.5352 8.53831 13.6078 8.40151 13.8395C7.60723 15.185 7.05912 16.7945 6.79989 18.4266C6.75064 18.7401 6.9694 19.0175 7.29008 19.0719C10.1814 19.5653 15.3352 20.8903 16.1912 26.679C16.2649 27.1859 15.7921 27.6314 15.1694 27.3462C14.3005 26.9493 13.4324 26.5534 12.5642 26.156C12.473 26.115 12.3694 26.0797 12.2695 26.0797C10.8713 26.0797 9.5717 26.0797 8.17426 26.0797C7.59203 26.0797 7.35236 26.6226 7.73106 27.0455C8.7157 28.151 9.61878 29.3439 10.3912 30.6084C10.4594 30.7206 10.5376 30.7636 10.6715 30.7636C11.2674 30.7636 11.8641 30.7636 12.4593 30.7636C12.5809 30.7636 12.685 30.7362 12.7901 30.6755C13.352 30.3541 13.9138 30.0337 14.4771 29.7126C14.5815 29.6518 14.6856 29.6531 14.8074 29.6531C19.1186 29.6531 23.7439 29.6531 28.283 29.6531C28.464 29.6531 28.6104 29.7668 28.6104 29.9434C28.6104 30.1586 28.6104 30.374 28.6104 30.59C28.6104 30.8251 28.8262 31.0036 29.0643 30.9677C30.7341 30.7078 32.2668 29.9638 33.4826 28.852C33.676 28.6761 33.676 28.3769 33.4826 28.2017" stroke="#141414" stroke-width="0.450734"/>
<path d="M23.4449 26.31C22.1175 26.31 21.0432 25.2618 21.0432 23.9698C21.0432 22.6766 22.1175 21.6289 23.4449 21.6289C24.7691 21.6289 25.8451 22.6766 25.8451 23.9698C25.8451 25.2618 24.7691 26.31 23.4449 26.31ZM32.2698 28.5253C31.3582 27.8004 30.3973 27.3316 29.23 27.0957C29.1244 27.0746 29.073 27.1142 29.073 27.2201C29.073 27.2398 29.073 27.2575 29.073 27.2772C29.073 27.5568 28.7863 27.8822 28.498 27.8822C28.2461 27.8822 27.9913 27.8822 27.7399 27.8822C27.0999 27.8822 26.5286 27.3683 26.7655 26.5429C29.5046 17.0121 26.4439 11.1189 22.5789 7.82003C21.529 6.92564 21.4348 6.87613 20.3885 6.91498C19.5638 6.94534 18.5971 7.0442 17.7797 7.23757C17.619 7.2757 17.485 7.40003 17.6972 7.57371C19.6811 9.20363 22.3333 12.0133 23.6019 16.3866C23.6455 16.5384 23.5533 16.5279 23.4347 16.5342C22.2986 16.6013 21.9157 15.9228 21.5607 15.4915C18.9853 12.3663 16.0977 10.4652 13.9364 9.21628C13.7214 9.09068 13.6865 9.09285 13.5229 9.1861C12.6541 9.67531 11.6787 10.456 10.9915 11.1663C10.8483 11.3166 10.8844 11.3871 11.0429 11.4697C12.9979 12.4913 15.9709 14.5038 18.7339 17.9164C18.9056 18.1275 18.9173 18.2249 18.8201 18.2807C18.2887 18.5892 17.4017 18.5849 16.4301 17.9948C13.7959 16.3929 11.1204 15.2585 9.02708 14.6704C8.80409 14.607 8.76498 14.6197 8.67378 14.806C8.1633 15.8522 7.60721 17.2119 7.40665 18.3908C7.38126 18.5447 7.36754 18.5567 7.51379 18.5856C13.2745 19.7265 16.4351 22.8072 16.7956 26.9257C16.8586 27.6401 16.0297 28.3283 15.2048 28.0742C14.3092 27.7968 13.4396 27.4854 12.5432 27.2087C12.447 27.1776 12.3499 27.1642 12.2477 27.1642C11.0097 27.1635 9.77001 27.1629 8.5305 27.1629C8.36534 27.1629 8.2684 27.2639 8.43263 27.4665C9.36815 28.62 9.912 29.2737 10.5715 30.3524C10.639 30.4646 10.717 30.5076 10.8525 30.5076C11.3072 30.5076 11.7634 30.5069 12.2203 30.5069C12.4012 30.5069 12.5562 30.4661 12.7134 30.3757C13.2094 30.0925 13.7025 29.8285 14.1985 29.5448C14.3562 29.4544 14.491 29.4 14.6734 29.4C19.1714 29.3986 23.9923 29.4 28.4893 29.3993C28.7761 29.3993 29.073 29.7262 29.073 30.0078C29.073 30.0396 29.073 30.0721 29.073 30.1046C29.073 30.2104 29.1244 30.2499 29.23 30.2295C30.3973 29.9937 31.3582 29.4474 32.2698 28.7223C32.3523 28.656 32.3523 28.5924 32.2698 28.5253" fill="#1E1E1E"/>
<path d="M25.9441 23.7017C26.1607 25.1455 25.136 26.4852 23.6551 26.6964C22.1756 26.9074 20.8002 25.9099 20.5836 24.4662C20.367 23.0224 21.3915 21.6812 22.8711 21.4702C24.3519 21.2591 25.7275 22.2579 25.9441 23.7017Z" fill="url(#paint2_linear)"/>
<path d="M23.7011 21.4756L22.8867 26.7013C24.0534 26.8633 25.2366 26.2618 25.7408 25.1595C26.3503 23.8268 25.7369 22.267 24.3712 21.6733C24.1518 21.5779 23.9276 21.5115 23.7011 21.4756Z" fill="url(#paint3_linear)"/>
<path d="M25.5529 24.0164C25.5529 24.9927 24.7399 25.7862 23.7364 25.7862C22.7336 25.7862 21.9219 24.9927 21.9219 24.0164C21.9219 23.038 22.7336 22.2452 23.7364 22.2452C24.7399 22.2452 25.5529 23.038 25.5529 24.0164Z" fill="white" stroke="#141414" stroke-width="0.450734"/>
<defs>
<linearGradient id="paint0_linear" x1="21.0682" y1="40.0021" x2="20.937" y2="0.997942" gradientUnits="userSpaceOnUse">
<stop stop-color="#99A2A7"/>
<stop offset="0.47584" stop-color="#98A3A8"/>
<stop offset="0.535243" stop-color="#E6E6E6"/>
<stop offset="1" stop-color="#E6E6E6"/>
</linearGradient>
<linearGradient id="paint1_linear" x1="7.01528" y1="30.5408" x2="32.8963" y2="6.25218" gradientUnits="userSpaceOnUse">
<stop stop-color="#151313"/>
<stop offset="0.085001" stop-color="#151313"/>
<stop offset="0.127798" stop-color="#F8F1F1"/>
<stop offset="0.228741" stop-color="#151313"/>
<stop offset="0.304102" stop-color="#141414"/>
<stop offset="0.381742" stop-color="#F8F1F1"/>
<stop offset="0.449694" stop-color="#151313"/>
<stop offset="0.565496" stop-color="#F8F1F4"/>
<stop offset="0.626805" stop-color="#141414"/>
<stop offset="0.787047" stop-color="#F8F1F1"/>
<stop offset="1" stop-color="#F8F1F2"/>
</linearGradient>
<linearGradient id="paint2_linear" x1="23.2835" y1="23.5917" x2="25.749" y2="26.8979" gradientUnits="userSpaceOnUse">
<stop stop-color="#151313"/>
<stop offset="0.162563" stop-color="#CCC4C4"/>
<stop offset="0.496139" stop-color="#B7ACAD"/>
<stop offset="1" stop-color="#151313"/>
</linearGradient>
<linearGradient id="paint3_linear" x1="23.8947" y1="23.2299" x2="20.1236" y2="24.8013" gradientUnits="userSpaceOnUse">
<stop stop-color="#151313"/>
<stop offset="0.25" stop-color="#CCC4C4"/>
<stop offset="0.5" stop-color="#B7ACAD"/>
<stop offset="1" stop-color="#151313"/>
</linearGradient>
</defs>
</svg>
