<svg width="26" height="26" viewBox="0 0 26 26" fill="none" xmlns="http://www.w3.org/2000/svg">
<path d="M7.42521 16.95L4.81003 14.3348C4.2976 13.8235 3.61835 13.5418 2.89471 13.5418H1.08335C0.784346 13.5418 0.541663 13.7845 0.541663 14.0835C0.541663 14.3825 0.784346 14.6252 1.08335 14.6252H2.89466C3.32148 14.6252 3.74073 14.7985 4.04298 15.1007L5.73405 16.7918H1.08335C0.784346 16.7918 0.541663 17.0345 0.541663 17.3335C0.541663 17.6325 0.784346 17.8752 1.08335 17.8752H7.04166C7.26048 17.8752 7.45766 17.743 7.54216 17.5404C7.62666 17.3378 7.5801 17.1049 7.42521 16.95Z" fill="#1D1D1D"/>
<path d="M7.04154 19.4999C6.74254 19.4999 6.49986 19.7426 6.49986 20.0416V21.6666C6.49986 21.9656 6.25611 22.2083 5.95817 22.2083H2.70817C2.41024 22.2083 2.16649 21.9656 2.16649 21.6666V19.4999C2.16649 19.2009 1.92381 18.9582 1.62481 18.9582C1.32581 18.9582 1.08317 19.2009 1.08317 19.4999V21.6666C1.08317 22.5625 1.81224 23.2916 2.70817 23.2916H5.95817C6.8541 23.2916 7.58317 22.5625 7.58317 21.6666V20.0416C7.58317 19.7426 7.34054 19.4999 7.04154 19.4999Z" fill="#1D1D1D"/>
<path d="M23.5419 10.3534C22.0491 9.57236 18.6984 9.20835 13 9.20835C7.30163 9.20835 3.95093 9.57236 2.45807 10.3534C0.75725 11.2417 0 12.7259 0 15.1667C0 17.5132 0.537316 19.5542 0.560066 19.6397C0.622883 19.877 0.837383 20.0417 1.08332 20.0417H5.8305L7.88232 21.0676C7.95813 21.1055 8.04157 21.125 8.125 21.125H17.875C17.9584 21.125 18.0418 21.1055 18.1166 21.0676L20.1695 20.0417H24.9167C25.1626 20.0417 25.3771 19.877 25.4399 19.6397C25.4627 19.5542 26 17.5132 26 15.1667C26 12.7259 25.2428 11.2417 23.5419 10.3534ZM24.4888 18.9583H20.0427C19.9583 18.9583 19.8748 18.9778 19.8001 19.0157L17.7471 20.0417H8.25282L6.201 19.0157C6.12518 18.9778 6.04175 18.9583 5.95832 18.9583H1.51232C1.36175 18.2682 1.08332 16.7776 1.08332 15.1666C1.08332 13.1267 1.62713 12.0098 2.95857 11.3132C4.25638 10.635 7.63425 10.2916 13 10.2916C18.3657 10.2916 21.7436 10.6351 23.0414 11.3132C24.3729 12.0098 24.9167 13.1267 24.9167 15.1666C24.9167 16.7776 24.6383 18.2682 24.4888 18.9583Z" fill="#1D1D1D"/>
<path d="M24.9167 16.7918H20.266L21.956 15.1008C22.2593 14.7985 22.6775 14.6252 23.1054 14.6252H24.9167C25.2157 14.6252 25.4584 14.3825 25.4584 14.0835C25.4584 13.7845 25.2157 13.5418 24.9167 13.5418H23.1054C22.3817 13.5418 21.7025 13.8235 21.1901 14.3348L18.5749 16.95C18.4211 17.105 18.3745 17.3378 18.4579 17.5405C18.5413 17.7431 18.7396 17.8752 18.9584 17.8752H24.9167C25.2157 17.8752 25.4584 17.6325 25.4584 17.3335C25.4583 17.0345 25.2157 16.7918 24.9167 16.7918Z" fill="#1D1D1D"/>
<path d="M19.4491 13.8538C19.3591 13.6632 19.1685 13.5418 18.9583 13.5418H7.04168C6.8315 13.5418 6.64087 13.6632 6.55093 13.8538C6.46212 14.0434 6.49025 14.2688 6.62568 14.4302L9.334 17.6802C9.43693 17.8037 9.58968 17.8752 9.75 17.8752H16.25C16.4103 17.8752 16.5631 17.8037 16.666 17.6802L19.3743 14.4302C19.5097 14.2687 19.5379 14.0434 19.4491 13.8538ZM15.9954 16.7918H10.0035L8.19757 14.6252H17.8013L15.9954 16.7918Z" fill="#1D1D1D"/>
<path d="M23.7889 10.6176C23.1725 9.20062 21.1098 4.53037 20.3926 3.92044C19.4989 3.16101 16.9389 2.70819 13.5416 2.70819H12.4583C9.061 2.70819 6.50107 3.16101 5.60732 3.91937C4.89013 4.52931 2.82638 9.19956 2.21107 10.6166C2.093 10.8917 2.21863 11.2102 2.49275 11.3294C2.76575 11.4486 3.08643 11.3239 3.20557 11.0488C4.42863 8.23324 5.92475 5.10456 6.30932 4.74599C6.72638 4.39174 8.49113 3.79156 12.4583 3.79156H13.5416C17.5088 3.79156 19.2736 4.39174 19.6885 4.74381C20.0752 5.10456 21.5713 8.23212 22.7944 11.0488C22.8832 11.2536 23.0836 11.3749 23.2916 11.3749C23.3631 11.3749 23.4379 11.3608 23.5072 11.3304C23.7813 11.2113 23.907 10.8917 23.7889 10.6176Z" fill="#1D1D1D"/>
<path d="M24.3749 18.9582C24.0759 18.9582 23.8332 19.2009 23.8332 19.4999V21.6666C23.8332 21.9656 23.5895 22.2083 23.2916 22.2083H20.0416C19.7436 22.2083 19.4999 21.9656 19.4999 21.6666V20.0416C19.4999 19.7426 19.2572 19.4999 18.9582 19.4999C18.6592 19.4999 18.4165 19.7426 18.4165 20.0416V21.6666C18.4165 22.5625 19.1456 23.2916 20.0415 23.2916H23.2915C24.1874 23.2916 24.9165 22.5625 24.9165 21.6666V19.4999C24.9166 19.2009 24.6739 18.9582 24.3749 18.9582Z" fill="#1D1D1D"/>
</svg>
