<svg width="23" height="24" viewBox="0 0 23 24" fill="none" xmlns="http://www.w3.org/2000/svg">
<g clip-path="url(#clip0)">
<path d="M19.0448 14.8675C18.5515 14.3559 17.9566 14.0824 17.326 14.0824C16.7004 14.0824 16.1004 14.3509 15.5867 14.8625L13.9797 16.4581C13.8475 16.3871 13.7153 16.3213 13.5881 16.2554C13.4051 16.1643 13.2322 16.0782 13.0847 15.987C11.5794 15.0347 10.2114 13.7937 8.89934 12.188C8.26365 11.3876 7.83647 10.7139 7.52626 10.0301C7.94327 9.65021 8.32977 9.25511 8.70609 8.87521C8.84848 8.73338 8.99088 8.58648 9.13327 8.44465C10.2012 7.38092 10.2012 6.00314 9.13327 4.93942L7.74494 3.55657C7.58729 3.39955 7.42455 3.23745 7.27199 3.07536C6.96686 2.76131 6.64648 2.43713 6.31592 2.1332C5.82263 1.64693 5.23272 1.3886 4.61229 1.3886C3.99186 1.3886 3.39178 1.64693 2.88323 2.1332C2.87815 2.13827 2.87815 2.13827 2.87306 2.14334L1.144 3.88076C0.493064 4.52912 0.121825 5.31932 0.0404572 6.23615C-0.081594 7.71524 0.355756 9.09302 0.691397 9.99465C1.51524 12.2082 2.74592 14.2597 4.58178 16.4581C6.80921 19.1072 9.48925 21.1992 12.5507 22.6733C13.7204 23.2254 15.2816 23.8788 17.0259 23.9903C17.1327 23.9953 17.2446 24.0004 17.3463 24.0004C18.521 24.0004 19.5076 23.58 20.2806 22.7442C20.2857 22.734 20.2959 22.729 20.3009 22.7188C20.5654 22.3997 20.8705 22.111 21.1909 21.802C21.4096 21.5943 21.6333 21.3765 21.852 21.1486C22.3555 20.6269 22.6199 20.019 22.6199 19.396C22.6199 18.7679 22.3504 18.1651 21.8368 17.6585L19.0448 14.8675ZM20.8654 20.2014C20.8604 20.2014 20.8604 20.2064 20.8654 20.2014C20.6671 20.4141 20.4637 20.6066 20.245 20.8193C19.9145 21.1334 19.5788 21.4626 19.2635 21.8324C18.7499 22.3795 18.1447 22.6378 17.3514 22.6378C17.2751 22.6378 17.1937 22.6378 17.1174 22.6327C15.6071 22.5365 14.2035 21.9489 13.1508 21.4474C10.2724 20.0595 7.74494 18.0891 5.64464 15.5919C3.9105 13.51 2.75101 11.5852 1.9831 9.51851C1.51016 8.25723 1.33725 7.27455 1.41353 6.34759C1.46439 5.75494 1.69323 5.2636 2.11533 4.84318L3.84947 3.11589C4.09866 2.88288 4.3631 2.75624 4.62246 2.75624C4.94285 2.75624 5.2022 2.94873 5.36494 3.11082C5.37002 3.11589 5.37511 3.12095 5.3802 3.12602C5.69041 3.41474 5.98537 3.7136 6.29558 4.03272C6.45323 4.19481 6.61596 4.3569 6.7787 4.52406L8.16703 5.9069C8.70609 6.44383 8.70609 6.94024 8.16703 7.47717C8.01955 7.62406 7.87716 7.77096 7.72968 7.91279C7.3025 8.34841 6.89566 8.75364 6.45323 9.14874C6.44306 9.15887 6.43289 9.16393 6.4278 9.17406C5.99045 9.60968 6.07182 10.0352 6.16336 10.3239C6.16844 10.3391 6.17353 10.3543 6.17861 10.3695C6.53968 11.2407 7.04823 12.0613 7.82122 13.0389L7.8263 13.044C9.22989 14.7662 10.7098 16.1085 12.3422 17.1368C12.5507 17.2685 12.7643 17.3749 12.9677 17.4762C13.1508 17.5674 13.3237 17.6535 13.4712 17.7447C13.4915 17.7548 13.5119 17.77 13.5322 17.7801C13.7051 17.8662 13.8678 17.9068 14.0357 17.9068C14.4578 17.9068 14.7222 17.6434 14.8086 17.5572L16.5479 15.8249C16.7208 15.6527 16.9954 15.445 17.3158 15.445C17.6311 15.445 17.8904 15.6425 18.0481 15.8148C18.0532 15.8198 18.0532 15.8198 18.0583 15.8249L20.8604 18.6159C21.3842 19.1326 21.3842 19.6644 20.8654 20.2014Z" fill="#1D1D1D"/>
</g>
<defs>
<clipPath id="clip0">
<rect width="23" height="24" fill="white"/>
</clipPath>
</defs>
</svg>
