<svg width="22" height="22" viewBox="0 0 22 22" fill="none" xmlns="http://www.w3.org/2000/svg">
<g clip-path="url(#clip0)">
<path d="M4.80769 9.02549C6.91088 9.02549 8.61539 7.32058 8.61539 5.21805C8.6159 3.11501 6.91088 1.4101 4.80769 1.4101C2.70451 1.4101 1 3.11501 1 5.21754C1.00205 7.31956 2.70553 9.02292 4.80769 9.02549ZM4.80769 3.24892C5.89495 3.24892 6.77645 4.13036 6.77645 5.21754C6.77696 6.30523 5.89546 7.18667 4.80769 7.18667C3.72044 7.18667 2.83894 6.30523 2.83894 5.21754C2.83997 4.13087 3.72095 3.25046 4.80769 3.24892Z" fill="#1D1D1D"/>
<path d="M10.8719 16.9232C10.8719 19.1041 12.5768 20.8717 14.6793 20.8717C16.7824 20.8717 18.4873 19.1041 18.4873 16.9232C18.4873 14.7423 16.7824 12.9742 14.6793 12.9742C12.5773 12.9769 10.8745 14.7433 10.8719 16.9232ZM16.6485 16.9232C16.6485 18.0507 15.767 18.9647 14.6793 18.9647C13.5922 18.9647 12.7107 18.0507 12.7107 16.9232C12.7107 15.7958 13.5922 14.8817 14.6793 14.8811C15.7665 14.8827 16.6469 15.7958 16.6485 16.9232Z" fill="#1D1D1D"/>
<path d="M2.83073 21.8488C3.25926 22.1293 3.83358 22.008 4.11272 21.5782L17.2076 1.43851C17.3891 1.16007 17.4087 0.805937 17.2593 0.509354C17.1094 0.212771 16.8132 0.0188517 16.4824 0.00122259C16.1515 -0.0164064 15.8362 0.144329 15.6558 0.423283L2.56089 20.5629C2.28123 20.9933 2.40219 21.5688 2.83073 21.8488Z" fill="#1D1D1D"/>
</g>
<defs>
<clipPath id="clip0">
<rect width="22" height="22" fill="white"/>
</clipPath>
</defs>
</svg>
