<svg width="22" height="22" viewBox="0 0 22 22" fill="none" xmlns="http://www.w3.org/2000/svg">
<g clip-path="url(#clip0)">
<path d="M21.9999 0.642635C21.9988 0.287455 21.7095 -9.15527e-05 21.3552 -9.15527e-05H17.7088C17.5378 -9.15527e-05 17.3739 0.0678421 17.253 0.188756L9.27009 8.17162C6.74533 7.35427 3.96182 8.01001 2.07355 9.89832C-0.691185 12.6631 -0.691185 17.1616 2.07355 19.9264C4.83825 22.6911 9.33677 22.6912 12.1016 19.9264C13.9899 18.0381 14.6456 15.2546 13.8283 12.7298L14.38 12.1781L16.4677 11.7606C16.7229 11.7095 16.9224 11.5101 16.9734 11.2549L17.345 9.39717L19.2027 9.02562C19.4581 8.97458 19.6577 8.77477 19.7085 8.51932L20.0611 6.74703H21.3554C21.7114 6.74703 22 6.45841 22 6.10242V0.644526L21.9999 0.642635ZM20.7107 5.45776H19.5321C19.2245 5.45776 18.9598 5.67501 18.8998 5.9766L18.528 7.84579L16.6707 8.21725C16.4155 8.2683 16.2161 8.46776 16.165 8.72295L15.7935 10.5807L13.9358 10.9522C13.811 10.9772 13.6964 11.0385 13.6064 11.1285L12.6284 12.1065C12.4474 12.2876 12.3906 12.5586 12.4839 12.7971C13.3249 14.9472 12.8169 17.3877 11.1899 19.0148C8.92819 21.2765 5.24757 21.2772 2.98514 19.0148C0.723089 16.7527 0.723089 13.0721 2.98514 10.81C4.61481 9.1804 7.05604 8.67637 9.20284 9.51607C9.44141 9.60935 9.71241 9.55264 9.89348 9.37152L17.9758 1.28919H19.7991L11.7831 9.30513C11.5314 9.55689 11.5314 9.96501 11.7831 10.2168C11.909 10.3426 12.074 10.4056 12.2389 10.4056C12.4039 10.4056 12.5689 10.3427 12.6947 10.2168L20.7107 2.20081V5.45776Z" fill="#1D1D1D"/>
<path d="M6.63205 15.3681C5.87804 14.6141 4.65115 14.6141 3.89714 15.3681C3.14312 16.1221 3.14312 17.349 3.89714 18.103C4.65111 18.857 5.87804 18.8571 6.63205 18.103C7.38607 17.349 7.38607 16.1221 6.63205 15.3681ZM5.72043 17.1914C5.46842 17.4433 5.06077 17.4433 4.8088 17.1914C4.55684 16.9393 4.55688 16.5317 4.8088 16.2797C5.06021 16.0284 5.46911 16.0284 5.72043 16.2797C5.97175 16.5311 5.97175 16.94 5.72043 17.1914Z" fill="#1D1D1D"/>
</g>
<defs>
<clipPath id="clip0">
<rect width="22" height="22" fill="white"/>
</clipPath>
</defs>
</svg>
