<svg width="27" height="21" viewBox="0 0 27 21" fill="none" xmlns="http://www.w3.org/2000/svg">
<path d="M17.3474 10.5001L11.5781 6.68066V14.3195L17.3474 10.5001Z" stroke="#C4C4C4" stroke-linecap="round" stroke-linejoin="round"/>
<path d="M1 10.5C1 14.0515 1.36949 16.1353 1.65037 17.2062C1.72545 17.4987 1.86964 17.7693 2.07098 17.9954C2.27232 18.2215 2.52503 18.3967 2.80816 18.5066C6.83183 20.0421 13.5 19.9999 13.5 19.9999C13.5 19.9999 20.1681 20.042 24.1918 18.5066C24.4749 18.3968 24.7276 18.2215 24.929 17.9954C25.1303 17.7693 25.2745 17.4988 25.3496 17.2063C25.6305 16.1353 26 14.0515 26 10.5C26 6.94848 25.6305 4.86472 25.3496 3.79376C25.2745 3.50126 25.1304 3.23075 24.929 3.00462C24.7277 2.77849 24.475 2.60326 24.1918 2.49344C20.1682 0.957951 13.5 1.00011 13.5 1.00011C13.5 1.00011 6.8319 0.957953 2.8082 2.49343C2.52507 2.60324 2.27236 2.77847 2.07101 3.0046C1.86967 3.23073 1.72548 3.50124 1.6504 3.79374C1.3695 4.8647 1 6.94848 1 10.5Z" stroke="#C4C4C4" stroke-linecap="round" stroke-linejoin="round"/>
</svg>
