<svg width="27" height="24" viewBox="0 0 27 24" fill="none" xmlns="http://www.w3.org/2000/svg">
<path d="M8.44687 13.0924L19.6553 22.7564C19.785 22.8682 19.9421 22.9451 20.1113 22.9796C20.2804 23.014 20.4558 23.0048 20.6202 22.9529C20.7846 22.9009 20.9324 22.808 21.0491 22.6833C21.1659 22.5585 21.2476 22.4062 21.2861 22.2412L25.9748 2.19531C26.0153 2.02199 26.0068 1.84112 25.9502 1.67219C25.8936 1.50326 25.791 1.35267 25.6535 1.23665C25.5159 1.12063 25.3487 1.04358 25.1698 1.0138C24.9909 0.984021 24.8071 1.00264 24.6381 1.06766L1.63259 9.9228C1.43209 9.99997 1.26248 10.1387 1.14916 10.3182C1.03583 10.4977 0.984868 10.7083 1.0039 10.9185C1.02293 11.1288 1.11094 11.3273 1.25474 11.4844C1.39854 11.6416 1.59042 11.7489 1.80165 11.7903L8.44687 13.0924Z" stroke="#C4C4C4" stroke-linecap="round" stroke-linejoin="round"/>
<path d="M8.44531 13.0929L25.4121 1.08691" stroke="#C4C4C4" stroke-linecap="round" stroke-linejoin="round"/>
<path d="M14.0431 17.9192L10.1477 21.7359C10.0082 21.8725 9.83053 21.9656 9.63709 22.0033C9.44364 22.041 9.24314 22.0216 9.06092 21.9477C8.8787 21.8737 8.72295 21.7485 8.61338 21.5878C8.5038 21.4271 8.44531 21.2382 8.44531 21.045V13.0928" stroke="#C4C4C4" stroke-linecap="round" stroke-linejoin="round"/>
</svg>
