<svg width="27" height="29" viewBox="0 0 27 29" fill="none" xmlns="http://www.w3.org/2000/svg">
<path d="M23.2182 3.65972C22.5566 3.0467 19.9105 1.06619 14.0039 1.01903C14.0039 1.01903 7.05769 0.594636 3.65548 3.75403C1.76536 5.73455 1.10382 8.5167 1.00932 12.0533C0.962066 15.5428 0.86756 22.0974 7.05769 23.8893V26.6243C7.05769 26.6243 7.01043 27.7088 7.71923 27.9446C8.56978 28.2275 9.08956 27.3788 9.89286 26.4828C10.3654 26.0113 10.9797 25.2568 11.405 24.6909C15.6577 25.0682 18.8709 24.2194 19.2489 24.0779C20.0995 23.795 24.9193 23.1819 25.7226 16.5802C26.5731 9.83704 25.3918 5.59308 23.2182 3.65972Z" stroke="#C4C4C4"/>
<path d="M19.439 16.9572C19.439 16.9572 18.6357 16.297 18.2577 16.014C17.8797 15.7311 17.3126 15.3539 16.9819 15.1653C16.4148 14.8352 15.8005 15.0238 15.5643 15.3539L15.0445 16.014C14.761 16.3441 14.383 16.297 14.2884 16.2498C13.5324 16.0612 12.7291 15.5897 11.9258 14.788C11.0752 13.9864 10.6027 13.1376 10.4137 12.2888V12.2416C10.3665 11.8644 10.4137 11.7229 10.5555 11.4872H10.6027C10.9335 11.1571 11.595 10.7798 11.6895 10.4026C11.9258 9.74242 10.839 8.42207 10.6972 8.1863C10.6972 8.1863 9.89393 7.14888 9.61041 6.96026C9.32689 6.72449 8.85436 6.58302 8.33458 6.86595H8.28733C6.917 7.80906 6.44447 8.32776 6.53897 9.1294L6.58623 9.45949C7.29502 11.6286 8.6181 13.9864 10.6027 16.0612C12.5873 18.0889 14.7137 19.3149 16.8401 20.1637C17.4071 20.3523 17.9742 20.2109 18.5412 19.6921C18.9665 19.2678 19.3445 18.8434 19.5808 18.3718C19.9115 17.7588 19.817 17.2872 19.439 16.9572Z" stroke="#C4C4C4"/>
<path d="M16.8792 11.4233C16.7846 11.4233 16.7374 11.3762 16.7374 11.2819C16.6901 10.716 16.5484 10.2916 16.2649 10.0087C15.9813 9.72574 15.6033 9.58427 15.0363 9.53712C14.9418 9.53712 14.8945 9.44281 14.8945 9.3485C14.8945 9.25419 14.989 9.20703 15.0835 9.20703C15.6978 9.25419 16.1704 9.44281 16.5011 9.77289C16.8319 10.103 17.0209 10.6217 17.0209 11.2819C17.0682 11.3762 16.9737 11.4233 16.8792 11.4233Z" fill="#C4C4C4" stroke="#C4C4C4" stroke-width="0.4"/>
<path d="M18.438 11.9892C18.3435 11.9892 18.2962 11.8949 18.2962 11.8478C18.3435 10.7632 18.0127 9.86724 17.3512 9.11276C17.0204 8.73552 16.6424 8.45259 16.1699 8.26397C15.6973 8.07535 15.1775 7.93388 14.6105 7.88673C14.516 7.88673 14.4688 7.79242 14.4688 7.69811C14.4688 7.6038 14.5633 7.55664 14.6578 7.55664C15.9336 7.65095 16.9259 8.07535 17.5874 8.87699C18.2962 9.67862 18.627 10.6689 18.627 11.8478C18.627 11.8949 18.5325 11.9892 18.438 11.9892Z" fill="#C4C4C4" stroke="#C4C4C4" stroke-width="0.4"/>
<path d="M20.0484 12.6017C19.9539 12.6017 19.9066 12.5074 19.9066 12.4603C19.9066 11.5171 19.7649 10.6212 19.4813 9.86672C19.1978 9.11224 18.7725 8.45207 18.2528 7.93336C17.6857 7.3675 17.0714 6.99026 16.4099 6.70733C15.7011 6.4244 14.9451 6.28293 14.1418 6.28293C14.0473 6.28293 14 6.18862 14 6.14147C14 6.09431 14.0945 6 14.1418 6C15.8429 6 17.3077 6.61302 18.489 7.74474C19.0561 8.3106 19.5286 9.01793 19.8121 9.81957C20.0956 10.6212 20.2374 11.5172 20.2846 12.5074C20.1901 12.5546 20.1429 12.6017 20.0484 12.6017Z" fill="#C4C4C4" stroke="#C4C4C4" stroke-width="0.4"/>
</svg>
