<svg width="27" height="27" viewBox="0 0 27 27" fill="none" xmlns="http://www.w3.org/2000/svg">
<path d="M13.5012 18.935C16.5027 18.935 18.936 16.5018 18.936 13.5002C18.936 10.4987 16.5027 8.06543 13.5012 8.06543C10.4996 8.06543 8.06641 10.4987 8.06641 13.5002C8.06641 16.5018 10.4996 18.935 13.5012 18.935Z" stroke="#C4C4C4" stroke-miterlimit="10"/>
<path d="M19.4783 1H7.52174C3.91988 1 1 3.91988 1 7.52174V19.4783C1 23.0801 3.91988 26 7.52174 26H19.4783C23.0801 26 26 23.0801 26 19.4783V7.52174C26 3.91988 23.0801 1 19.4783 1Z" stroke="#C4C4C4" stroke-linecap="round" stroke-linejoin="round"/>
<path d="M20.564 8.06556C21.4645 8.06556 22.1945 7.33559 22.1945 6.43512C22.1945 5.53466 21.4645 4.80469 20.564 4.80469C19.6636 4.80469 18.9336 5.53466 18.9336 6.43512C18.9336 7.33559 19.6636 8.06556 20.564 8.06556Z" fill="#C4C4C4"/>
</svg>
