<svg width="112" height="55" viewBox="0 0 112 55" fill="none" xmlns="http://www.w3.org/2000/svg">
<g clip-path="url(#clip0)">
<path d="M6.95601 43.4967C6.22398 42.598 5.12594 42.4182 4.57693 42.4182C2.38085 42.4182 0.550781 44.0359 0.550781 46.5522C0.550781 48.7091 2.01483 50.866 4.57693 50.866C5.12594 50.866 6.22398 50.6862 6.95601 49.7875V50.6862H8.78608V42.7777H6.95601V43.4967ZM4.75993 44.0359C6.04098 44.0359 7.13902 44.9346 7.13902 46.5522C7.13902 48.1699 6.04098 49.0686 4.75993 49.0686C3.47889 49.0686 2.56385 47.9901 2.56385 46.5522C2.56385 45.2941 3.47889 44.0359 4.75993 44.0359ZM11.3482 42.598V47.2712C11.3482 48.3496 11.5312 49.0686 12.2632 49.9673C12.9952 50.6862 14.0933 51.0457 14.8253 51.0457C15.7403 51.0457 16.6554 50.6862 17.3874 49.9673C18.1194 49.2483 18.3024 48.3496 18.3024 47.2712V42.598H16.4723V47.0914C16.4723 47.6307 16.4724 48.1699 16.1063 48.5293C15.9233 48.8888 15.3743 49.0686 14.8253 49.0686C14.2763 49.0686 13.9103 48.8888 13.5442 48.5293C13.1782 48.1699 13.1782 47.6307 13.1782 47.0914V42.598H11.3482ZM23.9756 44.3954V42.7777H22.5116V39.9019H20.6815V42.7777H19.9495V44.3954H20.6815V50.6862H22.5116V44.3954H23.9756ZM29.2828 42.4182C26.9037 42.4182 24.8907 44.2156 24.8907 46.5522C24.8907 49.0686 26.7207 50.866 29.2828 50.866C31.6619 50.866 33.675 49.0686 33.675 46.5522C33.492 44.2156 31.6619 42.4182 29.2828 42.4182ZM29.2828 49.2483C27.8188 49.2483 26.9037 48.1699 26.9037 46.732C26.9037 44.9346 28.1848 44.2156 29.2828 44.2156C30.5639 44.2156 31.6619 44.9346 31.6619 46.732C31.6619 48.1699 30.7469 49.2483 29.2828 49.2483ZM38.9822 44.3954V42.7777H37.5181V39.9019H35.688V42.7777H34.773V44.3954H35.505V50.6862H37.3351V44.3954H38.9822ZM40.2632 50.6862H42.0933V46.5522C42.0933 46.013 42.0933 45.2941 42.4593 44.9346C42.6423 44.5751 43.0083 44.3954 43.7403 44.3954C44.1063 44.3954 44.2893 44.5751 44.8384 44.7548L45.7534 43.1372C45.2044 42.7777 44.6554 42.598 44.2893 42.598C43.5573 42.598 43.0083 42.7777 42.4593 43.4967V42.7777H40.6292V50.6862H40.2632ZM52.5246 43.4967C51.7926 42.598 50.6946 42.4182 50.1456 42.4182C47.9495 42.4182 46.1194 44.0359 46.1194 46.5522C46.1194 48.7091 47.5835 50.866 50.1456 50.866C50.6946 50.866 51.7926 50.6862 52.5246 49.7875V50.6862H54.3547V42.7777H52.5246V43.4967ZM50.3286 44.0359C51.6096 44.0359 52.7076 44.9346 52.7076 46.5522C52.7076 48.1699 51.6096 49.0686 50.3286 49.0686C49.0475 49.0686 48.1325 47.9901 48.1325 46.5522C48.1325 45.2941 49.0475 44.0359 50.3286 44.0359ZM62.773 43.4967C62.041 42.598 60.9429 42.4182 60.3939 42.4182C58.1978 42.4182 56.3678 44.0359 56.3678 46.5522C56.3678 48.7091 57.8318 50.866 60.3939 50.866C60.9429 50.866 62.041 50.6862 62.773 49.7875V50.6862H64.6031V39.7222H62.773V43.4967ZM60.5769 44.0359C61.858 44.0359 62.956 44.9346 62.956 46.5522C62.956 48.1699 61.858 49.0686 60.5769 49.0686C59.2959 49.0686 58.3808 47.9901 58.3808 46.5522C58.3808 45.2941 59.2959 44.0359 60.5769 44.0359ZM67.1652 42.598V50.5065H68.9952V42.598H67.1652ZM66.7991 40.8006C66.7991 41.5195 67.3482 42.0588 68.0802 42.0588C68.8122 42.0588 69.3612 41.5195 69.3612 40.8006C69.3612 40.0816 68.8122 39.5424 68.0802 39.5424C67.3482 39.7222 66.7991 40.2614 66.7991 40.8006ZM71.3743 50.6862H73.2044V46.732C73.2044 44.2156 74.1194 44.0359 74.8514 44.0359C75.5835 44.0359 76.3155 44.0359 76.3155 46.1927V50.6862H78.1456V45.8333C78.1456 44.5751 77.9625 44.0359 77.5965 43.6764C77.4135 43.3169 76.6815 42.598 75.2174 42.598C74.6684 42.598 73.7534 42.598 73.0214 43.4967V42.7777H71.1913V50.6862H71.3743ZM86.7469 43.4967C86.0148 42.598 85.0998 42.4182 84.3678 42.4182C82.1717 42.4182 80.3416 44.0359 80.3416 46.5522C80.3416 48.7091 81.8057 50.866 84.3678 50.866C84.9168 50.866 86.0148 50.6862 86.7469 49.7875V50.866C86.7469 51.5849 86.7469 53.3823 84.7338 53.3823C83.4527 53.3823 82.5377 52.4836 82.5377 51.2254H80.7076C80.5246 53.562 82.3547 55.1797 84.7338 55.1797C86.1978 55.1797 87.4789 54.4607 88.0279 53.7418C88.7599 52.8431 88.7599 51.7646 88.7599 50.6862V42.9575H86.9299V43.4967H86.7469ZM84.5508 44.0359C85.8318 44.0359 86.9299 44.9346 86.9299 46.5522C86.9299 48.1699 85.8318 49.0686 84.5508 49.0686C83.0867 49.0686 82.3547 47.9901 82.3547 46.5522C82.3547 45.2941 83.0867 44.0359 84.5508 44.0359Z" fill="white"/>
<path d="M95.3464 36.3071H0V37.5653H95.3464V36.3071Z" fill="white"/>
<path fill-rule="evenodd" clip-rule="evenodd" d="M97.7227 37.9248H99.9187L98.8207 34.8693L97.7227 37.9248Z" fill="white"/>
<path fill-rule="evenodd" clip-rule="evenodd" d="M102.482 27.6797C97.3576 27.6797 93.1484 31.8137 93.1484 36.8464C93.1484 41.879 97.3576 46.013 102.482 46.013C107.606 46.013 111.815 41.879 111.815 36.8464C111.998 31.8137 107.789 27.6797 102.482 27.6797ZM100.652 40.2614L100.103 38.8235H97.3576L96.9916 40.2614H95.7105L98.2726 33.4313H99.5537L102.116 40.2614H100.652ZM108.704 40.2614H107.789V39.3627C107.423 40.0817 106.691 40.4411 105.593 40.4411C103.946 40.4411 102.299 39.5424 102.299 37.0261C102.299 33.7908 104.495 33.2516 105.593 33.2516C107.972 33.2516 108.521 34.5098 108.521 35.5882H107.24C107.24 35.049 106.874 34.33 105.593 34.33C103.763 34.33 103.58 35.9477 103.58 37.0261C103.58 39.0032 104.861 39.5424 105.776 39.5424C106.325 39.5424 107.606 39.183 107.606 37.745H105.959V36.6666H108.704V40.2614Z" fill="white"/>
<path fill-rule="evenodd" clip-rule="evenodd" d="M57.8303 0.179729C58.0133 -0.179749 58.3793 0.179729 58.3793 0.179729L61.4904 0.359467C61.4904 0.179729 61.6734 -9.98378e-06 61.8564 -0.179749C62.2224 -9.98378e-06 62.2224 -9.96888e-06 62.4054 0.359467V0.539206C63.1375 0.718944 64.0525 0.179729 64.6015 1.07842V1.25816L64.4185 1.4379C64.4185 1.4379 64.4185 1.79738 64.0525 1.97711C63.3205 1.79738 62.5884 1.79738 61.8564 1.79738C61.6734 2.15685 61.4904 2.51633 61.3074 2.87581C66.6146 2.33659 71.5558 2.15685 77.046 2.87581L77.412 3.59476C77.046 4.13398 76.1309 4.67319 75.3989 4.49345H75.2159V4.31371C75.2159 4.13398 75.3989 3.95424 75.3989 3.7745C73.5688 3.23528 71.5558 3.59476 69.7257 3.41502C67.5296 3.41502 65.3335 3.41502 63.1375 3.7745H62.9545C61.8564 3.7745 60.3924 3.59476 60.3924 4.85293C60.2094 5.39215 59.8433 5.93136 59.4773 6.47058C59.1113 7.36927 58.7453 8.08822 58.3793 8.80718C58.3793 8.98692 58.1963 9.16666 58.1963 9.16666L58.7453 9.52613H58.0133C57.8303 9.88561 58.7453 10.0653 58.1963 10.7843C58.0133 10.964 57.6473 10.7843 57.6473 11.1438V11.3235C57.0982 11.683 56.9152 10.7843 56.5492 11.3235C48.4969 12.4019 40.2616 11.683 32.2094 11.8627L30.1963 12.9412C29.8303 12.9412 29.6473 12.4019 30.0133 12.2222C30.1963 12.2222 30.3793 12.0425 30.5623 12.0425C30.5623 12.0425 30.5623 12.0425 30.3793 12.0425C28.5492 12.4019 26.9022 11.8627 25.6211 12.5817C25.0721 12.9412 25.0721 12.4019 24.8891 12.2222C23.608 12.2222 21.778 12.2222 20.6799 11.5033C20.6799 11.8627 20.1309 11.8627 19.7649 12.0425C19.3989 12.0425 19.0329 11.8627 19.0329 11.5033V11.3235H19.2159C19.9479 10.964 20.1309 9.16666 21.229 9.70587C25.9871 6.83005 31.4773 5.03267 36.6015 3.05555C36.7845 3.05555 36.9675 3.05555 37.1505 2.87581C34.5884 3.23528 32.0264 3.7745 29.4643 4.31371H29.2813V4.13398C28.7322 3.23528 30.0133 3.23528 30.3793 3.23528C37.3335 1.97711 44.2878 0.898683 51.242 0.359467C52.1571 0.179729 53.2551 0.359467 54.1701 -9.98378e-06C54.3531 -9.98378e-06 54.5362 -9.98378e-06 54.7192 -9.98378e-06L57.8303 0.179729ZM5.67341 30.3758L5.85641 30.0163C5.4904 29.2974 4.94138 28.7582 4.57537 27.8595V28.0392V28.3987V28.5784V29.4771L4.39236 28.7582L4.20935 28.9379H3.84334V28.7582C4.02635 28.0392 4.20935 27.3202 3.84334 26.6013L1.46426 26.781C1.28125 26.6013 1.28125 26.6013 1.28125 26.2418V26.0621H1.46426C7.32047 25.1634 12.9937 25.1634 18.8499 25.7026H19.0329C20.6799 25.7026 22.144 26.0621 23.7911 26.0621C28.9152 26.0621 34.2224 26.4216 39.1636 25.7026C39.1636 25.5229 39.5296 25.3431 39.7126 25.3431C40.2616 25.3431 40.0786 25.8823 40.2616 26.0621V26.2418C40.6277 26.4216 40.8107 26.781 40.9937 26.9608C41.7257 28.2189 42.2747 29.6569 43.3728 30.5555C43.7388 31.4542 43.0067 31.2745 42.8237 31.4542L42.6407 31.634L42.4577 31.4542C41.5427 30.5555 40.9937 29.4771 40.4447 28.3987C40.4447 29.4771 40.4447 30.3758 40.6277 31.4542V31.634H40.4447C40.0786 31.8137 39.8956 31.9935 39.5296 31.634H39.3466V31.4542C39.1636 31.0948 38.9806 30.7353 38.7976 30.1961C38.4316 29.1176 38.2486 27.5 38.6146 26.4216C37.3335 26.4216 35.6865 26.4216 34.4054 26.6013C31.6603 26.6013 28.9152 26.781 26.1701 26.6013C25.8041 26.781 25.2551 26.6013 25.0721 26.6013C22.693 26.6013 20.3139 26.4216 17.9348 26.0621L18.1179 26.2418L17.9348 26.4216C18.3009 26.9608 18.3009 27.5 18.3009 27.6797V27.8595C18.3009 27.8595 18.3009 28.0392 18.1179 28.0392H17.9348L17.7518 27.8595C17.5688 28.0392 17.3858 28.2189 17.2028 28.5784L17.7518 28.2189L17.9348 28.3987L17.7518 28.5784C16.8368 29.6569 16.2878 31.0948 15.3728 31.9935C15.1897 31.9935 14.8237 31.9935 14.8237 31.634C14.8237 31.0948 15.1897 30.5555 15.5558 30.1961C16.1048 28.9379 16.8368 27.6797 17.5688 26.6013C15.9218 26.4216 14.0917 26.2418 12.2616 26.2418C10.2486 26.4216 8.2355 26.2418 6.22243 26.4216C6.40543 26.4216 6.58844 26.781 6.77145 26.781C6.95445 27.1405 7.32047 27.5 7.32047 27.8595C7.86949 28.5784 8.2355 29.4771 8.60151 30.1961C8.96752 30.3758 9.33354 30.7353 9.33354 31.0948C8.96753 31.634 8.60151 31.0948 8.41851 31.0948H8.2355V30.915C7.68648 30.0163 7.32047 28.9379 6.77145 28.0392C6.77145 28.7582 6.77145 29.6569 7.32047 30.0163C7.32047 30.3758 7.50347 30.7353 7.32047 31.0948V31.2745L6.77145 31.0948C6.58844 30.5555 6.22243 30.1961 6.03942 29.8366L5.67341 30.3758ZM5.85641 26.2418C5.4904 26.2418 5.30739 26.2418 4.94138 26.2418C4.94138 27.1405 5.30739 27.8595 5.85641 28.7582C6.03942 27.8595 5.4904 27.1405 5.85641 26.2418ZM38.4316 2.69607L38.6146 2.87581V3.05555C38.4316 3.59476 37.6996 4.13398 36.9675 4.13398H36.7845V3.7745C32.5754 5.39215 28.3662 6.65032 24.3401 8.62744C24.3401 8.98692 24.1571 8.98692 23.9741 8.98692C23.059 9.52613 21.961 10.0653 21.229 10.7843C21.595 11.3235 22.144 11.1438 22.693 11.3235C23.608 11.683 24.7061 11.3235 25.8041 11.5033C36.2355 5.57189 48.6799 3.41502 60.3924 1.25816C60.0264 1.25816 59.6603 1.07842 59.2943 1.07842C56.7322 0.718944 54.1701 0.898683 51.6081 1.07842C51.242 1.07842 50.876 1.25816 50.51 1.07842C46.4839 1.4379 42.4577 1.97711 38.4316 2.69607ZM85.4643 10.2451C85.4643 10.0653 85.4643 9.88561 85.2812 9.88561C85.0982 10.0653 84.7322 9.88561 84.5492 9.88561H84.3662V9.70587C84.3662 9.52613 84.1832 9.34639 84.3662 9.16666C84.7322 8.62744 85.2813 9.16666 85.4643 8.98692L85.6473 8.80718L85.8303 8.98692C86.0133 9.16666 86.3793 9.34639 86.5623 9.52613C87.1113 9.52613 87.2943 10.0653 87.4773 10.4248C87.4773 10.964 87.1113 10.964 86.7453 10.964C82.5362 11.1438 78.327 10.7843 74.1179 10.964C74.1179 11.8627 74.1179 12.7614 73.9349 13.6601C74.1179 13.8399 73.9349 14.0196 73.9349 14.0196L74.3009 14.3791H74.1179C74.3009 14.9183 74.1179 15.4575 74.1179 15.9967C74.3009 16.8954 74.1179 17.7941 74.3009 18.6928V18.8725C73.7518 19.232 73.3858 18.6928 73.3858 18.1536L73.5688 17.9738C73.5688 15.9967 73.5688 13.8399 73.7518 11.8627C73.5688 11.683 73.5688 11.5033 73.5688 11.3235C70.4577 11.5033 67.5296 11.683 64.6015 12.5817C64.6015 12.9412 64.0525 12.9412 63.8695 12.7614V12.2222H64.0525C66.7976 10.7843 70.0917 10.7843 73.3858 10.4248C73.3858 10.0653 73.0198 9.70587 73.2028 9.34639C72.8368 8.80718 73.0198 8.08822 72.6538 7.54901C72.2878 6.83005 72.2878 6.29084 71.9218 5.57188C71.7388 5.03267 71.1898 4.85293 71.3728 4.13398V3.95424V4.13398C72.4708 4.85293 72.6538 6.65032 73.3858 7.72875C73.3858 8.4477 73.9349 9.16666 73.9349 10.0653C74.1179 10.2451 73.9349 10.2451 73.9349 10.4248C77.412 10.6046 80.7061 10.4248 84.1832 10.4248C84.3662 10.6046 84.5492 10.4248 84.7322 10.4248C85.0982 10.2451 85.2813 10.2451 85.4643 10.2451ZM85.2812 17.7941C85.6473 17.6144 86.0133 17.0752 86.5623 17.4346C86.9283 18.1536 86.0133 18.3333 86.0133 18.5131V18.6928H85.8303C85.4643 18.6928 85.6473 19.0523 85.6473 19.4118C86.0133 19.232 86.1963 19.0523 86.5623 19.0523H86.7453V19.232C86.7453 19.4118 86.9283 19.5915 86.9283 19.951V20.1307H86.7453C86.3793 20.3104 86.0133 20.6699 85.6473 20.8497V21.0294C86.1963 20.8497 86.7453 20.6699 87.1113 20.4902H87.2943V20.6699C87.4773 20.8497 88.0264 21.2091 87.4773 21.5686C86.7453 21.9281 86.0133 22.2876 85.6473 23.0065C85.4643 24.085 85.4643 25.1634 85.0983 26.2418L85.2812 26.4216L85.0983 26.6013C84.9152 26.781 84.9152 26.9608 84.9152 27.1405C84.9152 27.3202 84.9152 27.5 84.9152 27.5C85.2813 27.6797 85.0983 28.2189 85.0983 28.3987C84.5492 29.6569 83.2682 31.0948 81.9871 31.634H81.8041H81.6211C81.4381 31.4542 81.4381 31.2745 81.4381 31.0948V30.915C81.9871 30.5555 82.5362 30.1961 82.9022 29.6569C82.3531 30.0163 81.8041 30.0163 81.0721 30.0163C79.9741 30.0163 79.608 28.9379 79.242 28.0392C78.327 28.7582 77.412 29.4771 77.046 30.3758L76.863 30.5555V30.7353L76.4969 30.915L76.3139 30.7353H76.1309V30.5555C76.1309 30.1961 75.3989 30.1961 75.5819 29.6569C75.3989 29.6569 75.3989 29.8366 75.2159 29.8366L74.4839 30.7353H74.3009C73.0198 30.0163 73.0198 28.2189 72.8368 27.1405C72.8368 26.781 73.0198 26.4216 72.8368 26.2418C72.6538 26.4216 72.2878 26.2418 72.1048 26.4216H71.9218L71.7388 26.2418C67.5296 26.2418 63.3205 26.6013 59.2943 26.781H59.1113C58.9283 26.6013 58.5623 26.4216 58.9283 26.0621C58.5623 26.2418 58.3793 26.4216 58.3793 26.9608C58.0133 28.3987 57.0982 29.4771 56.7322 30.915C56.3662 31.9935 55.2682 33.2516 54.3531 33.7908C53.8041 33.7908 52.8891 33.7908 52.7061 32.8921C52.7061 32.3529 51.6081 33.0719 51.242 32.5327C49.778 31.9935 49.595 30.7353 48.4969 30.0163H48.3139V29.8366C48.4969 29.4771 48.1309 29.2974 47.9479 29.1176L47.5819 28.7582H47.7649C47.3989 27.8595 47.0329 26.781 47.0329 25.8823V25.7026C47.0329 24.4444 48.1309 23.5457 48.863 22.4673C50.51 19.7712 52.5231 17.7941 55.6342 16.8954C57.6473 16.8954 58.7453 18.6928 59.4773 20.3104C59.8433 21.0294 59.4773 21.7484 59.6603 22.4673L60.0263 23.366L59.6603 23.0065C59.4773 23.7255 59.2943 24.4444 59.1113 24.9836C59.6603 24.9836 60.3924 24.6242 60.7584 24.4444C66.2486 23.366 71.7388 23.0065 77.412 22.647C77.778 22.4673 78.144 22.2876 78.51 21.9281H78.693C78.876 22.1078 79.242 22.1078 79.242 22.4673C79.242 22.1078 79.242 21.9281 79.425 21.5686C80.1571 19.7712 80.1571 17.6144 81.6211 16.1765C82.3531 15.9967 83.8172 15.817 84.1832 16.7157C84.7322 16.8954 85.2812 17.2549 85.2812 17.7941ZM79.425 22.2876C79.242 22.4673 79.242 22.4673 79.425 22.2876C79.242 22.4673 79.425 22.4673 79.425 22.2876ZM4.20935 16.7157C5.4904 17.0752 6.77145 17.6144 7.86949 18.1536C8.41851 17.9738 8.78452 17.4346 9.33354 17.6144L9.51654 17.7941C9.69955 17.4346 9.88256 17.2549 10.2486 17.2549H10.4316V17.4346C10.7976 18.3333 9.88256 19.0523 9.51654 19.7712C9.69955 19.951 9.51654 19.951 9.51654 20.1307C9.15053 20.3104 8.96753 20.1307 8.96753 19.951C8.78452 20.1307 8.41851 20.1307 8.41851 20.3104C8.2355 20.4902 8.05249 20.4902 7.86949 20.4902C7.13746 19.7712 8.41851 19.232 7.86949 19.0523C6.40543 18.3333 4.57537 17.6144 2.92831 17.4346H2.7453C2.7453 17.2549 2.5623 17.2549 2.5623 16.8954C2.7453 16.5359 3.11132 16.7157 3.29432 16.7157V16.5359H4.20935V16.7157ZM38.2486 18.5131C36.4185 18.6928 34.2224 18.6928 32.3924 19.232C32.2094 19.5915 31.6603 19.5915 31.2943 19.4118C30.7453 19.5915 30.5623 21.3889 29.4643 20.4902C28.9152 20.6699 28.9152 20.1307 28.9152 19.7712V19.5915V19.4118C29.4643 18.8725 30.0133 18.5131 30.5623 18.1536C30.9283 17.6144 32.0264 17.4346 32.3924 17.6144L32.5754 17.9738C34.7714 17.7941 36.9675 17.4346 39.1636 17.0752H39.3466C39.7126 17.4346 40.6277 16.3562 41.1767 17.0752C41.3597 17.2549 41.3597 17.4346 41.3597 17.6144V17.7941H41.1767C39.1636 18.1536 38.2486 19.7712 36.7845 20.8497C36.4185 20.8497 36.4185 20.4902 36.4185 20.1307V19.951C37.1505 19.951 37.6996 19.232 38.2486 18.5131ZM17.7518 21.5686C17.9348 21.7484 18.1179 21.9281 17.7518 22.1078C17.3858 22.4673 17.0198 22.1078 16.8368 22.2876H16.6538C16.2878 22.1078 15.5558 22.8268 15.1897 22.1078V21.9281H15.3728C16.1048 21.5686 20.1309 19.951 20.863 20.4902L21.229 20.6699H20.863C19.5819 21.0294 18.6669 21.3889 17.7518 21.5686ZM45.9348 6.1111C50.693 4.67319 55.2682 3.59476 60.3924 3.05555C60.5754 2.69607 60.7584 2.33659 60.7584 1.97711C60.0264 1.97711 59.2943 1.97711 58.7453 2.33659H58.5623V2.15685C58.5623 2.15685 58.3793 2.15685 58.1963 2.15685C58.1963 2.33659 58.1963 2.51633 58.0133 2.69607C53.8041 3.7745 49.961 4.85293 45.9348 6.1111ZM35.3205 9.88561C38.4316 7.90849 43.5558 6.47058 47.0329 5.21241C47.2159 5.21241 47.3989 4.67319 47.5819 4.85293C47.7649 4.67319 47.9479 4.67319 48.1309 4.67319C41.1767 6.29084 34.0394 8.26796 27.6342 11.5033C28.3662 11.5033 29.0982 11.5033 29.8303 11.5033C32.0264 12.0425 33.3074 10.0653 35.3205 9.88561ZM56.9152 10.2451C57.6473 8.08822 58.7453 6.1111 59.6603 3.95424C50.693 5.03267 42.0917 7.90849 33.8564 11.3235C36.0525 11.3235 38.4316 11.3235 40.6277 11.3235H40.8107H42.2747C43.7388 11.3235 45.3858 11.5033 46.8499 11.3235H47.0329C50.51 11.1438 53.8041 11.5033 56.9152 10.2451ZM80.1571 22.4673C80.8891 22.647 81.2551 21.9281 81.8041 21.5686C82.3531 20.1307 83.8172 19.5915 84.7322 18.5131C84.5492 18.1536 84.1832 17.9738 84.1832 17.4346C84.0002 17.2549 83.8172 17.0752 83.6342 16.8954H83.4512C83.2682 16.7157 82.7192 16.8954 82.3531 16.8954C82.1701 17.2549 81.9871 17.6144 81.8041 17.7941C80.8891 19.232 80.5231 20.8497 80.1571 22.4673ZM54.9022 21.2091C53.4381 21.3889 51.9741 21.7484 51.242 23.0065C51.242 23.5457 50.51 24.085 50.693 24.4444V24.6242H50.51C50.327 24.8039 50.51 25.1634 49.961 24.9836H49.778V24.8039C49.595 23.9052 50.144 22.8268 50.51 22.1078C49.961 22.2876 49.412 22.4673 49.046 22.8268C48.8629 23.1863 48.3139 23.5457 48.4969 23.9052L48.6799 24.085H48.4969C48.3139 24.085 48.6799 24.8039 48.1309 24.9836H47.9479V24.8039C47.7649 25.3431 47.9479 26.0621 48.1309 26.6013L48.3139 26.781V26.9608C48.3139 27.1405 48.3139 27.3202 48.4969 27.5C50.327 25.1634 52.3401 23.0065 54.9022 21.2091ZM57.4643 22.647C57.2812 22.4673 57.2812 22.4673 57.2812 22.2876L56.5492 22.647C55.8172 23.366 55.0852 24.085 54.3531 24.8039C55.2682 24.085 56.3662 23.366 57.4643 22.647ZM84.7322 23.366L80.7061 26.6013V27.1405C80.5231 27.3202 80.5231 27.5 80.3401 27.5C80.3401 28.0392 80.7061 28.3987 80.8891 28.7582C81.4381 29.1176 82.1701 28.7582 82.7192 28.5784C83.8172 28.2189 84.0002 26.781 84.3662 25.7026C84.3662 25.1634 84.7322 24.2647 84.7322 23.366ZM52.5231 25.5229C52.3401 25.7026 52.1571 25.8823 52.1571 25.8823C51.425 26.6013 50.51 27.3202 50.51 28.3987C50.876 28.7582 51.242 28.9379 51.6081 29.1176C51.6081 28.9379 51.7911 28.7582 51.9741 28.5784C52.5231 27.6797 53.2551 26.9608 53.8041 26.2418C53.2551 26.781 52.7061 27.3202 52.1571 27.8595C51.9741 27.8595 51.6081 28.0392 51.6081 28.2189C51.242 28.3987 51.242 28.2189 51.059 28.0392C50.693 27.6797 51.059 27.3202 51.059 26.9608C51.425 26.6013 51.9741 26.0621 52.5231 25.5229ZM79.9741 25.1634H79.7911V25.3431C79.7911 25.3431 79.9741 25.3431 79.9741 25.1634ZM55.0852 29.2974C56.1832 27.8595 56.7322 26.0621 57.0982 24.4444L56.3662 24.9836C55.4512 25.8823 54.7192 26.781 53.9871 27.6797L54.7192 27.3202V27.5C54.9022 28.0392 54.3531 28.3987 54.1701 28.7582C53.9871 28.9379 53.4381 29.2974 53.0721 29.4771C53.8041 29.4771 54.3531 29.2974 55.0852 29.2974ZM51.6081 31.0948C52.5231 31.0948 53.4381 30.915 54.1701 30.1961C53.6211 30.1961 52.8891 30.1961 52.5231 30.1961C51.425 30.0163 50.327 29.6569 49.778 28.9379L49.595 29.1176C50.144 30.0163 50.876 30.915 51.6081 31.0948ZM55.2682 31.2745C54.9022 31.4542 54.3531 31.634 53.8041 31.8137C53.8041 31.8137 53.8041 31.9935 53.9871 31.9935C54.5362 31.9935 54.9022 31.8137 55.2682 31.2745ZM53.8041 31.8137C53.6211 31.8137 53.6211 31.8137 53.8041 31.8137C53.6211 31.8137 53.6211 31.8137 53.8041 31.8137C53.6211 31.8137 53.8041 31.8137 53.8041 31.8137Z" fill="white"/>
</g>
<defs>
<clipPath id="clip0">
<rect width="112" height="55" fill="white"/>
</clipPath>
</defs>
</svg>
