<svg width="78" height="38" viewBox="0 0 78 38" fill="none" xmlns="http://www.w3.org/2000/svg">
<g clip-path="url(#clip0)">
<path d="M4.8436 30.0522C4.33379 29.4313 3.56909 29.3071 3.18673 29.3071C1.65732 29.3071 0.382812 30.4248 0.382812 32.1633C0.382812 33.6535 1.40242 35.1437 3.18673 35.1437C3.56909 35.1437 4.33379 35.0195 4.8436 34.3986V35.0195H6.11811V29.5555H4.8436V30.0522ZM3.31418 30.4248C4.20634 30.4248 4.97105 31.0457 4.97105 32.1633C4.97105 33.281 4.20634 33.9019 3.31418 33.9019C2.42203 33.9019 1.78477 33.1568 1.78477 32.1633C1.78477 31.294 2.42203 30.4248 3.31418 30.4248ZM7.90242 29.4313V32.6601C7.90242 33.4052 8.02987 33.9019 8.53967 34.5228C9.04948 35.0195 9.81419 35.2679 10.324 35.2679C10.9612 35.2679 11.5985 35.0195 12.1083 34.5228C12.6181 34.0261 12.7456 33.4052 12.7456 32.6601V29.4313H11.471V32.5359C11.471 32.9084 11.471 33.281 11.2161 33.5293C11.0887 33.7777 10.7063 33.9019 10.324 33.9019C9.94164 33.9019 9.68673 33.7777 9.43183 33.5293C9.17693 33.281 9.17693 32.9084 9.17693 32.5359V29.4313H7.90242ZM16.6965 30.6731V29.5555H15.6769V27.5686H14.4024V29.5555H13.8926V30.6731H14.4024V35.0195H15.6769V30.6731H16.6965ZM20.3926 29.3071C18.7358 29.3071 17.3338 30.5489 17.3338 32.1633C17.3338 33.9019 18.6083 35.1437 20.3926 35.1437C22.0495 35.1437 23.4514 33.9019 23.4514 32.1633C23.324 30.5489 22.0495 29.3071 20.3926 29.3071ZM20.3926 34.0261C19.373 34.0261 18.7358 33.281 18.7358 32.2875C18.7358 31.0457 19.6279 30.5489 20.3926 30.5489C21.2848 30.5489 22.0495 31.0457 22.0495 32.2875C22.0495 33.281 21.4122 34.0261 20.3926 34.0261ZM27.1475 30.6731V29.5555H26.1279V27.5686H24.8534V29.5555H24.2161V30.6731H24.726V35.0195H26.0005V30.6731H27.1475ZM28.0397 35.0195H29.3142V32.1633C29.3142 31.7908 29.3142 31.294 29.5691 31.0457C29.6965 30.7973 29.9514 30.6731 30.4612 30.6731C30.7161 30.6731 30.8436 30.7973 31.226 30.9215L31.8632 29.8039C31.4809 29.5555 31.0985 29.4313 30.8436 29.4313C30.3338 29.4313 29.9514 29.5555 29.5691 30.0522V29.5555H28.2946V35.0195H28.0397ZM36.5789 30.0522C36.0691 29.4313 35.3044 29.3071 34.922 29.3071C33.3926 29.3071 32.1181 30.4248 32.1181 32.1633C32.1181 33.6535 33.1377 35.1437 34.922 35.1437C35.3044 35.1437 36.0691 35.0195 36.5789 34.3986V35.0195H37.8534V29.5555H36.5789V30.0522ZM35.0495 30.4248C35.9416 30.4248 36.7063 31.0457 36.7063 32.1633C36.7063 33.281 35.9416 33.9019 35.0495 33.9019C34.1573 33.9019 33.5201 33.1568 33.5201 32.1633C33.5201 31.294 34.1573 30.4248 35.0495 30.4248ZM43.7161 30.0522C43.2063 29.4313 42.4416 29.3071 42.0593 29.3071C40.5299 29.3071 39.2554 30.4248 39.2554 32.1633C39.2554 33.6535 40.275 35.1437 42.0593 35.1437C42.4416 35.1437 43.2063 35.0195 43.7161 34.3986V35.0195H44.9907V27.4444H43.7161V30.0522ZM42.1867 30.4248C43.0789 30.4248 43.8436 31.0457 43.8436 32.1633C43.8436 33.281 43.0789 33.9019 42.1867 33.9019C41.2946 33.9019 40.6573 33.1568 40.6573 32.1633C40.6573 31.294 41.2946 30.4248 42.1867 30.4248ZM46.775 29.4313V34.8954H48.0495V29.4313H46.775ZM46.5201 28.1895C46.5201 28.6862 46.9024 29.0588 47.4122 29.0588C47.922 29.0588 48.3044 28.6862 48.3044 28.1895C48.3044 27.6927 47.922 27.3202 47.4122 27.3202C46.9024 27.4444 46.5201 27.8169 46.5201 28.1895ZM49.7063 35.0195H50.9809V32.2875C50.9809 30.5489 51.6181 30.4248 52.1279 30.4248C52.6377 30.4248 53.1475 30.4248 53.1475 31.915V35.0195H54.422V31.6666C54.422 30.7973 54.2946 30.4248 54.0397 30.1764C53.9122 29.928 53.4024 29.4313 52.3828 29.4313C52.0005 29.4313 51.3632 29.4313 50.8534 30.0522V29.5555H49.5789V35.0195H49.7063ZM60.4122 30.0522C59.9024 29.4313 59.2652 29.3071 58.7554 29.3071C57.2259 29.3071 55.9514 30.4248 55.9514 32.1633C55.9514 33.6535 56.971 35.1437 58.7554 35.1437C59.1377 35.1437 59.9024 35.0195 60.4122 34.3986V35.1437C60.4122 35.6405 60.4122 36.8823 59.0103 36.8823C58.1181 36.8823 57.4809 36.2614 57.4809 35.3921H56.2063C56.0789 37.0065 57.3534 38.1241 59.0103 38.1241C60.0299 38.1241 60.922 37.6274 61.3044 37.1306C61.8142 36.5097 61.8142 35.7646 61.8142 35.0195V29.6797H60.5397V30.0522H60.4122ZM58.8828 30.4248C59.775 30.4248 60.5397 31.0457 60.5397 32.1633C60.5397 33.281 59.775 33.9019 58.8828 33.9019C57.8632 33.9019 57.3534 33.1568 57.3534 32.1633C57.3534 31.294 57.8632 30.4248 58.8828 30.4248Z" fill="white"/>
<path d="M66.402 25.0849H0V25.9542H66.402V25.0849Z" fill="white"/>
<path fill-rule="evenodd" clip-rule="evenodd" d="M68.0586 26.2026H69.588L68.8233 24.0915L68.0586 26.2026Z" fill="white"/>
<path fill-rule="evenodd" clip-rule="evenodd" d="M71.3711 19.1241C67.8025 19.1241 64.8711 21.9804 64.8711 25.4575C64.8711 28.9346 67.8025 31.7908 71.3711 31.7908C74.9397 31.7908 77.8711 28.9346 77.8711 25.4575C77.9985 21.9804 75.0672 19.1241 71.3711 19.1241ZM70.0966 27.817L69.7142 26.8235H67.8025L67.5476 27.817H66.6554L68.4397 23.098H69.3319L71.1162 27.817H70.0966ZM75.7044 27.817H75.0672V27.196C74.8123 27.6928 74.3025 27.9411 73.5378 27.9411C72.3907 27.9411 71.2436 27.3202 71.2436 25.5817C71.2436 23.3464 72.7731 22.9738 73.5378 22.9738C75.1946 22.9738 75.577 23.8431 75.577 24.5882H74.6848C74.6848 24.2156 74.4299 23.7189 73.5378 23.7189C72.2632 23.7189 72.1358 24.8366 72.1358 25.5817C72.1358 26.9477 73.028 27.3202 73.6652 27.3202C74.0476 27.3202 74.9397 27.0719 74.9397 26.0784H73.7927V25.3333H75.7044V27.817Z" fill="white"/>
<path fill-rule="evenodd" clip-rule="evenodd" d="M40.273 0.123183C40.4004 -0.125183 40.6553 0.123183 40.6553 0.123183L42.822 0.247366C42.822 0.123183 42.9494 -0.00100009 43.0769 -0.125183C43.3318 -0.00100009 43.3318 -0.00100008 43.4592 0.247366V0.371549C43.9691 0.495732 44.6063 0.123183 44.9887 0.744098V0.868281L44.8612 0.992464C44.8612 0.992464 44.8612 1.24083 44.6063 1.36501C44.0965 1.24083 43.5867 1.24083 43.0769 1.24083C42.9494 1.4892 42.822 1.73756 42.6945 1.98593C46.3906 1.61338 49.8318 1.4892 53.6553 1.98593L53.9102 2.48266C53.6553 2.85521 53.0181 3.22776 52.5083 3.10357H52.3808V2.97939C52.3808 2.85521 52.5083 2.73103 52.5083 2.60684C51.2338 2.23429 49.8318 2.48266 48.5573 2.35848C47.0279 2.35848 45.4985 2.35848 43.9691 2.60684H43.8416C43.0769 2.60684 42.0573 2.48266 42.0573 3.35194C41.9298 3.72449 41.6749 4.09704 41.42 4.46959C41.1651 5.0905 40.9102 5.58724 40.6553 6.08397C40.6553 6.20815 40.5279 6.33233 40.5279 6.33233L40.9102 6.5807H40.4004C40.273 6.82907 40.9102 6.95325 40.5279 7.44998C40.4004 7.57416 40.1455 7.44998 40.1455 7.69835V7.82253C39.7632 8.0709 39.6357 7.44998 39.3808 7.82253C33.773 8.56763 28.0377 8.0709 22.4298 8.19508L21.0279 8.94018C20.773 8.94018 20.6455 8.56763 20.9004 8.44345C21.0279 8.44345 21.1553 8.31926 21.2828 8.31926C21.2828 8.31926 21.2828 8.31926 21.1553 8.31926C19.8808 8.56763 18.7338 8.19508 17.8416 8.69181C17.4593 8.94018 17.4593 8.56763 17.3318 8.44345C16.4396 8.44345 15.1651 8.44344 14.4004 7.94671C14.4004 8.19508 14.0181 8.19508 13.7632 8.31926C13.5083 8.31926 13.2534 8.19508 13.2534 7.94671V7.82253H13.3808C13.8906 7.57416 14.0181 6.33233 14.7828 6.70488C18.0965 4.71795 21.92 3.47612 25.4887 2.11011C25.6161 2.11011 25.7436 2.11011 25.871 1.98593C24.0867 2.23429 22.3024 2.60684 20.5181 2.97939H20.3906V2.85521C20.0083 2.23429 20.9004 2.23429 21.1553 2.23429C25.9985 1.36501 30.8416 0.619915 35.6847 0.247366C36.322 0.123183 37.0867 0.247366 37.724 -0.00100009C37.8514 -0.00100009 37.9789 -0.00100009 38.1063 -0.00100009L40.273 0.123183ZM3.94945 20.9859L4.0769 20.7376C3.822 20.2408 3.43964 19.8683 3.18474 19.2474V19.3716V19.6199V19.7441V20.365L3.05729 19.8683L2.92984 19.9925H2.67494V19.8683C2.80239 19.3715 2.92984 18.8748 2.67494 18.3781L1.01808 18.5023C0.890625 18.3781 0.890625 18.3781 0.890625 18.1297V18.0055H1.01808C5.09651 17.3846 9.04749 17.3846 13.1259 17.7572H13.2534C14.4004 17.7572 15.42 18.0055 16.5671 18.0055C20.1357 18.0055 23.8318 18.2539 27.273 17.7572C27.273 17.633 27.5279 17.5088 27.6553 17.5088C28.0377 17.5088 27.9102 17.8814 28.0377 18.0055V18.1297C28.2926 18.2539 28.42 18.5023 28.5475 18.6265C29.0573 19.4957 29.4396 20.4892 30.2043 21.1101C30.4593 21.731 29.9494 21.6068 29.822 21.731L29.6945 21.8552L29.5671 21.731C28.9298 21.1101 28.5475 20.365 28.1651 19.6199C28.1651 20.365 28.1651 20.9859 28.2926 21.731V21.8552H28.1651C27.9102 21.9794 27.7828 22.1036 27.5279 21.8552H27.4004V21.731C27.273 21.4827 27.1455 21.2343 27.0181 20.8617C26.7632 20.1166 26.6357 18.999 26.8906 18.2539C25.9985 18.2539 24.8514 18.2539 23.9592 18.3781C22.0475 18.3781 20.1357 18.5023 18.224 18.3781C17.9691 18.5023 17.5867 18.3781 17.4593 18.3781C15.8024 18.3781 14.1455 18.2539 12.4887 18.0055L12.6161 18.1297L12.4887 18.2539C12.7436 18.6265 12.7436 18.999 12.7436 19.1232V19.2474C12.7436 19.2474 12.7436 19.3716 12.6161 19.3716H12.4887L12.3612 19.2474C12.2338 19.3715 12.1063 19.4957 11.9789 19.7441L12.3612 19.4957L12.4887 19.6199L12.3612 19.7441C11.724 20.4892 11.3416 21.4827 10.7044 22.1036C10.5769 22.1036 10.322 22.1036 10.322 21.8552C10.322 21.4827 10.5769 21.1101 10.8318 20.8617C11.2142 19.9925 11.724 19.1232 12.2338 18.3781C11.0867 18.2539 9.81219 18.1297 8.53768 18.1297C7.13572 18.2539 5.73376 18.1297 4.3318 18.2539C4.45925 18.2539 4.5867 18.5023 4.71415 18.5023C4.84161 18.7506 5.09651 18.999 5.09651 19.2474C5.47886 19.7441 5.73376 20.365 5.98866 20.8617C6.24357 20.9859 6.49847 21.2343 6.49847 21.4827C6.24357 21.8552 5.98866 21.4827 5.86121 21.4827H5.73376V21.3585C5.35141 20.7376 5.09651 19.9925 4.71415 19.3716C4.71415 19.8683 4.71415 20.4892 5.09651 20.7376C5.09651 20.9859 5.22396 21.2343 5.09651 21.4827V21.6068L4.71415 21.4827C4.5867 21.1101 4.3318 20.8617 4.20435 20.6134L3.94945 20.9859ZM4.0769 18.1297C3.822 18.1297 3.69455 18.1297 3.43964 18.1297C3.43964 18.7506 3.69455 19.2474 4.0769 19.8683C4.20435 19.2474 3.822 18.7506 4.0769 18.1297ZM26.7632 1.86175L26.8906 1.98593V2.11011C26.7632 2.48266 26.2534 2.85521 25.7436 2.85521H25.6161V2.60684C22.6847 3.72449 19.7534 4.59377 16.9494 5.95978C16.9494 6.20815 16.822 6.20815 16.6945 6.20815C16.0573 6.5807 15.2926 6.95325 14.7828 7.44998C15.0377 7.82253 15.42 7.69835 15.8024 7.82253C16.4396 8.0709 17.2044 7.82253 17.9691 7.94671C25.2338 3.84867 33.9004 2.35848 42.0573 0.868281C41.8024 0.868281 41.5475 0.744098 41.2926 0.744098C39.5083 0.495732 37.724 0.619915 35.9396 0.744098C35.6847 0.744098 35.4298 0.868281 35.1749 0.744098C32.371 0.992464 29.5671 1.36501 26.7632 1.86175ZM59.5181 7.07743C59.5181 6.95325 59.5181 6.82907 59.3906 6.82907C59.2632 6.95325 59.0083 6.82907 58.8808 6.82907H58.7534V6.70488C58.7534 6.5807 58.6259 6.45652 58.7534 6.33233C59.0083 5.95978 59.3906 6.33233 59.5181 6.20815L59.6455 6.08397L59.773 6.20815C59.9004 6.33233 60.1553 6.45652 60.2828 6.5807C60.6651 6.5807 60.7926 6.95325 60.92 7.20161C60.92 7.57416 60.6651 7.57416 60.4102 7.57416C57.4789 7.69835 54.5475 7.44998 51.6161 7.57416C51.6161 8.19508 51.6161 8.81599 51.4887 9.43691C51.6161 9.56109 51.4887 9.68528 51.4887 9.68528L51.7436 9.93364H51.6161C51.7436 10.3062 51.6161 10.6787 51.6161 11.0513C51.7436 11.6722 51.6161 12.2931 51.7436 12.914V13.0382C51.3612 13.2866 51.1063 12.914 51.1063 12.5415L51.2338 12.4173C51.2338 11.0513 51.2338 9.56109 51.3612 8.19508C51.2338 8.0709 51.2338 7.94671 51.2338 7.82253C49.0671 7.94671 47.0279 8.0709 44.9887 8.69181C44.9887 8.94018 44.6063 8.94018 44.4789 8.81599V8.44345H44.6063C46.5181 7.44998 48.8122 7.44998 51.1063 7.20161C51.1063 6.95325 50.8514 6.70488 50.9789 6.45652C50.724 6.08397 50.8514 5.58723 50.5965 5.21469C50.3416 4.71795 50.3416 4.34541 50.0867 3.84867C49.9593 3.47612 49.5769 3.35194 49.7043 2.85521V2.73103V2.85521C50.4691 3.35194 50.5965 4.59377 51.1063 5.33887C51.1063 5.8356 51.4887 6.33233 51.4887 6.95325C51.6161 7.07743 51.4887 7.07743 51.4887 7.20161C53.9102 7.3258 56.2043 7.20161 58.6259 7.20161C58.7534 7.3258 58.8808 7.20161 59.0083 7.20161C59.2632 7.07743 59.3906 7.07743 59.5181 7.07743ZM59.3906 12.2931C59.6455 12.1689 59.9004 11.7964 60.2828 12.0448C60.5377 12.5415 59.9004 12.6657 59.9004 12.7899V12.914H59.773C59.5181 12.914 59.6455 13.1624 59.6455 13.4108C59.9004 13.2866 60.0279 13.1624 60.2828 13.1624H60.4102V13.2866C60.4102 13.4108 60.5377 13.5349 60.5377 13.7833V13.9075H60.4102C60.1553 14.0317 59.9004 14.28 59.6455 14.4042V14.5284C60.0279 14.4042 60.4102 14.28 60.6651 14.1559H60.7926V14.28C60.92 14.4042 61.3024 14.6526 60.92 14.901C60.4102 15.1493 59.9004 15.3977 59.6455 15.8944C59.5181 16.6395 59.5181 17.3846 59.2632 18.1297L59.3906 18.2539L59.2632 18.3781C59.1357 18.5023 59.1357 18.6265 59.1357 18.7506C59.1357 18.8748 59.1357 18.999 59.1357 18.999C59.3906 19.1232 59.2632 19.4957 59.2632 19.6199C58.8808 20.4892 57.9887 21.4827 57.0965 21.8552H56.9691H56.8416C56.7141 21.731 56.7142 21.6068 56.7142 21.4827V21.3585C57.0965 21.1101 57.4789 20.8617 57.7338 20.4892C57.3514 20.7376 56.9691 20.7376 56.4593 20.7376C55.6945 20.7376 55.4396 19.9925 55.1847 19.3716C54.5475 19.8683 53.9102 20.365 53.6553 20.9859L53.5279 21.1101V21.2343L53.273 21.3585L53.1455 21.2343H53.0181V21.1101C53.0181 20.8617 52.5083 20.8617 52.6357 20.4892C52.5083 20.4892 52.5083 20.6134 52.3808 20.6134L51.871 21.2343H51.7436C50.8514 20.7376 50.8514 19.4957 50.724 18.7506C50.724 18.5023 50.8514 18.2539 50.724 18.1297C50.5965 18.2539 50.3416 18.1297 50.2142 18.2539H50.0867L49.9593 18.1297C47.0279 18.1297 44.0965 18.3781 41.2926 18.5023H41.1651C41.0377 18.3781 40.7828 18.2539 41.0377 18.0055C40.7828 18.1297 40.6553 18.2539 40.6553 18.6265C40.4004 19.6199 39.7632 20.365 39.5083 21.3585C39.2534 22.1036 38.4887 22.9729 37.8514 23.3454C37.4691 23.3454 36.8318 23.3454 36.7043 22.7245C36.7043 22.3519 35.9396 22.8487 35.6847 22.4761C34.6651 22.1036 34.5377 21.2343 33.773 20.7376H33.6455V20.6134C33.773 20.365 33.5181 20.2408 33.3906 20.1166L33.1357 19.8683H33.2632C33.0083 19.2474 32.7534 18.5023 32.7534 17.8814V17.7572C32.7534 16.8879 33.5181 16.267 34.0279 15.5219C35.1749 13.6591 36.5769 12.2931 38.7436 11.6722C40.1455 11.6722 40.9102 12.914 41.42 14.0317C41.6749 14.5284 41.42 15.0251 41.5475 15.5219L41.8024 16.1428L41.5475 15.8944C41.42 16.3912 41.2926 16.8879 41.1651 17.2604C41.5475 17.2604 42.0573 17.0121 42.3122 16.8879C46.1357 16.1428 49.9593 15.8944 53.9102 15.6461C54.1651 15.5219 54.42 15.3977 54.6749 15.1493H54.8024C54.9298 15.2735 55.1847 15.2735 55.1847 15.5219C55.1847 15.2735 55.1847 15.1493 55.3122 14.901C55.822 13.6591 55.822 12.1689 56.8416 11.1755C57.3514 11.0513 58.371 10.9271 58.6259 11.548C59.0083 11.6722 59.3906 11.9206 59.3906 12.2931ZM55.3122 15.3977C55.1847 15.5219 55.1847 15.5219 55.3122 15.3977C55.1847 15.5219 55.3122 15.5219 55.3122 15.3977ZM2.92984 11.548C3.822 11.7964 4.71415 12.1689 5.47886 12.5415C5.86121 12.4173 6.11612 12.0448 6.49847 12.1689L6.62592 12.2931C6.75337 12.0448 6.88082 11.9206 7.13572 11.9206H7.26317V12.0448C7.51808 12.6657 6.88082 13.1624 6.62592 13.6591C6.75337 13.7833 6.62592 13.7833 6.62592 13.9075C6.37102 14.0317 6.24357 13.9075 6.24357 13.7833C6.11612 13.9075 5.86121 13.9075 5.86121 14.0317C5.73376 14.1559 5.60631 14.1559 5.47886 14.1559C4.96906 13.6591 5.86121 13.2866 5.47886 13.1624C4.45925 12.6657 3.18474 12.1689 2.03768 12.0448H1.91023C1.91023 11.9206 1.78278 11.9206 1.78278 11.6722C1.91023 11.4238 2.16513 11.548 2.29259 11.548V11.4238H2.92984V11.548ZM26.6357 12.7899C25.3612 12.914 23.8318 12.914 22.5573 13.2866C22.4298 13.5349 22.0475 13.5349 21.7926 13.4108C21.4102 13.5349 21.2828 14.7768 20.5181 14.1559C20.1357 14.28 20.1357 13.9075 20.1357 13.6591V13.5349V13.4108C20.5181 13.0382 20.9004 12.7899 21.2828 12.5415C21.5377 12.1689 22.3024 12.0448 22.5573 12.1689L22.6847 12.4173C24.2142 12.2931 25.7436 12.0448 27.273 11.7964H27.4004C27.6553 12.0448 28.2926 11.2997 28.6749 11.7964C28.8024 11.9206 28.8024 12.0448 28.8024 12.1689V12.2931H28.6749C27.273 12.5415 26.6357 13.6591 25.6161 14.4042C25.3612 14.4042 25.3612 14.1559 25.3612 13.9075V13.7833C25.871 13.7833 26.2534 13.2866 26.6357 12.7899ZM12.3612 14.901C12.4887 15.0251 12.6161 15.1493 12.3612 15.2735C12.1063 15.5219 11.8514 15.2735 11.724 15.3977H11.5965C11.3416 15.2735 10.8318 15.7702 10.5769 15.2735V15.1493H10.7044C11.2142 14.901 14.0181 13.7833 14.5279 14.1559L14.7828 14.28H14.5279C13.6357 14.5284 12.9985 14.7768 12.3612 14.901ZM31.9887 4.22122C35.3024 3.22776 38.4887 2.48266 42.0573 2.11011C42.1847 1.86175 42.3122 1.61338 42.3122 1.36501C41.8024 1.36501 41.2926 1.36501 40.9102 1.61338H40.7828V1.4892C40.7828 1.4892 40.6553 1.4892 40.5279 1.4892C40.5279 1.61338 40.5279 1.73756 40.4004 1.86175C37.4691 2.60684 34.7926 3.35194 31.9887 4.22122ZM24.5965 6.82907C26.7632 5.46305 30.3318 4.46959 32.7534 3.60031C32.8808 3.60031 33.0083 3.22776 33.1357 3.35194C33.2632 3.22776 33.3906 3.22776 33.5181 3.22776C28.6749 4.34541 23.7044 5.71142 19.2436 7.94671C19.7534 7.94671 20.2632 7.94671 20.773 7.94671C22.3024 8.31926 23.1945 6.95325 24.5965 6.82907ZM39.6357 7.07743C40.1455 5.58723 40.9102 4.22122 41.5475 2.73103C35.3024 3.47612 29.3122 5.46305 23.5769 7.82253C25.1063 7.82253 26.7632 7.82253 28.2926 7.82253H28.42H29.4396C30.4593 7.82253 31.6063 7.94671 32.6259 7.82253H32.7534C35.1749 7.69835 37.4691 7.94671 39.6357 7.07743ZM55.822 15.5219C56.3318 15.6461 56.5867 15.1493 56.9691 14.901C57.3514 13.9075 58.371 13.5349 59.0083 12.7899C58.8808 12.5415 58.6259 12.4173 58.6259 12.0448C58.4985 11.9206 58.371 11.7964 58.2436 11.6722H58.1161C57.9887 11.548 57.6063 11.6722 57.3514 11.6722C57.224 11.9206 57.0965 12.1689 56.9691 12.2931C56.3318 13.2866 56.0769 14.4042 55.822 15.5219ZM38.2338 14.6526C37.2142 14.7768 36.1945 15.0251 35.6847 15.8944C35.6847 16.267 35.1749 16.6395 35.3024 16.8879V17.0121H35.1749C35.0475 17.1363 35.1749 17.3846 34.7926 17.2604H34.6651V17.1363C34.5377 16.5153 34.92 15.7702 35.1749 15.2735C34.7926 15.3977 34.4102 15.5219 34.1553 15.7702C34.0279 16.0186 33.6455 16.267 33.773 16.5153L33.9004 16.6395H33.773C33.6455 16.6395 33.9004 17.1363 33.5181 17.2604H33.3906V17.1363C33.2632 17.5088 33.3906 18.0055 33.5181 18.3781L33.6455 18.5023V18.6265C33.6455 18.7506 33.6455 18.8748 33.773 18.999C35.0475 17.3846 36.4494 15.8944 38.2338 14.6526ZM40.0181 15.6461C39.8906 15.5219 39.8906 15.5219 39.8906 15.3977L39.3808 15.6461C38.871 16.1428 38.3612 16.6395 37.8514 17.1363C38.4887 16.6395 39.2534 16.1428 40.0181 15.6461ZM59.0083 16.1428L56.2043 18.3781V18.7506C56.0769 18.8748 56.0769 18.999 55.9494 18.999C55.9494 19.3715 56.2043 19.6199 56.3318 19.8683C56.7142 20.1166 57.224 19.8683 57.6063 19.7441C58.371 19.4957 58.4985 18.5023 58.7534 17.7572C58.7534 17.3846 59.0083 16.7637 59.0083 16.1428ZM36.5769 17.633C36.4494 17.7572 36.322 17.8814 36.322 17.8814C35.8122 18.3781 35.1749 18.8748 35.1749 19.6199C35.4298 19.8683 35.6847 19.9925 35.9396 20.1166C35.9396 19.9925 36.0671 19.8683 36.1945 19.7441C36.5769 19.1232 37.0867 18.6265 37.4691 18.1297C37.0867 18.5023 36.7043 18.8748 36.322 19.2474C36.1945 19.2474 35.9396 19.3715 35.9396 19.4957C35.6847 19.6199 35.6847 19.4957 35.5573 19.3716C35.3024 19.1232 35.5573 18.8748 35.5573 18.6265C35.8122 18.3781 36.1945 18.0055 36.5769 17.633ZM55.6945 17.3846H55.5671V17.5088C55.5671 17.5088 55.6945 17.5088 55.6945 17.3846ZM38.3612 20.2408C39.1259 19.2474 39.5083 18.0055 39.7632 16.8879L39.2534 17.2604C38.6161 17.8814 38.1063 18.5023 37.5965 19.1232L38.1063 18.8748V18.999C38.2338 19.3715 37.8514 19.6199 37.724 19.8683C37.5965 19.9925 37.2142 20.2408 36.9593 20.365C37.4691 20.365 37.8514 20.2408 38.3612 20.2408ZM35.9396 21.4827C36.5769 21.4827 37.2142 21.3585 37.724 20.8617C37.3416 20.8617 36.8318 20.8617 36.5769 20.8617C35.8122 20.7376 35.0475 20.4892 34.6651 19.9925L34.5377 20.1166C34.92 20.7376 35.4298 21.3585 35.9396 21.4827ZM38.4887 21.6068C38.2338 21.731 37.8514 21.8552 37.4691 21.9794C37.4691 21.9794 37.4691 22.1036 37.5965 22.1036C37.9789 22.1036 38.2338 21.9794 38.4887 21.6068ZM37.4691 21.9794C37.3416 21.9794 37.3416 21.9794 37.4691 21.9794C37.3416 21.9794 37.3416 21.9794 37.4691 21.9794C37.3416 21.9794 37.4691 21.9794 37.4691 21.9794Z" fill="white"/>
</g>
<defs>
<clipPath id="clip0">
<rect width="78" height="38" fill="white"/>
</clipPath>
</defs>
</svg>
